<?xml version="1.0" encoding="UTF-8"?>
<svg width="21px" height="21px" viewBox="0 0 21 21" version="1.1" xmlns="http://www.w3.org/2000/svg" xmlns:xlink="http://www.w3.org/1999/xlink">
    <!-- Generator: Sketch 51.3 (57544) - http://www.bohemiancoding.com/sketch -->
    <title></title>
    <desc>Created with Sketch.</desc>
    <defs></defs>
    <g id="Design" stroke="none" stroke-width="1" fill="none" fill-rule="evenodd">
        <g id="Find-Us-/-Contact" transform="translate(-1070.000000, -973.000000)" fill="#000000">
            <g id="Box-style-2" transform="translate(213.000000, 932.000000)">
                <path d="M870.017873,49.8080236 C870.017873,47.8794498 869.013407,46.7276627 867.325905,46.7276627 C865.102688,46.7276627 862.718757,48.9374868 862.718757,52.5133839 C862.718757,54.508922 863.709829,55.6473162 865.450903,55.6473162 C868.14287,55.6473162 870.017873,52.5669554 870.017873,49.8080236 Z M877.571453,51.4285612 C877.571453,55.5937447 874.598235,57.1607109 872.053589,57.2410681 C871.879482,57.2410681 871.812518,57.254461 871.625017,57.254461 C870.794659,57.254461 870.138409,57.0133893 869.723229,56.5446387 C869.468765,56.2499955 869.321443,55.8749951 869.281265,55.4330303 C868.450907,56.4776744 867.004476,57.4955327 865.196438,57.4955327 C862.316971,57.4955327 860.669647,55.7142806 860.669647,52.607134 C860.669647,48.3348075 863.629472,44.8660534 867.245548,44.8660534 C868.812514,44.8660534 870.071444,45.535697 870.741088,46.6740913 L870.767874,46.4196267 L870.915195,45.6696258 C870.928588,45.5624828 871.022338,45.4285541 871.116088,45.4285541 L872.696447,45.4285541 C872.763412,45.4285541 872.830376,45.5223042 872.870555,45.5758757 C872.910733,45.6160543 872.924126,45.7231973 872.910733,45.7901616 L871.303588,54.0133857 C871.250017,54.2678503 871.236624,54.4687434 871.236624,54.6562436 C871.236624,55.3794588 871.45091,55.5267804 872.000018,55.5267804 C872.910733,55.4999946 875.857165,55.1249942 875.857165,51.4285612 C875.857165,46.2187336 872.495554,42.8571224 867.285727,42.8571224 C862.558042,42.8571224 858.714288,46.700877 858.714288,51.4285612 C858.714288,56.1562454 862.558042,60 867.285727,60 C869.254479,60 871.183053,59.3169635 872.70984,58.0714263 C872.89734,57.9107118 873.165198,57.9374975 873.312519,58.1249978 L873.861627,58.7812485 C873.928592,58.8749987 873.96877,58.9821416 873.955377,59.1026775 C873.941984,59.2098205 873.888413,59.3169635 873.794663,59.3973207 C871.973232,60.8839296 869.656265,61.7142878 867.285727,61.7142878 C861.620541,61.7142878 857,57.0937465 857,51.4285612 C857,45.7633759 861.620541,41.1428347 867.285727,41.1428347 C873.433055,41.1428347 877.571453,45.2812325 877.571453,51.4285612 Z" id=""></path>
            </g>
        </g>
    </g>
</svg>