<?xml version="1.0" encoding="UTF-8"?>
<svg width="488px" height="159px" viewBox="0 0 488 159" version="1.1" xmlns="http://www.w3.org/2000/svg" xmlns:xlink="http://www.w3.org/1999/xlink">
    <!-- Generator: Sketch 51.3 (57544) - http://www.bohemiancoding.com/sketch -->
    <title>Logo_slogo</title>
    <desc>Created with Sketch.</desc>
    <defs>
        <polygon id="path-1" points="0 0 488 0 488 68 0 68"></polygon>
    </defs>
    <g id="Design" stroke="none" stroke-width="1" fill="none" fill-rule="evenodd">
        <g id="Logo-Intro" transform="translate(-476.000000, -433.000000)">
            <g id="Logo_slogo" transform="translate(476.000000, 433.000000)">
                <mask id="mask-2" fill="white">
                    <use xlink:href="#path-1"></use>
                </mask>
                <g id="Clip-2"></g>
                <path d="M482.74578,4.74647209 L482.74578,13.3874854 L487.281352,13.3874854 L487.281352,22.1033937 L482.74578,22.1033937 L482.74578,51.4903284 C482.74578,55.1040132 482.931391,57.116817 483.307372,57.5334205 C483.683353,57.9453432 485.249149,58.1559854 488,58.1559854 L488,67.0076409 L481.146669,67.0076409 C477.282152,67.0076409 474.517023,66.848489 472.865561,66.5348661 C471.209339,66.2165623 469.757765,65.4863358 468.491803,64.3395057 C467.2306,63.1926757 466.445322,61.8820128 466.13597,60.407517 C465.831378,58.9283403 465.679082,55.4597646 465.679082,49.9971088 L465.679082,22.1033937 L462.004935,22.1033937 L462.004935,13.3874854 L465.679082,13.3874854 L465.679082,4.74647209 L482.74578,4.74647209 Z M452.86716,12.0440559 L452.219901,19.2854684 C454.685197,14.0989881 458.264158,11.3559579 462.947268,11.0516968 L462.947268,30.3886556 C459.825195,30.3886556 457.535992,30.8005782 456.0749,31.6337854 C454.609048,32.4576306 453.709549,33.6138225 453.371641,35.0883183 C453.033734,36.567495 452.86716,39.9705376 452.86716,45.3021271 L452.86716,67.0076409 L435.871851,67.0076409 L435.871851,12.0440559 L452.86716,12.0440559 Z M416.806265,31.5916569 L416.806265,27.5520066 C416.806265,24.687272 416.64445,22.8383011 416.339858,22.005094 C416.030506,21.1718868 415.402284,20.7552833 414.445673,20.7552833 C413.265377,20.7552833 412.532452,21.1110346 412.251655,21.8178564 C411.975619,22.5246782 411.8376,24.4391822 411.8376,27.5520066 L411.8376,31.5916569 L416.806265,31.5916569 Z M433.872963,40.5182075 L411.8376,40.5182075 L411.8376,52.4124733 C411.8376,54.8980519 412.013693,56.503614 412.380155,57.2197976 C412.746618,57.9359813 413.450988,58.2964136 414.493266,58.2964136 C415.783025,58.2964136 416.64445,57.8189578 417.082302,56.8640463 C417.520154,55.9091347 417.73908,54.0648448 417.73908,51.3218146 L417.73908,44.0569973 L433.872963,44.0569973 L433.872963,48.1200523 C433.872963,51.513733 433.654037,54.125697 433.220945,55.9465822 C432.783093,57.7674675 431.764612,59.719419 430.165501,61.788394 C428.566391,63.857369 426.534188,65.4114408 424.08317,66.4459283 C421.627393,67.4804158 418.543394,68 414.835932,68 C411.247452,68 408.073027,67.4897777 405.322176,66.469333 C402.571325,65.4442073 400.42966,64.0446066 398.897179,62.2611689 C397.369457,60.4824121 396.312902,58.5210986 395.722754,56.3819095 C395.132606,54.2427205 394.837532,51.1298961 394.837532,47.0434364 L394.837532,31.0159014 C394.837532,26.2085771 395.494309,22.4216975 396.812624,19.6459007 C398.135697,16.8701039 400.2964,14.7449577 403.304251,13.265781 C406.302583,11.7912852 409.757804,11.0516968 413.655637,11.0516968 C418.429172,11.0516968 422.365078,11.9457562 425.468114,13.724513 C428.57115,15.5079507 430.75089,17.8718249 431.993056,20.8114545 C433.2495,23.7557651 433.872963,27.8890342 433.872963,33.2206237 L433.872963,40.5182075 Z M376.281186,27.6409444 C376.281186,24.7949336 376.095575,22.9319199 375.733872,22.0612652 C375.367409,21.1906106 374.648761,20.7552833 373.582687,20.7552833 C372.54041,20.7552833 371.864595,21.1344393 371.560003,21.8974324 C371.250651,22.6557445 371.098355,24.5702485 371.098355,27.6409444 L371.098355,51.3686239 C371.098355,54.3269774 371.269688,56.2227576 371.621873,57.0512838 C371.974058,57.8844909 372.66891,58.2964136 373.706428,58.2964136 C374.772502,58.2964136 375.472113,57.8657672 375.795742,57.0091554 C376.119372,56.1525435 376.281186,54.0929304 376.281186,50.830316 L376.281186,27.6409444 Z M371.098355,0 L371.098355,15.8168927 C372.492817,14.2160116 374.063372,13.0223721 375.786224,12.2359744 C377.513834,11.4448957 379.388982,11.0516968 381.406907,11.0516968 C383.734184,11.0516968 385.756868,11.4121291 387.465442,12.1283128 C389.178774,12.8444965 390.482811,13.8555793 391.382311,15.1521994 C392.277051,16.4488194 392.819607,17.7173539 393.005218,18.9624837 C393.18131,20.2029325 393.276495,22.8570249 393.276495,26.9153989 L393.276495,51.6822469 C393.276495,55.7125353 393.005218,58.7176981 392.453144,60.6930543 C391.910588,62.6684105 390.625589,64.3769533 388.607664,65.8280443 C386.589738,67.2744545 384.191072,68 381.411666,68 C379.422296,68 377.561427,67.5693536 375.843335,66.7174227 C374.115724,65.85613 372.535651,64.5735527 371.107873,62.860329 L370.013244,67.0076409 L354.098286,67.0076409 L354.098286,0 L371.098355,0 Z M335.0327,27.1822124 C335.0327,24.3642872 334.875645,22.5855304 334.571052,21.8553039 C334.256941,21.1203965 333.600164,20.7552833 332.591201,20.7552833 C331.577479,20.7552833 330.906424,21.1203965 330.568517,21.8553039 C330.230609,22.5855304 330.064035,24.3642872 330.064035,27.1822124 L330.064035,52.0333173 C330.064035,54.6312384 330.230609,56.3257383 330.568517,57.116817 C330.906424,57.9032147 331.563202,58.2964136 332.548368,58.2964136 C333.557331,58.2964136 334.223627,57.9359813 334.547256,57.2151167 C334.870886,56.498933 335.0327,54.9495422 335.0327,52.5716252 L335.0327,27.1822124 Z M352.028009,31.3482481 L352.028009,44.8059475 C352.028009,49.7490191 351.771009,53.3720658 351.271287,55.6797687 C350.766806,57.9874716 349.686455,60.1360226 348.030233,62.1394644 C346.378771,64.1429063 344.251382,65.6174021 341.652828,66.5723136 C339.063792,67.5225442 336.084496,68 332.714942,68 C328.959888,68 325.771185,67.5927583 323.163112,66.7782749 C320.555039,65.9637916 318.527595,64.7327046 317.080781,63.094376 C315.638726,61.4513664 314.605967,59.4572864 313.992022,57.1261788 C313.373319,54.7950712 313.068726,51.2937289 313.068726,46.6268328 L313.068726,32.5465685 C313.068726,27.4396641 313.62556,23.4515041 314.748744,20.5774076 C315.871929,17.707992 317.889854,15.4002891 320.812039,13.6589798 C323.724704,11.9223515 327.460721,11.0516968 332.001053,11.0516968 C335.817978,11.0516968 339.087588,11.6087286 341.824161,12.727473 C344.555975,13.8462174 346.669085,15.3019894 348.158733,17.09947 C349.643621,18.8922696 350.662102,20.7412404 351.204658,22.6463826 C351.756732,24.5515247 352.028009,27.4537069 352.028009,31.3482481 Z M288.905975,11.4729813 L288.905975,26.4192194 C290.904864,26.4192194 292.304085,26.1524059 293.103641,25.6140979 C293.907955,25.071109 294.307733,23.3204378 294.307733,20.3574035 L294.307733,16.6641426 C294.307733,14.5343154 293.922233,13.1347147 293.146474,12.4747023 C292.375474,11.8100089 290.957215,11.4729813 288.905975,11.4729813 Z M271.192018,0 L283.74694,0 C292.118474,0 297.78675,0.318303848 300.747008,0.954911544 C303.716785,1.59151924 306.134488,3.21580505 308.000117,5.82308804 C309.865746,8.43973291 310.798561,12.6010876 310.798561,18.321195 C310.798561,23.5451229 310.141783,27.0558271 308.823469,28.8486267 C307.505154,30.6461072 304.9066,31.7227232 301.037323,32.0831555 C304.544896,32.9350864 306.900729,34.0819164 308.10958,35.5142837 C309.313672,36.9466511 310.060876,38.2619949 310.360709,39.4603153 C310.651024,40.6586356 310.798561,43.9586976 310.798561,49.3605011 L310.798561,67.0076409 L294.307733,67.0076409 L294.307733,44.7685 C294.307733,41.1875817 294.022177,38.9688167 293.446307,38.1168858 C292.870437,37.260274 291.356993,36.8343085 288.905975,36.8343085 L288.905975,67.0076409 L271.192018,67.0076409 L271.192018,0 Z M238.952807,67.0076409 L256.452598,67.0076409 L256.452598,7.10542736e-15 L238.952807,7.10542736e-15 L238.952807,67.0076409 Z M219.887221,31.5916569 L219.887221,27.5520066 C219.887221,24.687272 219.734925,22.8383011 219.420814,22.005094 C219.116221,21.1718868 218.48324,20.7552833 217.526629,20.7552833 C216.346334,20.7552833 215.622926,21.1110346 215.34213,21.8178564 C215.056575,22.5246782 214.918556,24.4391822 214.918556,27.5520066 L214.918556,31.5916569 L219.887221,31.5916569 Z M236.953919,40.5182075 L214.918556,40.5182075 L214.918556,52.4124733 C214.918556,54.8980519 215.104167,56.503614 215.465871,57.2197976 C215.832334,57.9359813 216.531945,58.2964136 217.578981,58.2964136 C218.86874,58.2964136 219.734925,57.8189578 220.172777,56.8640463 C220.605869,55.9091347 220.824795,54.0648448 220.824795,51.3218146 L220.824795,44.0569973 L236.953919,44.0569973 L236.953919,48.1200523 C236.953919,51.513733 236.739752,54.125697 236.301901,55.9465822 C235.864049,57.7674675 234.850327,59.719419 233.251217,61.788394 C231.647347,63.857369 229.619903,65.4114408 227.164126,66.4459283 C224.708349,67.4804158 221.629109,68 217.921648,68 C214.328408,68 211.158743,67.4897777 208.403133,66.469333 C205.652282,65.4442073 203.515375,64.0446066 201.987653,62.2611689 C200.455172,60.4824121 199.398617,58.5210986 198.808469,56.3819095 C198.218321,54.2427205 197.923247,51.1298961 197.923247,47.0434364 L197.923247,31.0159014 C197.923247,26.2085771 198.580025,22.4216975 199.903098,19.6459007 C201.221413,16.8701039 203.382116,14.7449577 206.385207,13.265781 C209.388299,11.7912852 212.84352,11.0516968 216.746111,11.0516968 C221.514887,11.0516968 225.455553,11.9457562 228.553829,13.724513 C231.656865,15.5079507 233.831846,17.8718249 235.083531,20.8114545 C236.330456,23.7557651 236.953919,27.8890342 236.953919,33.2206237 L236.953919,40.5182075 Z M179.128939,40.8973635 C176.435199,42.8586769 174.874162,44.5016865 174.445829,45.8263922 C174.012737,47.1557789 173.79857,49.060921 173.79857,51.5464996 C173.79857,54.3878296 173.988941,56.2274386 174.360163,57.0512838 C174.736144,57.8844909 175.478588,58.2964136 176.587495,58.2964136 C177.64405,58.2964136 178.329384,57.9734288 178.648254,57.3227783 C178.967124,56.6768087 179.128939,54.968266 179.128939,52.206512 L179.128939,40.8973635 Z M173.79857,33.3610518 L157.812224,33.3610518 L157.812224,29.6724719 C157.812224,25.4174985 158.311946,22.1314793 159.306631,19.8237764 C160.301316,17.5160735 162.295445,15.4751841 165.298536,13.7057892 C168.296868,11.9363943 172.1947,11.0516968 176.987273,11.0516968 C182.736456,11.0516968 187.067381,12.0534178 189.984805,14.0521787 C192.90223,16.0556206 194.648878,18.5131135 195.239026,21.4246575 C195.829174,24.3408825 196.124248,30.3418462 196.124248,39.4228678 L196.124248,67.0076409 L179.562031,67.0076409 L179.562031,62.1207407 C178.524513,64.0820541 177.187162,65.5518689 175.549977,66.5301852 C173.912792,67.5085014 171.961497,68 169.69609,68 C166.726313,68 164.004018,67.1761547 161.529204,65.5378261 C159.049631,63.8948165 157.812224,60.2998554 157.812224,54.7576237 L157.812224,50.2451986 C157.812224,46.1353342 158.469001,43.3361327 159.787316,41.8475941 C161.10563,40.3543746 164.370481,38.6177463 169.586627,36.6330282 C175.159718,34.4797962 178.148532,33.0333861 178.54355,32.2844359 C178.933809,31.5401666 179.128939,30.0141805 179.128939,27.7111585 C179.128939,24.8230192 178.914772,22.9412818 178.48168,22.0659462 C178.053347,21.1952915 177.339458,20.7552833 176.340014,20.7552833 C175.202551,20.7552833 174.493422,21.1250774 174.217385,21.8599849 C173.936589,22.5948923 173.79857,24.5000344 173.79857,27.5800922 L173.79857,33.3610518 Z M133.906473,0 L133.906473,15.0351759 C135.367565,13.7057892 136.947638,12.7134302 138.641934,12.0487368 C140.345748,11.3840435 142.163785,11.0516968 144.100803,11.0516968 C147.075339,11.0516968 149.612023,11.7959661 151.701337,13.2891857 C153.79541,14.7824052 155.070891,16.5003098 155.537299,18.4475804 C155.998947,20.39017 156.23215,23.9476836 156.23215,29.1107593 L156.23215,67.0076409 L139.236841,67.0076409 L139.236841,28.3009568 C139.236841,25.0945137 139.070267,23.0349005 138.746638,22.1221174 C138.423008,21.2140153 137.699601,20.7552833 136.571657,20.7552833 C135.52462,20.7552833 134.82501,21.2280581 134.453787,22.1642459 C134.087325,23.1051146 133.906473,24.9681283 133.906473,27.7626489 L133.906473,67.0076409 L116.911164,67.0076409 L116.911164,0 L133.906473,0 Z M115.407238,32.7946582 L99.3447438,32.7946582 L99.3447438,26.4426241 C99.3447438,24.22854 99.1638921,22.7259586 98.8021885,21.9395608 C98.4357256,21.1484821 97.7646703,20.7552833 96.7842632,20.7552833 C95.8038562,20.7552833 95.1470786,21.1016727 94.8091713,21.7944517 C94.471264,22.4825497 94.30469,24.0319405 94.30469,26.4379431 L94.30469,52.4077924 C94.30469,54.3691058 94.5569307,55.8436016 95.061412,56.8219178 C95.561134,57.804915 96.3035782,58.2964136 97.279226,58.2964136 C98.4262071,58.2964136 99.1972069,57.7861912 99.606503,56.7657465 C100.01104,55.7406209 100.210929,53.8073931 100.210929,50.9613823 L100.210929,44.4127487 L115.407238,44.4127487 C115.378683,48.7987885 115.216868,52.0894885 114.921794,54.2848489 C114.62672,56.4755283 113.689146,58.72706 112.099554,61.025401 C110.519481,63.3331039 108.449204,65.0697322 105.893482,66.2446479 C103.337761,67.4148826 100.182373,68 96.4225597,68 C91.6204687,68 87.8225811,67.1901976 85.0146191,65.5799546 C82.2066571,63.9603497 80.2220467,61.6994562 79.0560286,58.7832312 C77.8947697,55.8716872 77.309381,51.7337372 77.309381,46.378743 L77.309381,30.7678117 C77.309381,26.1009155 77.790066,22.5808495 78.7419176,20.2029325 C79.6937691,17.8296964 81.7307313,15.7092311 84.8480451,13.8462174 C87.9605996,11.9832037 91.7489687,11.0516968 96.2131523,11.0516968 C100.644021,11.0516968 104.43239,11.9738418 107.57826,13.8274936 C110.71937,15.6764645 112.813443,18.0075721 113.850961,20.8301783 C114.888479,23.6434226 115.407238,27.6362635 115.407238,32.7946582 Z M57.7393136,67.0076409 L75.2391039,67.0076409 L75.2391039,12.039375 L57.7393136,12.039375 L57.7393136,67.0076409 Z M57.7393136,8.71590831 L75.2391039,8.71590831 L75.2391039,0.00468093894 L57.7393136,0.00468093894 L57.7393136,8.71590831 Z M54.6600739,0 L54.6600739,67.0076409 L39.1782088,67.0076409 L39.1401348,21.771047 L32.9864147,67.0076409 L22.0353628,67.0076409 L15.5199391,22.7634061 L15.4818651,67.0076409 L0,67.0076409 L0,0 L22.9538996,0 C23.5916401,4.02560749 24.291251,8.76739864 25.0432137,14.2300544 L27.5465832,31.2873959 L31.6347855,0 L54.6600739,0 Z" id="Fill-1" fill="#663600"></path>
                <path d="M455.910006,114.370204 L455.910006,80.5973803 L462.59907,80.5973803 L476.616068,103.195951 L476.616068,80.5973803 L483,80.5973803 L483,114.370204 L476.101158,114.370204 L462.293938,92.239349 L462.293938,114.370204 L455.910006,114.370204 Z M414.941278,97.4444297 C414.941278,101.269516 415.832835,104.173062 417.620717,106.150437 C419.4086,108.123181 421.678018,109.114184 424.424206,109.114184 C427.179928,109.114184 429.430276,108.132442 431.19432,106.173591 C432.963132,104.214739 433.845154,101.269516 433.845154,97.3471818 C433.845154,93.4757872 432.982203,90.581503 431.265836,88.6735909 C429.549468,86.7703096 427.265747,85.8117227 424.424206,85.8117227 C421.582665,85.8117227 419.289407,86.7795713 417.549202,88.7106377 C415.808996,90.6417042 414.941278,93.5498809 414.941278,97.4444297 Z M407.837425,97.6713416 C407.837425,94.2306166 408.352335,91.3455941 409.396458,89.0070124 C410.168823,87.2889653 411.22725,85.7422599 412.571737,84.3761577 C413.916225,83.0100556 415.384672,81.9958984 416.986615,81.3336862 C419.117771,80.4445621 421.568362,80 424.343155,80 C429.373064,80 433.401759,81.5420746 436.419704,84.6308547 C439.43765,87.7196348 440.949006,92.0124372 440.949006,97.5092617 C440.949006,102.969039 439.451953,107.229426 436.453078,110.313575 C433.458971,113.393093 429.454115,114.930537 424.438509,114.930537 C419.360923,114.930537 415.322692,113.397724 412.328585,110.332098 C409.329711,107.266473 407.837425,103.047764 407.837425,97.6713416 Z M386.2112,114.370204 L393.100506,114.370204 L393.100506,80.5973803 L386.2112,80.5973803 L386.2112,114.370204 Z M355.469158,114.370204 L355.469158,86.3025933 L345.333057,86.3025933 L345.333057,80.5973803 L372.423051,80.5973803 L372.423051,86.3025933 L362.358465,86.3025933 L362.358465,114.370204 L355.469158,114.370204 Z M325.594836,101.931728 L332.269596,104.00172 C331.249311,107.697142 329.547247,110.443239 327.168172,112.240011 C324.789097,114.032151 321.771151,114.930537 318.114336,114.930537 C313.585034,114.930537 309.866238,113.397724 306.953182,110.332098 C304.040126,107.266473 302.581214,103.08018 302.581214,97.7639587 C302.581214,92.1421011 304.044893,87.7752051 306.97702,84.6632707 C309.899612,81.5559672 313.751903,80 318.524357,80 C322.691315,80 326.071604,81.2225456 328.674761,83.6583752 C330.224259,85.1078328 331.387574,87.1778248 332.15994,89.8776131 L325.346916,91.4937814 C324.941662,89.7386875 324.10255,88.3540619 322.829577,87.3399047 C321.551837,86.3211167 320.002339,85.8117227 318.176316,85.8117227 C315.654209,85.8117227 313.61364,86.7147393 312.045071,88.511511 C310.476502,90.3129135 309.689834,93.2303519 309.689834,97.2545647 C309.689834,101.533474 310.462199,104.580577 312.011697,106.391241 C313.561195,108.206536 315.568391,109.114184 318.047588,109.114184 C319.873612,109.114184 321.442181,108.535327 322.76283,107.382244 C324.078711,106.229161 325.022713,104.413866 325.594836,101.931728 Z M259.757855,80.5973803 L266.647162,80.5973803 L266.647162,98.8846256 C266.647162,101.788171 266.73298,103.672929 266.899849,104.529637 C267.195446,105.914263 267.896295,107.021037 269.002399,107.859222 C270.11327,108.692776 271.629394,109.114184 273.555539,109.114184 C275.505523,109.114184 276.978738,108.720561 277.970417,107.928685 C278.962095,107.136809 279.562824,106.16896 279.763067,105.015877 C279.96331,103.862794 280.068199,101.950251 280.068199,99.2782482 L280.068199,80.5973803 L286.952738,80.5973803 L286.952738,98.328923 C286.952738,102.380921 286.766798,105.242789 286.394918,106.919159 C286.023039,108.590897 285.336492,110.003308 284.335278,111.15176 C283.334064,112.304843 281.999112,113.221752 280.320886,113.907118 C278.647428,114.587854 276.45906,114.930537 273.76055,114.930537 C270.50422,114.930537 268.034558,114.560069 266.351565,113.814501 C264.668572,113.068934 263.338387,112.101085 262.361012,110.910955 C261.383636,109.725456 260.739998,108.475126 260.430099,107.169225 C259.981936,105.233527 259.757855,102.380921 259.757855,98.6067743 L259.757855,80.5973803 Z M222.73677,94.8881979 L227.823892,94.8881979 C231.118363,94.8881979 233.182771,94.7492723 234.002813,94.4760519 C234.822855,94.1982006 235.466493,93.7212225 235.928959,93.0451178 C236.396192,92.369013 236.625041,91.5215666 236.625041,90.5074094 C236.625041,89.3682191 236.319909,88.446679 235.709645,87.74742 C235.099381,87.0481609 234.23643,86.6035988 233.120791,86.4229955 C232.562972,86.344271 230.889514,86.3025933 228.105185,86.3025933 L222.73677,86.3025933 L222.73677,94.8881979 Z M215.847464,114.370204 L215.847464,80.5973803 L230.336462,80.5973803 C233.978975,80.5973803 236.625041,80.8983858 238.279428,81.5050278 C239.929047,82.1116698 241.254464,83.1906589 242.246143,84.7466261 C243.237822,86.2979624 243.733661,88.0715798 243.733661,90.072109 C243.733661,92.6051866 242.980367,94.7029637 241.483313,96.351548 C239.981492,98.009394 237.745447,99.0467055 234.765643,99.4820058 C236.248393,100.338714 237.473689,101.278777 238.436762,102.311458 C239.404602,103.339508 240.70618,105.164065 242.346264,107.789759 L246.508454,114.370204 L238.27466,114.370204 L233.325802,107.007145 C231.552222,104.390712 230.336462,102.742128 229.688057,102.066023 C229.034884,101.380656 228.34357,100.917571 227.614114,100.662874 C226.87989,100.412808 225.721342,100.283144 224.133703,100.283144 L222.73677,100.283144 L222.73677,114.370204 L215.847464,114.370204 Z M184.852735,114.370204 L184.852735,86.3025933 L174.716634,86.3025933 L174.716634,80.5973803 L201.811395,80.5973803 L201.811395,86.3025933 L191.746809,86.3025933 L191.746809,114.370204 L184.852735,114.370204 Z M133.981522,103.40434 L140.689656,102.774544 C141.09491,105.001985 141.910184,106.641307 143.140247,107.68788 C144.375078,108.729823 146.039,109.25774 148.132015,109.25774 C150.348989,109.25774 152.017679,108.790024 153.142853,107.859222 C154.268027,106.92842 154.830614,105.840169 154.830614,104.589839 C154.830614,103.788701 154.59223,103.112596 154.120229,102.547632 C153.648228,101.987298 152.823418,101.496428 151.645799,101.079651 C150.844828,100.801799 149.004501,100.306298 146.139122,99.5977772 C142.4537,98.6854988 139.864846,97.5694628 138.377328,96.2450384 C136.289082,94.3834348 135.244958,92.114316 135.244958,89.4376819 C135.244958,87.715004 135.73603,86.1034665 136.718173,84.6030696 C137.700317,83.1026727 139.121087,81.9588515 140.975717,81.1762371 C142.82558,80.3936227 145.061625,80 147.683852,80 C151.960467,80 155.178655,80.9308018 157.338417,82.7970363 C159.502946,84.6632707 160.637656,87.1500397 160.747313,90.2619741 L153.858006,90.5120402 C153.557642,88.7801006 152.933075,87.5390315 151.965234,86.7749405 C150.997394,86.0154803 149.552785,85.6403811 147.617104,85.6403811 C145.624212,85.6403811 144.06041,86.0478963 142.930469,86.8582958 C142.20578,87.3815824 141.843436,88.0808415 141.843436,88.956073 C141.843436,89.75258 142.18671,90.4379465 142.863721,91.0075417 C143.73144,91.7253242 145.838757,92.4801535 149.185673,93.2673988 C152.523054,94.0592749 154.997483,94.8696745 156.599426,95.7078592 C158.201368,96.5460439 159.45527,97.6944959 160.36113,99.1485843 C161.26699,100.607304 161.719921,102.404075 161.719921,104.54353 C161.719921,106.479227 161.176404,108.294522 160.089372,109.989415 C159.007107,111.679677 157.471912,112.943901 155.483787,113.768193 C153.495662,114.587854 151.021232,115 148.060499,115 C143.745743,115 140.436969,114.013628 138.119873,112.036253 C135.812313,110.063509 134.429684,107.183117 133.981522,103.40434 Z M91.839942,114.370204 L91.839942,80.5973803 L98.5290059,80.5973803 L112.546004,103.195951 L112.546004,80.5973803 L118.929936,80.5973803 L118.929936,114.370204 L112.035861,114.370204 L98.223874,92.239349 L98.223874,114.370204 L91.839942,114.370204 Z M50.8712132,97.4444297 C50.8712132,101.269516 51.7627706,104.173062 53.550653,106.150437 C55.3385353,108.123181 57.607954,109.114184 60.3589091,109.114184 C63.1050964,109.114184 65.3649797,108.132442 67.1290237,106.173591 C68.8882999,104.214739 69.7750896,101.269516 69.7750896,97.3471818 C69.7750896,93.4757872 68.916906,90.581503 67.1957713,88.6735909 C65.4794042,86.7703096 63.2004501,85.8117227 60.3589091,85.8117227 C57.5126003,85.8117227 55.2241109,86.7795713 53.4791377,88.7106377 C51.7389322,90.6417042 50.8712132,93.5498809 50.8712132,97.4444297 Z M43.7625929,97.6713416 C43.7625929,94.2306166 44.2870384,91.3455941 45.326394,89.0070124 C46.0987592,87.2889653 47.1619533,85.7422599 48.5016731,84.3761577 C49.8461607,83.0100556 51.3193758,81.9958984 52.9165507,81.3336862 C55.0429388,80.4445621 57.4982973,80 60.2778584,80 C65.3077675,80 69.3316947,81.5420746 72.3496402,84.6308547 C75.3723533,87.7196348 76.8789422,92.0124372 76.8789422,97.5092617 C76.8789422,102.969039 75.3818887,107.229426 72.383014,110.313575 C69.388907,113.393093 65.3792828,114.930537 60.3684444,114.930537 C55.2908585,114.930537 51.2526282,113.397724 48.2585211,110.332098 C45.2644141,107.266473 43.7625929,103.047764 43.7625929,97.6713416 Z M23.013622,101.931728 L29.6883828,104.00172 C28.6633303,107.697142 26.9660339,110.443239 24.5869585,112.240011 C22.207883,114.032151 19.1851698,114.930537 15.5283544,114.930537 C11.0038201,114.930537 7.28502473,113.397724 4.37196837,110.332098 C1.45891202,107.266473 0,103.08018 0,97.7639587 C0,92.1421011 1.46367971,87.7752051 4.39103912,84.6632707 C7.31839853,81.5559672 11.1706891,80 15.9383754,80 C20.1053333,80 23.4903906,81.2225456 26.0935473,83.6583752 C27.6430454,85.1078328 28.8063609,87.1778248 29.5834937,89.8776131 L22.7609346,91.4937814 C22.3604489,89.7386875 21.5213361,88.3540619 20.2483639,87.3399047 C18.9706239,86.3211167 17.4211259,85.8117227 15.595102,85.8117227 C13.0777636,85.8117227 11.0276585,86.7147393 9.4590897,88.511511 C7.89052089,90.3129135 7.10862033,93.2303519 7.10862033,97.2545647 C7.10862033,101.533474 7.88098552,104.580577 9.43048358,106.391241 C10.9799816,108.206536 12.9919453,109.114184 15.4663745,109.114184 C17.2923984,109.114184 18.8657348,108.535327 20.1816163,107.382244 C21.4974977,106.229161 22.4414996,104.413866 23.013622,101.931728 Z" id="Fill-4" fill="#BB8D0A"></path>
                <path d="M463.421802,154.03211 L463.421802,147.362385 C463.421802,145.954128 463.345771,145.045872 463.19371,144.62844 C463.036896,144.215596 462.789796,143.894495 462.442906,143.665138 C462.100767,143.43578 461.68735,143.321101 461.207406,143.321101 C460.584904,143.321101 460.028929,143.481651 459.534729,143.811927 C459.045281,144.137615 458.703142,144.573394 458.522569,145.114679 C458.341996,145.655963 458.246958,146.655963 458.246958,148.114679 L458.246958,154.03211 L454.668759,154.03211 L454.668759,140.96789 L457.995106,140.96789 L457.995106,142.889908 C459.173583,141.412844 460.660935,140.674312 462.45241,140.674312 C463.241229,140.674312 463.963521,140.811927 464.619286,141.087156 C465.275052,141.362385 465.769252,141.711009 466.101887,142.137615 C466.439273,142.56422 466.672117,143.045872 466.805171,143.591743 C466.933473,144.133028 467,144.90367 467,145.912844 L467,154.03211 L463.421802,154.03211 Z M448.09685,139.197248 L451.675048,139.197248 L451.675048,136 L448.09685,136 L448.09685,139.197248 Z M448.09685,154.03211 L451.675048,154.03211 L451.675048,140.96789 L448.09685,140.96789 L448.09685,154.03211 Z M441.50118,154.03211 L445.079378,154.03211 L445.079378,136 L441.50118,136 L441.50118,154.03211 Z M434.876999,144.100917 C434.368544,143.577982 433.746042,143.321101 433.018998,143.321101 C432.23493,143.321101 431.588669,143.591743 431.080213,144.142202 C430.571757,144.692661 430.319905,145.440367 430.329409,146.380734 L435.680074,146.380734 C435.656315,145.380734 435.390207,144.619266 434.876999,144.100917 Z M430.262882,148.495413 C430.291394,149.522936 430.581261,150.316514 431.132484,150.889908 C431.683707,151.458716 432.372736,151.743119 433.194819,151.743119 C433.755546,151.743119 434.225986,151.59633 434.610892,151.298165 C434.991046,151.004587 435.280913,150.53211 435.475742,149.876147 L439.044436,150.454128 C438.5835,151.715596 437.861207,152.678899 436.872807,153.334862 C435.884407,153.995413 434.644155,154.325688 433.156803,154.325688 C430.804601,154.325688 429.065397,153.582569 427.93444,152.100917 C427.041078,150.912844 426.594397,149.412844 426.594397,147.600917 C426.594397,145.43578 427.183636,143.738532 428.352609,142.513761 C429.526334,141.288991 431.008934,140.674312 432.800409,140.674312 C434.810473,140.674312 436.402367,141.316514 437.566588,142.600917 C438.730809,143.885321 439.286784,145.848624 439.234513,148.495413 L430.262882,148.495413 Z M420.355122,144.307339 C419.794395,143.646789 419.076855,143.321101 418.202501,143.321101 C417.356659,143.321101 416.64387,143.642202 416.068888,144.293578 C415.493905,144.949541 415.20879,145.922018 415.20879,147.220183 C415.20879,148.610092 415.40837,149.619266 415.807532,150.243119 C416.387266,151.146789 417.190341,151.59633 418.226261,151.59633 C419.053095,151.59633 419.75638,151.256881 420.331363,150.582569 C420.906345,149.90367 421.196213,148.894495 421.196213,147.550459 C421.196213,146.050459 420.915849,144.96789 420.355122,144.307339 Z M421.438561,154.03211 L421.438561,152.114679 C420.887338,152.857798 420.236324,153.412844 419.480768,153.779817 C418.729965,154.142202 417.974409,154.325688 417.209349,154.325688 C415.65547,154.325688 414.32018,153.724771 413.217734,152.513761 C412.105784,151.302752 411.549809,149.614679 411.549809,147.449541 C411.549809,145.238532 412.091528,143.555046 413.170214,142.40367 C414.248901,141.252294 415.612703,140.674312 417.26162,140.674312 C418.772732,140.674312 420.079511,141.279817 421.181957,142.495413 L421.181957,136 L424.764907,136 L424.764907,154.03211 L421.438561,154.03211 Z M405.571889,144.522936 C404.939884,143.834862 404.155816,143.490826 403.224439,143.490826 C402.28831,143.490826 401.504243,143.834862 400.862734,144.522936 C400.230728,145.215596 399.912349,146.206422 399.912349,147.5 C399.912349,148.798165 400.230728,149.788991 400.862734,150.477064 C401.504243,151.165138 402.28831,151.509174 403.224439,151.509174 C404.155816,151.509174 404.939884,151.165138 405.571889,150.477064 C406.203895,149.788991 406.522274,148.788991 406.522274,147.477064 C406.522274,146.197248 406.203895,145.215596 405.571889,144.522936 Z M408.223462,152.376147 C406.902428,153.674312 405.239255,154.325688 403.233943,154.325688 C401.993691,154.325688 400.810462,154.055046 399.689009,153.513761 C398.562803,152.972477 397.702705,152.178899 397.118218,151.137615 C396.533732,150.091743 396.239112,148.816514 396.239112,147.316514 C396.239112,146.169725 396.533732,145.055046 397.118218,143.981651 C397.702705,142.908257 398.534291,142.087156 399.612978,141.522936 C400.686912,140.958716 401.884397,140.674312 403.210184,140.674312 C405.258262,140.674312 406.935691,141.316514 408.24247,142.600917 C409.549249,143.885321 410.205014,145.504587 410.205014,147.463303 C410.205014,149.440367 409.544497,151.077982 408.223462,152.376147 Z M390.57482,154.03211 L390.57482,146.568807 C390.57482,145.270642 390.45127,144.43578 390.20417,144.059633 C389.871535,143.56422 389.363079,143.321101 388.674051,143.321101 C388.175099,143.321101 387.699906,143.46789 387.262729,143.761468 C386.820801,144.059633 386.502422,144.490826 386.302841,145.059633 C386.108012,145.62844 386.012974,146.527523 386.012974,147.756881 L386.012974,154.03211 L382.434776,154.03211 L382.434776,146.87156 C382.434776,145.600917 382.368249,144.784404 382.244699,144.412844 C382.116397,144.045872 381.916816,143.770642 381.650708,143.591743 C381.379849,143.412844 381.018702,143.321101 380.562518,143.321101 C380.006543,143.321101 379.512343,143.463303 379.070414,143.747706 C378.628485,144.036697 378.310106,144.449541 378.120029,144.990826 C377.929952,145.53211 377.834914,146.431193 377.834914,147.683486 L377.834914,154.03211 L374.251964,154.03211 L374.251964,140.96789 L377.55455,140.96789 L377.55455,142.756881 C378.733027,141.366972 380.139597,140.674312 381.769506,140.674312 C382.639108,140.674312 383.389912,140.844037 384.02667,141.192661 C384.663427,141.536697 385.186139,142.055046 385.594804,142.756881 C386.188795,142.055046 386.830304,141.536697 387.514581,141.192661 C388.20361,140.844037 388.940158,140.674312 389.719474,140.674312 C390.712626,140.674312 391.553716,140.866972 392.242745,141.256881 C392.931774,141.646789 393.444981,142.220183 393.782368,142.972477 C394.029468,143.53211 394.153018,144.43578 394.153018,145.678899 L394.153018,154.03211 L390.57482,154.03211 Z M367.898643,144.100917 C367.390187,143.577982 366.767685,143.321101 366.035889,143.321101 C365.256573,143.321101 364.615064,143.591743 364.101856,144.142202 C363.5934,144.692661 363.341548,145.440367 363.351052,146.380734 L368.701718,146.380734 C368.677958,145.380734 368.407098,144.619266 367.898643,144.100917 Z M363.284525,148.495413 C363.313037,149.522936 363.602904,150.316514 364.154127,150.889908 C364.70535,151.458716 365.394379,151.743119 366.216462,151.743119 C366.777189,151.743119 367.247629,151.59633 367.632535,151.298165 C368.012689,151.004587 368.302556,150.53211 368.497385,149.876147 L372.066079,150.454128 C371.605143,151.715596 370.88285,152.678899 369.889698,153.334862 C368.901298,153.995413 367.665798,154.325688 366.178446,154.325688 C363.826244,154.325688 362.082289,153.582569 360.956083,152.100917 C360.062721,150.912844 359.616041,149.412844 359.616041,147.600917 C359.616041,145.43578 360.200527,143.738532 361.374252,142.513761 C362.547977,141.288991 364.030577,140.674312 365.822052,140.674312 C367.832116,140.674312 369.42401,141.316514 370.588231,142.600917 C371.7477,143.885321 372.308427,145.848624 372.256156,148.495413 L363.284525,148.495413 Z M353.395773,139.821101 C353.058387,139.449541 352.587946,139.211009 351.974948,139.114679 C351.670825,139.073394 350.753704,139.050459 349.223585,139.050459 L346.282144,139.050459 L346.282144,143.623853 L349.071523,143.623853 C350.877254,143.623853 352.008212,143.550459 352.459644,143.408257 C352.911077,143.256881 353.262719,143.004587 353.519323,142.642202 C353.771175,142.279817 353.899477,141.830275 353.899477,141.288991 C353.899477,140.683486 353.73316,140.192661 353.395773,139.821101 Z M352.854054,146.073394 C353.671385,146.53211 354.341406,147.036697 354.873621,147.587156 C355.405837,148.137615 356.118625,149.110092 357.02149,150.513761 L359.302414,154.03211 L354.792839,154.03211 L352.065235,150.110092 C351.095842,148.706422 350.435325,147.821101 350.074179,147.458716 C349.722537,147.091743 349.342383,146.844037 348.943221,146.706422 C348.54406,146.573394 347.912054,146.504587 347.042452,146.504587 L346.282144,146.504587 L346.282144,154.03211 L342.509117,154.03211 L342.509117,136 L350.449581,136 C352.445388,136 353.894725,136.16055 354.79759,136.486239 C355.700456,136.811927 356.4275,137.389908 356.969219,138.215596 C357.510939,139.041284 357.78655,139.990826 357.78655,141.055046 C357.78655,142.408257 357.373133,143.522936 356.55105,144.408257 C355.724215,145.288991 354.493467,145.844037 352.854054,146.073394 Z M329.094438,144.522936 C328.462432,143.834862 327.678365,143.490826 326.742236,143.490826 C325.806107,143.490826 325.02204,143.834862 324.385282,144.522936 C323.748525,145.215596 323.430146,146.206422 323.430146,147.5 C323.430146,148.798165 323.748525,149.788991 324.385282,150.477064 C325.02204,151.165138 325.806107,151.509174 326.742236,151.509174 C327.678365,151.509174 328.462432,151.165138 329.094438,150.477064 C329.726444,149.788991 330.040071,148.788991 330.040071,147.477064 C330.040071,146.197248 329.726444,145.215596 329.094438,144.522936 Z M331.741259,152.376147 C330.420225,153.674312 328.761803,154.325688 326.756492,154.325688 C325.51624,154.325688 324.333011,154.055046 323.206805,153.513761 C322.0806,152.972477 321.225253,152.178899 320.640767,151.137615 C320.05628,150.091743 319.761661,148.816514 319.761661,147.316514 C319.761661,146.169725 320.05628,145.055046 320.640767,143.981651 C321.225253,142.908257 322.052088,142.087156 323.130775,141.522936 C324.204709,140.958716 325.406946,140.674312 326.72798,140.674312 C328.776059,140.674312 330.453488,141.316514 331.760267,142.600917 C333.067046,143.885321 333.722811,145.504587 333.722811,147.463303 C333.722811,149.440367 333.062294,151.077982 331.741259,152.376147 Z M316.311765,148.986239 C316.311765,150.055046 316.330773,150.674312 316.378292,150.853211 C316.425811,151.027523 316.535105,151.174312 316.701423,151.288991 C316.862988,151.40367 317.067321,151.458716 317.304917,151.458716 C317.637551,151.458716 318.112744,151.348624 318.744749,151.12844 L319.048873,153.811927 C318.217286,154.155963 317.276405,154.325688 316.221478,154.325688 C315.575217,154.325688 314.995482,154.224771 314.477522,154.013761 C313.954811,153.802752 313.574657,153.53211 313.337061,153.201835 C313.094713,152.87156 312.923644,152.417431 312.833357,151.853211 C312.757326,151.454128 312.719311,150.642202 312.719311,149.422018 L312.719311,143.724771 L311.075146,143.724771 L311.075146,140.96789 L312.719311,140.96789 L312.719311,138.376147 L316.311765,136.357798 L316.311765,140.96789 L318.754253,140.96789 L318.754253,143.724771 L316.311765,143.724771 L316.311765,148.986239 Z M299.394918,154.03211 L299.394918,147.133028 C299.394918,145.761468 299.328391,144.894495 299.190586,144.522936 C299.057532,144.155963 298.815184,143.862385 298.473045,143.642202 C298.126155,143.426606 297.698482,143.321101 297.180522,143.321101 C296.586532,143.321101 296.054316,143.458716 295.588628,143.738532 C295.118188,144.013761 294.776049,144.43578 294.562213,144.995413 C294.343624,145.559633 294.23433,146.389908 294.23433,147.490826 L294.23433,154.03211 L290.656132,154.03211 L290.656132,136 L294.23433,136 L294.23433,142.62844 C295.393799,141.325688 296.771857,140.674312 298.378007,140.674312 C299.20009,140.674312 299.946141,140.821101 300.606659,141.119266 C301.267176,141.412844 301.766128,141.793578 302.103515,142.247706 C302.440901,142.706422 302.668993,143.215596 302.792543,143.775229 C302.916093,144.330275 302.977868,145.197248 302.977868,146.37156 L302.977868,154.03211 L299.394918,154.03211 Z M284.269547,143.908257 C283.846626,143.56422 283.304907,143.394495 282.630134,143.394495 C281.741524,143.394495 281.028735,143.692661 280.49652,144.284404 C279.969057,144.876147 279.702949,145.87156 279.702949,147.266055 C279.702949,148.816514 279.973808,149.912844 280.510776,150.550459 C281.052495,151.188073 281.774787,151.509174 282.682405,151.509174 C283.36193,151.509174 283.917905,151.325688 284.35033,150.949541 C284.787507,150.577982 285.09163,149.93578 285.267451,149.027523 L288.788626,149.605505 C288.417976,151.165138 287.719443,152.33945 286.683524,153.133028 C285.647605,153.931193 284.260043,154.325688 282.516087,154.325688 C280.539287,154.325688 278.961649,153.724771 277.783172,152.518349 C276.609447,151.311927 276.020208,149.642202 276.020208,147.513761 C276.020208,145.357798 276.609447,143.678899 277.792676,142.477064 C278.971153,141.275229 280.567799,140.674312 282.582614,140.674312 C284.231532,140.674312 285.53831,141.018349 286.512455,141.701835 C287.486599,142.385321 288.185132,143.431193 288.608053,144.830275 L285.077374,145.444954 C284.958576,144.766055 284.687716,144.252294 284.269547,143.908257 Z M270.417691,147.756881 C269.961506,147.908257 269.22971,148.082569 268.236558,148.288991 C267.243406,148.490826 266.597145,148.692661 266.28827,148.889908 C265.822581,149.211009 265.589737,149.614679 265.589737,150.110092 C265.589737,150.591743 265.775062,151.009174 266.150464,151.362385 C266.521114,151.715596 266.996306,151.889908 267.576041,151.889908 C268.222302,151.889908 268.835301,151.688073 269.419787,151.275229 C269.856964,150.963303 270.142079,150.582569 270.275133,150.133028 C270.370172,149.834862 270.417691,149.275229 270.417691,148.449541 L270.417691,147.756881 Z M274.708678,154.03211 L271.168495,154.03211 C271.073456,153.802752 270.95941,153.458716 270.821604,153.009174 C270.764581,152.807339 270.721814,152.669725 270.698054,152.605505 C270.085056,153.178899 269.429291,153.610092 268.73551,153.894495 C268.036977,154.183486 267.295677,154.325688 266.506858,154.325688 C265.114545,154.325688 264.016851,153.958716 263.213775,153.233945 C262.4107,152.504587 262.006787,151.577982 262.006787,150.463303 C262.006787,149.729358 262.18736,149.068807 262.553258,148.490826 C262.919156,147.912844 263.432364,147.46789 264.092881,147.16055 C264.748647,146.857798 265.699031,146.587156 266.939283,146.357798 C268.61196,146.055046 269.771429,145.770642 270.417691,145.509174 L270.417691,145.165138 C270.417691,144.5 270.246622,144.027523 269.904483,143.743119 C269.567097,143.458716 268.925587,143.321101 267.984706,143.321101 C267.343197,143.321101 266.848997,143.440367 266.492602,143.683486 C266.136208,143.922018 265.846341,144.348624 265.623001,144.954128 L262.377437,144.389908 C262.743335,143.12844 263.370589,142.192661 264.263951,141.587156 C265.15256,140.977064 266.478347,140.674312 268.236558,140.674312 C269.833204,140.674312 271.025937,140.857798 271.805253,141.224771 C272.584568,141.587156 273.135791,142.050459 273.45417,142.610092 C273.772549,143.174312 273.934114,144.201835 273.934114,145.706422 L273.896099,149.738532 C273.896099,150.885321 273.953122,151.733945 274.067168,152.279817 C274.181214,152.825688 274.395051,153.408257 274.708678,154.03211 Z M256.166673,144.522936 C255.534668,143.834862 254.7506,143.490826 253.819223,143.490826 C252.883095,143.490826 252.099027,143.834862 251.46227,144.522936 C250.825512,145.215596 250.507133,146.206422 250.507133,147.5 C250.507133,148.798165 250.825512,149.788991 251.46227,150.477064 C252.099027,151.165138 252.883095,151.509174 253.819223,151.509174 C254.7506,151.509174 255.534668,151.165138 256.166673,150.477064 C256.803431,149.788991 257.117058,148.788991 257.117058,147.477064 C257.117058,146.197248 256.803431,145.215596 256.166673,144.522936 Z M258.818247,152.376147 C257.497212,153.674312 255.834039,154.325688 253.833479,154.325688 C252.593227,154.325688 251.405246,154.055046 250.283793,153.513761 C249.157587,152.972477 248.302241,152.178899 247.713002,151.137615 C247.128516,150.091743 246.833896,148.816514 246.833896,147.316514 C246.833896,146.169725 247.128516,145.055046 247.713002,143.981651 C248.302241,142.908257 249.133827,142.087156 250.207762,141.522936 C251.281696,140.958716 252.479181,140.674312 253.804968,140.674312 C255.853047,140.674312 257.530475,141.316514 258.837254,142.600917 C260.148785,143.885321 260.799799,145.504587 260.799799,147.463303 C260.799799,149.440367 260.139281,151.077982 258.818247,152.376147 Z M245.664923,144.33945 C245.061429,143.963303 244.505454,143.775229 243.982742,143.775229 C243.483791,143.775229 243.056117,143.908257 242.709227,144.174312 C242.362337,144.440367 242.086725,144.922018 241.887144,145.619266 C241.687564,146.316514 241.587773,147.775229 241.587773,149.995413 L241.587773,154.03211 L238.009575,154.03211 L238.009575,140.96789 L241.335921,140.96789 L241.335921,142.830275 C241.906152,141.949541 242.414608,141.37156 242.870792,141.091743 C243.326977,140.816514 243.840185,140.674312 244.419919,140.674312 C245.232498,140.674312 246.021318,140.889908 246.776873,141.325688 L245.664923,144.33945 Z M231.475681,144.399083 C230.90545,143.738532 230.202165,143.408257 229.361075,143.408257 C228.486721,143.408257 227.759677,143.729358 227.184694,144.380734 C226.60496,145.036697 226.319844,146 226.319844,147.279817 C226.319844,148.747706 226.619215,149.830275 227.22271,150.53211 C227.821452,151.233945 228.558,151.582569 229.42285,151.582569 C230.259188,151.582569 230.952969,151.261468 231.49944,150.619266 C232.055415,149.972477 232.331027,148.917431 232.331027,147.449541 C232.331027,146.082569 232.045912,145.06422 231.475681,144.399083 Z M234.317331,152.513761 C233.214885,153.724771 231.874842,154.325688 230.306708,154.325688 C229.555904,154.325688 228.881131,154.183486 228.272885,153.894495 C227.664638,153.610092 227.023129,153.119266 226.353108,152.417431 L226.353108,159 L222.774909,159 L222.774909,140.96789 L226.115511,140.96789 L226.115511,142.889908 C226.547936,142.233945 227.132423,141.701835 227.873723,141.288991 C228.610271,140.880734 229.427602,140.674312 230.330467,140.674312 C231.898602,140.674312 233.233892,141.270642 234.331587,142.458716 C235.429281,143.646789 235.975752,145.302752 235.975752,147.426606 C235.975752,149.610092 235.424529,151.302752 234.317331,152.513761 Z M216.188744,144.399083 C215.623265,143.738532 214.915229,143.408257 214.074138,143.408257 C213.199784,143.408257 212.47274,143.729358 211.897757,144.380734 C211.318023,145.036697 211.032907,146 211.032907,147.279817 C211.032907,148.747706 211.332278,149.830275 211.935773,150.53211 C212.539267,151.233945 213.271063,151.582569 214.140665,151.582569 C214.972252,151.582569 215.666032,151.261468 216.217255,150.619266 C216.768479,149.972477 217.04409,148.917431 217.04409,147.449541 C217.04409,146.082569 216.758975,145.06422 216.188744,144.399083 Z M219.030394,152.513761 C217.927948,153.724771 216.587905,154.325688 215.019771,154.325688 C214.268967,154.325688 213.594194,154.183486 212.985948,153.894495 C212.377702,153.610092 211.740944,153.119266 211.070923,152.417431 L211.070923,159 L207.487973,159 L207.487973,140.96789 L210.828575,140.96789 L210.828575,142.889908 C211.261,142.233945 211.845486,141.701835 212.586786,141.288991 C213.323334,140.880734 214.145417,140.674312 215.04353,140.674312 C216.616417,140.674312 217.946956,141.270642 219.04465,142.458716 C220.142344,143.646789 220.688815,145.302752 220.688815,147.426606 C220.688815,149.610092 220.137592,151.302752 219.030394,152.513761 Z M196.748626,140.206422 L194.230107,146.899083 L199.324169,146.899083 L196.748626,140.206422 Z M202.165819,154.03211 L200.535909,149.93578 L193.070638,149.93578 L191.526263,154.03211 L187.525143,154.03211 L194.800338,136 L198.791953,136 L206.266728,154.03211 L202.165819,154.03211 Z M177.146943,144.100917 C176.638488,143.577982 176.020738,143.321101 175.288941,143.321101 C174.509626,143.321101 173.858612,143.591743 173.354909,144.142202 C172.841701,144.692661 172.589849,145.440367 172.599353,146.380734 L177.950018,146.380734 C177.926259,145.380734 177.660151,144.619266 177.146943,144.100917 Z M172.537578,148.495413 C172.566089,149.522936 172.851205,150.316514 173.402428,150.889908 C173.953651,151.458716 174.64268,151.743119 175.464763,151.743119 C176.030241,151.743119 176.500682,151.59633 176.880836,151.298165 C177.265741,151.004587 177.550857,150.53211 177.745686,149.876147 L181.31438,150.454128 C180.858195,151.715596 180.131151,152.678899 179.142751,153.334862 C178.154351,153.995413 176.914099,154.325688 175.431499,154.325688 C173.074545,154.325688 171.335341,153.582569 170.204384,152.100917 C169.311022,150.912844 168.869093,149.412844 168.869093,147.600917 C168.869093,145.43578 169.45358,143.738532 170.627305,142.513761 C171.796278,141.288991 173.278878,140.674312 175.070353,140.674312 C177.085168,140.674312 178.672311,141.316514 179.836532,142.600917 C181.000753,143.885321 181.556728,145.848624 181.504457,148.495413 L172.537578,148.495413 Z M162.772376,143.56422 C162.368462,143.293578 161.79348,143.16055 161.047428,143.16055 C160.106547,143.16055 159.431774,143.284404 159.023108,143.541284 C158.752249,143.720183 158.614443,143.954128 158.614443,144.243119 C158.614443,144.486239 158.733241,144.697248 158.970837,144.866972 C159.293968,145.100917 160.405918,145.422018 162.316191,145.83945 C164.221712,146.256881 165.552251,146.770642 166.312559,147.376147 C167.05861,147.990826 167.42926,148.848624 167.42926,149.944954 C167.42926,151.146789 166.911301,152.174312 165.875382,153.036697 C164.839462,153.894495 163.309343,154.325688 161.280272,154.325688 C159.436526,154.325688 157.977685,153.963303 156.903751,153.243119 C155.825064,152.522936 155.121779,151.545872 154.793897,150.307339 L158.386351,149.775229 C158.538412,150.449541 158.847287,150.958716 159.312976,151.307339 C159.783416,151.655963 160.43443,151.830275 161.280272,151.830275 C162.202145,151.830275 162.900678,151.665138 163.366366,151.33945 C163.679993,151.110092 163.836807,150.802752 163.836807,150.412844 C163.836807,150.151376 163.751272,149.93578 163.584955,149.761468 C163.404382,149.600917 163.00522,149.449541 162.382718,149.307339 C159.498301,148.692661 157.66881,148.133028 156.894247,147.623853 C155.825064,146.917431 155.288097,145.93578 155.288097,144.683486 C155.288097,143.550459 155.749033,142.600917 156.68041,141.830275 C157.602283,141.059633 159.037364,140.674312 160.980901,140.674312 C162.834151,140.674312 164.212208,140.963303 165.110322,141.545872 C166.013187,142.12844 166.630937,142.990826 166.973076,144.133028 L163.594458,144.733945 C163.451901,144.224771 163.176289,143.834862 162.772376,143.56422 Z M149.676076,154.03211 L149.676076,152.077982 C149.181876,152.775229 148.530862,153.321101 147.727787,153.724771 C146.924712,154.12844 146.07887,154.325688 145.19026,154.325688 C144.277891,154.325688 143.465312,154.133028 142.74302,153.747706 C142.020727,153.362385 141.498016,152.821101 141.174885,152.123853 C140.851754,151.431193 140.690189,150.463303 140.690189,149.233945 L140.690189,140.96789 L144.268387,140.96789 L144.268387,146.972477 C144.268387,148.807339 144.334914,149.931193 144.467968,150.348624 C144.601022,150.761468 144.84337,151.091743 145.19026,151.330275 C145.53715,151.573394 145.979079,151.692661 146.516047,151.692661 C147.124293,151.692661 147.670764,151.53211 148.15546,151.206422 C148.640156,150.885321 148.972791,150.486239 149.148612,150.004587 C149.329185,149.522936 149.419472,148.348624 149.419472,146.481651 L149.419472,140.96789 L152.99767,140.96789 L152.99767,154.03211 L149.676076,154.03211 Z M133.985225,144.522936 C133.35322,143.834862 132.569152,143.490826 131.637775,143.490826 C130.701646,143.490826 129.912827,143.834862 129.280821,144.522936 C128.639312,145.215596 128.320933,146.206422 128.320933,147.5 C128.320933,148.798165 128.639312,149.788991 129.280821,150.477064 C129.912827,151.165138 130.701646,151.509174 131.637775,151.509174 C132.569152,151.509174 133.35322,151.165138 133.985225,150.477064 C134.617231,149.788991 134.93561,148.788991 134.93561,147.477064 C134.93561,146.197248 134.617231,145.215596 133.985225,144.522936 Z M136.632046,152.376147 C135.315764,153.674312 133.652591,154.325688 131.647279,154.325688 C130.407027,154.325688 129.223798,154.055046 128.102344,153.513761 C126.976139,152.972477 126.120792,152.178899 125.531554,151.137615 C124.947067,150.091743 124.652448,148.816514 124.652448,147.316514 C124.652448,146.169725 124.947067,145.055046 125.531554,143.981651 C126.120792,142.908257 126.947627,142.087156 128.021562,141.522936 C129.100248,140.958716 130.297733,140.674312 131.623519,140.674312 C133.666846,140.674312 135.344275,141.316514 136.655806,142.600917 C137.962585,143.885321 138.61835,145.504587 138.61835,147.463303 C138.61835,149.440367 137.957833,151.077982 136.632046,152.376147 Z M118.489204,154.03211 L118.489204,146.146789 L111.099963,146.146789 L111.099963,154.03211 L107.326936,154.03211 L107.326936,136 L111.099963,136 L111.099963,143.09633 L118.489204,143.09633 L118.489204,136 L122.262231,136 L122.262231,154.03211 L118.489204,154.03211 Z M94.0690708,144.100917 C93.560615,143.577982 92.942865,143.321101 92.2110688,143.321101 C91.4317534,143.321101 90.7854919,143.591743 90.2770361,144.142202 C89.7638284,144.692661 89.5119765,145.440367 89.5214803,146.380734 L94.8721458,146.380734 C94.8483862,145.380734 94.5822785,144.619266 94.0690708,144.100917 Z M89.4597053,148.495413 C89.4834649,149.522936 89.7733322,150.316514 90.3245553,150.889908 C90.8805303,151.458716 91.5648073,151.743119 92.38689,151.743119 C92.9523688,151.743119 93.4228092,151.59633 93.8029631,151.298165 C94.1831169,151.004587 94.4729842,150.53211 94.6678131,149.876147 L98.2365074,150.454128 C97.7803228,151.715596 97.0532785,152.678899 96.0648785,153.334862 C95.0764785,153.995413 93.8362265,154.325688 92.3536265,154.325688 C90.0014246,154.325688 88.2574688,153.582569 87.1265111,152.100917 C86.2379014,150.912844 85.7912206,149.412844 85.7912206,147.600917 C85.7912206,145.43578 86.3757072,143.738532 87.5494322,142.513761 C88.7184053,141.288991 90.2010053,140.674312 91.9924804,140.674312 C94.0072958,140.674312 95.5944381,141.316514 96.7586593,142.600917 C97.9228805,143.885321 98.4788555,145.848624 98.4265843,148.495413 L89.4597053,148.495413 Z M80.2362225,154.03211 L83.8144206,154.03211 L83.8144206,136 L80.2362225,136 L80.2362225,154.03211 Z M73.4552281,144.522936 C72.8232224,143.834862 72.039155,143.490826 71.1030262,143.490826 C70.1716492,143.490826 69.3875819,143.834862 68.7460723,144.522936 C68.1140665,145.215596 67.7909357,146.206422 67.7909357,147.5 C67.7909357,148.798165 68.1140665,149.788991 68.7460723,150.477064 C69.3875819,151.165138 70.1716492,151.509174 71.1030262,151.509174 C72.039155,151.509174 72.8232224,151.165138 73.4552281,150.477064 C74.0872339,149.788991 74.4056128,148.788991 74.4056128,147.477064 C74.4056128,146.197248 74.0872339,145.215596 73.4552281,144.522936 Z M76.1068013,152.376147 C74.7857666,153.674312 73.1225935,154.325688 71.1172819,154.325688 C69.87703,154.325688 68.6985531,154.055046 67.5723473,153.513761 C66.4413896,152.972477 65.5907953,152.178899 65.0015568,151.137615 C64.4170703,150.091743 64.1224511,148.816514 64.1224511,147.316514 C64.1224511,146.169725 64.4170703,145.055046 65.0015568,143.981651 C65.5907953,142.908257 66.4176299,142.087156 67.4915646,141.522936 C68.5702511,140.958716 69.7677358,140.674312 71.0935223,140.674312 C73.1416012,140.674312 74.8190301,141.316514 76.1258089,142.600917 C77.4325878,143.885321 78.0883532,145.504587 78.0883532,147.463303 C78.0883532,149.440367 77.4278359,151.077982 76.1068013,152.376147 Z M58.3916317,154.03211 L58.3916317,147.133028 C58.3916317,145.761468 58.3251048,144.894495 58.192051,144.522936 C58.0542452,144.155963 57.816649,143.862385 57.4697586,143.642202 C57.1276202,143.426606 56.6951952,143.321101 56.1772355,143.321101 C55.5832451,143.321101 55.0510298,143.458716 54.5805894,143.738532 C54.1149009,144.013761 53.7727624,144.43578 53.5589259,144.995413 C53.3403374,145.559633 53.2310432,146.389908 53.2310432,147.490826 L53.2310432,154.03211 L49.652845,154.03211 L49.652845,136 L53.2310432,136 L53.2310432,142.62844 C54.3857605,141.325688 55.7685701,140.674312 57.3747202,140.674312 C58.1968029,140.674312 58.9428548,140.821101 59.6033721,141.119266 C60.2686414,141.412844 60.7675933,141.793578 61.1002279,142.247706 C61.4376145,142.706422 61.6657068,143.215596 61.7892568,143.775229 C61.9128068,144.330275 61.9745818,145.197248 61.9745818,146.37156 L61.9745818,154.03211 L58.3916317,154.03211 Z M43.8840103,154.03211 L39.882891,154.03211 L36.1621352,140.550459 L32.4556351,154.03211 L28.3689812,154.03211 L23.9069254,136 L27.765487,136 L30.5833774,148.385321 L34.0000102,136 L38.4810737,136 L41.7551488,148.591743 L44.6253104,136 L48.422097,136 L43.8840103,154.03211 Z M9.22348284,140.206422 L6.70021165,146.899083 L11.7942733,146.899083 L9.22348284,140.206422 Z M14.6359233,154.03211 L13.0060137,149.93578 L5.5407424,149.93578 L4.0011193,154.03211 L0,154.03211 L7.27519435,136 L11.2620579,136 L18.736833,154.03211 L14.6359233,154.03211 Z" id="Fill-6" fill="#663600"></path>
                <path d="M473.777538,143.676666 C474.367171,143.022621 475.118071,142.695599 476.025198,142.695599 C476.962563,142.695599 477.738661,143.027293 478.348452,143.695353 C478.963283,144.363413 479.270698,145.386526 479.270698,146.764691 C479.270698,148.082124 478.948164,149.077207 478.308135,149.749939 C477.668107,150.42267 476.886969,150.759036 475.959683,150.759036 C475.092873,150.759036 474.367171,150.432014 473.777538,149.777969 C473.187905,149.123924 472.890569,148.086796 472.890569,146.675928 C472.890569,145.330465 473.187905,144.330711 473.777538,143.676666 M469.483801,154.902877 C469.483801,156.094173 469.99784,157.070568 471.010799,157.841406 C472.028798,158.616917 473.757379,159 476.186465,159 C477.476602,159 478.539957,158.873863 479.381569,158.62626 C480.223182,158.373986 480.898488,158.028276 481.402448,157.589132 C481.906407,157.145316 482.299496,156.533317 482.581713,155.757807 C482.858891,154.982297 483,153.805016 483,152.23998 L483,140.298992 L479.447084,140.298992 L479.447084,142.167691 C478.293017,140.724121 476.826494,140 475.052556,140 C473.334053,140 471.892729,140.58864 470.733621,141.765921 C469.579554,142.943201 469,144.648389 469,146.876813 C469,148.656749 469.443485,150.142365 470.320374,151.338333 C471.449244,152.847308 472.976242,153.604131 474.906407,153.604131 C476.634989,153.604131 478.066235,152.884682 479.200144,151.450455 L479.200144,153.38923 C479.200144,154.174084 479.139669,154.716007 479.028798,155.005655 C478.852412,155.416769 478.605472,155.711089 478.267819,155.893287 C477.773938,156.168921 477.033117,156.309073 476.040317,156.309073 C475.264219,156.309073 474.699784,156.182936 474.336933,155.935333 C474.074874,155.757807 473.908567,155.435456 473.838013,154.968281 L469.49892,154.482419 C469.488841,154.645931 469.483801,154.786083 469.483801,154.902877" id="Fill-10" fill="#663600"></path>
                <polygon id="Fill-13" fill="#663600" points="0 126 483 126 483 124 0 124"></polygon>
            </g>
        </g>
    </g>
</svg>