<?xml version="1.0" encoding="UTF-8"?>
<svg width="289px" height="68px" viewBox="0 0 289 68" version="1.1" xmlns="http://www.w3.org/2000/svg" xmlns:xlink="http://www.w3.org/1999/xlink">
    <!-- Generator: Sketch 51.3 (57544) - http://www.bohemiancoding.com/sketch -->
    <title>logo</title>
    <desc>Created with Sketch.</desc>
    <defs></defs>
    <g id="Symbols" stroke="none" stroke-width="1" fill="none" fill-rule="evenodd">
        <g id="Navigation" transform="translate(-131.000000, -25.000000)">
            <g id="logo-top-panel" transform="translate(13.379310, 13.344828)">
                <g id="logo" transform="translate(118.000000, 12.000000)">
                    <path d="M269.015221,66.6221223 L269.015221,46.3584282 L272.962184,46.3584282 L281.233084,59.9175708 L281.233084,46.3584282 L285,46.3584282 L285,66.6221223 L280.929255,66.6221223 L272.782137,53.3436094 L272.782137,66.6221223 L269.015221,66.6221223 Z M244.841126,56.4666578 C244.841126,58.7617094 245.367201,60.503837 246.422162,61.690262 C247.477124,62.8739084 248.816222,63.4685102 250.436643,63.4685102 C252.062691,63.4685102 253.390536,62.8794655 254.431431,61.7041545 C255.47514,60.5288436 255.995588,58.7617094 255.995588,56.4083091 C255.995588,54.0854723 255.486393,52.3489018 254.47363,51.2041545 C253.460866,50.0621858 252.113329,49.4870336 250.436643,49.4870336 C248.759957,49.4870336 247.406793,50.0677428 246.379964,51.2263826 C245.353135,52.3850225 244.841126,54.1299286 244.841126,56.4666578 Z M240.649412,56.602805 C240.649412,54.5383699 240.953241,52.8073564 241.569339,51.4042075 C242.025082,50.3733792 242.649619,49.4453559 243.442951,48.6256946 C244.236282,47.8060333 245.102757,47.197539 246.048003,46.8002117 C247.305517,46.2667372 248.751518,46 250.388818,46 C253.356777,46 255.733957,46.9252448 257.514732,48.7785128 C259.295508,50.6317809 260.187302,53.2074623 260.187302,56.505557 C260.187302,59.7814237 259.303947,62.3376555 257.534425,64.188145 C255.767716,66.035856 253.404602,66.9583223 250.445083,66.9583223 C247.448992,66.9583223 245.066185,66.0386346 243.299476,64.1992591 C241.529954,62.3598836 240.649412,59.8286584 240.649412,56.602805 Z M227.888596,66.6221223 L231.953715,66.6221223 L231.953715,46.3584282 L227.888596,46.3584282 L227.888596,66.6221223 Z M209.748882,66.6221223 L209.748882,49.781556 L203.767953,49.781556 L203.767953,46.3584282 L219.752732,46.3584282 L219.752732,49.781556 L213.814001,49.781556 L213.814001,66.6221223 L209.748882,66.6221223 Z M192.121176,59.1590368 L196.0597,60.401032 C195.457668,62.6182853 194.453345,64.2659434 193.049542,65.3440064 C191.64574,66.4192908 189.864965,66.9583223 187.707217,66.9583223 C185.034647,66.9583223 182.840327,66.0386346 181.121443,64.1992591 C179.402559,62.3598836 178.54171,59.848108 178.54171,56.6583752 C178.54171,53.2852607 179.405372,50.665123 181.135509,48.7979624 C182.86002,46.9335803 185.13311,46 187.949155,46 C190.407919,46 192.402499,46.7335274 193.938523,48.1950251 C194.852824,49.0646997 195.539252,50.3066949 195.994995,51.9265679 L191.974888,52.8962689 C191.735764,51.8432125 191.240635,51.0124372 190.489502,50.4039428 C189.735556,49.79267 188.821256,49.4870336 187.743789,49.4870336 C186.255589,49.4870336 185.051527,50.0288436 184.125974,51.1069066 C183.200421,52.1877481 182.736237,53.9382112 182.736237,56.3527388 C182.736237,58.9200847 183.191981,60.7483461 184.106281,61.8347446 C185.020581,62.9239217 186.204951,63.4685102 187.667831,63.4685102 C188.745299,63.4685102 189.670852,63.1211961 190.450117,62.4293464 C191.226569,61.7374967 191.783588,60.6483197 192.121176,59.1590368 Z M153.273268,46.3584282 L157.338387,46.3584282 L157.338387,57.3307753 C157.338387,59.0729029 157.389025,60.2037576 157.487489,60.7177825 C157.661909,61.5485578 158.075454,62.2126224 158.728123,62.7155332 C159.383606,63.2156655 160.278214,63.4685102 161.414759,63.4685102 C162.565371,63.4685102 163.434659,63.2323366 164.019811,62.7572109 C164.604963,62.2820852 164.95943,61.701376 165.077586,61.0095263 C165.195742,60.3176766 165.257633,59.1701508 165.257633,57.5669489 L165.257633,46.3584282 L169.319938,46.3584282 L169.319938,56.9973538 C169.319938,59.4285525 169.210222,61.1456735 168.99079,62.1514951 C168.771358,63.1545382 168.366253,64.0019847 167.775475,64.6910558 C167.184696,65.3829055 166.396991,65.9330511 165.406734,66.344271 C164.41929,66.7527124 163.128017,66.9583223 161.535728,66.9583223 C159.614291,66.9583223 158.157038,66.7360413 157.163967,66.2887007 C156.170896,65.8413601 155.386005,65.260651 154.809293,64.5465732 C154.23258,63.8352739 153.852794,63.0850754 153.669934,62.3015348 C153.40549,61.1401164 153.273268,59.4285525 153.273268,57.1640646 L153.273268,46.3584282 Z M131.428529,54.9329188 L134.430247,54.9329188 C136.374189,54.9329188 137.592318,54.8495634 138.076194,54.6856311 C138.56007,54.5189203 138.939856,54.2327335 139.212739,53.8270707 C139.488436,53.4214078 139.623471,52.9129399 139.623471,52.3044456 C139.623471,51.6209315 139.443424,51.0680074 139.083331,50.648452 C138.723237,50.2288965 138.214042,49.9621593 137.555746,49.8537973 C137.226598,49.8065626 136.239154,49.781556 134.596227,49.781556 L131.428529,49.781556 L131.428529,54.9329188 Z M127.36341,66.6221223 L127.36341,46.3584282 L135.912819,46.3584282 C138.062128,46.3584282 139.623471,46.5390315 140.599662,46.9030167 C141.57304,47.2670019 142.355119,47.9143953 142.940271,48.8479757 C143.525423,49.7787775 143.817999,50.8429479 143.817999,52.0432654 C143.817999,53.5631119 143.373508,54.8217782 142.490154,55.8109288 C141.603986,56.8056364 140.284581,57.4280233 138.526311,57.6892035 C139.401226,58.2032284 140.124226,58.7672665 140.692499,59.3868748 C141.263585,60.0037047 142.031597,61.0984387 142.999349,62.6738555 L145.455299,66.6221223 L140.596849,66.6221223 L137.676715,62.2042868 C136.630193,60.6344271 135.912819,59.6452765 135.53022,59.2396137 C135.144807,58.8283938 134.736889,58.5505425 134.306465,58.3977243 C133.873227,58.2476846 133.189612,58.1698862 132.252806,58.1698862 L131.428529,58.1698862 L131.428529,66.6221223 L127.36341,66.6221223 Z M109.074595,66.6221223 L109.074595,49.781556 L103.093666,49.781556 L103.093666,46.3584282 L119.081258,46.3584282 L119.081258,49.781556 L113.142527,49.781556 L113.142527,66.6221223 L109.074595,66.6221223 Z M79.0574195,60.0426039 L83.0156356,59.6647261 C83.2547603,61.0011908 83.7358228,61.9847843 84.4616364,62.6127282 C85.1902633,63.2378936 86.1720809,63.5546441 87.4070893,63.5546441 C88.7152418,63.5546441 89.6998727,63.2740143 90.3637952,62.7155332 C91.0277177,62.1570521 91.359679,61.5041016 91.359679,60.7539031 C91.359679,60.2732204 91.2190174,59.8675576 90.9405076,59.528579 C90.6619977,59.1923789 90.1753087,58.8978566 89.4804406,58.6477904 C89.0078178,58.4810797 87.9219106,58.1837788 86.2311588,57.7586663 C84.0565311,57.2112993 82.5289467,56.5416777 81.6512186,55.747023 C80.4190234,54.6300609 79.8029258,53.2685896 79.8029258,51.6626092 C79.8029258,50.6290024 80.0926886,49.6620799 80.6722142,48.7618418 C81.2517398,47.8616036 82.0900826,47.1753109 83.1844295,46.7057423 C84.2759632,46.2361736 85.5953685,46 87.1426456,46 C89.6661139,46 91.5650449,46.5584811 92.8394385,47.6782218 C94.1166454,48.7979624 94.7861944,50.2900238 94.8508988,52.1571844 L90.7857799,52.3072241 C90.6085463,51.2680603 90.240013,50.5234189 89.6689271,50.0649643 C89.0978412,49.6092882 88.2454322,49.3842286 87.1032604,49.3842286 C85.9273298,49.3842286 85.00459,49.6287378 84.3378542,50.1149775 C83.9102431,50.4289495 83.6964376,50.8485049 83.6964376,51.3736438 C83.6964376,51.851548 83.8989902,52.2627679 84.298469,52.604525 C84.8104771,53.0351945 86.0539252,53.4880921 88.0288134,53.9604393 C89.9980752,54.435565 91.4581421,54.9218047 92.4033877,55.4247155 C93.3486334,55.9276264 94.0885131,56.6166975 94.623027,57.4891506 C95.1575409,58.3643821 95.4247979,59.4424451 95.4247979,60.726118 C95.4247979,61.8875364 95.1040895,62.9767134 94.4626729,63.9936491 C93.8240694,65.0078063 92.918209,65.7663403 91.7450917,66.2609156 C90.5719743,66.7527124 89.1119074,67 87.3648909,67 C84.8189168,67 82.8665344,66.4081768 81.4993041,65.2217518 C80.1377003,64.0381053 79.3218632,62.3098703 79.0574195,60.0426039 Z M54.1912701,66.6221223 L54.1912701,46.3584282 L58.1382333,46.3584282 L66.4091326,59.9175708 L66.4091326,46.3584282 L70.176049,46.3584282 L70.176049,66.6221223 L66.1081169,66.6221223 L57.9581865,53.3436094 L57.9581865,66.6221223 L54.1912701,66.6221223 Z M30.0171755,56.4666578 C30.0171755,58.7617094 30.5432497,60.503837 31.5982114,61.690262 C32.653173,62.8739084 33.992271,63.4685102 35.6155053,63.4685102 C37.2359264,63.4685102 38.569398,62.8794655 39.6102935,61.7041545 C40.6483757,60.5288436 41.1716367,58.7617094 41.1716367,56.4083091 C41.1716367,54.0854723 40.6652551,52.3489018 39.6496787,51.2041545 C38.6369155,50.0621858 37.2921911,49.4870336 35.6155053,49.4870336 C33.9360064,49.4870336 32.5856555,50.0677428 31.5560129,51.2263826 C30.5291836,52.3850225 30.0171755,54.1299286 30.0171755,56.4666578 Z M25.822648,56.602805 C25.822648,54.5383699 26.1321034,52.8073564 26.7453878,51.4042075 C27.2011312,50.3733792 27.8284817,49.4453559 28.6189997,48.6256946 C29.4123308,47.8060333 30.2816192,47.197539 31.2240516,46.8002117 C32.4787527,46.2667372 33.9275667,46 35.5676804,46 C38.5356392,46 40.9100062,46.9252448 42.6907815,48.7785128 C44.47437,50.6317809 45.363351,53.2074623 45.363351,56.505557 C45.363351,59.7814237 44.4799964,62.3376555 42.7104741,64.188145 C40.943765,66.035856 38.5778377,66.9583223 35.6211318,66.9583223 C32.6250407,66.9583223 30.242234,66.0386346 28.4755249,64.1992591 C26.7088158,62.3598836 25.822648,59.8286584 25.822648,56.602805 Z M13.5794664,59.1590368 L17.5179899,60.401032 C16.9131452,62.6182853 15.9116349,64.2659434 14.5078326,65.3440064 C13.1040303,66.4192908 11.3204418,66.9583223 9.16269359,66.9583223 C6.49293731,66.9583223 4.29861707,66.0386346 2.57973289,64.1992591 C0.860848707,62.3598836 0,59.848108 0,56.6583752 C0,53.2852607 0.863661938,50.665123 2.59098582,48.7979624 C4.31830969,46.9335803 6.5914004,46 9.40463147,46 C11.8633954,46 13.8607895,46.7335274 15.3968136,48.1950251 C16.3111137,49.0646997 16.9975421,50.3066949 17.4560988,51.9265679 L13.4303651,52.8962689 C13.1940537,51.8432125 12.698925,51.0124372 11.9477924,50.4039428 C11.1938464,49.79267 10.2795463,49.4870336 9.20207883,49.4870336 C7.71669282,49.4870336 6.50700346,50.0288436 5.58145044,51.1069066 C4.65589742,52.1877481 4.19452753,53.9382112 4.19452753,56.3527388 C4.19452753,58.9200847 4.65027096,60.7483461 5.56457106,61.8347446 C6.47887115,62.9239217 7.66605467,63.4685102 9.12612159,63.4685102 C10.2035891,63.4685102 11.1319553,63.1211961 11.9084071,62.4293464 C12.6848589,61.7374967 13.2418786,60.6483197 13.5794664,59.1590368 Z" id="Fill-1" fill="#BB8D0A"></path>
                    <path d="M244.588504,12.5142149 C243.891942,12.5142149 243.4594,12.7287121 243.296495,13.154884 C243.130781,13.581056 243.049328,14.7353893 243.049328,16.6122393 L243.049328,19.0479108 L245.981626,19.0479108 L245.981626,16.6122393 C245.981626,14.8849728 245.88613,13.7701521 245.706372,13.2677772 C245.523806,12.7654024 245.153055,12.5142149 244.588504,12.5142149 Z M102.950633,27.6306188 C102.69504,28.4321608 102.571456,29.5808495 102.571456,31.0795071 C102.571456,32.7926619 102.680996,33.901838 102.900076,34.3985682 C103.121965,34.9009431 103.560124,35.1493082 104.214555,35.1493082 C104.838089,35.1493082 105.242544,34.9545674 105.430728,34.5622634 C105.618912,34.1727817 105.714408,33.142631 105.714408,31.4774558 L105.714408,24.6587045 C104.124676,25.8412611 103.203417,26.8318992 102.950633,27.6306188 Z M128.377928,12.5142149 C127.681367,12.5142149 127.251634,12.7287121 127.085919,13.154884 C126.917396,13.581056 126.835944,14.7353893 126.835944,16.6122393 L126.835944,19.0479108 L129.768242,19.0479108 L129.768242,16.6122393 C129.768242,14.8849728 129.678363,13.7701521 129.492988,13.2677772 C129.31323,12.7654024 128.939671,12.5142149 128.377928,12.5142149 Z M196.281418,12.5142149 C195.683161,12.5142149 195.287133,12.7343567 195.087714,13.1774627 C194.888295,13.6177463 194.78999,14.690232 194.78999,16.3920975 L194.78999,31.3730295 C194.78999,32.9394231 194.888295,33.9611069 195.087714,34.4380808 C195.287133,34.9122324 195.674735,35.1493082 196.256139,35.1493082 C196.851587,35.1493082 197.244807,34.9319887 197.435799,34.5001721 C197.626792,34.0655331 197.722288,33.1313416 197.722288,31.6975976 L197.722288,16.3920975 C197.722288,14.690232 197.629601,13.6177463 197.449843,13.1774627 C197.264468,12.7343567 196.876865,12.5142149 196.281418,12.5142149 Z M115.221908,12.9206306 C115.570189,14.6761203 115.744329,18.2915261 115.744329,23.7696703 L115.744329,40.4016659 L105.970001,40.4016659 L105.970001,37.4523301 C105.357702,38.6348868 104.568453,39.523921 103.602255,40.1137881 C102.636057,40.7036553 101.484484,41 100.147536,41 C98.3948975,41 96.7883126,40.5032698 95.3277809,39.515454 C93.8644405,38.5248159 93.1341746,36.3572658 93.1341746,33.0156261 L93.1341746,30.2948992 C93.1341746,27.8168927 93.5217773,26.1291388 94.2997913,25.2316376 C95.0778053,24.3313141 97.0045837,23.2842294 100.082935,22.0875611 C103.374749,20.7892889 105.135813,19.9171887 105.368936,19.4656157 C105.599251,19.0168651 105.714408,18.0996076 105.714408,16.7081985 C105.714408,14.9668204 105.588016,13.8322434 105.332423,13.3044675 C105.079639,12.779514 104.658332,12.5142149 104.068501,12.5142149 C103.397219,12.5142149 102.97872,12.737179 102.815815,13.180285 C102.6501,13.6233909 102.571456,14.7720796 102.571456,16.6291733 L102.571456,20.1147518 L93.1341746,20.1147518 L93.1341746,17.8907551 C93.1341746,15.3252564 93.4290897,13.3439802 94.0161111,11.9525711 C94.6031325,10.561162 95.7827927,9.33062573 97.5522831,8.26378468 C99.3217734,7.19694362 101.622111,6.66352309 104.450487,6.66352309 C107.843414,6.66352309 110.399345,7.26750189 112.121087,8.47263716 C113.842829,9.68059475 114.873627,11.1623184 115.221908,12.9206306 Z M89.5277848,8.01259723 C88.294759,7.1122737 86.797714,6.66352309 85.0422673,6.66352309 C83.8991203,6.66352309 82.8261913,6.86390858 81.8206714,7.26467956 C80.8207689,7.66545054 79.8882756,8.26378468 79.0260001,9.06532663 L79.0260001,0 L68.9960795,0 L68.9960795,40.4016659 L79.0260001,40.4016659 L79.0260001,16.7392442 C79.0260001,15.0543127 79.1327313,13.931025 79.3490023,13.3637365 C79.5680821,12.7992703 79.9837719,12.5142149 80.5988804,12.5142149 C81.2645458,12.5142149 81.6914705,12.7908033 81.8824631,13.3383355 C82.0734557,13.88869 82.1717607,15.1305156 82.1717607,17.0638122 L82.1717607,40.4016659 L92.2016813,40.4016659 L92.2016813,17.5520754 C92.2016813,14.4390445 92.0640543,12.2940731 91.791609,11.1199835 C91.5163549,9.94871618 90.7636193,8.91292077 89.5277848,8.01259723 Z M68.1085256,19.7732498 C68.1085256,16.6602189 67.8023757,14.255593 67.1900759,12.5593722 C66.577776,10.860329 65.3419415,9.45480829 63.4881897,8.33716528 C61.6316292,7.2223446 59.3958923,6.66352309 56.7809788,6.66352309 C54.1464043,6.66352309 51.9106673,7.22516693 50.0709591,8.3484546 C48.2340596,9.47174227 47.0347383,10.7502581 46.4701867,12.1811799 C45.9084437,13.6149239 45.6247635,15.7373167 45.6247635,18.5511806 L45.6247635,27.9636539 C45.6247635,31.1952227 45.9702354,33.6873408 46.6555618,35.4456529 C47.343697,37.2011427 48.514931,38.5643285 50.1720728,39.540855 C51.8292145,40.5117368 54.070569,41 56.9045622,41 C59.1234469,41 60.9856248,40.6472086 62.4939047,39.9416259 C64.0021846,39.2332209 65.2239755,38.1861362 66.1592775,36.7975494 C67.0945796,35.4089626 67.6478964,34.0514215 67.8220367,32.7305707 C67.996177,31.4068975 68.0916733,29.4227989 68.1085256,26.7782749 L59.1402992,26.7782749 L59.1402992,30.7267158 C59.1402992,32.4426929 59.0223332,33.6083156 58.7835924,34.226406 C58.5420429,34.8416741 58.0870311,35.1493082 57.4101309,35.1493082 C56.8343443,35.1493082 56.3961848,34.8529634 56.1012698,34.2630963 C55.803546,33.6704068 55.6546841,32.7813726 55.6546841,31.598816 L55.6546841,15.9405245 C55.6546841,14.4898465 55.7557979,13.555655 55.9524079,13.1407724 C56.1518266,12.7230674 56.5394293,12.5142149 57.1180245,12.5142149 C57.6966198,12.5142149 58.0926486,12.7512907 58.3089196,13.2282646 C58.5223819,13.7024162 58.6291131,14.6083844 58.6291131,15.9433469 L58.6291131,19.7732498 L68.1085256,19.7732498 Z M16.2568414,18.8644593 L14.7794574,8.57988573 C14.3356804,5.28622565 13.9227994,2.42720452 13.5464316,0 L0,0 L0,40.4016659 L9.1367493,40.4016659 L9.15921902,13.7249948 L13.0043496,40.4016659 L19.4672024,40.4016659 L23.0988707,13.1266607 L23.1213404,40.4016659 L32.2580897,40.4016659 L32.2580897,0 L18.6695274,0 L16.2568414,18.8644593 Z M34.0753282,5.25518001 L44.4029726,5.25518001 L44.4029726,0.00282233083 L34.0753282,0.00282233083 L34.0753282,5.25518001 Z M34.0753282,40.4016659 L44.4029726,40.4016659 L44.4029726,7.2590349 L34.0753282,7.2590349 L34.0753282,40.4016659 Z M177.659638,19.3442555 C179.729661,19.8607421 181.119975,20.5493908 181.833389,21.413024 C182.543993,22.2766573 182.984962,23.0697322 183.161911,23.7950712 C183.333242,24.5147656 183.420312,26.5045088 183.420312,29.7614786 L183.420312,40.4016659 L173.688116,40.4016659 L173.688116,26.9927721 C173.688116,24.833689 173.519593,23.4959042 173.179738,22.98224 C172.839884,22.4657534 171.946712,22.2089213 170.500224,22.2089213 L170.500224,40.4016659 L160.046188,40.4016659 L160.046188,0 L167.455577,0 C172.396107,0 175.741286,0.191918497 177.488307,0.57575549 C179.240945,0.959592483 180.667772,1.93894128 181.768788,3.51380189 C182.869804,5.08866249 183.420312,7.5977146 183.420312,11.0466029 C183.420312,14.1963241 183.03271,16.3130722 182.254696,17.3940249 C181.476682,18.4778 179.943124,19.1269361 177.659638,19.3442555 Z M138.736468,12.5480829 C139.472352,14.323329 139.840293,16.8154471 139.840293,20.0329042 L139.840293,24.4300957 L126.835944,24.4300957 L126.835944,31.6016383 C126.835944,33.100296 126.945484,34.0683555 127.158946,34.5001721 C127.375217,34.9319887 127.790907,35.1493082 128.406015,35.1493082 C129.167177,35.1493082 129.678363,34.8614304 129.936765,34.285675 C130.192358,33.7099195 130.321559,32.5979211 130.321559,30.9440352 L130.321559,26.5666001 L139.840293,26.5666001 L139.840293,29.013561 C139.840293,31.0597508 139.713901,32.6346114 139.455499,33.7324981 C139.199906,34.8332071 138.598841,36.0072968 137.655113,37.254767 C136.708576,38.5022372 135.514873,39.439251 134.062767,40.0629862 C132.61347,40.6867213 130.796232,41 128.611052,41 C126.487663,41 124.617059,40.6923659 122.993622,40.0770978 C121.367376,39.4590074 120.106263,38.6179528 119.204666,37.5398224 C118.300259,36.4673367 117.676725,35.2847801 117.328444,33.9949749 C116.980163,32.7051697 116.806023,30.8283197 116.806023,28.3644249 L116.806023,18.7007641 C116.806023,15.8050527 117.196434,13.5189647 117.974448,11.8453225 C118.752463,10.1716803 120.027619,8.89034212 121.799918,7.99848558 C123.575026,7.10945137 125.611344,6.66352309 127.91449,6.66352309 C130.728822,6.66352309 133.054438,7.20258828 134.882912,8.275074 C136.714194,9.35038205 137.997776,10.7756591 138.736468,12.5480829 Z M285.227798,34.6892683 C285.00591,34.4409031 284.89637,33.2244786 284.89637,31.0456392 L284.89637,13.3270462 L287.573075,13.3270462 L287.573075,8.07186618 L284.89637,8.07186618 L284.89637,2.86184346 L274.824319,2.86184346 L274.824319,8.07186618 L273.212116,8.07186618 L273.212116,6.66352309 C270.448341,6.8469746 268.336188,8.5036828 266.881273,11.628003 L267.263258,7.26185723 L257.233338,7.26185723 L257.233338,40.4016659 L267.263258,40.4016659 L267.263258,27.3145178 C267.263258,24.099883 267.361564,22.0480485 267.560982,21.1590142 C267.760401,20.2671577 268.291248,19.570042 269.156332,19.0733118 C270.018608,18.5709369 271.3696,18.3225718 273.212116,18.3225718 L273.212116,13.3270462 L274.824319,13.3270462 L274.824319,30.1453156 C274.824319,33.4389757 274.914198,35.5303228 275.093955,36.4221794 C275.276522,37.3112136 275.73996,38.1014662 276.484269,38.7929373 C277.231387,39.4844083 278.088045,39.924692 279.065478,40.1166104 C280.040102,40.3057066 281.671966,40.4016659 283.952642,40.4016659 L288,40.4016659 L288,35.0646383 C286.373754,35.0646383 285.449687,34.9376334 285.227798,34.6892683 Z M254.947044,12.5480829 C255.685736,14.323329 256.053678,16.8154471 256.053678,20.0329042 L256.053678,24.4300957 L243.049328,24.4300957 L243.049328,31.6016383 C243.049328,33.100296 243.153251,34.0683555 243.369522,34.5001721 C243.588601,34.9319887 244.001482,35.1493082 244.616591,35.1493082 C245.377753,35.1493082 245.88613,34.8614304 246.144532,34.285675 C246.402934,33.7099195 246.532134,32.5979211 246.532134,30.9440352 L246.532134,26.5666001 L256.053678,26.5666001 L256.053678,29.013561 C256.053678,31.0597508 255.924477,32.6346114 255.668884,33.7324981 C255.410482,34.8332071 254.809417,36.0072968 253.865689,37.254767 C252.921961,38.5022372 251.725448,39.439251 250.276151,40.0629862 C248.826854,40.6867213 247.006807,41 244.821627,41 C242.701047,41 240.827635,40.6923659 239.204197,40.0770978 C237.58076,39.4590074 236.316839,38.6179528 235.412432,37.5398224 C234.510835,36.4673367 233.884492,35.2847801 233.53902,33.9949749 C233.190739,32.7051697 233.016599,30.8283197 233.016599,28.3644249 L233.016599,18.7007641 C233.016599,15.8050527 233.40701,13.5189647 234.182215,11.8453225 C234.963038,10.1716803 236.238195,8.89034212 238.010494,7.99848558 C239.782793,7.10945137 241.82192,6.66352309 244.122257,6.66352309 C246.939398,6.66352309 249.265014,7.20258828 251.093487,8.275074 C252.924769,9.35038205 254.211161,10.7756591 254.947044,12.5480829 Z M207.266301,13.6544366 C207.592112,14.8059475 207.752209,16.5529703 207.752209,18.9011496 L207.752209,27.0153507 C207.752209,29.9957321 207.603347,32.1802161 207.305623,33.5716252 C207.0079,34.9630343 206.370321,36.2613065 205.392888,37.4664418 C204.415456,38.6743994 203.162769,39.5634336 201.632019,40.1391891 C200.10127,40.7121223 198.343014,41 196.354444,41 C194.138368,41 192.256529,40.7544572 190.717354,40.2633717 C189.175369,39.7722861 187.981665,39.0328354 187.127816,38.0421973 C186.276775,37.0515592 185.667284,35.8520686 185.30496,34.4465478 C184.939827,33.0382047 184.760069,30.9271013 184.760069,28.1132374 L184.760069,19.6236663 C184.760069,16.5445033 185.088689,14.1398775 185.751546,12.4069663 C186.414402,10.6768775 187.605298,9.28546844 189.329848,8.23556137 C191.048782,7.18847663 193.253623,6.66352309 195.933137,6.66352309 C198.185726,6.66352309 200.118122,6.99938046 201.730324,7.67673986 C203.342527,8.3484546 204.589596,9.22619949 205.468724,10.3099745 C206.345043,11.3937496 206.946108,12.5085702 207.266301,13.6544366 Z M141.019954,40.4016659 L151.347598,40.4016659 L151.347598,0 L141.019954,0 L141.019954,40.4016659 Z M170.500224,6.9203552 L170.500224,15.9292352 C171.679885,15.9292352 172.505647,15.7683624 172.977511,15.4437943 C173.452184,15.1164039 173.688116,14.0608522 173.688116,12.2771391 L173.688116,10.0474978 C173.688116,8.76333723 173.46061,7.92228265 173.002789,7.52151167 C172.547777,7.12074069 171.713589,6.9203552 170.500224,6.9203552 Z M222.06542,16.6658636 C222.06542,14.9498864 221.95588,13.8265987 221.742417,13.3016452 C221.526146,12.7766917 221.10203,12.5142149 220.472878,12.5142149 C219.85777,12.5142149 219.458932,12.745646 219.279175,13.2028636 C219.096608,13.6600812 219.006729,14.8144145 219.006729,16.6658636 L219.006729,30.9722586 C219.006729,32.7559716 219.110652,33.8990156 219.315688,34.3985682 C219.523533,34.9009431 219.933605,35.1493082 220.545905,35.1493082 C221.175057,35.1493082 221.587938,34.8896537 221.778931,34.3731672 C221.969923,33.8566807 222.06542,32.6148551 222.06542,30.6476905 L222.06542,16.6658636 Z M231.935244,11.4332622 C232.039166,12.1811799 232.09534,13.7814415 232.09534,16.2284023 L232.09534,31.1613547 C232.09534,33.5913816 231.935244,35.403318 231.609433,36.5943416 C231.289239,37.7853652 230.530886,38.8155159 229.337182,39.6904385 C228.149096,40.5625387 226.733504,41 225.093214,41 C223.919171,41 222.820964,40.7403456 221.807018,40.2266814 C220.787454,39.7073725 219.854961,38.9340538 219.015155,37.9010807 L218.369151,40.4016659 L208.974,40.4016659 L208.974,0 L219.006729,0 L219.006729,9.53665588 C219.832491,8.57141874 220.756559,7.85172438 221.773313,7.3775728 C222.792877,6.90059888 223.89951,6.66352309 225.093214,6.66352309 C226.463867,6.66352309 227.657571,6.88084257 228.665899,7.31265919 C229.674228,7.74729813 230.446625,8.35409926 230.977472,9.1358849 C231.50551,9.91767054 231.825704,10.6853445 231.935244,11.4332622 Z" id="Fill-7" fill="#663600"></path>
                </g>
            </g>
        </g>
    </g>
</svg>