<?xml version="1.0" encoding="utf-8"?>
<!-- Generator: Adobe Illustrator 22.1.0, SVG Export Plug-In . SVG Version: 6.00 Build 0)  -->
<svg version="1.1" id="Layer_1" xmlns="http://www.w3.org/2000/svg" xmlns:xlink="http://www.w3.org/1999/xlink" x="0px" y="0px"
	 viewBox="0 0 909.3 386.1" style="enable-background:new 0 0 909.3 386.1;" xml:space="preserve">
<style type="text/css">
	.st0{fill:#FFFFFF;}
	.st1{clip-path:url(#SVGID_2_);fill:#DBDBDB;}
	.st2{fill:#CBCBCB;}
	.st3{fill:#DBDBDB;}
	.st4{clip-path:url(#SVGID_4_);fill:#FFFFFF;}
	.st5{clip-path:url(#SVGID_6_);fill:#DBDBDB;}
	.st6{clip-path:url(#SVGID_8_);fill:#FFFFFF;}
	.st7{clip-path:url(#SVGID_10_);fill:#DBDBDB;}
	.st8{clip-path:url(#SVGID_12_);fill:#FFFFFF;}
	.st9{clip-path:url(#SVGID_14_);fill:#DBDBDB;}
	.st10{clip-path:url(#SVGID_16_);fill:#FFFFFF;}
	.st11{clip-path:url(#SVGID_18_);fill:#DBDBDB;}
	.st12{clip-path:url(#SVGID_20_);fill:#FFFFFF;}
	.st13{clip-path:url(#SVGID_22_);fill:#DBDBDB;}
	.st14{clip-path:url(#SVGID_24_);fill:#FFFFFF;}
	.st15{clip-path:url(#SVGID_26_);fill:#DBDBDB;}
	.st16{clip-path:url(#SVGID_28_);fill:#DBDBDB;}
	.st17{clip-path:url(#SVGID_30_);fill:#FFFFFF;}
	.st18{clip-path:url(#SVGID_32_);fill:#DBDBDB;}
	.st19{clip-path:url(#SVGID_34_);fill:#FFFFFF;}
	.st20{clip-path:url(#SVGID_36_);fill:#DBDBDB;}
	.st21{clip-path:url(#SVGID_38_);fill:#FFFFFF;}
	.st22{clip-path:url(#SVGID_40_);fill:#DBDBDB;}
	.st23{clip-path:url(#SVGID_42_);fill:#FFFFFF;}
	.st24{clip-path:url(#SVGID_44_);fill:#DBDBDB;}
	.st25{clip-path:url(#SVGID_46_);fill:#FFFFFF;}
	.st26{clip-path:url(#SVGID_48_);fill:#DBDBDB;}
	.st27{clip-path:url(#SVGID_50_);fill:#FFFFFF;}
	.st28{clip-path:url(#SVGID_52_);fill:#DBDBDB;}
</style>
<g>
	<polygon class="st0" points="0,279.6 909.3,279.6 909.3,355.5 0,355.5 	"/>
	<g>
		<g>
			<defs>
				<rect id="SVGID_1_" y="279.6" width="909.3" height="75.9"/>
			</defs>
			<clipPath id="SVGID_2_">
				<use xlink:href="#SVGID_1_"  style="overflow:visible;"/>
			</clipPath>
			<path class="st1" d="M913.1,359.3H-3.8v-83.4h916.9V359.3z M3.8,351.7h901.7v-68.3H3.8V351.7z"/>
		</g>
	</g>
	<path d="M641.1,322.6c-1,0-1.5-0.5-1.5-1.3v-6.4c0-0.9,0.5-1.3,1.5-1.3c1,0,1.5,0.5,1.5,1.3v1.5h1.1v-1.5c0-0.8-0.2-1.2-0.7-1.7
		c-0.5-0.4-1.1-0.6-2-0.6c-0.9,0-1.5,0.2-2,0.6c-0.5,0.4-0.7,0.9-0.7,1.7v6.4c0,0.8,0.2,1.2,0.7,1.7c0.5,0.5,1.1,0.6,2,0.6
		c0.9,0,1.5-0.2,2-0.6s0.7-0.9,0.7-1.7v-0.9h-1.1v0.9C642.7,322.1,642.2,322.6,641.1,322.6L641.1,322.6z M651.2,313.2
		c-0.5-0.4-1.1-0.6-2.1-0.6c-0.9,0-1.6,0.2-2.1,0.6c-0.5,0.4-0.7,0.9-0.7,1.7v6.4c0,0.8,0.2,1.2,0.7,1.7c0.5,0.5,1.1,0.6,2.1,0.6
		c0.9,0,1.6-0.2,2.1-0.6c0.5-0.4,0.7-0.9,0.7-1.7v-6.4C651.9,314.1,651.7,313.6,651.2,313.2L651.2,313.2z M649.1,322.6
		c-1,0-1.6-0.5-1.6-1.3v-6.4c0-0.9,0.6-1.3,1.6-1.3c1,0,1.6,0.5,1.6,1.3v6.4C650.7,322.1,650.2,322.6,649.1,322.6L649.1,322.6z
		 M656,315.2l3.5,8.1h1.1v-10.5h-1.1v8.1l-3.5-8.1h-1.1v10.5h1.1V315.2L656,315.2z M668.8,320.1c-0.1-0.3-0.4-0.7-0.7-0.9l-2.8-2.7
		c-0.3-0.2-0.4-0.5-0.5-0.7s-0.1-0.5-0.1-0.9c0-0.4,0.1-0.7,0.4-0.9c0.3-0.2,0.7-0.3,1.1-0.3s0.9,0.1,1.1,0.3
		c0.3,0.2,0.4,0.5,0.4,0.9v1.4h1.1v-1.3c0-1.5-0.9-2.3-2.6-2.3c-0.9,0-1.6,0.2-2,0.6c-0.5,0.4-0.7,0.9-0.7,1.7
		c0,0.5,0.1,0.9,0.2,1.2c0.1,0.3,0.4,0.7,0.7,0.9l2.8,2.7c0.3,0.3,0.4,0.5,0.5,0.7s0.1,0.5,0.1,0.9c0,0.4-0.1,0.7-0.4,0.9
		c-0.3,0.2-0.7,0.3-1.2,0.3c-0.6,0-0.9-0.1-1.2-0.3c-0.3-0.2-0.4-0.5-0.4-0.9V320h-1.1v1.3c0,1.5,0.9,2.3,2.7,2.3s2.7-0.8,2.7-2.3
		C669,320.8,668.9,320.4,668.8,320.1L668.8,320.1z M670.7,312.8v0.9h2.1v9.5h1.1v-9.5h2.1v-0.9H670.7L670.7,312.8z M679.3,319.5h1.3
		l1.9,3.7h1.2l-2-3.9c0.9-0.3,1.4-1,1.4-2.1V315c0-0.7-0.2-1.2-0.7-1.7c-0.5-0.4-1-0.6-1.9-0.6h-2.5v10.5h1.1L679.3,319.5
		L679.3,319.5z M680.6,318.6h-1.3v-4.8h1.3c0.5,0,0.9,0.1,1,0.4c0.3,0.2,0.4,0.6,0.4,0.9v2.3C682,318.2,681.5,318.6,680.6,318.6
		L680.6,318.6L680.6,318.6z M688.5,322.6c-1,0-1.6-0.5-1.6-1.3v-8.4h-1.1v8.4c0,0.8,0.2,1.2,0.7,1.7c0.5,0.4,1.1,0.6,2.1,0.6
		c0.9,0,1.6-0.2,2.1-0.6s0.7-0.9,0.7-1.7v-8.4h-1.1v8.4C690.2,322.1,689.6,322.6,688.5,322.6L688.5,322.6z M696.8,322.6
		c-1,0-1.5-0.5-1.5-1.3v-6.4c0-0.9,0.5-1.3,1.5-1.3c1,0,1.5,0.5,1.5,1.3v1.5h1.1v-1.5c0-0.8-0.2-1.2-0.7-1.7c-0.5-0.4-1.1-0.6-2-0.6
		c-0.9,0-1.5,0.2-2,0.6c-0.5,0.4-0.7,0.9-0.7,1.7v6.4c0,0.8,0.2,1.2,0.7,1.7c0.5,0.5,1.1,0.6,2,0.6c0.9,0,1.5-0.2,2-0.6
		c0.5-0.4,0.7-0.9,0.7-1.7v-0.9h-1.1v0.9C698.3,322.1,697.8,322.6,696.8,322.6L696.8,322.6z M701.2,312.8v0.9h2.1v9.5h1.1v-9.5h2.1
		v-0.9H701.2L701.2,312.8z M710,322.3v-8.5h0.9v-0.9h-2.7v0.9h0.9v8.5h-0.9v0.9h2.7v-0.9H710L710,322.3z M718.1,313.2
		c-0.5-0.4-1.1-0.6-2.1-0.6c-0.9,0-1.6,0.2-2.1,0.6c-0.5,0.4-0.7,0.9-0.7,1.7v6.4c0,0.8,0.2,1.2,0.7,1.7c0.5,0.5,1.1,0.6,2.1,0.6
		c0.9,0,1.6-0.2,2.1-0.6c0.5-0.4,0.7-0.9,0.7-1.7v-6.4C718.8,314.1,718.5,313.6,718.1,313.2L718.1,313.2z M716,322.6
		c-1,0-1.6-0.5-1.6-1.3v-6.4c0-0.9,0.6-1.3,1.6-1.3c1,0,1.6,0.5,1.6,1.3v6.4C717.7,322.1,717.1,322.6,716,322.6L716,322.6z
		 M722.9,315.2l3.5,8.1h1.1v-10.5h-1.1v8.1l-3.5-8.1h-1.1v10.5h1.1V315.2L722.9,315.2z"/>
	<path d="M816,312.8v0.9h2.1v9.5h1.1v-9.5h2.1v-0.9H816L816,312.8z M824.9,322.3v-8.5h0.8v-0.9h-2.7v0.9h0.9v8.5h-0.9v0.9h2.7v-0.9
		H824.9L824.9,322.3z M829.5,314.6l1.9,7h1l1.9-7v8.6h1.1v-10.5h-1.7l-1.9,6.9l-1.8-6.9h-1.7v10.5h1.1L829.5,314.6L829.5,314.6z
		 M843.5,322.3h-3.6v-3.9h2.8v-0.9h-2.8v-3.7h3.5v-0.9h-4.6v10.5h4.7L843.5,322.3L843.5,322.3z M854.6,320.1
		c-0.1-0.3-0.4-0.7-0.7-0.9l-2.8-2.7c-0.3-0.2-0.4-0.5-0.5-0.7s-0.1-0.5-0.1-0.9c0-0.4,0.1-0.7,0.4-0.9c0.3-0.2,0.7-0.3,1.1-0.3
		s0.9,0.1,1.1,0.3c0.3,0.2,0.4,0.5,0.4,0.9v1.4h1.1v-1.3c0-1.5-0.9-2.3-2.6-2.3c-0.9,0-1.6,0.2-2,0.6c-0.5,0.4-0.7,0.9-0.7,1.7
		c0,0.5,0.1,0.9,0.2,1.2c0.1,0.3,0.4,0.7,0.7,0.9l2.8,2.7c0.3,0.3,0.4,0.5,0.5,0.7s0.1,0.5,0.1,0.9c0,0.4-0.1,0.7-0.4,0.9
		c-0.3,0.2-0.7,0.3-1.2,0.3c-0.6,0-0.9-0.1-1.2-0.3c-0.3-0.2-0.4-0.5-0.4-0.9V320h-1.1v1.3c0,1.5,0.9,2.3,2.7,2.3s2.7-0.8,2.7-2.3
		C854.7,320.8,854.7,320.4,854.6,320.1L854.6,320.1z M856.7,323.2h1.1l0.6-2.5h3l0.6,2.5h1.1l-2.4-10.5H859L856.7,323.2L856.7,323.2
		z M861.2,319.9h-2.7l1.3-5.9L861.2,319.9L861.2,319.9z"/>
	<path d="M870.5,312.8h-1.1l-2.1,9.2l-2.1-9.2H864l2.4,10.5h1.7L870.5,312.8L870.5,312.8z M877.5,322.3h-3.6v-3.9h2.8v-0.9h-2.8
		v-3.7h3.5v-0.9h-4.6v10.5h4.7L877.5,322.3L877.5,322.3z M884.4,322.7c0.5-0.4,0.7-0.9,0.7-1.7v-6c0-0.7-0.2-1.2-0.7-1.7
		c-0.5-0.4-1-0.6-1.9-0.6H880v10.5h2.6C883.3,323.2,884,323,884.4,322.7L884.4,322.7z M883.6,321.9c-0.3,0.3-0.6,0.4-1,0.4h-1.4
		v-8.5h1.4c0.5,0,0.8,0.1,1,0.4c0.3,0.3,0.4,0.6,0.4,0.9v6C884,321.3,883.8,321.7,883.6,321.9L883.6,321.9z"/>
	<path d="M487.6,320h1.3c0.9,0,1.5-0.2,1.9-0.6c0.5-0.4,0.7-0.9,0.7-1.7V315c0-0.7-0.2-1.2-0.7-1.7c-0.5-0.4-1-0.6-1.9-0.6h-2.5
		v10.5h1.1V320L487.6,320z M489,319.1h-1.3v-5.3h1.3c0.5,0,0.9,0.1,1,0.4c0.3,0.2,0.4,0.6,0.4,0.9v2.7
		C490.4,318.7,489.9,319.1,489,319.1L489,319.1L489,319.1z M498.8,322.3h-3.6v-3.9h2.8v-0.9h-2.8v-3.7h3.5v-0.9h-4.6v10.5h4.7
		L498.8,322.3L498.8,322.3z M502.3,319.5h1.3l1.9,3.7h1.2l-2-3.9c0.9-0.3,1.4-1,1.4-2.1V315c0-0.7-0.2-1.2-0.7-1.7
		c-0.5-0.4-1-0.6-1.9-0.6h-2.5v10.5h1.1L502.3,319.5L502.3,319.5z M503.7,318.6h-1.3v-4.8h1.3c0.5,0,0.9,0.1,1,0.4
		c0.3,0.2,0.4,0.6,0.4,0.9v2.3C505.1,318.2,504.6,318.6,503.7,318.6L503.7,318.6L503.7,318.6z M510.2,314.6l1.9,7h1l1.9-7v8.6h1.1
		v-10.5h-1.7l-1.9,6.9l-1.8-6.9h-1.7v10.5h1.1L510.2,314.6L510.2,314.6z M520.8,322.3v-8.5h0.9v-0.9h-2.7v0.9h0.9v8.5h-0.9v0.9h2.7
		v-0.9H520.8L520.8,322.3z M523.2,312.8v0.9h2.1v9.5h1.1v-9.5h2.1v-0.9H523.2L523.2,312.8z M535.6,320.1c-0.1-0.3-0.4-0.7-0.7-0.9
		l-2.8-2.7c-0.3-0.2-0.4-0.5-0.5-0.7s-0.1-0.5-0.1-0.9c0-0.4,0.1-0.7,0.4-0.9s0.7-0.3,1.1-0.3c0.5,0,0.9,0.1,1.1,0.3
		c0.3,0.2,0.4,0.5,0.4,0.9v1.4h1.1v-1.3c0-1.5-0.9-2.3-2.6-2.3c-0.9,0-1.6,0.2-2,0.6c-0.5,0.4-0.7,0.9-0.7,1.7
		c0,0.5,0.1,0.9,0.2,1.2c0.1,0.3,0.4,0.7,0.7,0.9l2.8,2.7c0.3,0.3,0.4,0.5,0.5,0.7s0.1,0.5,0.1,0.9c0,0.4-0.1,0.7-0.4,0.9
		c-0.3,0.2-0.7,0.3-1.2,0.3c-0.6,0-0.9-0.1-1.2-0.3s-0.4-0.5-0.4-0.9V320h-1.1v1.3c0,1.5,0.9,2.3,2.7,2.3s2.7-0.8,2.7-2.3
		C535.8,320.8,535.7,320.4,535.6,320.1L535.6,320.1z"/>
	<path d="M382.8,310.8h2.7v-0.9h-2.7v-3.7h3.3v-0.9h-4.5v10.5h1.1V310.8L382.8,310.8z M389.8,314.7v-8.5h0.9v-0.9h-2.7v0.9h0.9v8.5
		h-0.9v0.9h2.7v-0.9H389.8L389.8,314.7z M394.5,307.6l3.5,8.1h1.1v-10.5H398v8.1l-3.5-8.1h-1.1v10.5h1.1V307.6L394.5,307.6z
		 M401.4,315.6h1.1l0.6-2.5h3l0.6,2.5h1.1l-2.4-10.5h-1.7L401.4,315.6L401.4,315.6z M405.9,312.3h-2.7l1.3-5.9L405.9,312.3
		L405.9,312.3z M414.2,315.6v-0.9h-2.9v-9.5h-1.1v10.5L414.2,315.6L414.2,315.6z"/>
	<path d="M371.2,331.2c0.5-0.4,0.7-0.9,0.7-1.7v-6c0-0.7-0.2-1.2-0.7-1.7c-0.5-0.4-1-0.6-1.9-0.6h-2.6v10.5h2.6
		C370.1,331.8,370.7,331.6,371.2,331.2L371.2,331.2z M370.3,330.4c-0.3,0.3-0.6,0.4-1,0.4h-1.4v-8.5h1.4c0.5,0,0.8,0.1,1,0.4
		c0.3,0.3,0.4,0.6,0.4,0.9v6C370.7,329.9,370.5,330.2,370.3,330.4L370.3,330.4z M375.9,328.1h1.3l1.9,3.7h1.2l-2-3.9
		c0.9-0.3,1.4-1,1.4-2.1v-2.3c0-0.7-0.2-1.2-0.7-1.7c-0.5-0.4-1-0.6-1.9-0.6h-2.5v10.5h1.1L375.9,328.1L375.9,328.1z M377.3,327.1
		h-1.3v-4.8h1.3c0.5,0,0.9,0.1,1,0.4c0.3,0.2,0.4,0.6,0.4,0.9v2.3C378.7,326.7,378.2,327.1,377.3,327.1L377.3,327.1L377.3,327.1z
		 M381.6,331.8h1.1l0.6-2.5h3l0.6,2.5h1.1l-2.4-10.5H384L381.6,331.8L381.6,331.8z M386.2,328.4h-2.7l1.3-5.9L386.2,328.4
		L386.2,328.4z"/>
	<path d="M393.9,323.4l1.6,8.3h1.6l1.5-10.5h-1.1l-1.3,8.8l-1.7-8.8h-1.2l-1.7,8.8l-1.3-8.8H389l1.5,10.5h1.6L393.9,323.4
		L393.9,323.4z M402.5,330.8v-8.5h0.9v-0.9h-2.7v0.9h0.9v8.5h-0.9v0.9h2.7v-0.9H402.5L402.5,330.8z M407.1,323.7l3.5,8.1h1.1v-10.5
		h-1.1v8.1l-3.5-8.1H406v10.5h1.1V323.7L407.1,323.7z M419,327.5v2c0,0.4-0.2,0.7-0.6,1c-0.4,0.4-0.9,0.6-1.2,0.6
		c-0.5,0-0.8-0.1-0.9-0.4c-0.2-0.2-0.3-0.6-0.3-0.9v-6.4c0-0.9,0.5-1.3,1.5-1.3s1.5,0.5,1.5,1.3v0.9h1.1v-0.9c0-0.8-0.2-1.2-0.7-1.7
		c-0.5-0.4-1.1-0.6-2-0.6s-1.5,0.2-2,0.6c-0.5,0.4-0.7,0.9-0.7,1.7v6.4c0,1.5,0.8,2.3,2.4,2.3c0.5,0,0.9-0.1,1.2-0.4
		c0.4-0.3,0.7-0.6,0.9-0.9l0.4,1h0.5v-5.3h-2.9v0.9L419,327.5L419,327.5z M428,328.6c-0.1-0.3-0.4-0.7-0.7-0.9l-2.8-2.7
		c-0.3-0.2-0.4-0.5-0.5-0.7s-0.1-0.5-0.1-0.9c0-0.4,0.1-0.7,0.4-0.9c0.3-0.2,0.7-0.3,1.1-0.3c0.5,0,0.9,0.1,1.1,0.3
		c0.3,0.2,0.4,0.5,0.4,0.9v1.4h1.1v-1.3c0-1.5-0.9-2.3-2.6-2.3c-0.9,0-1.6,0.2-2,0.6c-0.5,0.4-0.7,0.9-0.7,1.7
		c0,0.5,0.1,0.9,0.2,1.2c0.1,0.3,0.4,0.7,0.7,0.9l2.8,2.7c0.3,0.3,0.4,0.5,0.5,0.7s0.1,0.5,0.1,0.9s-0.1,0.7-0.4,0.9
		c-0.3,0.2-0.7,0.3-1.2,0.3c-0.6,0-0.9-0.1-1.2-0.3c-0.3-0.2-0.4-0.5-0.4-0.9v-1.4h-1.1v1.3c0,1.5,0.9,2.3,2.7,2.3
		c1.8,0,2.7-0.8,2.7-2.3C428.2,329.3,428.1,328.9,428,328.6L428,328.6z"/>
	<path d="M249.6,314.6c-1,0-1.5-0.5-1.5-1.3v-6.4c0-0.9,0.5-1.3,1.5-1.3c1,0,1.5,0.5,1.5,1.3v1.5h1.1v-1.5c0-0.8-0.2-1.2-0.7-1.7
		c-0.5-0.4-1.1-0.6-2-0.6s-1.5,0.2-2,0.6c-0.5,0.4-0.7,0.9-0.7,1.7v6.4c0,0.8,0.2,1.2,0.7,1.7c0.5,0.5,1.1,0.6,2,0.6s1.5-0.2,2-0.6
		c0.5-0.4,0.7-0.9,0.7-1.7v-0.9h-1.1v0.9C251.1,314.1,250.5,314.6,249.6,314.6L249.6,314.6z M259.5,305.1c-0.5-0.4-1.1-0.6-2.1-0.6
		s-1.6,0.2-2.1,0.6c-0.5,0.4-0.7,0.9-0.7,1.7v6.4c0,0.8,0.2,1.2,0.7,1.7c0.5,0.5,1.1,0.6,2.1,0.6s1.6-0.2,2.1-0.6
		c0.5-0.4,0.7-0.9,0.7-1.7v-6.4C260.3,306.1,260,305.5,259.5,305.1L259.5,305.1z M257.5,314.6c-1,0-1.6-0.5-1.6-1.3v-6.4
		c0-0.9,0.6-1.3,1.6-1.3s1.6,0.5,1.6,1.3v6.4C259.1,314.1,258.6,314.6,257.5,314.6L257.5,314.6z M264.3,307.2l3.5,8.1h1.1v-10.4
		h-1.1v8.1l-3.5-8.1h-1.1v10.4h1.1V307.2L264.3,307.2z M274.6,314.6c-1,0-1.5-0.5-1.5-1.3v-6.4c0-0.9,0.5-1.3,1.5-1.3
		s1.5,0.5,1.5,1.3v1.5h1.1v-1.5c0-0.8-0.2-1.2-0.7-1.7c-0.5-0.4-1.1-0.6-2-0.6s-1.5,0.2-2,0.6c-0.5,0.4-0.7,0.9-0.7,1.7v6.4
		c0,0.8,0.2,1.2,0.7,1.7c0.5,0.4,1.1,0.6,2,0.6s1.5-0.2,2-0.6c0.5-0.4,0.7-0.9,0.7-1.7v-0.9h-1.1v0.9
		C276.2,314.1,275.6,314.6,274.6,314.6L274.6,314.6z M284.8,314.3h-3.6v-3.9h2.8v-0.9h-2.8v-3.7h3.5v-0.9h-4.6v10.4h4.7L284.8,314.3
		L284.8,314.3z M288.2,312h1.3c0.9,0,1.5-0.2,1.9-0.6c0.5-0.4,0.7-0.9,0.7-1.7V307c0-0.7-0.2-1.2-0.7-1.7c-0.5-0.4-1-0.6-1.9-0.6
		h-2.5v10.4h1.1V312L288.2,312z M289.6,311.1h-1.3v-5.3h1.3c0.5,0,0.9,0.1,1,0.4c0.3,0.2,0.4,0.6,0.4,0.9v2.7
		C291,310.6,290.5,311.1,289.6,311.1L289.6,311.1L289.6,311.1z M293.5,304.8v0.9h2.1v9.5h1.1v-9.5h2.1v-0.9H293.5L293.5,304.8z
		 M303.6,314.6c-1,0-1.6-0.5-1.6-1.3v-8.4h-1.1v8.4c0,0.8,0.2,1.2,0.7,1.7c0.5,0.5,1.1,0.6,2.1,0.6s1.6-0.2,2.1-0.6
		c0.5-0.4,0.7-0.9,0.7-1.7v-8.4h-1.1v8.4C305.2,314.1,304.6,314.6,303.6,314.6L303.6,314.6z M308.4,315.3h1.1l0.6-2.4h3l0.6,2.4h1.1
		l-2.4-10.4h-1.7L308.4,315.3L308.4,315.3z M312.9,311.9h-2.7l1.3-5.9L312.9,311.9L312.9,311.9z M321.1,315.3v-0.9h-2.9v-9.5h-1.1
		v10.4H321.1L321.1,315.3z"/>
	<path d="M257.4,330.8c0.5-0.4,0.7-0.9,0.7-1.7v-6c0-0.7-0.2-1.2-0.7-1.7c-0.5-0.4-1-0.6-1.9-0.6H253v10.4h2.6
		C256.3,331.4,256.9,331.2,257.4,330.8L257.4,330.8z M256.6,330.1c-0.3,0.3-0.6,0.4-1,0.4h-1.4v-8.5h1.4c0.5,0,0.8,0.1,1,0.4
		c0.3,0.3,0.4,0.6,0.4,0.9v6C256.9,329.5,256.8,329.8,256.6,330.1L256.6,330.1z M262.2,327.7h1.3l1.9,3.7h1.2l-2-3.9
		c0.9-0.3,1.4-1,1.4-2.1v-2.3c0-0.7-0.2-1.2-0.7-1.7c-0.5-0.4-1-0.6-1.9-0.6H261v10.4h1.1L262.2,327.7L262.2,327.7z M263.5,326.7
		h-1.3v-4.8h1.3c0.5,0,0.9,0.1,1,0.4c0.2,0.3,0.4,0.6,0.4,0.9v2.3C264.9,326.3,264.4,326.7,263.5,326.7L263.5,326.7L263.5,326.7z
		 M267.9,331.4h1.1l0.6-2.4h3l0.6,2.4h1.1l-2.4-10.4h-1.7L267.9,331.4L267.9,331.4z M272.4,328h-2.7l1.3-5.9L272.4,328L272.4,328z"
		/>
	<path d="M280.1,323l1.6,8.3h1.6l1.5-10.4h-1.1l-1.3,8.8l-1.7-8.8h-1.2l-1.7,8.8l-1.3-8.8h-1.1l1.5,10.4h1.6L280.1,323L280.1,323z
		 M288.7,330.4v-8.5h0.9V321h-2.7v0.9h0.9v8.5h-0.9v0.9h2.7v-0.9H288.7L288.7,330.4z M293.4,323.3l3.5,8.1h1.1V321h-1.1v8.1
		l-3.5-8.1h-1.1v10.4h1.1V323.3L293.4,323.3z M305.2,327v2c0,0.4-0.2,0.7-0.6,1c-0.4,0.4-0.9,0.6-1.2,0.6c-0.5,0-0.8-0.1-0.9-0.4
		c-0.2-0.2-0.3-0.6-0.3-0.9v-6.4c0-0.9,0.5-1.3,1.5-1.3c1,0,1.5,0.5,1.5,1.3v0.9h1.1v-0.9c0-0.8-0.2-1.2-0.7-1.7
		c-0.5-0.4-1.1-0.6-2-0.6s-1.5,0.2-2,0.6c-0.5,0.4-0.7,0.9-0.7,1.7v6.4c0,1.5,0.8,2.3,2.4,2.3c0.5,0,0.9-0.1,1.2-0.4
		c0.4-0.2,0.7-0.6,0.9-0.9l0.4,1h0.5V326h-2.9v0.9L305.2,327L305.2,327z M314.2,328.2c-0.1-0.3-0.4-0.7-0.7-0.9l-2.8-2.7
		c-0.3-0.2-0.4-0.5-0.5-0.7s-0.1-0.5-0.1-0.9s0.1-0.7,0.4-0.9c0.3-0.2,0.7-0.3,1.1-0.3c0.5,0,0.9,0.1,1.1,0.3
		c0.3,0.2,0.4,0.5,0.4,0.9v1.4h1.1v-1.3c0-1.5-0.9-2.3-2.6-2.3c-0.9,0-1.6,0.2-2,0.6c-0.5,0.4-0.7,0.9-0.7,1.7
		c0,0.5,0.1,0.9,0.2,1.2c0.1,0.3,0.4,0.7,0.7,0.9l2.8,2.7c0.3,0.3,0.4,0.5,0.5,0.7c0.1,0.2,0.1,0.5,0.1,0.9c0,0.4-0.1,0.7-0.4,0.9
		c-0.3,0.2-0.7,0.3-1.2,0.3c-0.6,0-0.9-0.1-1.2-0.3c-0.3-0.2-0.4-0.5-0.4-0.9v-1.4H309v1.3c0,1.5,0.9,2.3,2.7,2.3s2.7-0.8,2.7-2.3
		C314.4,328.9,314.3,328.5,314.2,328.2L314.2,328.2z"/>
	<path d="M130.5,312c-0.1-0.3-0.4-0.7-0.7-0.9l-2.8-2.7c-0.3-0.2-0.4-0.5-0.5-0.7s-0.1-0.5-0.1-0.9c0-0.4,0.1-0.7,0.4-0.9
		c0.3-0.2,0.7-0.3,1.1-0.3s0.9,0.1,1.1,0.3c0.3,0.2,0.4,0.5,0.4,0.9v1.4h1.1V307c0-1.5-0.9-2.3-2.6-2.3c-0.9,0-1.6,0.2-2,0.6
		c-0.5,0.4-0.7,0.9-0.7,1.7c0,0.5,0.1,0.9,0.2,1.2c0.1,0.3,0.4,0.7,0.7,0.9l2.8,2.7c0.3,0.3,0.4,0.5,0.5,0.7s0.1,0.5,0.1,0.9
		c0,0.4-0.1,0.7-0.4,0.9c-0.3,0.2-0.7,0.3-1.2,0.3s-0.9-0.1-1.2-0.3c-0.3-0.2-0.4-0.5-0.4-0.9v-1.4h-1.1v1.3c0,1.5,0.9,2.3,2.7,2.3
		c1.8,0,2.7-0.8,2.7-2.3C130.7,312.8,130.6,312.4,130.5,312L130.5,312z M138.3,314.3h-3.6v-3.9h2.8v-0.9h-2.8v-3.7h3.5v-0.9h-4.6
		v10.4h4.7L138.3,314.3L138.3,314.3z M144.8,315.3v-0.9h-2.9v-9.5h-1.1v10.4H144.8L144.8,315.3z M151.5,314.3h-3.6v-3.9h2.8v-0.9
		h-2.8v-3.7h3.5v-0.9h-4.6v10.4h4.7L151.5,314.3L151.5,314.3z M156.3,314.6c-1,0-1.5-0.5-1.5-1.3v-6.4c0-0.9,0.5-1.3,1.5-1.3
		s1.5,0.5,1.5,1.3v1.5h1.1v-1.5c0-0.8-0.2-1.2-0.7-1.7c-0.5-0.4-1.1-0.6-2-0.6c-0.9,0-1.5,0.2-2,0.6c-0.5,0.4-0.7,0.9-0.7,1.7v6.4
		c0,0.8,0.2,1.2,0.7,1.7c0.5,0.5,1.1,0.6,2,0.6c0.9,0,1.5-0.2,2-0.6c0.5-0.4,0.7-0.9,0.7-1.7v-0.9h-1.1v0.9
		C157.9,314.1,157.3,314.6,156.3,314.6L156.3,314.6z M160.6,304.8v0.9h2.1v9.5h1.1v-9.5h2.1v-0.9H160.6L160.6,304.8z M176.3,314.7
		c0.5-0.4,0.7-0.9,0.7-1.7v-6c0-0.7-0.2-1.2-0.7-1.7c-0.5-0.4-1-0.6-1.9-0.6h-2.6v10.4h2.6C175.2,315.3,175.9,315.1,176.3,314.7
		L176.3,314.7z M175.4,313.9c-0.3,0.3-0.6,0.4-1,0.4h-1.4v-8.5h1.4c0.5,0,0.8,0.1,1,0.4c0.3,0.3,0.4,0.6,0.4,0.9v6
		C175.8,313.4,175.7,313.7,175.4,313.9L175.4,313.9z M184.7,314.3h-3.6v-3.9h2.8v-0.9h-2.8v-3.7h3.5v-0.9h-4.6v10.4h4.7L184.7,314.3
		L184.7,314.3z M192,312c-0.1-0.3-0.4-0.7-0.7-0.9l-2.8-2.7c-0.3-0.2-0.4-0.5-0.5-0.7s-0.1-0.5-0.1-0.9c0-0.4,0.1-0.7,0.4-0.9
		c0.3-0.2,0.7-0.3,1.1-0.3c0.5,0,0.9,0.1,1.1,0.3c0.3,0.2,0.4,0.5,0.4,0.9v1.4h1.1V307c0-1.5-0.9-2.3-2.6-2.3c-0.9,0-1.6,0.2-2,0.6
		c-0.5,0.4-0.7,0.9-0.7,1.7c0,0.5,0.1,0.9,0.2,1.2c0.1,0.3,0.4,0.7,0.7,0.9l2.8,2.7c0.3,0.3,0.4,0.5,0.5,0.7
		c0.1,0.2,0.1,0.5,0.1,0.9c0,0.4-0.1,0.7-0.4,0.9c-0.3,0.2-0.7,0.3-1.2,0.3s-0.9-0.1-1.2-0.3c-0.3-0.2-0.4-0.5-0.4-0.9v-1.4h-1.1
		v1.3c0,1.5,0.9,2.3,2.7,2.3s2.7-0.8,2.7-2.3C192.2,312.8,192.2,312.4,192,312L192,312z M196.6,314.3v-8.5h0.9v-0.9h-2.7v0.9h0.9
		v8.5h-0.9v0.9h2.7v-0.9H196.6L196.6,314.3z M204,310.9v2c0,0.4-0.2,0.7-0.6,1c-0.4,0.4-0.9,0.6-1.2,0.6c-0.4,0-0.8-0.1-0.9-0.4
		c-0.2-0.2-0.3-0.6-0.3-0.9v-6.4c0-0.9,0.5-1.3,1.5-1.3c1,0,1.5,0.5,1.5,1.3v0.9h1.1v-0.9c0-0.8-0.2-1.2-0.7-1.7
		c-0.5-0.4-1.1-0.6-2-0.6c-0.9,0-1.5,0.2-2,0.6c-0.5,0.4-0.7,0.9-0.7,1.7v6.4c0,1.5,0.8,2.3,2.4,2.3c0.5,0,0.9-0.1,1.2-0.4
		c0.4-0.2,0.7-0.6,0.9-0.9l0.4,1h0.5v-5.3h-2.9v0.9L204,310.9L204,310.9z M209.4,307.2l3.5,8.1h1.1v-10.4h-1.1v8.1l-3.5-8.1h-1.1
		v10.4h1.1V307.2L209.4,307.2z"/>
	<path d="M136.7,331.4h2.6c0.9,0,1.5-0.2,1.9-0.6c0.5-0.4,0.7-0.9,0.7-1.7v-1.4c0-0.9-0.5-1.5-1.3-1.8c0.8-0.3,1.1-0.9,1.1-1.8v-0.9
		c0-0.7-0.2-1.2-0.7-1.7c-0.5-0.4-1-0.6-1.9-0.6h-2.5L136.7,331.4L136.7,331.4z M140.4,330.1c-0.3,0.3-0.6,0.4-1,0.4H138v-4.1h1.4
		c0.5,0,0.8,0.2,1,0.5c0.3,0.3,0.4,0.6,0.4,0.9v1.4C140.8,329.5,140.6,329.8,140.4,330.1L140.4,330.1z M140.2,325.1
		c-0.3,0.3-0.6,0.4-1,0.4h-1.3v-3.6h1.3c0.5,0,0.8,0.1,1,0.4c0.3,0.3,0.4,0.6,0.4,0.9v0.9C140.6,324.5,140.5,324.8,140.2,325.1
		L140.2,325.1z M147.4,330.7c-1,0-1.6-0.5-1.6-1.3V321h-1.1v8.4c0,0.8,0.2,1.2,0.7,1.7c0.5,0.4,1.1,0.6,2.1,0.6
		c0.9,0,1.6-0.2,2.1-0.6s0.7-0.9,0.7-1.7V321H149v8.4C149,330.2,148.6,330.7,147.4,330.7L147.4,330.7z M154.7,330.4v-8.5h0.8V321
		h-2.7v0.9h0.9v8.5h-0.9v0.9h2.7v-0.9H154.7L154.7,330.4z M162.3,331.4v-0.9h-2.9V321h-1.1v10.4H162.3L162.3,331.4z M168.8,330.8
		c0.5-0.4,0.7-0.9,0.7-1.7v-6c0-0.7-0.2-1.2-0.7-1.7c-0.5-0.4-1-0.6-1.9-0.6h-2.6v10.4h2.6C167.7,331.4,168.4,331.2,168.8,330.8
		L168.8,330.8z M167.9,330.1c-0.3,0.3-0.6,0.4-1,0.4h-1.4v-8.5h1.4c0.5,0,0.8,0.1,1,0.4c0.3,0.3,0.4,0.6,0.4,0.9v6
		C168.3,329.5,168.2,329.8,167.9,330.1L167.9,330.1z M177.2,326.5h2.7v-0.9h-2.7v-3.7h3.3V321h-4.5v10.4h1.1V326.5L177.2,326.5z
		 M184.2,330.4v-8.5h0.9V321h-2.7v0.9h0.8v8.5h-0.8v0.9h2.7v-0.9H184.2L184.2,330.4z M189,327.7h1.3l1.9,3.7h1.2l-2-3.9
		c0.9-0.3,1.4-1,1.4-2.1v-2.3c0-0.7-0.2-1.2-0.7-1.7c-0.5-0.4-1-0.6-1.9-0.6h-2.5v10.4h1.1L189,327.7L189,327.7z M190.2,326.7h-1.3
		v-4.8h1.3c0.5,0,0.9,0.1,1,0.4c0.2,0.3,0.4,0.6,0.4,0.9v2.3C191.7,326.3,191.2,326.7,190.2,326.7L190.2,326.7L190.2,326.7z
		 M196.7,322.8l1.9,7h1l1.9-7v8.6h1.1V321H201l-1.9,6.9l-1.8-6.9h-1.7v10.4h1.1V322.8L196.7,322.8z"/>
	<path d="M39.3,314.6c-1,0-1.5-0.5-1.5-1.3v-6.4c0-0.9,0.5-1.3,1.5-1.3s1.5,0.5,1.5,1.3v1.5H42v-1.5c0-0.8-0.2-1.2-0.7-1.7
		c-0.5-0.4-1.1-0.6-2-0.6c-0.9,0-1.5,0.2-2,0.6c-0.5,0.4-0.7,0.9-0.7,1.7v6.4c0,0.8,0.2,1.2,0.7,1.7c0.5,0.4,1.1,0.6,2,0.6
		c0.9,0,1.5-0.2,2-0.6c0.5-0.4,0.7-0.9,0.7-1.7v-0.9h-1.1v0.9C40.9,314.1,40.3,314.6,39.3,314.6L39.3,314.6z M48.8,315.3v-0.9h-2.9
		v-9.5h-1.1v10.4H48.8L48.8,315.3z M52.2,314.3v-8.5h0.9v-0.9h-2.7v0.9h0.9v8.5h-0.9v0.9h2.7v-0.9H52.2L52.2,314.3z M60.6,314.3H57
		v-3.9h2.8v-0.9H57v-3.7h3.5v-0.9h-4.6v10.4h4.7L60.6,314.3L60.6,314.3z M64.1,307.2l3.5,8.1h1.1v-10.4h-1.1v8.1l-3.5-8.1H63v10.4
		h1.1V307.2L64.1,307.2z M70.8,304.8v0.9h2.1v9.5h1.1v-9.5h2.1v-0.9H70.8L70.8,304.8z"/>
	<path d="M28,328.2h1.3c0.9,0,1.5-0.2,1.9-0.6c0.5-0.4,0.7-0.9,0.7-1.7v-2.7c0-0.7-0.2-1.2-0.7-1.7c-0.5-0.4-1-0.6-1.9-0.6h-2.5
		v10.4H28L28,328.2L28,328.2z M29.3,327.2H28v-5.3h1.3c0.5,0,0.9,0.1,1,0.4c0.2,0.3,0.4,0.6,0.4,0.9v2.7
		C30.7,326.7,30.2,327.2,29.3,327.2L29.3,327.2L29.3,327.2z M38.5,331.4v-0.9h-2.9V321h-1.1v10.4H38.5L38.5,331.4z M39.4,331.4h1.1
		l0.6-2.4h3l0.6,2.4h1.1L43.5,321h-1.7L39.4,331.4L39.4,331.4z M44,328h-2.7l1.3-5.9L44,328L44,328z M49.3,323.3l3.5,8.1h1.1V321
		h-1.1v8.1l-3.5-8.1h-1.1v10.4h1.1V323.3L49.3,323.3z M58.2,323.3l3.5,8.1h1.1V321h-1.1v8.1l-3.5-8.1h-1.1v10.4h1.1V323.3
		L58.2,323.3z M67.5,330.4v-8.5h0.9V321h-2.7v0.9h0.8v8.5h-0.8v0.9h2.7v-0.9H67.5L67.5,330.4z M72.2,323.3l3.5,8.1h1.1V321h-1.1v8.1
		l-3.5-8.1h-1.1v10.4h1.1V323.3L72.2,323.3z M84,327v2c0,0.4-0.2,0.7-0.6,1c-0.4,0.4-0.9,0.6-1.2,0.6c-0.5,0-0.8-0.1-0.9-0.4
		c-0.2-0.2-0.3-0.6-0.3-0.9v-6.4c0-0.9,0.5-1.3,1.5-1.3c1,0,1.5,0.5,1.5,1.3v0.9h1.1v-0.9c0-0.8-0.2-1.2-0.7-1.7
		c-0.5-0.4-1.1-0.6-2-0.6c-0.9,0-1.5,0.2-2,0.6c-0.5,0.4-0.7,0.9-0.7,1.7v6.4c0,1.5,0.8,2.3,2.4,2.3c0.5,0,0.9-0.1,1.2-0.4
		c0.4-0.2,0.7-0.6,0.9-0.9l0.4,1h0.5V326h-2.9v0.9L84,327L84,327z"/>
	<path class="st2" d="M384.3,371.1c-0.8,0-1.1-0.3-1.1-0.9v-4.9c0-0.7,0.4-0.9,1.1-0.9c0.8,0,1.1,0.3,1.1,0.9v1.1h0.9v-1.1
		c0-0.6-0.2-0.9-0.5-1.2c-0.4-0.3-0.9-0.5-1.5-0.5c-0.7,0-1.1,0.2-1.5,0.5c-0.4,0.3-0.5,0.8-0.5,1.2v4.9c0,0.6,0.2,0.9,0.5,1.2
		c0.4,0.3,0.9,0.5,1.5,0.5c0.7,0,1.1-0.2,1.5-0.5c0.4-0.3,0.5-0.8,0.5-1.2v-0.7h-0.9v0.7C385.5,370.7,385.1,371.1,384.3,371.1
		L384.3,371.1z M395.8,363.9c-0.4-0.3-0.9-0.5-1.6-0.5s-1.2,0.2-1.6,0.5c-0.4,0.3-0.6,0.8-0.6,1.2v4.9c0,0.6,0.2,0.9,0.6,1.2
		c0.4,0.3,0.9,0.5,1.6,0.5c0.7,0,1.2-0.2,1.6-0.5c0.4-0.3,0.6-0.8,0.6-1.2v-4.9C396.3,364.6,396.1,364.2,395.8,363.9L395.8,363.9z
		 M394.2,371.1c-0.9,0-1.2-0.3-1.2-0.9v-4.9c0-0.7,0.4-0.9,1.2-0.9s1.2,0.3,1.2,0.9v4.9C395.5,370.7,395,371.1,394.2,371.1
		L394.2,371.1z M406.2,369.2c-0.1-0.3-0.3-0.5-0.5-0.8l-2.2-2.1c-0.2-0.2-0.3-0.4-0.4-0.5c-0.1-0.2-0.1-0.4-0.1-0.7s0.1-0.5,0.3-0.7
		c0.2-0.2,0.5-0.3,0.9-0.3c0.4,0,0.7,0.1,0.9,0.3c0.2,0.2,0.3,0.4,0.3,0.7v1.1h0.9v-1c0-1.1-0.7-1.7-2-1.7c-0.7,0-1.2,0.2-1.5,0.5
		c-0.4,0.3-0.5,0.8-0.5,1.2c0,0.4,0,0.7,0.1,0.9s0.3,0.5,0.6,0.8l2.2,2.1c0.2,0.2,0.3,0.4,0.4,0.6c0.1,0.2,0.1,0.4,0.1,0.7
		s-0.1,0.5-0.3,0.7c-0.2,0.2-0.5,0.3-0.9,0.3c-0.4,0-0.7-0.1-0.9-0.3c-0.2-0.2-0.3-0.4-0.3-0.7v-1.1h-0.9v1c0,1.1,0.7,1.7,2.1,1.7
		c1.4,0,2.1-0.6,2.1-1.7C406.3,369.7,406.3,369.4,406.2,369.2L406.2,369.2z M411.5,363.6v0.8h1.6v7.3h0.9v-7.3h1.6v-0.8H411.5
		L411.5,363.6z M431.2,370.9h-2.7V368h2.2v-0.8h-2.2v-2.8h2.7v-0.8h-3.5v8h3.6L431.2,370.9L431.2,370.9z M440.6,369.2
		c-0.1-0.3-0.3-0.5-0.5-0.8l-2.2-2.1c-0.2-0.2-0.3-0.4-0.4-0.5c-0.1-0.2-0.1-0.4-0.1-0.7s0.1-0.5,0.3-0.7c0.2-0.2,0.5-0.3,0.9-0.3
		c0.4,0,0.7,0.1,0.9,0.3c0.2,0.2,0.3,0.4,0.3,0.7v1.1h0.9v-1c0-1.1-0.7-1.7-2-1.7c-0.7,0-1.2,0.2-1.5,0.5c-0.4,0.3-0.5,0.8-0.5,1.2
		c0,0.4,0,0.7,0.1,0.9c0.1,0.3,0.3,0.5,0.6,0.8l2.2,2.1c0.2,0.2,0.3,0.4,0.4,0.6c0.1,0.2,0.1,0.4,0.1,0.7s-0.1,0.5-0.3,0.7
		c-0.2,0.2-0.5,0.3-0.9,0.3c-0.5,0-0.7-0.1-0.9-0.3c-0.2-0.2-0.3-0.4-0.3-0.7v-1.1h-0.9v1c0,1.1,0.7,1.7,2.1,1.7
		c1.4,0,2.1-0.6,2.1-1.7C440.8,369.7,440.7,369.4,440.6,369.2L440.6,369.2z M445.9,363.6v0.8h1.6v7.3h0.9v-7.3h1.6v-0.8H445.9
		L445.9,363.6z"/>
	<path class="st2" d="M454.2,371.6h0.9l0.4-1.8h2.4l0.4,1.8h0.9l-1.8-8h-1.3L454.2,371.6L454.2,371.6z M457.6,369h-2l1-4.5
		L457.6,369L457.6,369z M464.6,371.6h2c0.7,0,1.1-0.2,1.4-0.5c0.3-0.3,0.5-0.8,0.5-1.2v-1.1c0-0.8-0.4-1.2-1-1.3
		c0.6-0.2,0.9-0.7,0.9-1.3v-0.8c0-0.6-0.2-0.9-0.5-1.2c-0.4-0.3-0.9-0.5-1.4-0.5h-1.9L464.6,371.6L464.6,371.6z M467.3,370.6
		c-0.2,0.2-0.5,0.3-0.9,0.3h-1.1v-3.1h1.1c0.4,0,0.6,0.1,0.8,0.3c0.2,0.2,0.3,0.5,0.3,0.8v1.1C467.6,370.2,467.5,370.4,467.3,370.6
		L467.3,370.6z M467.2,366.8c-0.2,0.2-0.5,0.3-0.9,0.3h-1v-2.7h1c0.4,0,0.6,0.1,0.9,0.3c0.3,0.2,0.3,0.5,0.3,0.7v0.8
		C467.5,366.4,467.4,366.6,467.2,366.8L467.2,366.8z M477.7,371.6v-0.8h-2.3v-7.2h-0.9v8H477.7L477.7,371.6z M484.1,370.9v-6.5h0.6
		v-0.8h-2.1v0.8h0.6v6.5h-0.6v0.8h2.1v-0.8H484.1L484.1,370.9z M494.4,369.2c-0.1-0.3-0.3-0.5-0.5-0.8l-2.2-2.1
		c-0.2-0.2-0.3-0.4-0.4-0.5c-0.1-0.2-0.1-0.4-0.1-0.7s0.1-0.5,0.3-0.7c0.2-0.2,0.5-0.3,0.9-0.3s0.7,0.1,0.9,0.3
		c0.2,0.2,0.3,0.4,0.3,0.7v1.1h0.9v-1c0-1.1-0.7-1.7-2-1.7c-0.7,0-1.2,0.2-1.5,0.5c-0.4,0.3-0.5,0.8-0.5,1.2c0,0.4,0,0.7,0.1,0.9
		s0.3,0.5,0.6,0.8l2.2,2.1c0.2,0.2,0.3,0.4,0.4,0.6c0.1,0.2,0.1,0.4,0.1,0.7s-0.1,0.5-0.3,0.7c-0.2,0.2-0.5,0.3-0.9,0.3
		c-0.4,0-0.7-0.1-0.9-0.3c-0.2-0.2-0.3-0.4-0.3-0.7v-1.1h-0.9v1c0,1.1,0.7,1.7,2.1,1.7s2.1-0.6,2.1-1.7
		C494.6,369.7,494.5,369.4,494.4,369.2L494.4,369.2z M501.4,367.9h2.5v3.7h0.9v-8h-0.9v3.6h-2.5v-3.6h-0.9v8h0.9V367.9L501.4,367.9z
		 M514.6,370.9h-2.7V368h2.2v-0.8h-2.2v-2.8h2.7v-0.8H511v8h3.6L514.6,370.9L514.6,370.9z M523.7,371.2c0.3-0.3,0.5-0.8,0.5-1.2
		v-4.6c0-0.6-0.2-0.9-0.5-1.2c-0.4-0.3-0.9-0.5-1.4-0.5h-2v8h2C522.8,371.6,523.4,371.5,523.7,371.2L523.7,371.2z M523,370.6
		c-0.2,0.2-0.5,0.3-0.9,0.3H521v-6.5h1.1c0.4,0,0.6,0.1,0.9,0.3c0.3,0.2,0.3,0.5,0.3,0.7v4.6C523.3,370.2,523.2,370.4,523,370.6
		L523,370.6z"/>
	<rect x="339.4" y="378.7" class="st3" width="230.4" height="3.8"/>
	<path class="st3" d="M341.3,381.5h-1.9V282h1.9V381.5z M569.8,380.7h-1.9v-98.6h1.9V380.7z M797.4,354.1h-1.9v-73h1.9V354.1z
		 M455.1,354.1h-1.9v-73h1.9V354.1z M227.6,354.1h-1.9v-73h1.9V354.1z M113.8,354.1h-1.9v-73h1.9V354.1z"/>
	<g>
		<g>
			<defs>
				<path id="SVGID_3_" d="M796,292.9c6.5,0,11.9-5.3,11.9-11.9c0-6.5-5.3-11.9-11.9-11.9c-6.5,0-11.9,5.3-11.9,11.9
					C784.1,287.6,789.4,292.9,796,292.9L796,292.9z"/>
			</defs>
			<clipPath id="SVGID_4_">
				<use xlink:href="#SVGID_3_"  style="overflow:visible;"/>
			</clipPath>
			<rect x="779.4" y="264.4" class="st4" width="33.2" height="33.2"/>
		</g>
	</g>
	<path class="st3" d="M796,293.8c-7,0-12.8-5.8-12.8-12.8c0-7,5.8-12.8,12.8-12.8c7,0,12.8,5.8,12.8,12.8
		C808.8,288.1,803,293.8,796,293.8z M796,270.1c-6,0-10.9,4.9-10.9,10.9c0,6,4.9,10.9,10.9,10.9s10.9-4.9,10.9-10.9
		C806.9,275.1,801.9,270.1,796,270.1z"/>
	<g>
		<g>
			<defs>
				<polyline id="SVGID_5_" points="793.6,273.9 800.3,280.6 793.6,287.3 				"/>
			</defs>
			<clipPath id="SVGID_6_">
				<use xlink:href="#SVGID_5_"  style="overflow:visible;"/>
			</clipPath>
			<polygon class="st5" points="794.9,288.6 792.3,286 797.6,280.6 792.3,275.3 794.9,272.6 803,280.6 			"/>
		</g>
	</g>
	<g>
		<g>
			<defs>
				<path id="SVGID_7_" d="M568.4,292.9c6.5,0,11.9-5.3,11.9-11.9c0-6.5-5.3-11.9-11.9-11.9s-11.9,5.3-11.9,11.9
					C556.6,287.6,561.9,292.9,568.4,292.9L568.4,292.9z"/>
			</defs>
			<clipPath id="SVGID_8_">
				<use xlink:href="#SVGID_7_"  style="overflow:visible;"/>
			</clipPath>
			<rect x="551.8" y="264.4" class="st6" width="33.2" height="33.2"/>
		</g>
	</g>
	<path class="st3" d="M568.4,293.8c-7,0-12.8-5.8-12.8-12.8c0-7,5.8-12.8,12.8-12.8c7,0,12.8,5.8,12.8,12.8
		C581.2,288.1,575.4,293.8,568.4,293.8z M568.4,270.1c-6,0-10.9,4.9-10.9,10.9c0,6,4.9,10.9,10.9,10.9s10.9-4.9,10.9-10.9
		C579.3,275.1,574.4,270.1,568.4,270.1z"/>
	<g>
		<g>
			<defs>
				<polyline id="SVGID_9_" points="566,273.9 572.8,280.6 566,287.3 				"/>
			</defs>
			<clipPath id="SVGID_10_">
				<use xlink:href="#SVGID_9_"  style="overflow:visible;"/>
			</clipPath>
			<polygon class="st7" points="567.4,288.6 564.7,286 570,280.6 564.7,275.3 567.4,272.6 575.4,280.6 			"/>
		</g>
	</g>
	<g>
		<g>
			<defs>
				<path id="SVGID_11_" d="M453.7,292.9c6.5,0,11.9-5.3,11.9-11.9c0-6.5-5.3-11.9-11.9-11.9c-6.5,0-11.9,5.3-11.9,11.9
					C441.8,287.6,447.1,292.9,453.7,292.9L453.7,292.9z"/>
			</defs>
			<clipPath id="SVGID_12_">
				<use xlink:href="#SVGID_11_"  style="overflow:visible;"/>
			</clipPath>
			<rect x="437.1" y="264.4" class="st8" width="33.2" height="33.2"/>
		</g>
	</g>
	<path class="st3" d="M453.7,293.8c-7,0-12.8-5.8-12.8-12.8c0-7,5.8-12.8,12.8-12.8s12.8,5.8,12.8,12.8
		C466.5,288.1,460.7,293.8,453.7,293.8z M453.7,270.1c-6,0-10.9,4.9-10.9,10.9c0,6,4.9,10.9,10.9,10.9s10.9-4.9,10.9-10.9
		C464.6,275.1,459.7,270.1,453.7,270.1z"/>
	<g>
		<g>
			<defs>
				<polyline id="SVGID_13_" points="451.3,273.9 458.1,280.6 451.3,287.3 				"/>
			</defs>
			<clipPath id="SVGID_14_">
				<use xlink:href="#SVGID_13_"  style="overflow:visible;"/>
			</clipPath>
			<polygon class="st9" points="452.6,288.6 450,286 455.3,280.6 450,275.3 452.6,272.6 460.7,280.6 			"/>
		</g>
	</g>
	<g>
		<g>
			<defs>
				<path id="SVGID_15_" d="M339.9,292.9c6.5,0,11.9-5.3,11.9-11.9c0-6.5-5.3-11.9-11.9-11.9c-6.5,0-11.9,5.3-11.9,11.9
					C328.1,287.6,333.4,292.9,339.9,292.9L339.9,292.9z"/>
			</defs>
			<clipPath id="SVGID_16_">
				<use xlink:href="#SVGID_15_"  style="overflow:visible;"/>
			</clipPath>
			<rect x="323.3" y="264.4" class="st10" width="33.2" height="33.2"/>
		</g>
	</g>
	<path class="st3" d="M339.9,293.8c-7,0-12.8-5.8-12.8-12.8c0-7,5.8-12.8,12.8-12.8s12.8,5.8,12.8,12.8
		C352.7,288.1,346.9,293.8,339.9,293.8z M339.9,270.1c-6,0-10.9,4.9-10.9,10.9c0,6,4.9,10.9,10.9,10.9s10.9-4.9,10.9-10.9
		C350.8,275.1,345.9,270.1,339.9,270.1z"/>
	<g>
		<g>
			<defs>
				<polyline id="SVGID_17_" points="337.5,273.9 344.3,280.6 337.5,287.3 				"/>
			</defs>
			<clipPath id="SVGID_18_">
				<use xlink:href="#SVGID_17_"  style="overflow:visible;"/>
			</clipPath>
			<polygon class="st11" points="338.9,288.6 336.2,286 341.5,280.6 336.2,275.3 338.9,272.6 346.9,280.6 			"/>
		</g>
	</g>
	<g>
		<g>
			<defs>
				<path id="SVGID_19_" d="M226.1,292.9c6.5,0,11.9-5.3,11.9-11.9c0-6.5-5.3-11.9-11.9-11.9s-11.9,5.3-11.9,11.9
					C214.3,287.6,219.6,292.9,226.1,292.9L226.1,292.9z"/>
			</defs>
			<clipPath id="SVGID_20_">
				<use xlink:href="#SVGID_19_"  style="overflow:visible;"/>
			</clipPath>
			<rect x="209.5" y="264.4" class="st12" width="33.2" height="33.2"/>
		</g>
	</g>
	<path class="st3" d="M226.1,293.8c-7,0-12.8-5.8-12.8-12.8c0-7,5.8-12.8,12.8-12.8s12.8,5.8,12.8,12.8
		C238.9,288.1,233.1,293.8,226.1,293.8z M226.1,270.1c-6,0-10.9,4.9-10.9,10.9c0,6,4.9,10.9,10.9,10.9c6,0,10.9-4.9,10.9-10.9
		C237,275.1,232.1,270.1,226.1,270.1z"/>
	<g>
		<g>
			<defs>
				<polyline id="SVGID_21_" points="223.8,273.9 230.5,280.6 223.8,287.3 				"/>
			</defs>
			<clipPath id="SVGID_22_">
				<use xlink:href="#SVGID_21_"  style="overflow:visible;"/>
			</clipPath>
			<polygon class="st13" points="225.1,288.6 222.4,286 227.7,280.6 222.4,275.3 225.1,272.6 233.1,280.6 			"/>
		</g>
	</g>
	<g>
		<g>
			<defs>
				<path id="SVGID_23_" d="M112.4,292.9c6.5,0,11.9-5.3,11.9-11.9c0-6.5-5.3-11.9-11.9-11.9s-11.9,5.3-11.9,11.9
					C100.5,287.6,105.8,292.9,112.4,292.9L112.4,292.9z"/>
			</defs>
			<clipPath id="SVGID_24_">
				<use xlink:href="#SVGID_23_"  style="overflow:visible;"/>
			</clipPath>
			<rect x="95.8" y="264.4" class="st14" width="33.2" height="33.2"/>
		</g>
	</g>
	<path class="st3" d="M112.4,293.8c-7,0-12.8-5.8-12.8-12.8c0-7,5.8-12.8,12.8-12.8s12.8,5.8,12.8,12.8
		C125.2,288.1,119.4,293.8,112.4,293.8z M112.4,270.1c-6,0-10.9,4.9-10.9,10.9c0,6,4.9,10.9,10.9,10.9s10.9-4.9,10.9-10.9
		C123.3,275.1,118.3,270.1,112.4,270.1z"/>
	<g>
		<g>
			<defs>
				<polyline id="SVGID_25_" points="110.1,273.9 116.7,280.7 110.1,287.4 				"/>
			</defs>
			<clipPath id="SVGID_26_">
				<use xlink:href="#SVGID_25_"  style="overflow:visible;"/>
			</clipPath>
			<polygon class="st15" points="111.4,288.7 108.8,286.1 114.1,280.7 108.8,275.3 111.4,272.6 119.5,280.7 			"/>
		</g>
	</g>
	<g>
		<path d="M350.8,244.5h-4.9v-0.3c0.9,0,1.5-0.9,1.5-2.4v-10.6c0-1.4-0.6-2.4-1.5-2.4v-0.3h4.9c4.6,0,9,1.4,9,8.1
			C359.8,243.5,355.4,244.5,350.8,244.5z M350.8,228.9h-1v15.5h1c2.5,0,6.3-0.1,6.3-7.7C357.1,229.3,353.3,228.9,350.8,228.9z"/>
		<path d="M373.4,239.8v4.7h-11.5v-0.3c0.9,0,1.2-0.9,1.2-2.4V231c0-1.4-0.2-2.2-1.2-2.2v-0.3h11.2v4.1h-0.3
			c-0.3-3.8-4.2-3.8-6.1-3.8h-1.2v7.5h1.5c0.6,0,3,0,3.1-2.3h0.3v4.9h-0.3c-0.1-2.3-2.6-2.3-3.1-2.3h-1.5v7.7h1c2,0,6.1,0.1,6.5-4.5
			L373.4,239.8L373.4,239.8z"/>
		<path d="M381.2,244.8c-3.7,0-5.4-1.2-5.4-1.2v-4.4h0.3c0.3,2.7,1.2,5.3,5.1,5.3c3.4,0,3.9-3.9,1.2-5.7l-3.8-2.5
			c-2.2-1.4-4.3-3.5-2.5-6.2c0,0,1.1-1.8,4.3-1.8c3.3,0,5.2,1,5.2,1v3.8h-0.3c-0.2-2.3-1.1-4.6-4.9-4.6c-2.5,0-4.4,3.1-0.9,5.4
			l3.8,2.5c3,2,3.5,4.6,2.4,6.4C385.7,242.9,384.7,244.8,381.2,244.8z"/>
		<path d="M394.3,228.5v0.3c-0.9,0-1.6,0.4-1.6,1.8v11.5c0,1.5,0.7,2.2,1.6,2.2v0.3h-5.5v-0.3c0.9,0,1.6-0.6,1.6-2.2v-11.5
			c0-1.4-0.6-1.8-1.6-1.8v-0.3H394.3z"/>
		<path d="M411.1,238.2v0.3c-1.3,0-1.5,0.2-1.5,5.3c-1.4,0.6-3.3,0.9-5.8,0.9c-4.9,0-7.5-3.7-7.5-8.2c0-4.6,2.6-8.2,7.5-8.2
			c2.7,0,4.4,0.4,5.8,1.3l-0.2,3.7h-0.5c-0.4-3.8-2.4-4.6-5.1-4.6c-2.6,0-4.6,1.7-4.6,8s2,8,4.6,8c2.7,0,3.8-0.6,3.8-2.5
			c0-3.4-0.3-3.5-1.8-3.5v-0.3L411.1,238.2L411.1,238.2z"/>
		<path d="M429.6,228.5v0.3c-3.3,0-3.2,3.3-3.2,5.4v10.3h-0.8L416,232v6.8c0,2,0,5.4,2.9,5.4v0.3h-6.5v-0.3c3.3,0,3.3-3.3,3.3-5.4
			v-7.1l-0.9-1.2c-1.4-1.8-2.1-1.7-2.7-1.7v-0.3h4.2l9.9,12.7v-7c0-2.1,0-5.4-2.9-5.4v-0.3L429.6,228.5L429.6,228.5z"/>
		<path d="M441.3,244.5h-4.6v-0.2c0.9,0,1.3-0.9,1.3-2.6v-10.6c0-1.4-0.3-2.5-1.3-2.5v-0.2h4.6c3.1,0,5.9,0.2,5.9,3.9
			c0,3.5-3.3,3.9-3.8,3.9c1.5,0,4.8,0.3,4.8,4.2C448.2,244.4,445.3,244.5,441.3,244.5z M440.4,228.9v7.5h1.3c1.4,0,2.9-0.5,2.9-3.9
			c0-3.3-1.9-3.6-3.3-3.6H440.4z M441.7,236.6h-1.3v7.7h1c2.2,0,4.3,0,4.3-3.9C445.6,236.8,443.4,236.6,441.7,236.6z"/>
	</g>
	<g>
		<path d="M451.9,239.1v-8.2c0-1.5-0.6-2-1.6-2v-0.3h5.7v0.3c-0.9,0-1.8,0.2-1.8,2v8.4c0,2.8,1.7,4.5,4.2,4.5c2.3,0,4.1-1.6,4.1-4.6
			v-6.2c0-2.2,0-4.2-2.7-4.2v-0.3h5.9v0.3c-2.9,0-2.9,2-2.9,4.2v6.2c0,4.1-2.7,5.6-5.5,5.6C454.2,244.8,451.9,242.8,451.9,239.1z"/>
		<path d="M472.8,228.5v0.3c-0.9,0-1.6,0.4-1.6,1.8v11.5c0,1.5,0.7,2.2,1.6,2.2v0.3h-5.5v-0.3c0.9,0,1.6-0.6,1.6-2.2v-11.5
			c0-1.4-0.6-1.8-1.6-1.8v-0.3H472.8z"/>
		<path d="M486.5,239.6v4.9h-11.4v-0.3c0.9,0,1.2-0.9,1.2-2.4v-11.1c0-1.4-0.5-1.9-1.4-1.9v-0.3h5.4v0.3c-0.9,0-1.7,0.4-1.7,2v13.4
			h0.9c2.5,0,6.3,0,6.7-4.6L486.5,239.6L486.5,239.6z"/>
		<path d="M493.7,244.5h-4.9v-0.3c0.9,0,1.5-0.9,1.5-2.4v-10.6c0-1.4-0.6-2.4-1.5-2.4v-0.3h4.9c4.6,0,9,1.4,9,8.1
			C502.8,243.5,498.3,244.5,493.7,244.5z M493.7,228.9h-1v15.5h1c2.5,0,6.3-0.1,6.3-7.7C500.1,229.3,496.3,228.9,493.7,228.9z"/>
	</g>
	<g>
		<path d="M514.3,241.5c0,2.7,0.9,2.8,2.3,2.8v0.3h-6v-0.3c1.1,0,1.5-0.6,1.5-2.7v-10.5c0-1.6-0.3-2.2-1.4-2.2v-0.3h4.1
			c4.6,0,7.5,0.6,7.5,4.6c0,4-3,4.6-7.5,4.6h-0.4L514.3,241.5L514.3,241.5z M514.7,237.4c2.7,0,5-0.1,5-4.3c0-4.4-2.4-4.3-5-4.3
			h-0.4v8.5H514.7z"/>
		<path d="M536.7,244.5h-5.2v-0.3c1.2,0,1-1.3,0.5-2.6l-0.8-2h-5.9c-0.6,1.8-1.6,4.6,1.5,4.6v0.3h-5.1v-0.3c0.9,0,1.4-0.1,3.4-5.4
			l3.8-10.3h0.3c2.7,6.7,5.6,13.8,5.6,13.8c0.8,1.8,1.2,1.8,1.9,1.8V244.5z M531.1,239.4l-2.9-7.6l-2.7,7.6H531.1z"/>
	</g>
	<g>
		<path d="M550.2,228.5v4h-0.3c-0.1-3.7-3.9-3.7-4.2-3.7h-1.3v13.6c0,1.5,0.7,1.9,1.7,1.9v0.3h-5.6v-0.3c0.9,0,1.6-0.4,1.6-1.9
			v-13.6h-1.3c-0.7,0-4.1,0-4.2,3.7h-0.3v-4H550.2z"/>
		<path d="M563,241.5c0,1.9-0.1,2.5,1.1,2.8v0.3h-4v-0.3c0.6-0.2,0.7-0.8,0.7-2.8v-4.4h-6.3v4.4c0,2.3,0,2.6,0.7,2.8v0.3h-4.1v-0.3
			c1.2-0.3,1.1-0.6,1.1-2.8v-9.8c0-2.1,0-2.7-1.1-2.8v-0.3h4.1v0.3c-0.7,0.2-0.7,0.7-0.7,2.8v5h6.3v-5c0-2.2,0-2.7-0.7-2.8v-0.3h4
			v0.3c-1,0.2-1.1,0.7-1.1,2.8V241.5z"/>
	</g>
	<polygon class="st0" points="0,59.6 909.3,59.6 909.3,135.5 0,135.5 	"/>
	<g>
		<g>
			<defs>
				<rect id="SVGID_27_" y="59.6" width="909.3" height="75.9"/>
			</defs>
			<clipPath id="SVGID_28_">
				<use xlink:href="#SVGID_27_"  style="overflow:visible;"/>
			</clipPath>
			<path class="st16" d="M913.1,139.3H-3.8V55.9h916.9V139.3z M3.8,131.7h901.7V63.4H3.8V131.7z"/>
		</g>
	</g>
	<path d="M752.1,102.6c-1,0-1.5-0.5-1.5-1.3v-6.4c0-0.9,0.5-1.3,1.5-1.3c1,0,1.5,0.5,1.5,1.3v1.5h1.1v-1.5c0-0.8-0.2-1.2-0.7-1.7
		c-0.5-0.4-1.1-0.6-2-0.6c-0.9,0-1.5,0.2-2,0.6c-0.5,0.4-0.7,0.9-0.7,1.7v6.4c0,0.8,0.2,1.2,0.7,1.7s1.1,0.6,2,0.6
		c0.9,0,1.5-0.2,2-0.6c0.5-0.4,0.7-0.9,0.7-1.7v-0.9h-1.1v0.9C753.6,102.1,753.1,102.6,752.1,102.6L752.1,102.6z M762.1,93.2
		c-0.5-0.4-1.1-0.6-2.1-0.6c-0.9,0-1.6,0.2-2.1,0.6c-0.5,0.4-0.7,0.9-0.7,1.7v6.4c0,0.8,0.2,1.2,0.7,1.7c0.5,0.5,1.1,0.6,2.1,0.6
		c0.9,0,1.6-0.2,2.1-0.6c0.5-0.4,0.7-0.9,0.7-1.7v-6.4C762.8,94.2,762.6,93.6,762.1,93.2L762.1,93.2z M760,102.6
		c-1,0-1.6-0.5-1.6-1.3v-6.4c0-0.9,0.6-1.3,1.6-1.3c1,0,1.6,0.5,1.6,1.3v6.4C761.6,102.1,761.2,102.6,760,102.6L760,102.6z
		 M767,95.2l3.5,8.1h1.1V92.7h-1.1v8.1l-3.5-8.1h-1.1v10.5h1.1V95.2L767,95.2z M779.8,100.1c-0.1-0.3-0.4-0.7-0.7-0.9l-2.8-2.7
		c-0.3-0.2-0.4-0.5-0.5-0.7c-0.1-0.2-0.1-0.5-0.1-0.9c0-0.4,0.1-0.7,0.4-0.9c0.3-0.2,0.7-0.3,1.1-0.3c0.5,0,0.9,0.1,1.1,0.3
		c0.3,0.2,0.4,0.5,0.4,0.9v1.4h1.1v-1.3c0-1.5-0.9-2.3-2.6-2.3c-0.9,0-1.6,0.2-2,0.6c-0.5,0.4-0.7,0.9-0.7,1.7
		c0,0.5,0.1,0.9,0.2,1.2c0.1,0.3,0.4,0.7,0.7,0.9l2.8,2.7c0.3,0.3,0.4,0.5,0.5,0.7s0.1,0.5,0.1,0.9c0,0.4-0.1,0.7-0.4,0.9
		c-0.3,0.2-0.7,0.3-1.2,0.3s-0.9-0.1-1.2-0.3c-0.3-0.2-0.4-0.5-0.4-0.9V100h-1.1v1.3c0,1.5,0.9,2.3,2.7,2.3s2.7-0.8,2.7-2.3
		C779.9,100.8,779.9,100.4,779.8,100.1L779.8,100.1z M781.7,92.8v0.9h2.1v9.5h1.1v-9.5h2.1v-0.9H781.7L781.7,92.8z M790.2,99.6h1.3
		l1.9,3.7h1.2l-2-3.9c0.9-0.3,1.4-1,1.4-2.1V95c0-0.7-0.2-1.2-0.7-1.7c-0.5-0.4-1-0.6-1.9-0.6H789v10.5h1.1L790.2,99.6L790.2,99.6z
		 M791.5,98.6h-1.3v-4.8h1.3c0.5,0,0.9,0.1,1,0.4c0.3,0.2,0.4,0.6,0.4,0.9v2.3C792.9,98.2,792.5,98.6,791.5,98.6L791.5,98.6
		L791.5,98.6z M799.5,102.6c-1,0-1.6-0.5-1.6-1.3v-8.4h-1.1v8.4c0,0.8,0.2,1.2,0.7,1.7c0.5,0.4,1.1,0.6,2.1,0.6
		c0.9,0,1.6-0.2,2.1-0.6c0.5-0.4,0.7-0.9,0.7-1.7v-8.4h-1.1v8.4C801.1,102.1,800.5,102.6,799.5,102.6L799.5,102.6z M807.7,102.6
		c-1,0-1.5-0.5-1.5-1.3v-6.4c0-0.9,0.5-1.3,1.5-1.3c1,0,1.5,0.5,1.5,1.3v1.5h1.1v-1.5c0-0.8-0.2-1.2-0.7-1.7c-0.5-0.4-1.1-0.6-2-0.6
		c-0.9,0-1.5,0.2-2,0.6c-0.5,0.4-0.7,0.9-0.7,1.7v6.4c0,0.8,0.2,1.2,0.7,1.7s1.1,0.6,2,0.6c0.9,0,1.5-0.2,2-0.6
		c0.5-0.4,0.7-0.9,0.7-1.7v-0.9h-1.1v0.9C809.2,102.1,808.8,102.6,807.7,102.6L807.7,102.6z M812.1,92.8v0.9h2.1v9.5h1.1v-9.5h2.1
		v-0.9H812.1L812.1,92.8z M820.9,102.3v-8.5h0.9v-0.9H819v0.9h0.9v8.5H819v0.9h2.7v-0.9H820.9L820.9,102.3z M829.1,93.2
		c-0.5-0.4-1.1-0.6-2.1-0.6c-0.9,0-1.6,0.2-2.1,0.6c-0.5,0.4-0.7,0.9-0.7,1.7v6.4c0,0.8,0.2,1.2,0.7,1.7c0.5,0.5,1.1,0.6,2.1,0.6
		c0.9,0,1.6-0.2,2.1-0.6c0.5-0.4,0.7-0.9,0.7-1.7v-6.4C829.7,94.2,829.4,93.6,829.1,93.2L829.1,93.2z M827,102.6
		c-1,0-1.6-0.5-1.6-1.3v-6.4c0-0.9,0.6-1.3,1.6-1.3c1,0,1.6,0.5,1.6,1.3v6.4C828.6,102.1,828,102.6,827,102.6L827,102.6z
		 M833.8,95.2l3.5,8.1h1.1V92.7h-1.1v8.1l-3.5-8.1h-1.1v10.5h1.1V95.2L833.8,95.2z"/>
	<path d="M602.4,100h1.3c0.9,0,1.5-0.2,1.9-0.6c0.5-0.4,0.7-0.9,0.7-1.7V95c0-0.7-0.2-1.2-0.7-1.7c-0.5-0.4-1-0.6-1.9-0.6h-2.5v10.5
		h1.1V100L602.4,100z M603.7,99.1h-1.3v-5.3h1.3c0.5,0,0.9,0.1,1,0.4c0.3,0.2,0.4,0.6,0.4,0.9v2.7C605.1,98.7,604.6,99.1,603.7,99.1
		L603.7,99.1L603.7,99.1z M613.5,102.3h-3.6v-3.9h2.8v-0.9h-2.8v-3.7h3.5v-0.9h-4.6v10.5h4.7L613.5,102.3L613.5,102.3z M617.1,99.6
		h1.3l1.9,3.7h1.2l-2-3.9c0.9-0.3,1.4-1,1.4-2.1V95c0-0.7-0.2-1.2-0.7-1.7c-0.5-0.4-1-0.6-1.9-0.6h-2.5v10.5h1.1L617.1,99.6
		L617.1,99.6z M618.4,98.6h-1.3v-4.8h1.3c0.5,0,0.9,0.1,1,0.4c0.3,0.2,0.4,0.6,0.4,0.9v2.3C619.8,98.2,619.3,98.6,618.4,98.6
		L618.4,98.6L618.4,98.6z M624.9,94.6l1.9,7h1l1.9-7v8.6h1.1V92.7h-1.7l-1.9,6.9l-1.8-6.9h-1.7v10.5h1.1L624.9,94.6L624.9,94.6z
		 M635.5,102.3v-8.5h0.8v-0.9h-2.7v0.9h0.8v8.5h-0.8v0.9h2.7v-0.9H635.5L635.5,102.3z M637.9,92.8v0.9h2.1v9.5h1.1v-9.5h2.1v-0.9
		H637.9L637.9,92.8z M650.3,100.1c-0.1-0.3-0.4-0.7-0.7-0.9l-2.8-2.7c-0.3-0.2-0.4-0.5-0.5-0.7c-0.1-0.2-0.1-0.5-0.1-0.9
		c0-0.4,0.1-0.7,0.4-0.9c0.3-0.2,0.7-0.3,1.1-0.3s0.9,0.1,1.1,0.3c0.3,0.2,0.4,0.5,0.4,0.9v1.4h1.1v-1.3c0-1.5-0.9-2.3-2.6-2.3
		c-0.9,0-1.6,0.2-2,0.6c-0.5,0.4-0.7,0.9-0.7,1.7c0,0.5,0.1,0.9,0.2,1.2c0.1,0.3,0.4,0.7,0.7,0.9l2.8,2.7c0.3,0.3,0.4,0.5,0.5,0.7
		s0.1,0.5,0.1,0.9c0,0.4-0.1,0.7-0.4,0.9s-0.7,0.3-1.2,0.3c-0.6,0-0.9-0.1-1.2-0.3c-0.3-0.2-0.4-0.5-0.4-0.9V100h-1.1v1.3
		c0,1.5,0.9,2.3,2.7,2.3s2.7-0.8,2.7-2.3C650.5,100.8,650.4,100.4,650.3,100.1L650.3,100.1z"/>
	<path d="M496.4,92.5c-0.1-0.3-0.4-0.7-0.7-0.9l-2.8-2.7c-0.3-0.2-0.4-0.5-0.5-0.7s-0.1-0.5-0.1-0.9c0-0.4,0.1-0.7,0.4-0.9
		c0.3-0.2,0.7-0.3,1.1-0.3c0.5,0,0.9,0.1,1.1,0.3c0.3,0.2,0.4,0.5,0.4,0.9v1.4h1.1v-1.3c0-1.5-0.9-2.3-2.6-2.3c-0.9,0-1.6,0.2-2,0.6
		c-0.5,0.4-0.7,0.9-0.7,1.7c0,0.5,0.1,0.9,0.2,1.2c0.1,0.3,0.4,0.7,0.7,0.9l2.8,2.7c0.3,0.3,0.4,0.5,0.5,0.7s0.1,0.5,0.1,0.9
		c0,0.4-0.1,0.7-0.4,0.9c-0.3,0.2-0.7,0.3-1.2,0.3c-0.6,0-0.9-0.1-1.2-0.3c-0.3-0.2-0.4-0.5-0.4-0.9v-1.4h-1.1v1.3
		c0,1.5,0.9,2.3,2.7,2.3c1.8,0,2.7-0.8,2.7-2.3C496.5,93.2,496.5,92.8,496.4,92.5L496.4,92.5z M504.1,94.7h-3.6v-3.9h2.8v-0.9h-2.8
		v-3.7h3.5v-0.9h-4.6v10.5h4.7L504.1,94.7L504.1,94.7z M510.7,95.7v-0.9h-2.9v-9.5h-1.1v10.5L510.7,95.7L510.7,95.7z M517.3,94.7
		h-3.6v-3.9h2.8v-0.9h-2.8v-3.7h3.5v-0.9h-4.6v10.5h4.7L517.3,94.7L517.3,94.7z M522.1,95c-1,0-1.5-0.5-1.5-1.3v-6.4
		c0-0.9,0.5-1.3,1.5-1.3c1,0,1.5,0.5,1.5,1.3v1.5h1.1v-1.5c0-0.8-0.2-1.2-0.7-1.7c-0.5-0.4-1.1-0.6-2-0.6c-0.9,0-1.5,0.2-2,0.6
		c-0.5,0.4-0.7,0.9-0.7,1.7v6.4c0,0.8,0.2,1.2,0.7,1.7c0.5,0.5,1.1,0.6,2,0.6c0.9,0,1.5-0.2,2-0.6c0.5-0.4,0.7-0.9,0.7-1.7v-0.9
		h-1.1v0.9C523.7,94.5,523.2,95,522.1,95L522.1,95z M526.5,85.2v0.9h2.1v9.5h1.1v-9.5h2.1v-0.9H526.5L526.5,85.2z"/>
	<path d="M476.5,111.1c-1,0-1.5-0.5-1.5-1.3v-6.4c0-0.9,0.5-1.3,1.5-1.3s1.5,0.5,1.5,1.3v1.5h1.1v-1.5c0-0.8-0.2-1.2-0.7-1.7
		c-0.5-0.4-1.1-0.6-2-0.6s-1.5,0.2-2,0.6c-0.5,0.4-0.7,0.9-0.7,1.7v6.4c0,0.8,0.2,1.2,0.7,1.7c0.5,0.4,1.1,0.6,2,0.6s1.5-0.2,2-0.6
		c0.5-0.4,0.7-0.9,0.7-1.7v-0.9h-1.1v0.9C478.1,110.7,477.5,111.1,476.5,111.1L476.5,111.1z M486.5,101.7c-0.5-0.4-1.1-0.6-2.1-0.6
		s-1.6,0.2-2.1,0.6c-0.5,0.4-0.7,0.9-0.7,1.7v6.4c0,0.8,0.2,1.2,0.7,1.7c0.5,0.4,1.1,0.6,2.1,0.6s1.6-0.2,2.1-0.6
		c0.5-0.4,0.7-0.9,0.7-1.7v-6.4C487.3,102.7,487,102.1,486.5,101.7L486.5,101.7z M484.5,111.1c-1,0-1.6-0.5-1.6-1.3v-6.4
		c0-0.9,0.6-1.3,1.6-1.3s1.6,0.5,1.6,1.3v6.4C486.1,110.7,485.5,111.1,484.5,111.1L484.5,111.1z M491.3,103.7l3.5,8.1h1.1v-10.5
		h-1.1v8.1l-3.5-8.1h-1.1v10.5h1.1V103.7L491.3,103.7z M498.1,101.4v0.9h2.1v9.5h1.1v-9.5h2.1v-0.9H498.1L498.1,101.4z M506.6,108.1
		h1.3l1.9,3.7h1.2l-2-3.9c0.9-0.3,1.4-1,1.4-2.1v-2.3c0-0.7-0.2-1.2-0.7-1.7c-0.5-0.4-1-0.6-1.9-0.6h-2.5v10.5h1.1L506.6,108.1
		L506.6,108.1z M507.9,107.1h-1.3v-4.8h1.3c0.5,0,0.9,0.1,1,0.4c0.3,0.2,0.4,0.6,0.4,0.9v2.3C509.3,106.8,508.9,107.1,507.9,107.1
		L507.9,107.1L507.9,107.1z M512.3,111.8h1.1l0.6-2.5h3l0.6,2.5h1.1l-2.4-10.5h-1.7L512.3,111.8L512.3,111.8z M516.8,108.5h-2.7
		l1.3-5.9L516.8,108.5L516.8,108.5z M523.4,111.1c-1,0-1.5-0.5-1.5-1.3v-6.4c0-0.9,0.5-1.3,1.5-1.3c1,0,1.5,0.5,1.5,1.3v1.5h1.1
		v-1.5c0-0.8-0.2-1.2-0.7-1.7c-0.5-0.4-1.1-0.6-2-0.6c-0.9,0-1.5,0.2-2,0.6c-0.5,0.4-0.7,0.9-0.7,1.7v6.4c0,0.8,0.2,1.2,0.7,1.7
		c0.5,0.5,1.1,0.6,2,0.6c0.9,0,1.5-0.2,2-0.6c0.5-0.4,0.7-0.9,0.7-1.7v-0.9h-1.1v0.9C525,110.7,524.4,111.1,523.4,111.1L523.4,111.1
		z M527.7,101.4v0.9h2.1v9.5h1.1v-9.5h2.1v-0.9H527.7L527.7,101.4z M539.8,101.7c-0.5-0.4-1.1-0.6-2.1-0.6c-0.9,0-1.6,0.2-2.1,0.6
		c-0.5,0.4-0.7,0.9-0.7,1.7v6.4c0,0.8,0.2,1.2,0.7,1.7c0.5,0.4,1.1,0.6,2.1,0.6c0.9,0,1.6-0.2,2.1-0.6c0.5-0.4,0.7-0.9,0.7-1.7v-6.4
		C540.4,102.7,540.2,102.1,539.8,101.7L539.8,101.7z M537.7,111.1c-1,0-1.6-0.5-1.6-1.3v-6.4c0-0.9,0.6-1.3,1.6-1.3
		c1,0,1.6,0.5,1.6,1.3v6.4C539.3,110.7,538.7,111.1,537.7,111.1L537.7,111.1z M544.5,108.1h1.3l1.9,3.7h1.2l-2-3.9
		c0.9-0.3,1.4-1,1.4-2.1v-2.3c0-0.7-0.2-1.2-0.7-1.7c-0.5-0.4-1-0.6-1.9-0.6h-2.5v10.5h1.1L544.5,108.1L544.5,108.1z M545.8,107.1
		h-1.3v-4.8h1.3c0.5,0,0.9,0.1,1,0.4c0.3,0.2,0.4,0.6,0.4,0.9v2.3C547.3,106.8,546.8,107.1,545.8,107.1L545.8,107.1L545.8,107.1z"/>
	<path d="M382.8,90.8h2.7v-0.9h-2.7v-3.7h3.3v-0.9h-4.5v10.5h1.1V90.8L382.8,90.8z M389.8,94.7v-8.5h0.9v-0.9h-2.7v0.9h0.9v8.5h-0.9
		v0.9h2.7v-0.9H389.8L389.8,94.7z M394.5,87.6l3.5,8.1h1.1V85.2H398v8.1l-3.5-8.1h-1.1v10.5h1.1V87.6L394.5,87.6z M401.4,95.7h1.1
		l0.6-2.5h3l0.6,2.5h1.1l-2.4-10.5h-1.7L401.4,95.7L401.4,95.7z M405.9,92.4h-2.7l1.3-5.9L405.9,92.4L405.9,92.4z M414.2,95.7v-0.9
		h-2.9v-9.5h-1.1v10.5L414.2,95.7L414.2,95.7z"/>
	<path d="M371.2,111.2c0.5-0.4,0.7-0.9,0.7-1.7v-6c0-0.7-0.2-1.2-0.7-1.7c-0.5-0.4-1-0.6-1.9-0.6h-2.6v10.5h2.6
		C370.1,111.8,370.7,111.6,371.2,111.2L371.2,111.2z M370.3,110.5c-0.3,0.3-0.6,0.4-1,0.4h-1.4v-8.5h1.4c0.5,0,0.8,0.1,1,0.4
		c0.3,0.3,0.4,0.6,0.4,0.9v6C370.7,109.9,370.5,110.3,370.3,110.5L370.3,110.5z M375.9,108.1h1.3l1.9,3.7h1.2l-2-3.9
		c0.9-0.3,1.4-1,1.4-2.1v-2.3c0-0.7-0.2-1.2-0.7-1.7c-0.5-0.4-1-0.6-1.9-0.6h-2.5v10.5h1.1L375.9,108.1L375.9,108.1z M377.3,107.1
		h-1.3v-4.8h1.3c0.5,0,0.9,0.1,1,0.4c0.3,0.2,0.4,0.6,0.4,0.9v2.3C378.7,106.8,378.2,107.1,377.3,107.1L377.3,107.1L377.3,107.1z
		 M381.6,111.8h1.1l0.6-2.5h3l0.6,2.5h1.1l-2.4-10.5H384L381.6,111.8L381.6,111.8z M386.2,108.5h-2.7l1.3-5.9L386.2,108.5
		L386.2,108.5z"/>
	<path d="M393.9,103.5l1.6,8.3h1.6l1.5-10.5h-1.1l-1.3,8.8l-1.7-8.8h-1.2l-1.7,8.8l-1.3-8.8H389l1.5,10.5h1.6L393.9,103.5
		L393.9,103.5z M402.5,110.8v-8.5h0.9v-0.9h-2.7v0.9h0.9v8.5h-0.9v0.9h2.7v-0.9H402.5L402.5,110.8z M407.1,103.7l3.5,8.1h1.1v-10.5
		h-1.1v8.1l-3.5-8.1H406v10.5h1.1V103.7L407.1,103.7z M419,107.5v2c0,0.4-0.2,0.7-0.6,1c-0.4,0.4-0.9,0.6-1.2,0.6
		c-0.5,0-0.8-0.1-0.9-0.4c-0.2-0.2-0.3-0.6-0.3-0.9v-6.4c0-0.9,0.5-1.3,1.5-1.3s1.5,0.5,1.5,1.3v0.9h1.1v-0.9c0-0.8-0.2-1.2-0.7-1.7
		c-0.5-0.4-1.1-0.6-2-0.6s-1.5,0.2-2,0.6c-0.5,0.4-0.7,0.9-0.7,1.7v6.4c0,1.5,0.8,2.3,2.4,2.3c0.5,0,0.9-0.1,1.2-0.4
		c0.4-0.3,0.7-0.6,0.9-0.9l0.4,1h0.5v-5.3h-2.9v0.9L419,107.5L419,107.5z M428,108.7c-0.1-0.3-0.4-0.7-0.7-0.9l-2.8-2.7
		c-0.3-0.2-0.4-0.5-0.5-0.7c-0.1-0.2-0.1-0.5-0.1-0.9s0.1-0.7,0.4-0.9c0.3-0.2,0.7-0.3,1.1-0.3c0.5,0,0.9,0.1,1.1,0.3
		c0.3,0.2,0.4,0.5,0.4,0.9v1.4h1.1v-1.3c0-1.5-0.9-2.3-2.6-2.3c-0.9,0-1.6,0.2-2,0.6c-0.5,0.4-0.7,0.9-0.7,1.7
		c0,0.5,0.1,0.9,0.2,1.2c0.1,0.3,0.4,0.7,0.7,0.9l2.8,2.7c0.3,0.3,0.4,0.5,0.5,0.7s0.1,0.5,0.1,0.9c0,0.4-0.1,0.7-0.4,0.9
		s-0.7,0.3-1.2,0.3c-0.6,0-0.9-0.1-1.2-0.3s-0.4-0.5-0.4-0.9v-1.4h-1.1v1.3c0,1.5,0.9,2.3,2.7,2.3c1.8,0,2.7-0.8,2.7-2.3
		C428.2,109.3,428.1,108.9,428,108.7L428,108.7z"/>
	<path d="M249.6,94.6c-1,0-1.5-0.5-1.5-1.3v-6.4c0-0.9,0.5-1.3,1.5-1.3c1,0,1.5,0.5,1.5,1.3v1.5h1.1v-1.5c0-0.8-0.2-1.2-0.7-1.7
		c-0.5-0.4-1.1-0.6-2-0.6s-1.5,0.2-2,0.6c-0.5,0.4-0.7,0.9-0.7,1.7v6.4c0,0.8,0.2,1.2,0.7,1.7c0.5,0.5,1.1,0.6,2,0.6s1.5-0.2,2-0.6
		c0.5-0.4,0.7-0.9,0.7-1.7v-0.9h-1.1v0.9C251.1,94.2,250.5,94.6,249.6,94.6L249.6,94.6z M259.5,85.2c-0.5-0.4-1.1-0.6-2.1-0.6
		s-1.6,0.2-2.1,0.6c-0.5,0.4-0.7,0.9-0.7,1.7v6.4c0,0.8,0.2,1.2,0.7,1.7c0.5,0.5,1.1,0.6,2.1,0.6s1.6-0.2,2.1-0.6
		c0.5-0.4,0.7-0.9,0.7-1.7v-6.4C260.3,86.1,260,85.5,259.5,85.2L259.5,85.2z M257.5,94.6c-1,0-1.6-0.5-1.6-1.3v-6.4
		c0-0.9,0.6-1.3,1.6-1.3s1.6,0.5,1.6,1.3v6.4C259.1,94.2,258.6,94.6,257.5,94.6L257.5,94.6z M264.3,87.2l3.5,8.1h1.1V84.9h-1.1v8.1
		l-3.5-8.1h-1.1v10.4h1.1V87.2L264.3,87.2z M274.6,94.6c-1,0-1.5-0.5-1.5-1.3v-6.4c0-0.9,0.5-1.3,1.5-1.3s1.5,0.5,1.5,1.3v1.5h1.1
		v-1.5c0-0.8-0.2-1.2-0.7-1.7c-0.5-0.4-1.1-0.6-2-0.6s-1.5,0.2-2,0.6c-0.5,0.4-0.7,0.9-0.7,1.7v6.4c0,0.8,0.2,1.2,0.7,1.7
		c0.5,0.4,1.1,0.6,2,0.6s1.5-0.2,2-0.6c0.5-0.4,0.7-0.9,0.7-1.7v-0.9h-1.1v0.9C276.2,94.2,275.6,94.6,274.6,94.6L274.6,94.6z
		 M284.8,94.3h-3.6v-3.9h2.8v-0.9h-2.8v-3.7h3.5v-0.9h-4.6v10.4h4.7L284.8,94.3L284.8,94.3z M288.2,92.1h1.3c0.9,0,1.5-0.2,1.9-0.6
		c0.5-0.4,0.7-0.9,0.7-1.7V87c0-0.7-0.2-1.2-0.7-1.7c-0.5-0.4-1-0.6-1.9-0.6h-2.5v10.4h1.1V92.1L288.2,92.1z M289.6,91.1h-1.3v-5.3
		h1.3c0.5,0,0.9,0.1,1,0.4c0.3,0.2,0.4,0.6,0.4,0.9v2.7C291,90.7,290.5,91.1,289.6,91.1L289.6,91.1L289.6,91.1z M293.5,84.9v0.9h2.1
		v9.5h1.1v-9.5h2.1v-0.9H293.5L293.5,84.9z M303.6,94.6c-1,0-1.6-0.5-1.6-1.3v-8.4h-1.1v8.4c0,0.8,0.2,1.2,0.7,1.7
		c0.5,0.5,1.1,0.6,2.1,0.6s1.6-0.2,2.1-0.6c0.5-0.4,0.7-0.9,0.7-1.7v-8.4h-1.1v8.4C305.2,94.2,304.6,94.6,303.6,94.6L303.6,94.6z
		 M308.4,95.3h1.1l0.6-2.4h3l0.6,2.4h1.1l-2.4-10.4h-1.7L308.4,95.3L308.4,95.3z M312.9,91.9h-2.7l1.3-5.9L312.9,91.9L312.9,91.9z
		 M321.1,95.3v-0.9h-2.9v-9.5h-1.1v10.4H321.1L321.1,95.3z"/>
	<path d="M257.4,110.8c0.5-0.4,0.7-0.9,0.7-1.7v-6c0-0.7-0.2-1.2-0.7-1.7c-0.5-0.4-1-0.6-1.9-0.6H253v10.5h2.6
		C256.3,111.4,256.9,111.2,257.4,110.8L257.4,110.8z M256.6,110.1c-0.3,0.3-0.6,0.4-1,0.4h-1.4v-8.5h1.4c0.5,0,0.8,0.1,1,0.4
		c0.3,0.3,0.4,0.6,0.4,0.9v6C256.9,109.5,256.8,109.8,256.6,110.1L256.6,110.1z M262.2,107.7h1.3l1.9,3.7h1.2l-2-3.9
		c0.9-0.3,1.4-1,1.4-2.1v-2.3c0-0.7-0.2-1.2-0.7-1.7c-0.5-0.4-1-0.6-1.9-0.6H261v10.5h1.1L262.2,107.7L262.2,107.7z M263.5,106.8
		h-1.3v-4.8h1.3c0.5,0,0.9,0.1,1,0.4c0.3,0.2,0.4,0.6,0.4,0.9v2.3C264.9,106.3,264.4,106.8,263.5,106.8L263.5,106.8L263.5,106.8z
		 M267.9,111.4h1.1l0.6-2.5h3l0.6,2.5h1.1l-2.4-10.5h-1.7L267.9,111.4L267.9,111.4z M272.4,108h-2.7l1.3-5.9L272.4,108L272.4,108z"
		/>
	<path d="M280.1,103.1l1.6,8.3h1.6l1.5-10.5h-1.1l-1.3,8.8l-1.7-8.8h-1.2l-1.7,8.8l-1.3-8.8h-1.1l1.5,10.5h1.6L280.1,103.1
		L280.1,103.1z M288.7,110.5v-8.5h0.9V101h-2.7v0.9h0.9v8.5h-0.9v0.9h2.7v-0.9H288.7L288.7,110.5z M293.4,103.4l3.5,8.1h1.1V101
		h-1.1v8.1l-3.5-8.1h-1.1v10.4h1.1V103.4L293.4,103.4z M305.2,107.1v2c0,0.4-0.2,0.7-0.6,1c-0.4,0.4-0.9,0.6-1.2,0.6
		c-0.5,0-0.8-0.1-0.9-0.4c-0.2-0.2-0.3-0.6-0.3-0.9v-6.4c0-0.9,0.5-1.3,1.5-1.3c1,0,1.5,0.5,1.5,1.3v0.9h1.1v-0.9
		c0-0.8-0.2-1.2-0.7-1.7c-0.5-0.4-1.1-0.6-2-0.6s-1.5,0.2-2,0.6c-0.5,0.4-0.7,0.9-0.7,1.7v6.4c0,1.5,0.8,2.3,2.4,2.3
		c0.5,0,0.9-0.1,1.2-0.4c0.4-0.2,0.7-0.6,0.9-0.9l0.4,1h0.5V106h-2.9v0.9L305.2,107.1L305.2,107.1z M314.2,108.2
		c-0.1-0.3-0.4-0.7-0.7-0.9l-2.8-2.7c-0.3-0.2-0.4-0.5-0.5-0.7c-0.1-0.2-0.1-0.5-0.1-0.9c0-0.4,0.1-0.7,0.4-0.9
		c0.3-0.2,0.7-0.3,1.1-0.3c0.5,0,0.9,0.1,1.1,0.3c0.3,0.2,0.4,0.5,0.4,0.9v1.4h1.1v-1.3c0-1.5-0.9-2.3-2.6-2.3c-0.9,0-1.6,0.2-2,0.6
		c-0.5,0.4-0.7,0.9-0.7,1.7c0,0.5,0.1,0.9,0.2,1.2c0.1,0.3,0.4,0.7,0.7,0.9l2.8,2.7c0.3,0.3,0.4,0.5,0.5,0.7
		c0.1,0.2,0.1,0.5,0.1,0.9c0,0.4-0.1,0.7-0.4,0.9c-0.3,0.2-0.7,0.3-1.2,0.3c-0.6,0-0.9-0.1-1.2-0.3c-0.3-0.2-0.4-0.5-0.4-0.9v-1.4
		H309v1.3c0,1.5,0.9,2.3,2.7,2.3s2.7-0.8,2.7-2.3C314.4,108.9,314.3,108.6,314.2,108.2L314.2,108.2z"/>
	<path d="M155,92.1c-0.1-0.3-0.4-0.7-0.7-0.9l-2.8-2.7c-0.3-0.2-0.4-0.5-0.5-0.7s-0.1-0.5-0.1-0.9c0-0.4,0.1-0.7,0.4-0.9
		c0.3-0.2,0.7-0.3,1.1-0.3s0.9,0.1,1.1,0.3c0.3,0.2,0.4,0.5,0.4,0.9v1.4h1.1V87c0-1.5-0.9-2.3-2.6-2.3c-0.9,0-1.6,0.2-2,0.6
		c-0.5,0.4-0.7,0.9-0.7,1.7c0,0.5,0.1,0.9,0.2,1.2c0.1,0.3,0.4,0.7,0.7,0.9l2.8,2.7c0.3,0.3,0.4,0.5,0.5,0.7s0.1,0.5,0.1,0.9
		c0,0.4-0.1,0.7-0.4,0.9c-0.3,0.2-0.7,0.3-1.2,0.3c-0.6,0-0.9-0.1-1.2-0.3c-0.3-0.2-0.4-0.5-0.4-0.9V92h-1.1v1.3
		c0,1.5,0.9,2.3,2.7,2.3c1.8,0,2.7-0.8,2.7-2.3C155.2,92.8,155.1,92.5,155,92.1L155,92.1z M162.8,94.3h-3.6v-3.9h2.8v-0.9h-2.8v-3.7
		h3.5v-0.9h-4.6v10.4h4.7L162.8,94.3L162.8,94.3z M169.3,95.3v-0.9h-2.9v-9.5h-1.1v10.4H169.3L169.3,95.3z M176,94.3h-3.6v-3.9h2.8
		v-0.9h-2.8v-3.7h3.5v-0.9h-4.6v10.4h4.7L176,94.3L176,94.3z M180.8,94.6c-1,0-1.5-0.5-1.5-1.3v-6.4c0-0.9,0.5-1.3,1.5-1.3
		c1,0,1.5,0.5,1.5,1.3v1.5h1.1v-1.5c0-0.8-0.2-1.2-0.7-1.7c-0.5-0.4-1.1-0.6-2-0.6c-0.9,0-1.5,0.2-2,0.6c-0.5,0.4-0.7,0.9-0.7,1.7
		v6.4c0,0.8,0.2,1.2,0.7,1.7c0.5,0.4,1.1,0.6,2,0.6c0.9,0,1.5-0.2,2-0.6c0.5-0.4,0.7-0.9,0.7-1.7v-0.9h-1.1v0.9
		C182.4,94.2,181.9,94.6,180.8,94.6L180.8,94.6z M185.2,84.9v0.9h2.1v9.5h1.1v-9.5h2.1v-0.9H185.2L185.2,84.9z"/>
	<path d="M138,111.4h1.1l0.6-2.5h3l0.6,2.5h1.1l-2.4-10.5h-1.7L138,111.4L138,111.4z M142.5,108h-2.7l1.3-5.9L142.5,108L142.5,108z
		 M147.8,107.7h1.3l1.9,3.7h1.2l-2-3.9c0.9-0.3,1.4-1,1.4-2.1v-2.3c0-0.7-0.2-1.2-0.7-1.7c-0.5-0.4-1-0.6-1.9-0.6h-2.5v10.5h1.1
		L147.8,107.7L147.8,107.7z M149.1,106.8h-1.3v-4.8h1.3c0.5,0,0.9,0.1,1,0.4c0.3,0.2,0.4,0.6,0.4,0.9v2.3
		C150.6,106.3,150.1,106.8,149.1,106.8L149.1,106.8L149.1,106.8z M156.9,110.8c-1,0-1.5-0.5-1.5-1.3V103c0-0.9,0.5-1.3,1.5-1.3
		s1.5,0.5,1.5,1.3v1.5h1.1V103c0-0.8-0.2-1.2-0.7-1.7c-0.5-0.4-1.1-0.6-2-0.6s-1.5,0.2-2,0.6c-0.5,0.4-0.7,0.9-0.7,1.7v6.4
		c0,0.8,0.2,1.2,0.7,1.7c0.5,0.4,1.1,0.6,2,0.6c0.9,0,1.5-0.2,2-0.6c0.5-0.4,0.7-0.9,0.7-1.7v-0.9h-1.1v0.9
		C158.4,110.3,158,110.8,156.9,110.8L156.9,110.8z M163.6,106.6h3.1v4.8h1.1V101h-1.1v4.6h-3.1V101h-1.1v10.4h1.1V106.6L163.6,106.6
		z M172.5,110.5v-8.5h0.8V101h-2.7v0.9h0.8v8.5h-0.8v0.9h2.7v-0.9H172.5L172.5,110.5z M174.9,101v0.9h2.1v9.5h1.1v-9.5h2.1V101
		H174.9L174.9,101z M187.1,110.5h-3.6v-3.9h2.8v-0.9h-2.8v-3.7h3.5V101h-4.6v10.4h4.7L187.1,110.5L187.1,110.5z M191.9,110.8
		c-1,0-1.5-0.5-1.5-1.3V103c0-0.9,0.5-1.3,1.5-1.3s1.5,0.5,1.5,1.3v1.5h1.1V103c0-0.8-0.2-1.2-0.7-1.7c-0.5-0.4-1.1-0.6-2-0.6
		c-0.9,0-1.5,0.2-2,0.6c-0.5,0.4-0.7,0.9-0.7,1.7v6.4c0,0.8,0.2,1.2,0.7,1.7s1.1,0.6,2,0.6c0.9,0,1.5-0.2,2-0.6
		c0.5-0.4,0.7-0.9,0.7-1.7v-0.9h-1.1v0.9C193.4,110.3,192.9,110.8,191.9,110.8L191.9,110.8z M196.3,101v0.9h2.1v9.5h1.1v-9.5h2.1
		V101H196.3L196.3,101z"/>
	<path d="M39.3,94.6c-1,0-1.5-0.5-1.5-1.3v-6.4c0-0.9,0.5-1.3,1.5-1.3s1.5,0.5,1.5,1.3v1.5H42v-1.5c0-0.8-0.2-1.2-0.7-1.7
		c-0.5-0.4-1.1-0.6-2-0.6c-0.9,0-1.5,0.2-2,0.6c-0.5,0.4-0.7,0.9-0.7,1.7v6.4c0,0.8,0.2,1.2,0.7,1.7c0.5,0.4,1.1,0.6,2,0.6
		c0.9,0,1.5-0.2,2-0.6c0.5-0.4,0.7-0.9,0.7-1.7v-0.9h-1.1v0.9C40.9,94.2,40.3,94.6,39.3,94.6L39.3,94.6z M48.8,95.3v-0.9h-2.9v-9.5
		h-1.1v10.4H48.8L48.8,95.3z M52.2,94.3v-8.5h0.9v-0.9h-2.7v0.9h0.9v8.5h-0.9v0.9h2.7v-0.9H52.2L52.2,94.3z M60.6,94.3H57v-3.9h2.8
		v-0.9H57v-3.7h3.5v-0.9h-4.6v10.4h4.7L60.6,94.3L60.6,94.3z M64.1,87.2l3.5,8.1h1.1V84.9h-1.1v8.1l-3.5-8.1H63v10.4h1.1V87.2
		L64.1,87.2z M70.8,84.9v0.9h2.1v9.5h1.1v-9.5h2.1v-0.9H70.8L70.8,84.9z"/>
	<path d="M28,108.2h1.3c0.9,0,1.5-0.2,1.9-0.6c0.5-0.4,0.7-0.9,0.7-1.7v-2.7c0-0.7-0.2-1.2-0.7-1.7c-0.5-0.4-1-0.6-1.9-0.6h-2.5
		v10.5H28L28,108.2L28,108.2z M29.3,107.2H28v-5.3h1.3c0.5,0,0.9,0.1,1,0.4c0.3,0.2,0.4,0.6,0.4,0.9v2.7
		C30.7,106.8,30.2,107.2,29.3,107.2L29.3,107.2L29.3,107.2z M38.5,111.4v-0.9h-2.9V101h-1.1v10.4H38.5L38.5,111.4z M39.4,111.4h1.1
		l0.6-2.5h3l0.6,2.5h1.1l-2.4-10.5h-1.7L39.4,111.4L39.4,111.4z M44,108h-2.7l1.3-5.9L44,108L44,108z M49.3,103.4l3.5,8.1h1.1V101
		h-1.1v8.1l-3.5-8.1h-1.1v10.4h1.1V103.4L49.3,103.4z M58.2,103.4l3.5,8.1h1.1V101h-1.1v8.1l-3.5-8.1h-1.1v10.4h1.1V103.4
		L58.2,103.4z M67.5,110.5v-8.5h0.9V101h-2.7v0.9h0.8v8.5h-0.8v0.9h2.7v-0.9H67.5L67.5,110.5z M72.2,103.4l3.5,8.1h1.1V101h-1.1v8.1
		l-3.5-8.1h-1.1v10.4h1.1V103.4L72.2,103.4z M84,107.1v2c0,0.4-0.2,0.7-0.6,1c-0.4,0.4-0.9,0.6-1.2,0.6c-0.5,0-0.8-0.1-0.9-0.4
		c-0.2-0.2-0.3-0.6-0.3-0.9v-6.4c0-0.9,0.5-1.3,1.5-1.3c1,0,1.5,0.5,1.5,1.3v0.9h1.1v-0.9c0-0.8-0.2-1.2-0.7-1.7
		c-0.5-0.4-1.1-0.6-2-0.6c-0.9,0-1.5,0.2-2,0.6c-0.5,0.4-0.7,0.9-0.7,1.7v6.4c0,1.5,0.8,2.3,2.4,2.3c0.5,0,0.9-0.1,1.2-0.4
		c0.4-0.2,0.7-0.6,0.9-0.9l0.4,1h0.5V106h-2.9v0.9L84,107.1L84,107.1z"/>
	<path class="st2" d="M497.1,151.1c-0.8,0-1.1-0.3-1.1-0.9v-4.9c0-0.7,0.4-0.9,1.1-0.9c0.8,0,1.1,0.3,1.1,0.9v1.1h0.9v-1.1
		c0-0.6-0.2-0.9-0.5-1.2c-0.4-0.3-0.9-0.5-1.5-0.5c-0.7,0-1.1,0.2-1.5,0.5c-0.4,0.3-0.5,0.8-0.5,1.2v4.9c0,0.6,0.2,0.9,0.5,1.2
		c0.4,0.3,0.9,0.5,1.5,0.5c0.7,0,1.1-0.2,1.5-0.5c0.4-0.3,0.5-0.8,0.5-1.2v-0.7h-0.9v0.7C498.3,150.8,498,151.1,497.1,151.1
		L497.1,151.1z M508.6,143.9c-0.4-0.3-0.9-0.5-1.6-0.5c-0.8,0-1.2,0.2-1.6,0.5c-0.4,0.3-0.6,0.8-0.6,1.2v4.9c0,0.6,0.2,0.9,0.6,1.2
		c0.4,0.3,0.9,0.5,1.6,0.5c0.8,0,1.2-0.2,1.6-0.5c0.4-0.3,0.6-0.8,0.6-1.2v-4.9C509.2,144.6,509,144.2,508.6,143.9L508.6,143.9z
		 M507.1,151.1c-0.9,0-1.2-0.3-1.2-0.9v-4.9c0-0.7,0.4-0.9,1.2-0.9s1.2,0.3,1.2,0.9v4.9C508.3,150.8,507.8,151.1,507.1,151.1
		L507.1,151.1z M519,149.2c-0.1-0.3-0.3-0.5-0.5-0.8l-2.2-2.1c-0.2-0.2-0.3-0.4-0.4-0.5c-0.1-0.1-0.1-0.4-0.1-0.7
		c0-0.3,0.1-0.5,0.3-0.7c0.2-0.2,0.5-0.3,0.9-0.3c0.4,0,0.7,0.1,0.9,0.3c0.2,0.2,0.3,0.4,0.3,0.7v1.1h0.9v-1c0-1.1-0.7-1.7-2-1.7
		c-0.7,0-1.2,0.2-1.5,0.5c-0.4,0.3-0.5,0.8-0.5,1.2c0,0.4,0,0.7,0.1,0.9c0.1,0.3,0.3,0.5,0.6,0.8l2.2,2.1c0.2,0.2,0.3,0.4,0.4,0.6
		c0.1,0.2,0.1,0.4,0.1,0.7c0,0.3-0.1,0.5-0.3,0.7c-0.2,0.2-0.5,0.3-0.9,0.3c-0.4,0-0.7-0.1-0.9-0.3c-0.2-0.2-0.3-0.4-0.3-0.7v-1.1
		H515v1c0,1.1,0.7,1.7,2.1,1.7c1.4,0,2.1-0.6,2.1-1.7C519.1,149.7,519.1,149.4,519,149.2L519,149.2z M524.3,143.7v0.8h1.6v7.3h0.9
		v-7.3h1.6v-0.8H524.3L524.3,143.7z M544,151h-2.7V148h2.2v-0.8h-2.2v-2.8h2.7v-0.8h-3.5v8h3.6L544,151L544,151z M553.4,149.2
		c-0.1-0.3-0.3-0.5-0.5-0.8l-2.2-2.1c-0.2-0.2-0.3-0.4-0.4-0.5c-0.1-0.2-0.1-0.4-0.1-0.7c0-0.3,0.1-0.5,0.3-0.7
		c0.2-0.2,0.5-0.3,0.9-0.3s0.7,0.1,0.9,0.3c0.2,0.2,0.3,0.4,0.3,0.7v1.1h0.9v-1c0-1.1-0.7-1.7-2-1.7c-0.7,0-1.2,0.2-1.5,0.5
		c-0.4,0.3-0.5,0.8-0.5,1.2c0,0.4,0,0.7,0.1,0.9c0.1,0.3,0.3,0.5,0.6,0.8l2.2,2.1c0.2,0.2,0.3,0.4,0.4,0.6c0.1,0.2,0.1,0.4,0.1,0.7
		c0,0.3-0.1,0.5-0.3,0.7c-0.2,0.2-0.5,0.3-0.9,0.3s-0.7-0.1-0.9-0.3c-0.2-0.2-0.3-0.4-0.3-0.7v-1.1h-0.9v1c0,1.1,0.7,1.7,2.1,1.7
		s2.1-0.6,2.1-1.7C553.6,149.7,553.5,149.4,553.4,149.2L553.4,149.2z M558.7,143.7v0.8h1.6v7.3h0.9v-7.3h1.6v-0.8H558.7L558.7,143.7
		z"/>
	<path class="st2" d="M567,151.6h0.9l0.4-1.8h2.4l0.4,1.8h0.9l-1.8-8h-1.3L567,151.6L567,151.6z M570.4,149.1h-2l1-4.5L570.4,149.1
		L570.4,149.1z M577.4,151.6h2c0.7,0,1.1-0.2,1.4-0.5c0.3-0.3,0.5-0.8,0.5-1.2v-1.1c0-0.8-0.4-1.2-1-1.3c0.6-0.2,0.9-0.7,0.9-1.3
		v-0.8c0-0.6-0.2-0.9-0.5-1.2c-0.4-0.3-0.9-0.5-1.4-0.5h-1.9L577.4,151.6L577.4,151.6z M580.2,150.7c-0.2,0.2-0.5,0.3-0.9,0.3h-1.1
		v-3.1h1.1c0.4,0,0.6,0.1,0.8,0.3c0.2,0.2,0.3,0.5,0.3,0.8v1.1C580.5,150.2,580.4,150.5,580.2,150.7L580.2,150.7z M580.1,146.9
		c-0.2,0.2-0.5,0.3-0.9,0.3h-1v-2.7h1c0.4,0,0.6,0.1,0.9,0.3s0.3,0.5,0.3,0.7v0.8C580.4,146.4,580.3,146.6,580.1,146.9L580.1,146.9z
		 M590.5,151.6v-0.8h-2.3v-7.2h-0.9v8H590.5L590.5,151.6z M597,151v-6.5h0.6v-0.8h-2.1v0.8h0.6v6.5h-0.6v0.8h2.1V151L597,151
		L597,151z M607.2,149.2c-0.1-0.3-0.3-0.5-0.5-0.8l-2.2-2.1c-0.2-0.2-0.3-0.4-0.4-0.5c-0.1-0.1-0.1-0.4-0.1-0.7
		c0-0.3,0.1-0.5,0.3-0.7c0.2-0.2,0.5-0.3,0.9-0.3s0.7,0.1,0.9,0.3c0.2,0.2,0.3,0.4,0.3,0.7v1.1h0.9v-1c0-1.1-0.7-1.7-2-1.7
		c-0.7,0-1.2,0.2-1.5,0.5c-0.4,0.3-0.5,0.8-0.5,1.2c0,0.4,0,0.7,0.1,0.9c0.1,0.3,0.3,0.5,0.6,0.8l2.2,2.1c0.2,0.2,0.3,0.4,0.4,0.6
		c0.1,0.2,0.1,0.4,0.1,0.7c0,0.3-0.1,0.5-0.3,0.7c-0.2,0.2-0.5,0.3-0.9,0.3c-0.4,0-0.7-0.1-0.9-0.3c-0.2-0.2-0.3-0.4-0.3-0.7v-1.1
		h-0.9v1c0,1.1,0.7,1.7,2.1,1.7s2.1-0.6,2.1-1.7C607.4,149.7,607.3,149.4,607.2,149.2L607.2,149.2z M614.2,147.9h2.5v3.7h0.9v-8
		h-0.9v3.6h-2.5v-3.6h-0.9v8h0.9V147.9L614.2,147.9z M627.4,151h-2.7V148h2.2v-0.8h-2.2v-2.8h2.7v-0.8h-3.5v8h3.6L627.4,151
		L627.4,151z M636.5,151.2c0.3-0.3,0.5-0.8,0.5-1.2v-4.6c0-0.6-0.2-0.9-0.5-1.2c-0.4-0.3-0.9-0.5-1.4-0.5h-2v8h2
		C635.6,151.6,636.2,151.5,636.5,151.2L636.5,151.2z M635.8,150.7c-0.2,0.2-0.5,0.3-0.9,0.3h-1.1v-6.5h1.1c0.4,0,0.6,0.1,0.9,0.3
		c0.3,0.2,0.3,0.5,0.3,0.7v4.6C636.1,150.2,636,150.5,635.8,150.7L635.8,150.7z"/>
	<rect x="453.2" y="158.7" class="st3" width="230.4" height="3.8"/>
	<path class="st3" d="M683.6,160.7h-1.9V62.1h1.9V160.7z M455.1,160.7h-1.9V62.1h1.9V160.7z M569.8,134.5h-1.9v-73h1.9V134.5z
		 M341.3,134.2h-1.9v-73h1.9V134.2z M227.6,134.2h-1.9v-73h1.9V134.2z M113.8,134.2h-1.9v-73h1.9V134.2z"/>
	<g>
		<g>
			<defs>
				<path id="SVGID_29_" d="M682.2,72.9c6.5,0,11.9-5.3,11.9-11.9s-5.3-11.9-11.9-11.9s-11.9,5.3-11.9,11.9S675.7,72.9,682.2,72.9
					L682.2,72.9z"/>
			</defs>
			<clipPath id="SVGID_30_">
				<use xlink:href="#SVGID_29_"  style="overflow:visible;"/>
			</clipPath>
			<rect x="665.6" y="44.5" class="st17" width="33.2" height="33.2"/>
		</g>
	</g>
	<path class="st3" d="M682.2,73.9c-7,0-12.8-5.8-12.8-12.8s5.8-12.8,12.8-12.8c7,0,12.8,5.8,12.8,12.8S689.2,73.9,682.2,73.9z
		 M682.2,50.2c-6,0-10.9,4.9-10.9,10.9S676.2,72,682.2,72s10.9-4.9,10.9-10.9S688.2,50.2,682.2,50.2z"/>
	<g>
		<g>
			<defs>
				<polyline id="SVGID_31_" points="679.8,54 686.6,60.6 679.8,67.3 				"/>
			</defs>
			<clipPath id="SVGID_32_">
				<use xlink:href="#SVGID_31_"  style="overflow:visible;"/>
			</clipPath>
			<polygon class="st18" points="681.1,68.7 678.5,66 683.8,60.6 678.5,55.3 681.1,52.6 689.2,60.6 			"/>
		</g>
	</g>
	<g>
		<g>
			<defs>
				<path id="SVGID_33_" d="M568.4,72.9c6.5,0,11.9-5.3,11.9-11.9s-5.3-11.9-11.9-11.9s-11.9,5.3-11.9,11.9S561.9,72.9,568.4,72.9
					L568.4,72.9z"/>
			</defs>
			<clipPath id="SVGID_34_">
				<use xlink:href="#SVGID_33_"  style="overflow:visible;"/>
			</clipPath>
			<rect x="551.8" y="44.5" class="st19" width="33.2" height="33.2"/>
		</g>
	</g>
	<path class="st3" d="M568.4,73.9c-7,0-12.8-5.8-12.8-12.8s5.8-12.8,12.8-12.8c7,0,12.8,5.8,12.8,12.8S575.4,73.9,568.4,73.9z
		 M568.4,50.2c-6,0-10.9,4.9-10.9,10.9S562.4,72,568.4,72s10.9-4.9,10.9-10.9S574.4,50.2,568.4,50.2z"/>
	<g>
		<g>
			<defs>
				<polyline id="SVGID_35_" points="566,54 572.8,60.6 566,67.3 				"/>
			</defs>
			<clipPath id="SVGID_36_">
				<use xlink:href="#SVGID_35_"  style="overflow:visible;"/>
			</clipPath>
			<polygon class="st20" points="567.4,68.7 564.7,66 570,60.6 564.7,55.3 567.4,52.6 575.4,60.6 			"/>
		</g>
	</g>
	<g>
		<g>
			<defs>
				<path id="SVGID_37_" d="M453.7,72.9c6.5,0,11.9-5.3,11.9-11.9s-5.3-11.9-11.9-11.9c-6.5,0-11.9,5.3-11.9,11.9
					S447.1,72.9,453.7,72.9L453.7,72.9z"/>
			</defs>
			<clipPath id="SVGID_38_">
				<use xlink:href="#SVGID_37_"  style="overflow:visible;"/>
			</clipPath>
			<rect x="437.1" y="44.5" class="st21" width="33.2" height="33.2"/>
		</g>
	</g>
	<path class="st3" d="M453.7,73.9c-7,0-12.8-5.8-12.8-12.8s5.8-12.8,12.8-12.8s12.8,5.8,12.8,12.8S460.7,73.9,453.7,73.9z
		 M453.7,50.2c-6,0-10.9,4.9-10.9,10.9S447.7,72,453.7,72s10.9-4.9,10.9-10.9S459.7,50.2,453.7,50.2z"/>
	<g>
		<g>
			<defs>
				<polyline id="SVGID_39_" points="451.3,54 458.1,60.6 451.3,67.3 				"/>
			</defs>
			<clipPath id="SVGID_40_">
				<use xlink:href="#SVGID_39_"  style="overflow:visible;"/>
			</clipPath>
			<polygon class="st22" points="452.6,68.7 450,66 455.3,60.6 450,55.3 452.6,52.6 460.7,60.6 			"/>
		</g>
	</g>
	<g>
		<g>
			<defs>
				<path id="SVGID_41_" d="M339.9,72.9c6.5,0,11.9-5.3,11.9-11.9s-5.3-11.9-11.9-11.9c-6.5,0-11.9,5.3-11.9,11.9
					S333.4,72.9,339.9,72.9L339.9,72.9z"/>
			</defs>
			<clipPath id="SVGID_42_">
				<use xlink:href="#SVGID_41_"  style="overflow:visible;"/>
			</clipPath>
			<rect x="323.3" y="44.5" class="st23" width="33.2" height="33.2"/>
		</g>
	</g>
	<path class="st3" d="M339.9,73.9c-7,0-12.8-5.8-12.8-12.8s5.8-12.8,12.8-12.8s12.8,5.8,12.8,12.8S346.9,73.9,339.9,73.9z
		 M339.9,50.2c-6,0-10.9,4.9-10.9,10.9S333.9,72,339.9,72s10.9-4.9,10.9-10.9S345.9,50.2,339.9,50.2z"/>
	<g>
		<g>
			<defs>
				<polyline id="SVGID_43_" points="337.5,54 344.3,60.6 337.5,67.3 				"/>
			</defs>
			<clipPath id="SVGID_44_">
				<use xlink:href="#SVGID_43_"  style="overflow:visible;"/>
			</clipPath>
			<polygon class="st24" points="338.9,68.7 336.2,66 341.5,60.6 336.2,55.3 338.9,52.6 346.9,60.6 			"/>
		</g>
	</g>
	<g>
		<g>
			<defs>
				<path id="SVGID_45_" d="M226.1,72.9c6.5,0,11.9-5.3,11.9-11.9s-5.3-11.9-11.9-11.9s-11.9,5.3-11.9,11.9S219.6,72.9,226.1,72.9
					L226.1,72.9z"/>
			</defs>
			<clipPath id="SVGID_46_">
				<use xlink:href="#SVGID_45_"  style="overflow:visible;"/>
			</clipPath>
			<rect x="209.5" y="44.5" class="st25" width="33.2" height="33.2"/>
		</g>
	</g>
	<path class="st3" d="M226.1,73.9c-7,0-12.8-5.8-12.8-12.8s5.8-12.8,12.8-12.8s12.8,5.8,12.8,12.8S233.1,73.9,226.1,73.9z
		 M226.1,50.2c-6,0-10.9,4.9-10.9,10.9S220.2,72,226.1,72c6,0,10.9-4.9,10.9-10.9S232.1,50.2,226.1,50.2z"/>
	<g>
		<g>
			<defs>
				<polyline id="SVGID_47_" points="223.8,54 230.5,60.6 223.8,67.3 				"/>
			</defs>
			<clipPath id="SVGID_48_">
				<use xlink:href="#SVGID_47_"  style="overflow:visible;"/>
			</clipPath>
			<polygon class="st26" points="225.1,68.7 222.4,66 227.7,60.6 222.4,55.3 225.1,52.6 233.1,60.6 			"/>
		</g>
	</g>
	<g>
		<g>
			<defs>
				<path id="SVGID_49_" d="M112.4,72.9c6.5,0,11.9-5.3,11.9-11.9s-5.3-11.9-11.9-11.9s-11.9,5.3-11.9,11.9S105.8,72.9,112.4,72.9
					L112.4,72.9z"/>
			</defs>
			<clipPath id="SVGID_50_">
				<use xlink:href="#SVGID_49_"  style="overflow:visible;"/>
			</clipPath>
			<rect x="95.8" y="44.5" class="st27" width="33.2" height="33.2"/>
		</g>
	</g>
	<path class="st3" d="M112.4,73.9c-7,0-12.8-5.8-12.8-12.8s5.8-12.8,12.8-12.8s12.8,5.8,12.8,12.8S119.4,73.9,112.4,73.9z
		 M112.4,50.2c-6,0-10.9,4.9-10.9,10.9S106.4,72,112.4,72s10.9-4.9,10.9-10.9S118.3,50.2,112.4,50.2z"/>
	<g>
		<g>
			<defs>
				<polyline id="SVGID_51_" points="110.1,54 116.7,60.7 110.1,67.4 				"/>
			</defs>
			<clipPath id="SVGID_52_">
				<use xlink:href="#SVGID_51_"  style="overflow:visible;"/>
			</clipPath>
			<polygon class="st28" points="111.4,68.7 108.8,66.1 114.1,60.7 108.8,55.4 111.4,52.6 119.5,60.7 			"/>
		</g>
	</g>
	<g>
		<path d="M360.8,8.6v4h-0.3c-0.1-3.7-3.9-3.7-4.2-3.7H355v13.6c0,1.5,0.7,1.9,1.7,1.9v0.3h-5.6v-0.3c0.9,0,1.6-0.4,1.6-1.9V8.9
			h-1.3c-0.7,0-4.1,0-4.2,3.7h-0.3v-4H360.8z"/>
		<path d="M375.8,24.6H374c-2.9,0-2.6,0-3.9-4.9c-0.7-2.4-2.9-2.4-3.5-2.4h-1v5c0,1.6,0.5,2.1,1.4,2.1v0.3h-5.1v-0.3
			c0.9,0,1.4-0.5,1.4-2.4V10.6c0-1.4-0.4-1.7-1.4-1.7V8.6h4.4c4.6,0,7,0.6,7,4.4c0,3.1-1.8,4-4.3,4.2c1.5,0.1,3,0.2,4.3,5.2
			c0.4,1.7,1.8,2,2.5,2V24.6z M366.2,8.9h-0.7V17h0.7c2.6,0,4.6,0,4.6-4C370.7,8.8,368.6,8.9,366.2,8.9z"/>
		<path d="M391.2,24.6H386v-0.3c1.2,0,1-1.3,0.5-2.6l-0.8-2h-5.9c-0.6,1.8-1.6,4.6,1.5,4.6v0.3h-5.1v-0.3c0.9,0,1.4-0.1,3.4-5.4
			l3.8-10.3h0.3c2.7,6.7,5.6,13.8,5.6,13.8c0.8,1.8,1.2,1.8,1.9,1.8V24.6z M385.5,19.4l-2.9-7.6l-2.7,7.6H385.5z"/>
		<path d="M397.5,24.6h-4.9v-0.3c0.9,0,1.5-0.9,1.5-2.4V11.3c0-1.4-0.6-2.4-1.5-2.4V8.6h4.9c4.6,0,9,1.4,9,8.1
			C406.6,23.5,402,24.6,397.5,24.6z M397.5,8.9h-1v15.5h1c2.5,0,6.3-0.1,6.3-7.7C403.8,9.3,400,8.9,397.5,8.9z"/>
		<path d="M414.6,8.6v0.3c-0.9,0-1.6,0.4-1.6,1.8v11.5c0,1.5,0.7,2.2,1.6,2.2v0.3h-5.5v-0.3c0.9,0,1.6-0.6,1.6-2.2V10.7
			c0-1.4-0.6-1.8-1.6-1.8V8.6H414.6z"/>
		<path d="M430.1,8.6v4h-0.3c-0.1-3.7-3.9-3.7-4.2-3.7h-1.3v13.6c0,1.5,0.7,1.9,1.7,1.9v0.3h-5.6v-0.3c0.9,0,1.6-0.4,1.6-1.9V8.9
			h-1.3c-0.7,0-4.1,0-4.2,3.7h-0.3v-4H430.1z"/>
		<path d="M437.3,8.6v0.3c-0.9,0-1.6,0.4-1.6,1.8v11.5c0,1.5,0.7,2.2,1.6,2.2v0.3h-5.5v-0.3c0.9,0,1.6-0.6,1.6-2.2V10.7
			c0-1.4-0.6-1.8-1.6-1.8V8.6H437.3z"/>
		<path d="M446.8,24.8c-5,0-7.4-3.6-7.4-8.1c0-4.6,2.4-8.3,7.4-8.3s7.4,3.8,7.4,8.3C454.2,21.2,451.7,24.8,446.8,24.8z M446.8,8.6
			c-2.7,0-4.7,1.8-4.7,8.1s2.1,7.8,4.7,7.8s4.7-1.5,4.7-7.8C451.5,10.4,449.4,8.6,446.8,8.6z"/>
		<path d="M473,8.6v0.3c-3.3,0-3.2,3.3-3.2,5.4v10.3H469l-9.7-12.5V19c0,2,0,5.4,2.9,5.4v0.3h-6.5v-0.3c3.3,0,3.3-3.3,3.3-5.4v-7.1
			l-0.9-1.2c-1.4-1.8-2.1-1.7-2.7-1.7V8.6h4.2l9.9,12.7v-7c0-2.1,0-5.4-2.9-5.4V8.6L473,8.6L473,8.6z"/>
	</g>
	<g>
		<path d="M488.3,24.6h-5.2v-0.3c1.2,0,1-1.3,0.5-2.6l-0.8-2h-5.9c-0.6,1.8-1.6,4.6,1.5,4.6v0.3h-5.1v-0.3c0.9,0,1.4-0.1,3.4-5.4
			l3.8-10.3h0.3c2.7,6.7,5.6,13.8,5.6,13.8c0.8,1.8,1.2,1.8,1.9,1.8V24.6z M482.7,19.4l-2.9-7.6l-2.7,7.6H482.7z"/>
		<path d="M501.3,19.6v4.9h-11.4v-0.3c0.9,0,1.2-0.9,1.2-2.4V10.8c0-1.4-0.5-1.9-1.4-1.9V8.6h5.4v0.3c-0.9,0-1.7,0.4-1.7,2v13.4h0.9
			c2.5,0,6.3,0,6.7-4.6L501.3,19.6L501.3,19.6z"/>
	</g>
	<g>
		<path d="M512.9,21.5c0,2.7,0.9,2.8,2.3,2.8v0.3h-6v-0.3c1.1,0,1.5-0.6,1.5-2.7V11.1c0-1.6-0.3-2.2-1.4-2.2V8.6h4.1
			c4.6,0,7.5,0.6,7.5,4.6s-3,4.6-7.5,4.6h-0.4L512.9,21.5L512.9,21.5z M513.2,17.5c2.7,0,5-0.1,5-4.3c0-4.4-2.4-4.3-5-4.3h-0.4v8.5
			H513.2z"/>
		<path d="M535.1,24.6h-5.2v-0.3c1.2,0,1-1.3,0.5-2.6l-0.8-2h-5.9c-0.6,1.8-1.6,4.6,1.5,4.6v0.3h-5.1v-0.3c0.9,0,1.4-0.1,3.4-5.4
			l3.8-10.3h0.3c2.7,6.7,5.6,13.8,5.6,13.8c0.8,1.8,1.2,1.8,1.9,1.8V24.6z M529.5,19.4l-2.9-7.6l-2.7,7.6H529.5z"/>
	</g>
	<g>
		<path d="M548.8,8.6v4h-0.3c-0.1-3.7-3.9-3.7-4.2-3.7H543v13.6c0,1.5,0.7,1.9,1.7,1.9v0.3h-5.6v-0.3c0.9,0,1.6-0.4,1.6-1.9V8.9
			h-1.3c-0.7,0-4.1,0-4.2,3.7h-0.3v-4H548.8z"/>
		<path d="M561.6,21.5c0,1.9-0.1,2.5,1.1,2.8v0.3h-4v-0.3c0.6-0.2,0.7-0.8,0.7-2.8v-4.4h-6.3v4.4c0,2.3,0,2.6,0.7,2.8v0.3h-4.1v-0.3
			c1.2-0.3,1.1-0.6,1.1-2.8v-9.8c0-2.1,0-2.7-1.1-2.8V8.6h4.1v0.3c-0.7,0.2-0.7,0.7-0.7,2.8v5h6.3v-5c0-2.2,0-2.7-0.7-2.8V8.6h4v0.3
			c-1,0.2-1.1,0.7-1.1,2.8V21.5z"/>
	</g>
</g>
</svg>
