<?xml version="1.0" encoding="utf-8"?>
<!-- Generator: Adobe Illustrator 22.1.0, SVG Export Plug-In . SVG Version: 6.00 Build 0)  -->
<svg version="1.1" id="Layer_1" xmlns="http://www.w3.org/2000/svg" xmlns:xlink="http://www.w3.org/1999/xlink" x="0px" y="0px"
	 viewBox="0 0 909.3 422.6" style="enable-background:new 0 0 909.3 422.6;" xml:space="preserve">
<style type="text/css">
	.st0{fill:#FFFFFF;}
	.st1{clip-path:url(#SVGID_2_);fill:#DBDBDB;}
	.st2{fill:#DBDBDB;}
	.st3{clip-path:url(#SVGID_4_);fill:#FFFFFF;}
	.st4{clip-path:url(#SVGID_6_);fill:#DBDBDB;}
	.st5{clip-path:url(#SVGID_8_);fill:#FFFFFF;}
	.st6{clip-path:url(#SVGID_10_);fill:#DBDBDB;}
	.st7{clip-path:url(#SVGID_12_);fill:#FFFFFF;}
	.st8{clip-path:url(#SVGID_14_);fill:#DBDBDB;}
	.st9{clip-path:url(#SVGID_16_);fill:#FFFFFF;}
	.st10{clip-path:url(#SVGID_18_);fill:#DBDBDB;}
	.st11{clip-path:url(#SVGID_20_);fill:#FFFFFF;}
	.st12{clip-path:url(#SVGID_22_);fill:#DBDBDB;}
	.st13{clip-path:url(#SVGID_24_);fill:#FFFFFF;}
	.st14{clip-path:url(#SVGID_26_);fill:#DBDBDB;}
	.st15{fill:#CBCBCB;}
	.st16{clip-path:url(#SVGID_28_);fill:#DBDBDB;}
	.st17{clip-path:url(#SVGID_30_);fill:#DBDBDB;}
	.st18{clip-path:url(#SVGID_32_);fill:#DBDBDB;}
	.st19{clip-path:url(#SVGID_34_);fill:#FFFFFF;}
	.st20{clip-path:url(#SVGID_36_);fill:#DBDBDB;}
	.st21{clip-path:url(#SVGID_38_);fill:#FFFFFF;}
	.st22{clip-path:url(#SVGID_40_);fill:#DBDBDB;}
	.st23{clip-path:url(#SVGID_42_);fill:#FFFFFF;}
	.st24{clip-path:url(#SVGID_44_);fill:#DBDBDB;}
	.st25{clip-path:url(#SVGID_46_);fill:#FFFFFF;}
	.st26{clip-path:url(#SVGID_48_);fill:#DBDBDB;}
	.st27{clip-path:url(#SVGID_50_);fill:#FFFFFF;}
	.st28{clip-path:url(#SVGID_52_);fill:#DBDBDB;}
	.st29{clip-path:url(#SVGID_54_);fill:#FFFFFF;}
	.st30{clip-path:url(#SVGID_56_);fill:#DBDBDB;}
</style>
<g>
	<polygon class="st0" points="0,297.5 909.3,297.5 909.3,373.3 0,373.3 	"/>
	<g>
		<g>
			<defs>
				<rect id="SVGID_1_" y="297.5" width="909.3" height="75.9"/>
			</defs>
			<clipPath id="SVGID_2_">
				<use xlink:href="#SVGID_1_"  style="overflow:visible;"/>
			</clipPath>
			<path class="st1" d="M913.1,377.1H-3.8v-83.4h916.9V377.1z M3.8,369.5h901.7v-68.3H3.8V369.5z"/>
		</g>
	</g>
	<path d="M641.1,340.4c-1,0-1.5-0.5-1.5-1.3v-6.4c0-0.9,0.5-1.3,1.5-1.3c1,0,1.5,0.5,1.5,1.3v1.5h1.1v-1.5c0-0.8-0.2-1.2-0.7-1.7
		c-0.5-0.4-1.1-0.6-2-0.6c-0.9,0-1.5,0.2-2,0.6c-0.5,0.4-0.7,0.9-0.7,1.7v6.4c0,0.8,0.2,1.2,0.7,1.7c0.5,0.5,1.1,0.6,2,0.6
		c0.9,0,1.5-0.2,2-0.6c0.5-0.4,0.7-0.9,0.7-1.7v-0.9h-1.1v0.9C642.7,340,642.2,340.4,641.1,340.4L641.1,340.4z M651.2,331
		c-0.5-0.4-1.1-0.6-2.1-0.6c-0.9,0-1.6,0.2-2.1,0.6c-0.5,0.4-0.7,0.9-0.7,1.7v6.4c0,0.8,0.2,1.2,0.7,1.7c0.5,0.5,1.1,0.6,2.1,0.6
		c0.9,0,1.6-0.2,2.1-0.6c0.5-0.4,0.7-0.9,0.7-1.7v-6.4C651.9,332,651.7,331.4,651.2,331L651.2,331z M649.1,340.4
		c-1,0-1.6-0.5-1.6-1.3v-6.4c0-0.9,0.6-1.3,1.6-1.3c1,0,1.6,0.5,1.6,1.3v6.4C650.7,340,650.2,340.4,649.1,340.4L649.1,340.4z
		 M656,333l3.5,8.1h1.1v-10.5h-1.1v8.1l-3.5-8.1h-1.1v10.5h1.1V333L656,333z M668.8,338c-0.1-0.3-0.4-0.7-0.7-0.9l-2.8-2.7
		c-0.3-0.2-0.4-0.5-0.5-0.7c-0.1-0.2-0.1-0.5-0.1-0.9c0-0.4,0.1-0.7,0.4-0.9c0.3-0.2,0.7-0.3,1.1-0.3s0.9,0.1,1.1,0.3
		c0.3,0.2,0.4,0.5,0.4,0.9v1.4h1.1v-1.3c0-1.5-0.9-2.3-2.6-2.3c-0.9,0-1.6,0.2-2,0.6c-0.5,0.4-0.7,0.9-0.7,1.7
		c0,0.5,0.1,0.9,0.2,1.2c0.1,0.3,0.4,0.7,0.7,0.9l2.8,2.7c0.3,0.3,0.4,0.5,0.5,0.7s0.1,0.5,0.1,0.9s-0.1,0.7-0.4,0.9
		c-0.3,0.2-0.7,0.3-1.2,0.3c-0.6,0-0.9-0.1-1.2-0.3c-0.3-0.2-0.4-0.5-0.4-0.9v-1.4h-1.1v1.3c0,1.5,0.9,2.3,2.7,2.3s2.7-0.8,2.7-2.3
		C669,338.6,668.9,338.2,668.8,338L668.8,338z M670.7,330.7v0.9h2.1v9.5h1.1v-9.5h2.1v-0.9H670.7L670.7,330.7z M679.3,337.4h1.3
		l1.9,3.7h1.2l-2-3.9c0.9-0.3,1.4-1,1.4-2.1v-2.3c0-0.7-0.2-1.2-0.7-1.7c-0.5-0.4-1-0.6-1.9-0.6h-2.5v10.5h1.1L679.3,337.4
		L679.3,337.4z M680.6,336.4h-1.3v-4.8h1.3c0.5,0,0.9,0.1,1,0.4c0.3,0.2,0.4,0.6,0.4,0.9v2.3C682,336.1,681.5,336.4,680.6,336.4
		L680.6,336.4L680.6,336.4z M688.5,340.4c-1,0-1.6-0.5-1.6-1.3v-8.4h-1.1v8.4c0,0.8,0.2,1.2,0.7,1.7c0.5,0.4,1.1,0.6,2.1,0.6
		c0.9,0,1.6-0.2,2.1-0.6c0.5-0.4,0.7-0.9,0.7-1.7v-8.4h-1.1v8.4C690.2,340,689.6,340.4,688.5,340.4L688.5,340.4z M696.8,340.4
		c-1,0-1.5-0.5-1.5-1.3v-6.4c0-0.9,0.5-1.3,1.5-1.3c1,0,1.5,0.5,1.5,1.3v1.5h1.1v-1.5c0-0.8-0.2-1.2-0.7-1.7c-0.5-0.4-1.1-0.6-2-0.6
		c-0.9,0-1.5,0.2-2,0.6c-0.5,0.4-0.7,0.9-0.7,1.7v6.4c0,0.8,0.2,1.2,0.7,1.7c0.5,0.5,1.1,0.6,2,0.6c0.9,0,1.5-0.2,2-0.6
		c0.5-0.4,0.7-0.9,0.7-1.7v-0.9h-1.1v0.9C698.3,340,697.8,340.4,696.8,340.4L696.8,340.4z M701.2,330.7v0.9h2.1v9.5h1.1v-9.5h2.1
		v-0.9H701.2L701.2,330.7z M710,340.1v-8.5h0.9v-0.9h-2.7v0.9h0.9v8.5h-0.9v0.9h2.7v-0.9H710L710,340.1z M718.1,331
		c-0.5-0.4-1.1-0.6-2.1-0.6c-0.9,0-1.6,0.2-2.1,0.6s-0.7,0.9-0.7,1.7v6.4c0,0.8,0.2,1.2,0.7,1.7c0.5,0.5,1.1,0.6,2.1,0.6
		c0.9,0,1.6-0.2,2.1-0.6c0.5-0.4,0.7-0.9,0.7-1.7v-6.4C718.8,332,718.5,331.4,718.1,331L718.1,331z M716,340.4c-1,0-1.6-0.5-1.6-1.3
		v-6.4c0-0.9,0.6-1.3,1.6-1.3c1,0,1.6,0.5,1.6,1.3v6.4C717.7,340,717.1,340.4,716,340.4L716,340.4z M722.9,333l3.5,8.1h1.1v-10.5
		h-1.1v8.1l-3.5-8.1h-1.1v10.5h1.1V333L722.9,333z"/>
	<path d="M816,330.7v0.9h2.1v9.5h1.1v-9.5h2.1v-0.9H816L816,330.7z M824.9,340.1v-8.5h0.8v-0.9h-2.7v0.9h0.9v8.5h-0.9v0.9h2.7v-0.9
		H824.9L824.9,340.1z M829.5,332.5l1.9,7h1l1.9-7v8.6h1.1v-10.5h-1.7l-1.9,6.9l-1.8-6.9h-1.7v10.5h1.1L829.5,332.5L829.5,332.5z
		 M843.5,340.1h-3.6v-3.9h2.8v-0.9h-2.8v-3.7h3.5v-0.9h-4.6v10.5h4.7L843.5,340.1L843.5,340.1z M854.6,338c-0.1-0.3-0.4-0.7-0.7-0.9
		l-2.8-2.7c-0.3-0.2-0.4-0.5-0.5-0.7c-0.1-0.2-0.1-0.5-0.1-0.9c0-0.4,0.1-0.7,0.4-0.9c0.3-0.2,0.7-0.3,1.1-0.3s0.9,0.1,1.1,0.3
		c0.3,0.2,0.4,0.5,0.4,0.9v1.4h1.1v-1.3c0-1.5-0.9-2.3-2.6-2.3c-0.9,0-1.6,0.2-2,0.6c-0.5,0.4-0.7,0.9-0.7,1.7
		c0,0.5,0.1,0.9,0.2,1.2c0.1,0.3,0.4,0.7,0.7,0.9l2.8,2.7c0.3,0.3,0.4,0.5,0.5,0.7s0.1,0.5,0.1,0.9s-0.1,0.7-0.4,0.9
		c-0.3,0.2-0.7,0.3-1.2,0.3c-0.6,0-0.9-0.1-1.2-0.3c-0.3-0.2-0.4-0.5-0.4-0.9v-1.4h-1.1v1.3c0,1.5,0.9,2.3,2.7,2.3s2.7-0.8,2.7-2.3
		C854.7,338.6,854.7,338.2,854.6,338L854.6,338z M856.7,341.1h1.1l0.6-2.5h3l0.6,2.5h1.1l-2.4-10.5H859L856.7,341.1L856.7,341.1z
		 M861.2,337.8h-2.7l1.3-5.9L861.2,337.8L861.2,337.8z"/>
	<path d="M870.5,330.7h-1.1l-2.1,9.2l-2.1-9.2H864l2.4,10.5h1.7L870.5,330.7L870.5,330.7z M877.5,340.1h-3.6v-3.9h2.8v-0.9h-2.8
		v-3.7h3.5v-0.9h-4.6v10.5h4.7L877.5,340.1L877.5,340.1z M884.4,340.5c0.5-0.4,0.7-0.9,0.7-1.7v-6c0-0.7-0.2-1.2-0.7-1.7
		c-0.5-0.4-1-0.6-1.9-0.6H880v10.5h2.6C883.3,341.1,884,340.9,884.4,340.5L884.4,340.5z M883.6,339.8c-0.3,0.3-0.6,0.4-1,0.4h-1.4
		v-8.5h1.4c0.5,0,0.8,0.1,1,0.4c0.3,0.3,0.4,0.6,0.4,0.9v6C884,339.2,883.8,339.6,883.6,339.8L883.6,339.8z"/>
	<path d="M487.6,337.9h1.3c0.9,0,1.5-0.2,1.9-0.6c0.5-0.4,0.7-0.9,0.7-1.7v-2.7c0-0.7-0.2-1.2-0.7-1.7c-0.5-0.4-1-0.6-1.9-0.6h-2.5
		v10.5h1.1V337.9L487.6,337.9z M489,336.9h-1.3v-5.3h1.3c0.5,0,0.9,0.1,1,0.4c0.3,0.2,0.4,0.6,0.4,0.9v2.7
		C490.4,336.5,489.9,336.9,489,336.9L489,336.9L489,336.9z M498.8,340.1h-3.6v-3.9h2.8v-0.9h-2.8v-3.7h3.5v-0.9h-4.6v10.5h4.7
		L498.8,340.1L498.8,340.1z M502.3,337.4h1.3l1.9,3.7h1.2l-2-3.9c0.9-0.3,1.4-1,1.4-2.1v-2.3c0-0.7-0.2-1.2-0.7-1.7
		c-0.5-0.4-1-0.6-1.9-0.6h-2.5v10.5h1.1L502.3,337.4L502.3,337.4z M503.7,336.4h-1.3v-4.8h1.3c0.5,0,0.9,0.1,1,0.4
		c0.3,0.2,0.4,0.6,0.4,0.9v2.3C505.1,336.1,504.6,336.4,503.7,336.4L503.7,336.4L503.7,336.4z M510.2,332.5l1.9,7h1l1.9-7v8.6h1.1
		v-10.5h-1.7l-1.9,6.9l-1.8-6.9h-1.7v10.5h1.1L510.2,332.5L510.2,332.5z M520.8,340.1v-8.5h0.9v-0.9h-2.7v0.9h0.9v8.5h-0.9v0.9h2.7
		v-0.9H520.8L520.8,340.1z M523.2,330.7v0.9h2.1v9.5h1.1v-9.5h2.1v-0.9H523.2L523.2,330.7z M535.6,338c-0.1-0.3-0.4-0.7-0.7-0.9
		l-2.8-2.7c-0.3-0.2-0.4-0.5-0.5-0.7c-0.1-0.2-0.1-0.5-0.1-0.9c0-0.4,0.1-0.7,0.4-0.9c0.3-0.2,0.7-0.3,1.1-0.3
		c0.5,0,0.9,0.1,1.1,0.3c0.3,0.2,0.4,0.5,0.4,0.9v1.4h1.1v-1.3c0-1.5-0.9-2.3-2.6-2.3c-0.9,0-1.6,0.2-2,0.6
		c-0.5,0.4-0.7,0.9-0.7,1.7c0,0.5,0.1,0.9,0.2,1.2c0.1,0.3,0.4,0.7,0.7,0.9l2.8,2.7c0.3,0.3,0.4,0.5,0.5,0.7s0.1,0.5,0.1,0.9
		s-0.1,0.7-0.4,0.9c-0.3,0.2-0.7,0.3-1.2,0.3c-0.6,0-0.9-0.1-1.2-0.3c-0.3-0.2-0.4-0.5-0.4-0.9v-1.4h-1.1v1.3c0,1.5,0.9,2.3,2.7,2.3
		s2.7-0.8,2.7-2.3C535.8,338.6,535.7,338.2,535.6,338L535.6,338z"/>
	<path d="M382.8,328.7h2.7v-0.9h-2.7V324h3.3v-0.9h-4.5v10.5h1.1V328.7L382.8,328.7z M389.8,332.6V324h0.9v-0.9h-2.7v0.9h0.9v8.5
		h-0.9v0.9h2.7v-0.9H389.8L389.8,332.6z M394.5,325.4l3.5,8.1h1.1V323H398v8.1l-3.5-8.1h-1.1v10.5h1.1V325.4L394.5,325.4z
		 M401.4,333.5h1.1l0.6-2.5h3l0.6,2.5h1.1l-2.4-10.5h-1.7L401.4,333.5L401.4,333.5z M405.9,330.2h-2.7l1.3-5.9L405.9,330.2
		L405.9,330.2z M414.2,333.5v-0.9h-2.9v-9.5h-1.1v10.5L414.2,333.5L414.2,333.5z"/>
	<path d="M371.2,349.1c0.5-0.4,0.7-0.9,0.7-1.7v-6c0-0.7-0.2-1.2-0.7-1.7c-0.5-0.4-1-0.6-1.9-0.6h-2.6v10.5h2.6
		C370.1,349.6,370.7,349.4,371.2,349.1L371.2,349.1z M370.3,348.3c-0.3,0.3-0.6,0.4-1,0.4h-1.4v-8.5h1.4c0.5,0,0.8,0.1,1,0.4
		c0.3,0.3,0.4,0.6,0.4,0.9v6C370.7,347.7,370.5,348.1,370.3,348.3L370.3,348.3z M375.9,345.9h1.3l1.9,3.7h1.2l-2-3.9
		c0.9-0.3,1.4-1,1.4-2.1v-2.3c0-0.7-0.2-1.2-0.7-1.7c-0.5-0.4-1-0.6-1.9-0.6h-2.5v10.5h1.1L375.9,345.9L375.9,345.9z M377.3,345
		h-1.3v-4.8h1.3c0.5,0,0.9,0.1,1,0.4c0.3,0.2,0.4,0.6,0.4,0.9v2.3C378.7,344.6,378.2,345,377.3,345L377.3,345L377.3,345z
		 M381.6,349.6h1.1l0.6-2.5h3l0.6,2.5h1.1l-2.4-10.5H384L381.6,349.6L381.6,349.6z M386.2,346.3h-2.7l1.3-5.9L386.2,346.3
		L386.2,346.3z"/>
	<path d="M393.9,341.3l1.6,8.3h1.6l1.5-10.5h-1.1l-1.3,8.8l-1.7-8.8h-1.2l-1.7,8.8l-1.3-8.8H389l1.5,10.5h1.6L393.9,341.3
		L393.9,341.3z M402.5,348.7v-8.5h0.9v-0.9h-2.7v0.9h0.9v8.5h-0.9v0.9h2.7v-0.9H402.5L402.5,348.7z M407.1,341.6l3.5,8.1h1.1v-10.5
		h-1.1v8.1l-3.5-8.1H406v10.5h1.1V341.6L407.1,341.6z M419,345.4v2c0,0.4-0.2,0.7-0.6,1c-0.4,0.4-0.9,0.6-1.2,0.6
		c-0.5,0-0.8-0.1-0.9-0.4c-0.2-0.2-0.3-0.6-0.3-0.9v-6.4c0-0.9,0.5-1.3,1.5-1.3s1.5,0.5,1.5,1.3v0.9h1.1v-0.9c0-0.8-0.2-1.2-0.7-1.7
		c-0.5-0.4-1.1-0.6-2-0.6s-1.5,0.2-2,0.6c-0.5,0.4-0.7,0.9-0.7,1.7v6.4c0,1.5,0.8,2.3,2.4,2.3c0.5,0,0.9-0.1,1.2-0.4
		c0.4-0.3,0.7-0.6,0.9-0.9l0.4,1h0.5v-5.3h-2.9v0.9L419,345.4L419,345.4z M428,346.5c-0.1-0.3-0.4-0.7-0.7-0.9l-2.8-2.7
		c-0.3-0.2-0.4-0.5-0.5-0.7c-0.1-0.2-0.1-0.5-0.1-0.9c0-0.4,0.1-0.7,0.4-0.9c0.3-0.2,0.7-0.3,1.1-0.3c0.5,0,0.9,0.1,1.1,0.3
		c0.3,0.2,0.4,0.5,0.4,0.9v1.4h1.1v-1.3c0-1.5-0.9-2.3-2.6-2.3c-0.9,0-1.6,0.2-2,0.6c-0.5,0.4-0.7,0.9-0.7,1.7
		c0,0.5,0.1,0.9,0.2,1.2c0.1,0.3,0.4,0.7,0.7,0.9l2.8,2.7c0.3,0.3,0.4,0.5,0.5,0.7c0.1,0.2,0.1,0.5,0.1,0.9c0,0.4-0.1,0.7-0.4,0.9
		c-0.3,0.2-0.7,0.3-1.2,0.3c-0.6,0-0.9-0.1-1.2-0.3c-0.3-0.2-0.4-0.5-0.4-0.9v-1.4h-1.1v1.3c0,1.5,0.9,2.3,2.7,2.3
		c1.8,0,2.7-0.8,2.7-2.3C428.2,347.2,428.1,346.8,428,346.5L428,346.5z"/>
	<path d="M249.6,332.5c-1,0-1.5-0.5-1.5-1.3v-6.4c0-0.9,0.5-1.3,1.5-1.3c1,0,1.5,0.5,1.5,1.3v1.5h1.1v-1.5c0-0.8-0.2-1.2-0.7-1.7
		c-0.5-0.4-1.1-0.6-2-0.6s-1.5,0.2-2,0.6s-0.7,0.9-0.7,1.7v6.4c0,0.8,0.2,1.2,0.7,1.7c0.5,0.5,1.1,0.6,2,0.6s1.5-0.2,2-0.6
		c0.5-0.4,0.7-0.9,0.7-1.7v-0.9h-1.1v0.9C251.1,332,250.5,332.5,249.6,332.5L249.6,332.5z M259.5,323c-0.5-0.4-1.1-0.6-2.1-0.6
		s-1.6,0.2-2.1,0.6s-0.7,0.9-0.7,1.7v6.4c0,0.8,0.2,1.2,0.7,1.7c0.5,0.5,1.1,0.6,2.1,0.6s1.6-0.2,2.1-0.6c0.5-0.4,0.7-0.9,0.7-1.7
		v-6.4C260.3,323.9,260,323.4,259.5,323L259.5,323z M257.5,332.5c-1,0-1.6-0.5-1.6-1.3v-6.4c0-0.9,0.6-1.3,1.6-1.3s1.6,0.5,1.6,1.3
		v6.4C259.1,332,258.6,332.5,257.5,332.5L257.5,332.5z M264.3,325.1l3.5,8.1h1.1v-10.4h-1.1v8.1l-3.5-8.1h-1.1v10.4h1.1V325.1
		L264.3,325.1z M274.6,332.5c-1,0-1.5-0.5-1.5-1.3v-6.4c0-0.9,0.5-1.3,1.5-1.3s1.5,0.5,1.5,1.3v1.5h1.1v-1.5c0-0.8-0.2-1.2-0.7-1.7
		c-0.5-0.4-1.1-0.6-2-0.6s-1.5,0.2-2,0.6c-0.5,0.4-0.7,0.9-0.7,1.7v6.4c0,0.8,0.2,1.2,0.7,1.7c0.5,0.4,1.1,0.6,2,0.6s1.5-0.2,2-0.6
		c0.5-0.4,0.7-0.9,0.7-1.7v-0.9h-1.1v0.9C276.2,332,275.6,332.5,274.6,332.5L274.6,332.5z M284.8,332.2h-3.6v-3.9h2.8v-0.9h-2.8
		v-3.7h3.5v-0.9h-4.6v10.4h4.7L284.8,332.2L284.8,332.2z M288.2,329.9h1.3c0.9,0,1.5-0.2,1.9-0.6c0.5-0.4,0.7-0.9,0.7-1.7v-2.7
		c0-0.7-0.2-1.2-0.7-1.7c-0.5-0.4-1-0.6-1.9-0.6h-2.5V333h1.1V329.9L288.2,329.9z M289.6,329h-1.3v-5.3h1.3c0.5,0,0.9,0.1,1,0.4
		c0.3,0.2,0.4,0.6,0.4,0.9v2.7C291,328.5,290.5,329,289.6,329L289.6,329L289.6,329z M293.5,322.7v0.9h2.1v9.5h1.1v-9.5h2.1v-0.9
		H293.5L293.5,322.7z M303.6,332.5c-1,0-1.6-0.5-1.6-1.3v-8.4h-1.1v8.4c0,0.8,0.2,1.2,0.7,1.7c0.5,0.5,1.1,0.6,2.1,0.6
		s1.6-0.2,2.1-0.6c0.5-0.4,0.7-0.9,0.7-1.7v-8.4h-1.1v8.4C305.2,332,304.6,332.5,303.6,332.5L303.6,332.5z M308.4,333.1h1.1l0.6-2.4
		h3l0.6,2.4h1.1l-2.4-10.4h-1.7L308.4,333.1L308.4,333.1z M312.9,329.7h-2.7l1.3-5.9L312.9,329.7L312.9,329.7z M321.1,333.1v-0.9
		h-2.9v-9.5h-1.1v10.4H321.1L321.1,333.1z"/>
	<path d="M257.4,348.7c0.5-0.4,0.7-0.9,0.7-1.7v-6c0-0.7-0.2-1.2-0.7-1.7c-0.5-0.4-1-0.6-1.9-0.6H253v10.5h2.6
		C256.3,349.2,256.9,349.1,257.4,348.7L257.4,348.7z M256.6,347.9c-0.3,0.3-0.6,0.4-1,0.4h-1.4v-8.5h1.4c0.5,0,0.8,0.1,1,0.4
		c0.3,0.3,0.4,0.6,0.4,0.9v6C256.9,347.3,256.8,347.6,256.6,347.9L256.6,347.9z M262.2,345.5h1.3l1.9,3.7h1.2l-2-3.9
		c0.9-0.3,1.4-1,1.4-2.1V341c0-0.7-0.2-1.2-0.7-1.7c-0.5-0.4-1-0.6-1.9-0.6H261v10.5h1.1L262.2,345.5L262.2,345.5z M263.5,344.6
		h-1.3v-4.8h1.3c0.5,0,0.9,0.1,1,0.4c0.3,0.2,0.4,0.6,0.4,0.9v2.3C264.9,344.1,264.4,344.6,263.5,344.6L263.5,344.6L263.5,344.6z
		 M267.9,349.2h1.1l0.6-2.5h3l0.6,2.5h1.1l-2.4-10.5h-1.7L267.9,349.2L267.9,349.2z M272.4,345.8h-2.7l1.3-5.9L272.4,345.8
		L272.4,345.8z"/>
	<path d="M280.1,340.9l1.6,8.3h1.6l1.5-10.5h-1.1l-1.3,8.8l-1.7-8.8h-1.2l-1.7,8.8l-1.3-8.8h-1.1l1.5,10.5h1.6L280.1,340.9
		L280.1,340.9z M288.7,348.3v-8.5h0.9v-0.9h-2.7v0.9h0.9v8.5h-0.9v0.9h2.7v-0.9H288.7L288.7,348.3z M293.4,341.2l3.5,8.1h1.1v-10.4
		h-1.1v8.1l-3.5-8.1h-1.1v10.4h1.1V341.2L293.4,341.2z M305.2,344.9v2c0,0.4-0.2,0.7-0.6,1c-0.4,0.4-0.9,0.6-1.2,0.6
		c-0.5,0-0.8-0.1-0.9-0.4c-0.2-0.2-0.3-0.6-0.3-0.9v-6.4c0-0.9,0.5-1.3,1.5-1.3c1,0,1.5,0.5,1.5,1.3v0.9h1.1v-0.9
		c0-0.8-0.2-1.2-0.7-1.7c-0.5-0.4-1.1-0.6-2-0.6s-1.5,0.2-2,0.6c-0.5,0.4-0.7,0.9-0.7,1.7v6.4c0,1.5,0.8,2.3,2.4,2.3
		c0.5,0,0.9-0.1,1.2-0.4c0.4-0.2,0.7-0.6,0.9-0.9l0.4,1h0.5v-5.3h-2.9v0.9L305.2,344.9L305.2,344.9z M314.2,346
		c-0.1-0.3-0.4-0.7-0.7-0.9l-2.8-2.7c-0.3-0.2-0.4-0.5-0.5-0.7s-0.1-0.5-0.1-0.9c0-0.4,0.1-0.7,0.4-0.9c0.3-0.2,0.7-0.3,1.1-0.3
		c0.5,0,0.9,0.1,1.1,0.3c0.3,0.2,0.4,0.5,0.4,0.9v1.4h1.1V341c0-1.5-0.9-2.3-2.6-2.3c-0.9,0-1.6,0.2-2,0.6c-0.5,0.4-0.7,0.9-0.7,1.7
		c0,0.5,0.1,0.9,0.2,1.2c0.1,0.3,0.4,0.7,0.7,0.9l2.8,2.7c0.3,0.3,0.4,0.5,0.5,0.7c0.1,0.2,0.1,0.5,0.1,0.9c0,0.4-0.1,0.7-0.4,0.9
		c-0.3,0.2-0.7,0.3-1.2,0.3c-0.6,0-0.9-0.1-1.2-0.3c-0.3-0.2-0.4-0.5-0.4-0.9v-1.4H309v1.3c0,1.5,0.9,2.3,2.7,2.3s2.7-0.8,2.7-2.3
		C314.4,346.8,314.3,346.4,314.2,346L314.2,346z"/>
	<path d="M155,321.4c-0.1-0.3-0.4-0.7-0.7-0.9l-2.8-2.7c-0.3-0.2-0.4-0.5-0.5-0.7s-0.1-0.5-0.1-0.9c0-0.4,0.1-0.7,0.4-0.9
		c0.3-0.2,0.7-0.3,1.1-0.3s0.9,0.1,1.1,0.3c0.3,0.2,0.4,0.5,0.4,0.9v1.4h1.1v-1.3c0-1.5-0.9-2.3-2.6-2.3c-0.9,0-1.6,0.2-2,0.6
		c-0.5,0.4-0.7,0.9-0.7,1.7c0,0.5,0.1,0.9,0.2,1.2c0.1,0.3,0.4,0.7,0.7,0.9l2.8,2.7c0.3,0.3,0.4,0.5,0.5,0.7s0.1,0.5,0.1,0.9
		c0,0.4-0.1,0.7-0.4,0.9c-0.3,0.2-0.7,0.3-1.2,0.3c-0.6,0-0.9-0.1-1.2-0.3c-0.3-0.2-0.4-0.5-0.4-0.9v-1.4h-1.1v1.3
		c0,1.5,0.9,2.3,2.7,2.3c1.8,0,2.7-0.8,2.7-2.3C155.2,322.1,155.1,321.7,155,321.4L155,321.4z M162.8,323.6h-3.6v-3.9h2.8v-0.9h-2.8
		v-3.7h3.5v-0.9h-4.6v10.4h4.7L162.8,323.6L162.8,323.6z M169.3,324.6v-0.9h-2.9v-9.5h-1.1v10.4H169.3L169.3,324.6z M176,323.6h-3.6
		v-3.9h2.8v-0.9h-2.8v-3.7h3.5v-0.9h-4.6v10.4h4.7L176,323.6L176,323.6z M180.8,323.9c-1,0-1.5-0.5-1.5-1.3v-6.4
		c0-0.9,0.5-1.3,1.5-1.3c1,0,1.5,0.5,1.5,1.3v1.5h1.1v-1.5c0-0.8-0.2-1.2-0.7-1.7c-0.5-0.4-1.1-0.6-2-0.6c-0.9,0-1.5,0.2-2,0.6
		c-0.5,0.4-0.7,0.9-0.7,1.7v6.4c0,0.8,0.2,1.2,0.7,1.7c0.5,0.4,1.1,0.6,2,0.6c0.9,0,1.5-0.2,2-0.6c0.5-0.4,0.7-0.9,0.7-1.7v-0.9
		h-1.1v0.9C182.4,323.5,181.9,323.9,180.8,323.9L180.8,323.9z M185.2,314.2v0.9h2.1v9.5h1.1v-9.5h2.1v-0.9H185.2L185.2,314.2z"/>
	<path d="M135.7,340.1c0.5-0.4,0.7-0.9,0.7-1.7v-6c0-0.7-0.2-1.2-0.7-1.7c-0.5-0.4-1-0.6-1.9-0.6h-2.6v10.4h2.6
		C134.6,340.7,135.2,340.5,135.7,340.1L135.7,340.1z M134.8,339.4c-0.3,0.3-0.6,0.4-1,0.4h-1.4v-8.5h1.4c0.5,0,0.8,0.1,1,0.4
		c0.3,0.3,0.4,0.6,0.4,0.9v6C135.2,338.8,135.1,339.1,134.8,339.4L134.8,339.4z M143.5,339.8h-3.6v-3.9h2.8v-0.9h-2.8v-3.7h3.5v-0.9
		h-4.6v10.4h4.7L143.5,339.8L143.5,339.8z M150.3,337.5c-0.1-0.3-0.4-0.7-0.7-0.9l-2.8-2.7c-0.3-0.2-0.4-0.5-0.5-0.7
		s-0.1-0.5-0.1-0.9s0.1-0.7,0.4-0.9c0.3-0.2,0.7-0.3,1.1-0.3s0.9,0.1,1.1,0.3c0.3,0.2,0.4,0.5,0.4,0.9v1.4h1.1v-1.3
		c0-1.5-0.9-2.3-2.6-2.3c-0.9,0-1.6,0.2-2,0.6c-0.5,0.4-0.7,0.9-0.7,1.7c0,0.5,0.1,0.9,0.2,1.2c0.1,0.3,0.4,0.7,0.7,0.9l2.8,2.7
		c0.3,0.3,0.4,0.5,0.5,0.7c0.1,0.2,0.1,0.5,0.1,0.9c0,0.4-0.1,0.7-0.4,0.9c-0.3,0.2-0.7,0.3-1.2,0.3c-0.6,0-0.9-0.1-1.2-0.3
		c-0.3-0.2-0.4-0.5-0.4-0.9v-1.4h-1.1v1.3c0,1.5,0.9,2.3,2.7,2.3c1.8,0,2.7-0.8,2.7-2.3C150.5,338.2,150.4,337.9,150.3,337.5
		L150.3,337.5z M154.3,339.8v-8.5h0.8v-0.9h-2.7v0.9h0.9v8.5h-0.9v0.9h2.7v-0.9H154.3L154.3,339.8z M161.2,336.3v2
		c0,0.4-0.2,0.7-0.6,1c-0.4,0.4-0.9,0.6-1.2,0.6c-0.5,0-0.8-0.1-0.9-0.4c-0.2-0.2-0.3-0.6-0.3-0.9v-6.4c0-0.9,0.5-1.3,1.5-1.3
		c1,0,1.5,0.5,1.5,1.3v0.9h1.1v-0.9c0-0.8-0.2-1.2-0.7-1.7c-0.5-0.4-1.1-0.6-2-0.6c-0.9,0-1.5,0.2-2,0.6c-0.5,0.4-0.7,0.9-0.7,1.7
		v6.4c0,1.5,0.8,2.3,2.4,2.3c0.5,0,0.9-0.1,1.2-0.4c0.4-0.2,0.7-0.6,0.9-0.9l0.4,1h0.5v-5.3h-2.9v0.9L161.2,336.3L161.2,336.3z
		 M165.8,332.7l3.5,8.1h1.1v-10.4h-1.1v8.1l-3.5-8.1h-1.1v10.4h1.1V332.7L165.8,332.7z M176.7,328.7h-0.9l-3.2,13.7h0.9L176.7,328.7
		L176.7,328.7z M178.7,340.7h2.6c0.9,0,1.5-0.2,1.9-0.6c0.5-0.4,0.7-0.9,0.7-1.7V337c0-0.9-0.5-1.5-1.3-1.8c0.8-0.3,1.1-0.9,1.1-1.8
		v-0.9c0-0.7-0.2-1.2-0.7-1.7c-0.5-0.4-1-0.6-1.9-0.6h-2.5L178.7,340.7L178.7,340.7z M182.3,339.4c-0.3,0.3-0.6,0.4-1,0.4h-1.4v-4.1
		h1.4c0.5,0,0.8,0.2,1,0.5c0.3,0.3,0.4,0.6,0.4,0.9v1.4C182.7,338.8,182.6,339.1,182.3,339.4L182.3,339.4z M182.2,334.5
		c-0.3,0.3-0.6,0.4-1,0.4h-1.3v-3.6h1.3c0.5,0,0.8,0.1,1,0.4c0.3,0.3,0.4,0.6,0.4,0.9v0.9C182.6,333.8,182.4,334.2,182.2,334.5
		L182.2,334.5z M188.9,340c-1,0-1.6-0.5-1.6-1.3v-8.4h-1.1v8.4c0,0.8,0.2,1.2,0.7,1.7c0.5,0.4,1.1,0.6,2.1,0.6s1.6-0.2,2.1-0.6
		s0.7-0.9,0.7-1.7v-8.4h-1.1v8.4C190.5,339.6,189.9,340,188.9,340L188.9,340z M195.5,339.8v-8.5h0.9v-0.9h-2.7v0.9h0.9v8.5h-0.9v0.9
		h2.7v-0.9H195.5L195.5,339.8z M202.6,340.7v-0.9h-2.9v-9.5h-1.1v10.4H202.6L202.6,340.7z M208.5,340.1c0.5-0.4,0.7-0.9,0.7-1.7v-6
		c0-0.7-0.2-1.2-0.7-1.7c-0.5-0.4-1-0.6-1.9-0.6H204v10.4h2.6C207.5,340.7,208,340.5,208.5,340.1L208.5,340.1z M207.6,339.4
		c-0.3,0.3-0.6,0.4-1,0.4h-1.4v-8.5h1.4c0.5,0,0.8,0.1,1,0.4c0.3,0.3,0.4,0.6,0.4,0.9v6C208,338.8,207.9,339.1,207.6,339.4
		L207.6,339.4z"/>
	<path d="M157.6,352h2.7V351h-2.7v-3.7h3.3v-0.9h-4.5v10.4h1.1V352L157.6,352z M164.6,355.9v-8.5h0.8v-0.9h-2.7v0.9h0.8v8.5h-0.8
		v0.9h2.7v-0.9H164.6L164.6,355.9z M169.2,353.1h1.3l1.9,3.7h1.2l-2-3.9c0.9-0.3,1.4-1,1.4-2.1v-2.3c0-0.7-0.2-1.2-0.7-1.7
		c-0.5-0.4-1-0.6-1.9-0.6h-2.5v10.5h1.1L169.2,353.1L169.2,353.1z M170.6,352.2h-1.3v-4.8h1.3c0.5,0,0.9,0.1,1,0.4
		c0.3,0.2,0.4,0.6,0.4,0.9v2.3C172,351.7,171.5,352.2,170.6,352.2L170.6,352.2L170.6,352.2z M177,348.2l1.9,7h1l1.9-7v8.6h1.1v-10.4
		h-1.7l-1.9,6.9l-1.8-6.9h-1.7v10.4h1.1V348.2L177,348.2z"/>
	<path d="M39.3,332.5c-1,0-1.5-0.5-1.5-1.3v-6.4c0-0.9,0.5-1.3,1.5-1.3s1.5,0.5,1.5,1.3v1.5H42v-1.5c0-0.8-0.2-1.2-0.7-1.7
		c-0.5-0.4-1.1-0.6-2-0.6c-0.9,0-1.5,0.2-2,0.6c-0.5,0.4-0.7,0.9-0.7,1.7v6.4c0,0.8,0.2,1.2,0.7,1.7c0.5,0.4,1.1,0.6,2,0.6
		c0.9,0,1.5-0.2,2-0.6c0.5-0.4,0.7-0.9,0.7-1.7v-0.9h-1.1v0.9C40.9,332,40.3,332.5,39.3,332.5L39.3,332.5z M48.8,333.1v-0.9h-2.9
		v-9.5h-1.1v10.4H48.8L48.8,333.1z M52.2,332.2v-8.5h0.9v-0.9h-2.7v0.9h0.9v8.5h-0.9v0.9h2.7v-0.9H52.2L52.2,332.2z M60.6,332.2H57
		v-3.9h2.8v-0.9H57v-3.7h3.5v-0.9h-4.6v10.4h4.7L60.6,332.2L60.6,332.2z M64.1,325.1l3.5,8.1h1.1v-10.4h-1.1v8.1l-3.5-8.1H63v10.4
		h1.1V325.1L64.1,325.1z M70.8,322.7v0.9h2.1v9.5h1.1v-9.5h2.1v-0.9H70.8L70.8,322.7z"/>
	<path d="M28,346h1.3c0.9,0,1.5-0.2,1.9-0.6c0.5-0.4,0.7-0.9,0.7-1.7V341c0-0.7-0.2-1.2-0.7-1.7c-0.5-0.4-1-0.6-1.9-0.6h-2.5v10.5
		H28L28,346L28,346z M29.3,345.1H28v-5.3h1.3c0.5,0,0.9,0.1,1,0.4c0.3,0.2,0.4,0.6,0.4,0.9v2.7C30.7,344.6,30.2,345.1,29.3,345.1
		L29.3,345.1L29.3,345.1z M38.5,349.2v-0.9h-2.9v-9.5h-1.1v10.4H38.5L38.5,349.2z M39.4,349.2h1.1l0.6-2.5h3l0.6,2.5h1.1l-2.4-10.5
		h-1.7L39.4,349.2L39.4,349.2z M44,345.8h-2.7l1.3-5.9L44,345.8L44,345.8z M49.3,341.2l3.5,8.1h1.1v-10.4h-1.1v8.1l-3.5-8.1h-1.1
		v10.4h1.1V341.2L49.3,341.2z M58.2,341.2l3.5,8.1h1.1v-10.4h-1.1v8.1l-3.5-8.1h-1.1v10.4h1.1V341.2L58.2,341.2z M67.5,348.3v-8.5
		h0.9v-0.9h-2.7v0.9h0.8v8.5h-0.8v0.9h2.7v-0.9H67.5L67.5,348.3z M72.2,341.2l3.5,8.1h1.1v-10.4h-1.1v8.1l-3.5-8.1h-1.1v10.4h1.1
		V341.2L72.2,341.2z M84,344.9v2c0,0.4-0.2,0.7-0.6,1c-0.4,0.4-0.9,0.6-1.2,0.6c-0.5,0-0.8-0.1-0.9-0.4c-0.2-0.2-0.3-0.6-0.3-0.9
		v-6.4c0-0.9,0.5-1.3,1.5-1.3c1,0,1.5,0.5,1.5,1.3v0.9h1.1v-0.9c0-0.8-0.2-1.2-0.7-1.7c-0.5-0.4-1.1-0.6-2-0.6c-0.9,0-1.5,0.2-2,0.6
		c-0.5,0.4-0.7,0.9-0.7,1.7v6.4c0,1.5,0.8,2.3,2.4,2.3c0.5,0,0.9-0.1,1.2-0.4c0.4-0.2,0.7-0.6,0.9-0.9l0.4,1h0.5v-5.3h-2.9v0.9
		L84,344.9L84,344.9z"/>
	<path class="st2" d="M341.3,372h-1.9v-73h1.9V372z M797.4,372h-1.9v-73h1.9V372z M455.1,372h-1.9v-73h1.9V372z M227.6,372h-1.9v-73
		h1.9V372z M113.8,372h-1.9v-73h1.9V372z M569.8,371.1h-1.9V299h1.9V371.1z"/>
	<g>
		<g>
			<defs>
				<path id="SVGID_3_" d="M796,347.7c6.5,0,11.9-5.3,11.9-11.9c0-6.5-5.3-11.9-11.9-11.9c-6.5,0-11.9,5.3-11.9,11.9
					C784.1,342.4,789.4,347.7,796,347.7L796,347.7z"/>
			</defs>
			<clipPath id="SVGID_4_">
				<use xlink:href="#SVGID_3_"  style="overflow:visible;"/>
			</clipPath>
			<rect x="779.4" y="319.3" class="st3" width="33.2" height="33.2"/>
		</g>
	</g>
	<path class="st2" d="M796,348.7c-7,0-12.8-5.8-12.8-12.8c0-7,5.8-12.8,12.8-12.8c7,0,12.8,5.8,12.8,12.8
		C808.8,342.9,803,348.7,796,348.7z M796,325c-6,0-10.9,4.9-10.9,10.9c0,6,4.9,10.9,10.9,10.9s10.9-4.9,10.9-10.9
		C806.9,329.9,801.9,325,796,325z"/>
	<g>
		<g>
			<defs>
				<polyline id="SVGID_5_" points="793.6,328.8 800.3,335.4 793.6,342.1 				"/>
			</defs>
			<clipPath id="SVGID_6_">
				<use xlink:href="#SVGID_5_"  style="overflow:visible;"/>
			</clipPath>
			<polygon class="st4" points="794.9,343.5 792.3,340.8 797.6,335.4 792.3,330.1 794.9,327.4 803,335.4 			"/>
		</g>
	</g>
	<g>
		<g>
			<defs>
				<path id="SVGID_7_" d="M568.4,347.7c6.5,0,11.9-5.3,11.9-11.9c0-6.5-5.3-11.9-11.9-11.9s-11.9,5.3-11.9,11.9
					C556.6,342.4,561.9,347.7,568.4,347.7L568.4,347.7z"/>
			</defs>
			<clipPath id="SVGID_8_">
				<use xlink:href="#SVGID_7_"  style="overflow:visible;"/>
			</clipPath>
			<rect x="551.8" y="319.3" class="st5" width="33.2" height="33.2"/>
		</g>
	</g>
	<path class="st2" d="M568.4,348.7c-7,0-12.8-5.8-12.8-12.8c0-7,5.8-12.8,12.8-12.8c7,0,12.8,5.8,12.8,12.8
		C581.2,342.9,575.4,348.7,568.4,348.7z M568.4,325c-6,0-10.9,4.9-10.9,10.9c0,6,4.9,10.9,10.9,10.9s10.9-4.9,10.9-10.9
		C579.3,329.9,574.4,325,568.4,325z"/>
	<g>
		<g>
			<defs>
				<polyline id="SVGID_9_" points="566,328.8 572.8,335.4 566,342.1 				"/>
			</defs>
			<clipPath id="SVGID_10_">
				<use xlink:href="#SVGID_9_"  style="overflow:visible;"/>
			</clipPath>
			<polygon class="st6" points="567.4,343.5 564.7,340.8 570,335.4 564.7,330.1 567.4,327.4 575.4,335.4 			"/>
		</g>
	</g>
	<g>
		<g>
			<defs>
				<path id="SVGID_11_" d="M453.7,347.7c6.5,0,11.9-5.3,11.9-11.9c0-6.5-5.3-11.9-11.9-11.9c-6.5,0-11.9,5.3-11.9,11.9
					C441.8,342.4,447.1,347.7,453.7,347.7L453.7,347.7z"/>
			</defs>
			<clipPath id="SVGID_12_">
				<use xlink:href="#SVGID_11_"  style="overflow:visible;"/>
			</clipPath>
			<rect x="437.1" y="319.3" class="st7" width="33.2" height="33.2"/>
		</g>
	</g>
	<path class="st2" d="M453.7,348.7c-7,0-12.8-5.8-12.8-12.8c0-7,5.8-12.8,12.8-12.8s12.8,5.8,12.8,12.8
		C466.5,342.9,460.7,348.7,453.7,348.7z M453.7,325c-6,0-10.9,4.9-10.9,10.9c0,6,4.9,10.9,10.9,10.9s10.9-4.9,10.9-10.9
		C464.6,329.9,459.7,325,453.7,325z"/>
	<g>
		<g>
			<defs>
				<polyline id="SVGID_13_" points="451.3,328.8 458.1,335.4 451.3,342.1 				"/>
			</defs>
			<clipPath id="SVGID_14_">
				<use xlink:href="#SVGID_13_"  style="overflow:visible;"/>
			</clipPath>
			<polygon class="st8" points="452.6,343.5 450,340.8 455.3,335.4 450,330.1 452.6,327.4 460.7,335.4 			"/>
		</g>
	</g>
	<g>
		<g>
			<defs>
				<path id="SVGID_15_" d="M339.9,347.7c6.5,0,11.9-5.3,11.9-11.9c0-6.5-5.3-11.9-11.9-11.9c-6.5,0-11.9,5.3-11.9,11.9
					C328.1,342.4,333.4,347.7,339.9,347.7L339.9,347.7z"/>
			</defs>
			<clipPath id="SVGID_16_">
				<use xlink:href="#SVGID_15_"  style="overflow:visible;"/>
			</clipPath>
			<rect x="323.3" y="319.3" class="st9" width="33.2" height="33.2"/>
		</g>
	</g>
	<path class="st2" d="M339.9,348.7c-7,0-12.8-5.8-12.8-12.8c0-7,5.8-12.8,12.8-12.8s12.8,5.8,12.8,12.8
		C352.7,342.9,346.9,348.7,339.9,348.7z M339.9,325c-6,0-10.9,4.9-10.9,10.9c0,6,4.9,10.9,10.9,10.9s10.9-4.9,10.9-10.9
		C350.8,329.9,345.9,325,339.9,325z"/>
	<g>
		<g>
			<defs>
				<polyline id="SVGID_17_" points="337.5,328.8 344.3,335.4 337.5,342.1 				"/>
			</defs>
			<clipPath id="SVGID_18_">
				<use xlink:href="#SVGID_17_"  style="overflow:visible;"/>
			</clipPath>
			<polygon class="st10" points="338.9,343.5 336.2,340.8 341.5,335.4 336.2,330.1 338.9,327.4 346.9,335.4 			"/>
		</g>
	</g>
	<g>
		<g>
			<defs>
				<path id="SVGID_19_" d="M226.1,347.7c6.5,0,11.9-5.3,11.9-11.9c0-6.5-5.3-11.9-11.9-11.9s-11.9,5.3-11.9,11.9
					C214.3,342.4,219.6,347.7,226.1,347.7L226.1,347.7z"/>
			</defs>
			<clipPath id="SVGID_20_">
				<use xlink:href="#SVGID_19_"  style="overflow:visible;"/>
			</clipPath>
			<rect x="209.5" y="319.3" class="st11" width="33.2" height="33.2"/>
		</g>
	</g>
	<path class="st2" d="M226.1,348.7c-7,0-12.8-5.8-12.8-12.8c0-7,5.8-12.8,12.8-12.8s12.8,5.8,12.8,12.8
		C238.9,342.9,233.1,348.7,226.1,348.7z M226.1,325c-6,0-10.9,4.9-10.9,10.9c0,6,4.9,10.9,10.9,10.9c6,0,10.9-4.9,10.9-10.9
		C237,329.9,232.1,325,226.1,325z"/>
	<g>
		<g>
			<defs>
				<polyline id="SVGID_21_" points="223.8,328.8 230.5,335.4 223.8,342.1 				"/>
			</defs>
			<clipPath id="SVGID_22_">
				<use xlink:href="#SVGID_21_"  style="overflow:visible;"/>
			</clipPath>
			<polygon class="st12" points="225.1,343.5 222.4,340.8 227.7,335.4 222.4,330.1 225.1,327.4 233.1,335.4 			"/>
		</g>
	</g>
	<g>
		<g>
			<defs>
				<path id="SVGID_23_" d="M112.4,347.7c6.5,0,11.9-5.3,11.9-11.9c0-6.5-5.3-11.9-11.9-11.9s-11.9,5.3-11.9,11.9
					C100.5,342.4,105.8,347.7,112.4,347.7L112.4,347.7z"/>
			</defs>
			<clipPath id="SVGID_24_">
				<use xlink:href="#SVGID_23_"  style="overflow:visible;"/>
			</clipPath>
			<rect x="95.8" y="319.3" class="st13" width="33.2" height="33.2"/>
		</g>
	</g>
	<path class="st2" d="M112.4,348.7c-7,0-12.8-5.8-12.8-12.8c0-7,5.8-12.8,12.8-12.8s12.8,5.8,12.8,12.8
		C125.2,342.9,119.4,348.7,112.4,348.7z M112.4,325c-6,0-10.9,4.9-10.9,10.9c0,6,4.9,10.9,10.9,10.9s10.9-4.9,10.9-10.9
		C123.3,329.9,118.3,325,112.4,325z"/>
	<g>
		<g>
			<defs>
				<polyline id="SVGID_25_" points="110.1,328.8 116.7,335.5 110.1,342.2 				"/>
			</defs>
			<clipPath id="SVGID_26_">
				<use xlink:href="#SVGID_25_"  style="overflow:visible;"/>
			</clipPath>
			<polygon class="st14" points="111.4,343.6 108.8,340.9 114.1,335.5 108.8,330.2 111.4,327.4 119.5,335.5 			"/>
		</g>
	</g>
	<g>
		<path d="M343.2,262.4h-4.9v-0.3c0.9,0,1.5-0.9,1.5-2.4v-10.6c0-1.4-0.6-2.4-1.5-2.4v-0.3h4.9c4.6,0,9,1.4,9,8.1
			C352.3,261.4,347.8,262.4,343.2,262.4z M343.2,246.7h-1v15.5h1c2.5,0,6.3-0.1,6.3-7.7C349.6,247.1,345.8,246.7,343.2,246.7z"/>
		<path d="M365.8,257.7v4.7h-11.5v-0.3c0.9,0,1.2-0.9,1.2-2.4v-10.9c0-1.4-0.2-2.2-1.2-2.2v-0.3h11.2v4.1h-0.3
			c-0.3-3.8-4.2-3.8-6.1-3.8h-1.2v7.5h1.5c0.6,0,3,0,3.1-2.3h0.3v4.9h-0.3c-0.1-2.3-2.6-2.3-3.1-2.3h-1.5v7.7h1c2,0,6.1,0.1,6.5-4.5
			L365.8,257.7L365.8,257.7z"/>
		<path d="M373.7,262.7c-3.7,0-5.4-1.2-5.4-1.2v-4.4h0.3c0.3,2.7,1.2,5.3,5.1,5.3c3.4,0,3.9-3.9,1.2-5.7l-3.8-2.5
			c-2.2-1.4-4.3-3.5-2.5-6.2c0,0,1.1-1.8,4.3-1.8c3.3,0,5.2,1,5.2,1v3.8h-0.3c-0.2-2.3-1.1-4.6-4.9-4.6c-2.5,0-4.4,3.1-0.9,5.4
			l3.8,2.5c3,2,3.5,4.6,2.4,6.4C378.1,260.8,377.2,262.7,373.7,262.7z"/>
		<path d="M386.7,246.5v0.3c-0.9,0-1.6,0.4-1.6,1.8V260c0,1.5,0.7,2.2,1.6,2.2v0.3h-5.5v-0.3c0.9,0,1.6-0.6,1.6-2.2v-11.5
			c0-1.4-0.6-1.8-1.6-1.8v-0.3H386.7z"/>
		<path d="M403.5,256v0.3c-1.3,0-1.5,0.2-1.5,5.3c-1.4,0.6-3.3,0.9-5.8,0.9c-4.9,0-7.5-3.7-7.5-8.2s2.6-8.2,7.5-8.2
			c2.7,0,4.4,0.4,5.8,1.3l-0.2,3.7h-0.5c-0.4-3.8-2.4-4.6-5.1-4.6c-2.6,0-4.6,1.7-4.6,8c0,6.3,2,8,4.6,8c2.7,0,3.8-0.6,3.8-2.5
			c0-3.4-0.3-3.5-1.8-3.5v-0.3L403.5,256L403.5,256z"/>
		<path d="M422.1,246.5v0.3c-3.3,0-3.2,3.3-3.2,5.4v10.3h-0.8l-9.7-12.5v6.8c0,2,0,5.4,2.9,5.4v0.3h-6.5v-0.3c3.3,0,3.3-3.3,3.3-5.4
			v-7.1l-0.9-1.2c-1.4-1.8-2.1-1.7-2.7-1.7v-0.3h4.2l9.9,12.7v-7c0-2.1,0-5.4-2.9-5.4v-0.3L422.1,246.5L422.1,246.5z"/>
		<path d="M430.3,263h-1.6l7-17h1.6L430.3,263z"/>
		<path d="M448.9,262.4h-4.6v-0.2c0.9,0,1.3-0.9,1.3-2.6V249c0-1.4-0.3-2.5-1.3-2.5v-0.2h4.6c3.1,0,5.9,0.2,5.9,3.9
			c0,3.5-3.3,3.9-3.8,3.9c1.5,0,4.8,0.3,4.8,4.2C455.8,262.3,452.7,262.4,448.9,262.4z M447.9,246.7v7.5h1.3c1.4,0,2.9-0.5,2.9-3.9
			c0-3.3-1.9-3.6-3.3-3.6H447.9z M449.3,254.4H448v7.7h1c2.2,0,4.3,0,4.3-3.9C453.2,254.6,450.9,254.4,449.3,254.4z"/>
	</g>
	<g>
		<path d="M459.4,257v-8.2c0-1.5-0.6-2-1.6-2v-0.3h5.7v0.3c-0.9,0-1.8,0.2-1.8,2v8.4c0,2.8,1.7,4.5,4.2,4.5c2.3,0,4.1-1.6,4.1-4.6
			v-6.2c0-2.2,0-4.2-2.7-4.2v-0.3h5.9v0.3c-2.9,0-2.9,2-2.9,4.2v6.2c0,4.1-2.7,5.6-5.5,5.6C461.7,262.7,459.4,260.7,459.4,257z"/>
		<path d="M480.3,246.5v0.3c-0.9,0-1.6,0.4-1.6,1.8V260c0,1.5,0.7,2.2,1.6,2.2v0.3h-5.5v-0.3c0.9,0,1.6-0.6,1.6-2.2v-11.5
			c0-1.4-0.6-1.8-1.6-1.8v-0.3H480.3z"/>
		<path d="M494,257.5v4.9h-11.4v-0.3c0.9,0,1.2-0.9,1.2-2.4v-11.1c0-1.4-0.5-1.9-1.4-1.9v-0.3h5.4v0.3c-0.9,0-1.7,0.4-1.7,2v13.4
			h0.9c2.5,0,6.3,0,6.7-4.6L494,257.5L494,257.5z"/>
		<path d="M501.3,262.4h-4.9v-0.3c0.9,0,1.5-0.9,1.5-2.4v-10.6c0-1.4-0.6-2.4-1.5-2.4v-0.3h4.9c4.6,0,9,1.4,9,8.1
			C510.3,261.4,505.8,262.4,501.3,262.4z M501.3,246.7h-1v15.5h1c2.5,0,6.3-0.1,6.3-7.7C507.5,247.1,503.8,246.7,501.3,246.7z"/>
	</g>
	<g>
		<path d="M521.8,259.4c0,2.7,0.9,2.8,2.3,2.8v0.3h-6v-0.3c1.1,0,1.5-0.6,1.5-2.7v-10.5c0-1.6-0.3-2.2-1.4-2.2v-0.3h4.1
			c4.6,0,7.5,0.6,7.5,4.6c0,4-3,4.6-7.5,4.6h-0.4L521.8,259.4L521.8,259.4z M522.2,255.3c2.7,0,5-0.1,5-4.3c0-4.4-2.4-4.3-5-4.3
			h-0.4v8.5H522.2z"/>
		<path d="M544.1,262.4h-5.2v-0.3c1.2,0,1-1.3,0.5-2.6l-0.8-2h-5.9c-0.6,1.8-1.6,4.6,1.5,4.6v0.3h-5.1v-0.3c0.9,0,1.4-0.1,3.4-5.4
			l3.8-10.3h0.3c2.7,6.7,5.6,13.8,5.6,13.8c0.8,1.8,1.2,1.8,1.9,1.8V262.4z M538.5,257.3l-2.9-7.6l-2.7,7.6H538.5z"/>
	</g>
	<g>
		<path d="M557.7,246.5v4h-0.3c-0.1-3.7-3.9-3.7-4.2-3.7h-1.3v13.6c0,1.5,0.7,1.9,1.7,1.9v0.3H548v-0.3c0.9,0,1.6-0.4,1.6-1.9v-13.6
			h-1.3c-0.7,0-4.1,0-4.2,3.7h-0.3v-4H557.7z"/>
		<path d="M570.6,259.4c0,1.9-0.1,2.5,1.1,2.8v0.3h-4v-0.3c0.6-0.2,0.7-0.8,0.7-2.8V255h-6.3v4.4c0,2.3,0,2.6,0.7,2.8v0.3h-4.1v-0.3
			c1.2-0.3,1.1-0.6,1.1-2.8v-9.8c0-2.1,0-2.7-1.1-2.8v-0.3h4.1v0.3c-0.7,0.2-0.7,0.7-0.7,2.8v5h6.3v-5c0-2.2,0-2.7-0.7-2.8v-0.3h4
			v0.3c-1,0.2-1.1,0.7-1.1,2.8V259.4z"/>
	</g>
	<path class="st15" d="M299.7,411.7c-0.8,0-1.1-0.3-1.1-0.9v-4.9c0-0.7,0.4-0.9,1.1-0.9c0.8,0,1.1,0.3,1.1,0.9v1.1h0.9v-1.1
		c0-0.6-0.2-0.9-0.5-1.2c-0.4-0.3-0.9-0.5-1.5-0.5s-1.1,0.2-1.5,0.5c-0.4,0.3-0.5,0.8-0.5,1.2v4.9c0,0.6,0.2,0.9,0.5,1.2
		c0.4,0.3,0.9,0.5,1.5,0.5s1.1-0.2,1.5-0.5c0.4-0.3,0.5-0.8,0.5-1.2v-0.7h-0.9v0.7C300.8,411.3,300.5,411.7,299.7,411.7L299.7,411.7
		z M307.4,404.5c-0.4-0.3-0.9-0.5-1.6-0.5s-1.2,0.2-1.6,0.5c-0.4,0.3-0.6,0.8-0.6,1.2v4.9c0,0.6,0.2,0.9,0.6,1.2
		c0.4,0.3,0.9,0.5,1.6,0.5s1.2-0.2,1.6-0.5c0.4-0.3,0.6-0.8,0.6-1.2v-4.9C307.9,405.2,307.7,404.8,307.4,404.5L307.4,404.5z
		 M305.8,411.7c-0.9,0-1.2-0.3-1.2-0.9v-4.9c0-0.7,0.4-0.9,1.2-0.9s1.2,0.3,1.2,0.9v4.9C307,411.3,306.6,411.7,305.8,411.7
		L305.8,411.7z M313.9,409.8c-0.1-0.3-0.3-0.5-0.5-0.8l-2.2-2.1c-0.2-0.2-0.3-0.4-0.4-0.5c-0.1-0.2-0.1-0.4-0.1-0.7
		c0-0.3,0.1-0.5,0.3-0.7c0.2-0.2,0.5-0.3,0.9-0.3s0.7,0.1,0.9,0.3c0.2,0.2,0.3,0.4,0.3,0.7v1.1h0.9v-1c0-1.1-0.7-1.7-2-1.7
		c-0.7,0-1.2,0.2-1.5,0.5c-0.4,0.3-0.5,0.8-0.5,1.2c0,0.4,0,0.7,0.1,0.9c0.1,0.3,0.3,0.5,0.6,0.8l2.2,2.1c0.2,0.2,0.3,0.4,0.4,0.6
		c0.1,0.2,0.1,0.4,0.1,0.7s-0.1,0.5-0.3,0.7c-0.2,0.2-0.5,0.3-0.9,0.3c-0.4,0-0.7-0.1-0.9-0.3c-0.2-0.2-0.3-0.4-0.3-0.7v-1.1h-0.9v1
		c0,1.1,0.7,1.7,2.1,1.7s2.1-0.6,2.1-1.7C314.1,410.3,314,410,313.9,409.8L313.9,409.8z M315.4,404.2v0.8h1.6v7.3h0.9V405h1.6v-0.8
		H315.4L315.4,404.2z M327.6,411.5h-2.7v-2.9h2.2v-0.8h-2.2V405h2.7v-0.8H324v8h3.6L327.6,411.5L327.6,411.5z M333.2,409.8
		c-0.1-0.3-0.3-0.5-0.5-0.8l-2.2-2.1c-0.2-0.2-0.3-0.4-0.4-0.5s-0.1-0.4-0.1-0.7c0-0.3,0.1-0.5,0.3-0.7c0.2-0.2,0.5-0.3,0.9-0.3
		s0.7,0.1,0.9,0.3c0.2,0.2,0.3,0.4,0.3,0.7v1.1h0.9v-1c0-1.1-0.7-1.7-2-1.7c-0.7,0-1.2,0.2-1.5,0.5c-0.4,0.3-0.5,0.8-0.5,1.2
		c0,0.4,0,0.7,0.1,0.9c0.1,0.3,0.3,0.5,0.6,0.8l2.2,2.1c0.2,0.2,0.3,0.4,0.4,0.6c0.1,0.2,0.1,0.4,0.1,0.7s-0.1,0.5-0.3,0.7
		c-0.2,0.2-0.5,0.3-0.9,0.3c-0.4,0-0.7-0.1-0.9-0.3c-0.2-0.2-0.3-0.4-0.3-0.7v-1.1h-0.9v1c0,1.1,0.7,1.7,2.1,1.7s2.1-0.6,2.1-1.7
		C333.4,410.3,333.3,410,333.2,409.8L333.2,409.8z M334.7,404.2v0.8h1.6v7.3h0.9V405h1.6v-0.8H334.7L334.7,404.2z M339.6,412.2h0.9
		l0.4-1.8h2.4l0.4,1.8h0.9l-1.8-8h-1.3L339.6,412.2L339.6,412.2z M343.1,409.6h-2l1-4.5L343.1,409.6L343.1,409.6z M346.3,412.2h2
		c0.7,0,1.1-0.2,1.4-0.5s0.5-0.8,0.5-1.2v-1.1c0-0.8-0.4-1.2-1-1.3c0.6-0.2,0.9-0.7,0.9-1.3v-0.8c0-0.6-0.2-0.9-0.5-1.2
		c-0.4-0.3-0.9-0.5-1.4-0.5h-1.9L346.3,412.2L346.3,412.2z M349.1,411.3c-0.2,0.2-0.5,0.3-0.9,0.3h-1.1v-3.1h1.1
		c0.4,0,0.6,0.1,0.8,0.3c0.2,0.2,0.3,0.5,0.3,0.8v1.1C349.4,410.8,349.3,411.1,349.1,411.3L349.1,411.3z M348.9,407.5
		c-0.2,0.2-0.5,0.3-0.9,0.3h-1V405h1c0.4,0,0.6,0.1,0.9,0.3c0.3,0.2,0.3,0.5,0.3,0.7v0.8C349.2,407,349.1,407.2,348.9,407.5
		L348.9,407.5z M355.7,412.2v-0.8h-2.3v-7.2h-0.9v8H355.7L355.7,412.2z M358.2,411.5V405h0.7v-0.8h-2.1v0.8h0.7v6.5h-0.7v0.8h2.1
		v-0.8L358.2,411.5L358.2,411.5z M364.8,409.8c-0.1-0.3-0.3-0.5-0.5-0.8l-2.2-2.1c-0.2-0.2-0.3-0.4-0.4-0.5s-0.1-0.4-0.1-0.7
		c0-0.3,0.1-0.5,0.3-0.7c0.2-0.2,0.5-0.3,0.9-0.3c0.4,0,0.7,0.1,0.9,0.3c0.2,0.2,0.3,0.4,0.3,0.7v1.1h0.9v-1c0-1.1-0.7-1.7-2-1.7
		c-0.7,0-1.2,0.2-1.5,0.5c-0.4,0.3-0.5,0.8-0.5,1.2c0,0.4,0,0.7,0.1,0.9c0.1,0.3,0.3,0.5,0.6,0.8l2.2,2.1c0.2,0.2,0.3,0.4,0.4,0.6
		c0.1,0.2,0.1,0.4,0.1,0.7s-0.1,0.5-0.3,0.7c-0.2,0.2-0.5,0.3-0.9,0.3c-0.4,0-0.7-0.1-0.9-0.3c-0.2-0.2-0.3-0.4-0.3-0.7v-1.1h-0.9v1
		c0,1.1,0.7,1.7,2.1,1.7s2.1-0.6,2.1-1.7C364.8,410.3,364.8,410,364.8,409.8L364.8,409.8z M367.9,408.5h2.5v3.7h0.9v-8h-0.9v3.6
		h-2.5v-3.6H367v8h0.9V408.5L367.9,408.5z M377.4,411.5h-2.7v-2.9h2.2v-0.8h-2.2V405h2.7v-0.8h-3.5v8h3.6L377.4,411.5L377.4,411.5z
		 M382.6,411.8c0.3-0.3,0.5-0.8,0.5-1.2V406c0-0.6-0.2-0.9-0.5-1.2c-0.4-0.3-0.9-0.5-1.4-0.5h-2v8h2
		C381.8,412.2,382.3,412.1,382.6,411.8L382.6,411.8z M381.9,411.3c-0.2,0.2-0.5,0.3-0.9,0.3h-1.1V405h1.1c0.4,0,0.6,0.1,0.9,0.3
		c0.2,0.2,0.3,0.5,0.3,0.7v4.6C382.3,410.8,382.2,411.1,381.9,411.3L381.9,411.3z"/>
	<g>
		<g>
			<defs>
				<rect id="SVGID_27_" x="278.8" y="394.2" width="123.3" height="28.4"/>
			</defs>
			<clipPath id="SVGID_28_">
				<use xlink:href="#SVGID_27_"  style="overflow:visible;"/>
			</clipPath>
			<path class="st16" d="M405.8,426.4H275v-36h130.8V426.4z M282.5,418.8h115.7V398H282.5V418.8z"/>
		</g>
	</g>
	<path class="st2" d="M342.8,396.1H339v-24.7h3.8V396.1z M342.3,299.9h-3.8v-28.1h3.8V299.9z M3.8,299.9H0v-28.1h3.8V299.9z"/>
	<rect x="0.5" y="271.9" class="st2" width="340.9" height="3.8"/>
	<path class="st15" d="M72.5,290.5h0.9l0.4-1.8h2.4l0.4,1.8h0.9l-1.8-8h-1.3L72.5,290.5L72.5,290.5z M76,287.9h-2l1-4.5L76,287.9
		L76,287.9z M80.1,287.6h1l1.4,2.8h0.9l-1.5-2.9c0.8-0.2,1-0.8,1-1.6v-1.7c0-0.6-0.2-0.9-0.5-1.2c-0.4-0.3-0.9-0.5-1.4-0.5h-1.9v8
		h0.9V287.6L80.1,287.6z M81.1,286.9h-1v-3.7h1c0.4,0,0.7,0.1,0.9,0.3c0.2,0.2,0.3,0.4,0.3,0.8v1.7
		C82.2,286.6,81.8,286.9,81.1,286.9L81.1,286.9L81.1,286.9z M87,289.9c-0.8,0-1.1-0.3-1.1-0.9V284c0-0.7,0.4-0.9,1.1-0.9
		c0.8,0,1.1,0.3,1.1,0.9v1.1H89V284c0-0.6-0.2-0.9-0.5-1.2c-0.4-0.3-0.9-0.5-1.5-0.5c-0.7,0-1.1,0.2-1.5,0.5
		c-0.4,0.3-0.5,0.8-0.5,1.2v4.9c0,0.6,0.2,0.9,0.5,1.2c0.3,0.3,0.9,0.5,1.5,0.5c0.7,0,1.1-0.2,1.5-0.5c0.4-0.3,0.5-0.8,0.5-1.2v-0.7
		h-0.9v0.7C88.2,289.6,87.8,289.9,87,289.9L87,289.9z M92.1,286.8h2.5v3.7h0.9v-8h-0.9v3.6h-2.5v-3.6h-0.9v8h0.9V286.8L92.1,286.8z
		 M99,289.7v-6.5h0.7v-0.8h-2.1v0.8h0.6v6.5h-0.6v0.8h2.1v-0.8H99L99,289.7z M100.8,282.5v0.8h1.6v7.3h0.9v-7.3h1.6v-0.8H100.8
		L100.8,282.5z M110.1,289.7h-2.7v-2.9h2.2V286h-2.2v-2.8h2.7v-0.8h-3.5v8h3.6L110.1,289.7L110.1,289.7z M113.8,289.9
		c-0.8,0-1.1-0.3-1.1-0.9V284c0-0.7,0.4-0.9,1.1-0.9c0.8,0,1.1,0.3,1.1,0.9v1.1h0.9V284c0-0.6-0.2-0.9-0.5-1.2
		c-0.4-0.3-0.9-0.5-1.5-0.5c-0.7,0-1.1,0.2-1.5,0.5c-0.4,0.3-0.5,0.8-0.5,1.2v4.9c0,0.6,0.2,0.9,0.5,1.2c0.3,0.3,0.9,0.5,1.5,0.5
		c0.7,0,1.1-0.2,1.5-0.5c0.4-0.3,0.5-0.8,0.5-1.2v-0.7h-0.9v0.7C115,289.6,114.6,289.9,113.8,289.9L113.8,289.9z M117.1,282.5v0.8
		h1.6v7.3h0.9v-7.3h1.6v-0.8H117.1L117.1,282.5z M128.4,281.3h-0.8l-2.5,10.4h0.8L128.4,281.3L128.4,281.3z M135,289.9
		c-0.8,0-1.1-0.3-1.1-0.9V284c0-0.7,0.4-0.9,1.1-0.9c0.8,0,1.1,0.3,1.1,0.9v1.1h0.9V284c0-0.6-0.2-0.9-0.5-1.2
		c-0.4-0.3-0.9-0.5-1.5-0.5c-0.7,0-1.1,0.2-1.5,0.5c-0.4,0.3-0.5,0.8-0.5,1.2v4.9c0,0.6,0.2,0.9,0.5,1.2c0.3,0.3,0.9,0.5,1.5,0.5
		c0.7,0,1.1-0.2,1.5-0.5c0.4-0.3,0.5-0.8,0.5-1.2v-0.7h-0.9v0.7C136.2,289.6,135.8,289.9,135,289.9L135,289.9z M142.7,282.7
		c-0.4-0.3-0.9-0.5-1.6-0.5s-1.2,0.2-1.6,0.5s-0.6,0.8-0.6,1.2v4.9c0,0.6,0.2,0.9,0.6,1.2c0.4,0.3,0.9,0.5,1.6,0.5
		c0.7,0,1.2-0.2,1.6-0.5c0.4-0.3,0.6-0.8,0.6-1.2v-4.9C143.2,283.4,143.1,283.1,142.7,282.7L142.7,282.7z M141.1,289.9
		c-0.9,0-1.2-0.3-1.2-0.9V284c0-0.7,0.4-0.9,1.2-0.9c0.9,0,1.2,0.3,1.2,0.9v4.9C142.3,289.6,141.9,289.9,141.1,289.9L141.1,289.9z
		 M146.4,284.3l2.7,6.2h0.9v-8H149v6.2l-2.7-6.2h-0.9v8h0.9V284.3L146.4,284.3z M151.5,282.5v0.8h1.6v7.3h0.9v-7.3h1.6v-0.8H151.5
		L151.5,282.5z M158.1,287.6h1l1.4,2.8h0.9l-1.5-2.9c0.8-0.2,1-0.8,1-1.6v-1.7c0-0.6-0.2-0.9-0.5-1.2c-0.4-0.3-0.9-0.5-1.4-0.5h-1.9
		v8h0.9V287.6L158.1,287.6z M159,286.9h-1v-3.7h1c0.4,0,0.7,0.1,0.9,0.3c0.2,0.2,0.3,0.4,0.3,0.8v1.7
		C160.1,286.6,159.8,286.9,159,286.9L159,286.9L159,286.9z M162.4,290.5h0.9l0.4-1.8h2.4l0.4,1.8h0.9l-1.8-8h-1.3L162.4,290.5
		L162.4,290.5z M165.8,287.9h-2l1-4.5L165.8,287.9L165.8,287.9z M170.9,289.9c-0.8,0-1.1-0.3-1.1-0.9V284c0-0.7,0.4-0.9,1.1-0.9
		s1.1,0.3,1.1,0.9v1.1h0.9V284c0-0.6-0.2-0.9-0.5-1.2c-0.4-0.3-0.9-0.5-1.5-0.5c-0.7,0-1.1,0.2-1.5,0.5c-0.4,0.3-0.5,0.8-0.5,1.2
		v4.9c0,0.6,0.2,0.9,0.5,1.2c0.3,0.3,0.9,0.5,1.5,0.5c0.7,0,1.1-0.2,1.5-0.5c0.4-0.3,0.5-0.8,0.5-1.2v-0.7H172v0.7
		C172.1,289.6,171.7,289.9,170.9,289.9L170.9,289.9z M174.2,282.5v0.8h1.6v7.3h0.9v-7.3h1.6v-0.8H174.2L174.2,282.5z M183.4,282.7
		c-0.4-0.3-0.9-0.5-1.6-0.5c-0.7,0-1.2,0.2-1.6,0.5s-0.6,0.8-0.6,1.2v4.9c0,0.6,0.2,0.9,0.6,1.2c0.4,0.3,0.9,0.5,1.6,0.5
		c0.7,0,1.2-0.2,1.6-0.5c0.4-0.3,0.6-0.8,0.6-1.2v-4.9C183.9,283.4,183.8,283.1,183.4,282.7L183.4,282.7z M181.8,289.9
		c-0.9,0-1.2-0.3-1.2-0.9V284c0-0.7,0.4-0.9,1.2-0.9s1.2,0.3,1.2,0.9v4.9C183,289.6,182.6,289.9,181.8,289.9L181.8,289.9z
		 M187.1,287.6h1l1.4,2.8h0.9l-1.5-2.9c0.8-0.2,1-0.8,1-1.6v-1.7c0-0.6-0.2-0.9-0.5-1.2c-0.4-0.3-0.9-0.5-1.4-0.5h-1.9v8h0.9V287.6
		L187.1,287.6z M188,286.9h-1v-3.7h1c0.4,0,0.7,0.1,0.9,0.3c0.2,0.2,0.3,0.4,0.3,0.8v1.7C189.2,286.6,188.8,286.9,188,286.9
		L188,286.9L188,286.9z M196.8,289.9c-0.8,0-1.1-0.3-1.1-0.9V284c0-0.7,0.4-0.9,1.1-0.9s1.1,0.3,1.1,0.9v1.1h0.9V284
		c0-0.6-0.2-0.9-0.5-1.2c-0.4-0.3-0.9-0.5-1.5-0.5c-0.7,0-1.1,0.2-1.5,0.5c-0.4,0.3-0.5,0.8-0.5,1.2v4.9c0,0.6,0.2,0.9,0.5,1.2
		c0.3,0.3,0.9,0.5,1.5,0.5c0.7,0,1.1-0.2,1.5-0.5c0.4-0.3,0.5-0.8,0.5-1.2v-0.7H198v0.7C198,289.6,197.6,289.9,196.8,289.9
		L196.8,289.9z M204.5,282.7c-0.4-0.3-0.9-0.5-1.6-0.5s-1.2,0.2-1.6,0.5s-0.6,0.8-0.6,1.2v4.9c0,0.6,0.2,0.9,0.6,1.2
		c0.4,0.3,0.9,0.5,1.6,0.5s1.2-0.2,1.6-0.5c0.4-0.3,0.6-0.8,0.6-1.2v-4.9C205,283.4,204.9,283.1,204.5,282.7L204.5,282.7z
		 M202.9,289.9c-0.9,0-1.2-0.3-1.2-0.9V284c0-0.7,0.4-0.9,1.2-0.9c0.9,0,1.2,0.3,1.2,0.9v4.9C204.1,289.6,203.8,289.9,202.9,289.9
		L202.9,289.9z M210.4,290.5v-0.8h-2.3v-7.3h-0.9v8L210.4,290.5L210.4,290.5z M215,290.5v-0.8h-2.3v-7.3h-0.9v8L215,290.5L215,290.5
		z M215.8,290.5h0.9l0.4-1.8h2.4l0.4,1.8h0.9l-1.8-8h-1.3L215.8,290.5L215.8,290.5z M219.2,287.9h-2l1-4.5L219.2,287.9L219.2,287.9z
		 M222.4,290.5h2c0.7,0,1.1-0.2,1.4-0.5c0.3-0.3,0.5-0.8,0.5-1.2v-1.1c0-0.8-0.4-1.2-1-1.3c0.6-0.2,0.9-0.7,0.9-1.3v-0.8
		c0-0.6-0.2-0.9-0.5-1.2c-0.4-0.3-0.9-0.5-1.4-0.5h-1.9L222.4,290.5L222.4,290.5z M225.2,289.4c-0.2,0.2-0.5,0.3-0.9,0.3h-1.1v-3.1
		h1.1c0.4,0,0.6,0.1,0.8,0.3c0.2,0.2,0.3,0.5,0.3,0.8v1.1C225.5,289,225.4,289.2,225.2,289.4L225.2,289.4z M225.1,285.6
		c-0.2,0.2-0.5,0.3-0.9,0.3h-1v-2.7h1c0.4,0,0.6,0.1,0.9,0.3c0.2,0.2,0.3,0.5,0.3,0.7v0.8C225.4,285.2,225.3,285.4,225.1,285.6
		L225.1,285.6z M232.1,282.7c-0.4-0.3-0.9-0.5-1.6-0.5c-0.7,0-1.2,0.2-1.6,0.5s-0.6,0.8-0.6,1.2v4.9c0,0.6,0.2,0.9,0.6,1.2
		c0.4,0.3,0.9,0.5,1.6,0.5s1.2-0.2,1.6-0.5c0.4-0.3,0.6-0.8,0.6-1.2v-4.9C232.7,283.4,232.5,283.1,232.1,282.7L232.1,282.7z
		 M230.6,289.9c-0.9,0-1.2-0.3-1.2-0.9V284c0-0.7,0.4-0.9,1.2-0.9c0.9,0,1.2,0.3,1.2,0.9v4.9C231.8,289.6,231.3,289.9,230.6,289.9
		L230.6,289.9z M235.8,287.6h1l1.4,2.8h0.9l-1.5-2.9c0.8-0.2,1-0.8,1-1.6v-1.7c0-0.6-0.2-0.9-0.5-1.2c-0.4-0.3-0.9-0.5-1.4-0.5H235
		v8h0.9V287.6L235.8,287.6z M236.8,286.9h-1v-3.7h1c0.4,0,0.7,0.1,0.9,0.3c0.2,0.2,0.3,0.4,0.3,0.8v1.7
		C237.9,286.6,237.5,286.9,236.8,286.9L236.8,286.9L236.8,286.9z M240.2,290.5h0.9l0.4-1.8h2.4l0.4,1.8h0.9l-1.8-8h-1.3L240.2,290.5
		L240.2,290.5z M243.7,287.9h-2l1-4.5L243.7,287.9L243.7,287.9z M245.9,282.5v0.8h1.6v7.3h0.9v-7.3h1.6v-0.8H245.9L245.9,282.5z
		 M252.7,289.7v-6.5h0.6v-0.8h-2.1v0.8h0.6v6.5h-0.6v0.8h2.1v-0.8H252.7L252.7,289.7z M258.9,282.7c-0.4-0.3-0.9-0.5-1.6-0.5
		c-0.8,0-1.2,0.2-1.6,0.5c-0.4,0.3-0.6,0.8-0.6,1.2v4.9c0,0.6,0.2,0.9,0.6,1.2c0.4,0.3,0.9,0.5,1.6,0.5c0.8,0,1.2-0.2,1.6-0.5
		c0.4-0.3,0.6-0.8,0.6-1.2v-4.9C259.4,283.4,259.2,283.1,258.9,282.7L258.9,282.7z M257.3,289.9c-0.9,0-1.2-0.3-1.2-0.9V284
		c0-0.7,0.4-0.9,1.2-0.9s1.2,0.3,1.2,0.9v4.9C258.6,289.6,258.2,289.9,257.3,289.9L257.3,289.9z M262.5,284.3l2.7,6.2h0.9v-8h-0.9
		v6.2l-2.7-6.2h-0.9v8h0.9V284.3L262.5,284.3z"/>
	<polygon class="st0" points="0,59.5 909.3,59.5 909.3,135.3 0,135.3 	"/>
	<g>
		<g>
			<defs>
				<rect id="SVGID_29_" y="59.5" width="909.3" height="75.9"/>
			</defs>
			<clipPath id="SVGID_30_">
				<use xlink:href="#SVGID_29_"  style="overflow:visible;"/>
			</clipPath>
			<path class="st17" d="M913.1,139.1H-3.8V55.7h916.9V139.1z M3.8,131.5h901.7V63.3H3.8V131.5z"/>
		</g>
	</g>
	<path d="M752.1,102.4c-1,0-1.5-0.5-1.5-1.3v-6.4c0-0.9,0.5-1.3,1.5-1.3c1,0,1.5,0.5,1.5,1.3v1.5h1.1v-1.5c0-0.8-0.2-1.2-0.7-1.7
		c-0.5-0.4-1.1-0.6-2-0.6c-0.9,0-1.5,0.2-2,0.6c-0.5,0.4-0.7,0.9-0.7,1.7v6.4c0,0.8,0.2,1.2,0.7,1.7c0.5,0.5,1.1,0.6,2,0.6
		c0.9,0,1.5-0.2,2-0.6c0.5-0.4,0.7-0.9,0.7-1.7v-0.9h-1.1v0.9C753.6,102,753.1,102.4,752.1,102.4L752.1,102.4z M762.1,93.1
		c-0.5-0.4-1.1-0.6-2.1-0.6c-0.9,0-1.6,0.2-2.1,0.6c-0.5,0.4-0.7,0.9-0.7,1.7v6.4c0,0.8,0.2,1.2,0.7,1.7c0.5,0.5,1.1,0.6,2.1,0.6
		c0.9,0,1.6-0.2,2.1-0.6c0.5-0.4,0.7-0.9,0.7-1.7v-6.4C762.8,94,762.6,93.4,762.1,93.1L762.1,93.1z M760,102.4c-1,0-1.6-0.5-1.6-1.3
		v-6.4c0-0.9,0.6-1.3,1.6-1.3c1,0,1.6,0.5,1.6,1.3v6.4C761.6,102,761.2,102.4,760,102.4L760,102.4z M767,95l3.5,8.1h1.1V92.6h-1.1
		v8.1l-3.5-8.1h-1.1v10.5h1.1V95L767,95z M779.8,100c-0.1-0.3-0.4-0.7-0.7-0.9l-2.8-2.7c-0.3-0.2-0.4-0.5-0.5-0.7
		c-0.1-0.2-0.1-0.5-0.1-0.9c0-0.4,0.1-0.7,0.4-0.9c0.3-0.2,0.7-0.3,1.1-0.3c0.5,0,0.9,0.1,1.1,0.3c0.3,0.2,0.4,0.5,0.4,0.9v1.4h1.1
		V95c0-1.5-0.9-2.3-2.6-2.3c-0.9,0-1.6,0.2-2,0.6c-0.5,0.4-0.7,0.9-0.7,1.7c0,0.5,0.1,0.9,0.2,1.2c0.1,0.3,0.4,0.7,0.7,0.9l2.8,2.7
		c0.3,0.3,0.4,0.5,0.5,0.7s0.1,0.5,0.1,0.9c0,0.4-0.1,0.7-0.4,0.9c-0.3,0.2-0.7,0.3-1.2,0.3s-0.9-0.1-1.2-0.3
		c-0.3-0.2-0.4-0.5-0.4-0.9v-1.4h-1.1v1.3c0,1.5,0.9,2.3,2.7,2.3s2.7-0.8,2.7-2.3C779.9,100.6,779.9,100.3,779.8,100L779.8,100z
		 M781.7,92.7v0.9h2.1v9.5h1.1v-9.5h2.1v-0.9H781.7L781.7,92.7z M790.2,99.4h1.3l1.9,3.7h1.2l-2-3.9c0.9-0.3,1.4-1,1.4-2.1v-2.3
		c0-0.7-0.2-1.2-0.7-1.7c-0.5-0.4-1-0.6-1.9-0.6H789v10.5h1.1L790.2,99.4L790.2,99.4z M791.5,98.5h-1.3v-4.8h1.3
		c0.5,0,0.9,0.1,1,0.4c0.3,0.2,0.4,0.6,0.4,0.9v2.3C792.9,98.1,792.5,98.5,791.5,98.5L791.5,98.5L791.5,98.5z M799.5,102.4
		c-1,0-1.6-0.5-1.6-1.3v-8.4h-1.1v8.4c0,0.8,0.2,1.2,0.7,1.7c0.5,0.4,1.1,0.6,2.1,0.6c0.9,0,1.6-0.2,2.1-0.6
		c0.5-0.4,0.7-0.9,0.7-1.7v-8.4h-1.1v8.4C801.1,102,800.5,102.4,799.5,102.4L799.5,102.4z M807.7,102.4c-1,0-1.5-0.5-1.5-1.3v-6.4
		c0-0.9,0.5-1.3,1.5-1.3c1,0,1.5,0.5,1.5,1.3v1.5h1.1v-1.5c0-0.8-0.2-1.2-0.7-1.7c-0.5-0.4-1.1-0.6-2-0.6c-0.9,0-1.5,0.2-2,0.6
		c-0.5,0.4-0.7,0.9-0.7,1.7v6.4c0,0.8,0.2,1.2,0.7,1.7c0.5,0.5,1.1,0.6,2,0.6c0.9,0,1.5-0.2,2-0.6c0.5-0.4,0.7-0.9,0.7-1.7v-0.9
		h-1.1v0.9C809.2,102,808.8,102.4,807.7,102.4L807.7,102.4z M812.1,92.7v0.9h2.1v9.5h1.1v-9.5h2.1v-0.9H812.1L812.1,92.7z
		 M820.9,102.2v-8.5h0.9v-0.9H819v0.9h0.9v8.5H819v0.9h2.7v-0.9H820.9L820.9,102.2z M829.1,93.1c-0.5-0.4-1.1-0.6-2.1-0.6
		c-0.9,0-1.6,0.2-2.1,0.6c-0.5,0.4-0.7,0.9-0.7,1.7v6.4c0,0.8,0.2,1.2,0.7,1.7s1.1,0.6,2.1,0.6c0.9,0,1.6-0.2,2.1-0.6
		c0.5-0.4,0.7-0.9,0.7-1.7v-6.4C829.7,94,829.4,93.4,829.1,93.1L829.1,93.1z M827,102.4c-1,0-1.6-0.5-1.6-1.3v-6.4
		c0-0.9,0.6-1.3,1.6-1.3c1,0,1.6,0.5,1.6,1.3v6.4C828.6,102,828,102.4,827,102.4L827,102.4z M833.8,95l3.5,8.1h1.1V92.6h-1.1v8.1
		l-3.5-8.1h-1.1v10.5h1.1V95L833.8,95z"/>
	<path d="M602.4,99.9h1.3c0.9,0,1.5-0.2,1.9-0.6c0.5-0.4,0.7-0.9,0.7-1.7v-2.7c0-0.7-0.2-1.2-0.7-1.7c-0.5-0.4-1-0.6-1.9-0.6h-2.5
		v10.5h1.1V99.9L602.4,99.9z M603.7,98.9h-1.3v-5.3h1.3c0.5,0,0.9,0.1,1,0.4c0.3,0.2,0.4,0.6,0.4,0.9v2.7
		C605.1,98.6,604.6,98.9,603.7,98.9L603.7,98.9L603.7,98.9z M613.5,102.2h-3.6v-3.9h2.8v-0.9h-2.8v-3.7h3.5v-0.9h-4.6v10.5h4.7
		L613.5,102.2L613.5,102.2z M617.1,99.4h1.3l1.9,3.7h1.2l-2-3.9c0.9-0.3,1.4-1,1.4-2.1v-2.3c0-0.7-0.2-1.2-0.7-1.7
		c-0.5-0.4-1-0.6-1.9-0.6h-2.5v10.5h1.1L617.1,99.4L617.1,99.4z M618.4,98.5h-1.3v-4.8h1.3c0.5,0,0.9,0.1,1,0.4
		c0.3,0.2,0.4,0.6,0.4,0.9v2.3C619.8,98.1,619.3,98.5,618.4,98.5L618.4,98.5L618.4,98.5z M624.9,94.5l1.9,7h1l1.9-7v8.6h1.1V92.6
		h-1.7l-1.9,6.9l-1.8-6.9h-1.7v10.5h1.1L624.9,94.5L624.9,94.5z M635.5,102.2v-8.5h0.8v-0.9h-2.7v0.9h0.8v8.5h-0.8v0.9h2.7v-0.9
		H635.5L635.5,102.2z M637.9,92.7v0.9h2.1v9.5h1.1v-9.5h2.1v-0.9H637.9L637.9,92.7z M650.3,100c-0.1-0.3-0.4-0.7-0.7-0.9l-2.8-2.7
		c-0.3-0.2-0.4-0.5-0.5-0.7c-0.1-0.2-0.1-0.5-0.1-0.9c0-0.4,0.1-0.7,0.4-0.9c0.3-0.2,0.7-0.3,1.1-0.3s0.9,0.1,1.1,0.3
		c0.3,0.2,0.4,0.5,0.4,0.9v1.4h1.1V95c0-1.5-0.9-2.3-2.6-2.3c-0.9,0-1.6,0.2-2,0.6c-0.5,0.4-0.7,0.9-0.7,1.7c0,0.5,0.1,0.9,0.2,1.2
		c0.1,0.3,0.4,0.7,0.7,0.9l2.8,2.7c0.3,0.3,0.4,0.5,0.5,0.7s0.1,0.5,0.1,0.9c0,0.4-0.1,0.7-0.4,0.9s-0.7,0.3-1.2,0.3
		c-0.6,0-0.9-0.1-1.2-0.3c-0.3-0.2-0.4-0.5-0.4-0.9v-1.4h-1.1v1.3c0,1.5,0.9,2.3,2.7,2.3s2.7-0.8,2.7-2.3
		C650.5,100.6,650.4,100.3,650.3,100L650.3,100z"/>
	<path d="M496.4,92.4c-0.1-0.3-0.4-0.7-0.7-0.9l-2.8-2.7c-0.3-0.2-0.4-0.5-0.5-0.7c-0.1-0.2-0.1-0.5-0.1-0.9s0.1-0.7,0.4-0.9
		c0.3-0.2,0.7-0.3,1.1-0.3c0.5,0,0.9,0.1,1.1,0.3c0.3,0.2,0.4,0.5,0.4,0.9v1.2h1.1v-1.3c0-1.5-0.9-2.3-2.6-2.3c-0.9,0-1.6,0.2-2,0.6
		c-0.5,0.4-0.7,0.9-0.7,1.7c0,0.5,0.1,0.9,0.2,1.2c0.1,0.3,0.4,0.7,0.7,0.9l2.8,2.7c0.3,0.3,0.4,0.5,0.5,0.7
		c0.1,0.2,0.1,0.5,0.1,0.9s-0.1,0.7-0.4,0.9s-0.7,0.3-1.2,0.3c-0.6,0-0.9-0.1-1.2-0.3c-0.3-0.2-0.4-0.5-0.4-0.9v-1.4h-1.1v1.3
		c0,1.5,0.9,2.3,2.7,2.3c1.8,0,2.7-0.8,2.7-2.3C496.5,93.1,496.5,92.7,496.4,92.4L496.4,92.4z M504.1,94.6h-3.6v-3.9h2.8v-0.9h-2.8
		V86h3.5v-0.9h-4.6v10.5h4.7L504.1,94.6L504.1,94.6z M510.7,95.5v-0.9h-2.9v-9.5h-1.1v10.5L510.7,95.5L510.7,95.5z M517.3,94.6h-3.6
		v-3.9h2.8v-0.9h-2.8V86h3.5v-0.9h-4.6v10.5h4.7L517.3,94.6L517.3,94.6z M522.1,94.9c-1,0-1.5-0.5-1.5-1.3v-6.4
		c0-0.9,0.5-1.3,1.5-1.3c1,0,1.5,0.5,1.5,1.3v1.5h1.1v-1.5c0-0.8-0.2-1.2-0.7-1.7c-0.5-0.4-1.1-0.6-2-0.6c-0.9,0-1.5,0.2-2,0.6
		c-0.5,0.4-0.7,0.9-0.7,1.7v6.4c0,0.8,0.2,1.2,0.7,1.7c0.5,0.5,1.1,0.6,2,0.6c0.9,0,1.5-0.2,2-0.6c0.5-0.4,0.7-0.9,0.7-1.7v-0.9
		h-1.1v0.9C523.7,94.4,523.2,94.9,522.1,94.9L522.1,94.9z M526.5,85.1V86h2.1v9.5h1.1V86h2.1v-0.9H526.5L526.5,85.1z"/>
	<path d="M476.5,111c-1,0-1.5-0.5-1.5-1.3v-6.4c0-0.9,0.5-1.3,1.5-1.3s1.5,0.5,1.5,1.3v1.5h1.1v-1.5c0-0.8-0.2-1.2-0.7-1.7
		c-0.5-0.4-1.1-0.6-2-0.6s-1.5,0.2-2,0.6c-0.5,0.4-0.7,0.9-0.7,1.7v6.4c0,0.8,0.2,1.2,0.7,1.7c0.5,0.4,1.1,0.6,2,0.6s1.5-0.2,2-0.6
		c0.5-0.4,0.7-0.9,0.7-1.7v-0.9h-1.1v0.9C478.1,110.5,477.5,111,476.5,111L476.5,111z M486.5,101.6c-0.5-0.4-1.1-0.6-2.1-0.6
		s-1.6,0.2-2.1,0.6c-0.5,0.4-0.7,0.9-0.7,1.7v6.4c0,0.8,0.2,1.2,0.7,1.7c0.5,0.4,1.1,0.6,2.1,0.6s1.6-0.2,2.1-0.6
		c0.5-0.4,0.7-0.9,0.7-1.7v-6.4C487.3,102.5,487,102,486.5,101.6L486.5,101.6z M484.5,111c-1,0-1.6-0.5-1.6-1.3v-6.4
		c0-0.9,0.6-1.3,1.6-1.3s1.6,0.5,1.6,1.3v6.4C486.1,110.5,485.5,111,484.5,111L484.5,111z M491.3,103.6l3.5,8.1h1.1v-10.5h-1.1v8.1
		l-3.5-8.1h-1.1v10.5h1.1V103.6L491.3,103.6z M498.1,101.2v0.9h2.1v9.5h1.1v-9.5h2.1v-0.9H498.1L498.1,101.2z M506.6,107.9h1.3
		l1.9,3.7h1.2l-2-3.9c0.9-0.3,1.4-1,1.4-2.1v-2.3c0-0.7-0.2-1.2-0.7-1.7c-0.5-0.4-1-0.6-1.9-0.6h-2.5v10.5h1.1L506.6,107.9
		L506.6,107.9z M507.9,107h-1.3v-4.8h1.3c0.5,0,0.9,0.1,1,0.4c0.3,0.2,0.4,0.6,0.4,0.9v2.3C509.3,106.6,508.9,107,507.9,107
		L507.9,107L507.9,107z M512.3,111.6h1.1l0.6-2.5h3l0.6,2.5h1.1l-2.4-10.5h-1.7L512.3,111.6L512.3,111.6z M516.8,108.3h-2.7l1.3-5.9
		L516.8,108.3L516.8,108.3z M523.4,111c-1,0-1.5-0.5-1.5-1.3v-6.4c0-0.9,0.5-1.3,1.5-1.3c1,0,1.5,0.5,1.5,1.3v1.5h1.1v-1.5
		c0-0.8-0.2-1.2-0.7-1.7c-0.5-0.4-1.1-0.6-2-0.6c-0.9,0-1.5,0.2-2,0.6c-0.5,0.4-0.7,0.9-0.7,1.7v6.4c0,0.8,0.2,1.2,0.7,1.7
		c0.5,0.5,1.1,0.6,2,0.6c0.9,0,1.5-0.2,2-0.6c0.5-0.4,0.7-0.9,0.7-1.7v-0.9h-1.1v0.9C525,110.5,524.4,111,523.4,111L523.4,111z
		 M527.7,101.2v0.9h2.1v9.5h1.1v-9.5h2.1v-0.9H527.7L527.7,101.2z M539.8,101.6c-0.5-0.4-1.1-0.6-2.1-0.6c-0.9,0-1.6,0.2-2.1,0.6
		c-0.5,0.4-0.7,0.9-0.7,1.7v6.4c0,0.8,0.2,1.2,0.7,1.7c0.5,0.4,1.1,0.6,2.1,0.6c0.9,0,1.6-0.2,2.1-0.6c0.5-0.4,0.7-0.9,0.7-1.7v-6.4
		C540.4,102.5,540.2,102,539.8,101.6L539.8,101.6z M537.7,111c-1,0-1.6-0.5-1.6-1.3v-6.4c0-0.9,0.6-1.3,1.6-1.3c1,0,1.6,0.5,1.6,1.3
		v6.4C539.3,110.5,538.7,111,537.7,111L537.7,111z M544.5,107.9h1.3l1.9,3.7h1.2l-2-3.9c0.9-0.3,1.4-1,1.4-2.1v-2.3
		c0-0.7-0.2-1.2-0.7-1.7c-0.5-0.4-1-0.6-1.9-0.6h-2.5v10.5h1.1L544.5,107.9L544.5,107.9z M545.8,107h-1.3v-4.8h1.3
		c0.5,0,0.9,0.1,1,0.4c0.3,0.2,0.4,0.6,0.4,0.9v2.3C547.3,106.6,546.8,107,545.8,107L545.8,107L545.8,107z"/>
	<path d="M382.8,90.7h2.7v-0.9h-2.7V86h3.3v-0.9h-4.5v10.5h1.1V90.7L382.8,90.7z M389.8,94.6V86h0.9v-0.9h-2.7V86h0.9v8.5h-0.9v0.9
		h2.7v-0.9H389.8L389.8,94.6z M394.5,87.5l3.5,8.1h1.1V85.1H398v8.1l-3.5-8.1h-1.1v10.5h1.1V87.5L394.5,87.5z M401.4,95.5h1.1
		l0.6-2.5h3l0.6,2.5h1.1L405.4,85h-1.7L401.4,95.5L401.4,95.5z M405.9,92.2h-2.7l1.3-5.9L405.9,92.2L405.9,92.2z M414.2,95.5v-0.9
		h-2.9v-9.5h-1.1v10.5L414.2,95.5L414.2,95.5z"/>
	<path d="M371.2,111.1c0.5-0.4,0.7-0.9,0.7-1.7v-6c0-0.7-0.2-1.2-0.7-1.7c-0.5-0.4-1-0.6-1.9-0.6h-2.6v10.5h2.6
		C370.1,111.6,370.7,111.4,371.2,111.1L371.2,111.1z M370.3,110.3c-0.3,0.3-0.6,0.4-1,0.4h-1.4v-8.5h1.4c0.5,0,0.8,0.1,1,0.4
		c0.3,0.3,0.4,0.6,0.4,0.9v6C370.7,109.7,370.5,110.1,370.3,110.3L370.3,110.3z M375.9,107.9h1.3l1.9,3.7h1.2l-2-3.9
		c0.9-0.3,1.4-1,1.4-2.1v-2.3c0-0.7-0.2-1.2-0.7-1.7c-0.5-0.4-1-0.6-1.9-0.6h-2.5v10.5h1.1L375.9,107.9L375.9,107.9z M377.3,107
		h-1.3v-4.8h1.3c0.5,0,0.9,0.1,1,0.4c0.3,0.2,0.4,0.6,0.4,0.9v2.3C378.7,106.6,378.2,107,377.3,107L377.3,107L377.3,107z
		 M381.6,111.6h1.1l0.6-2.5h3l0.6,2.5h1.1l-2.4-10.5H384L381.6,111.6L381.6,111.6z M386.2,108.3h-2.7l1.3-5.9L386.2,108.3
		L386.2,108.3z"/>
	<path d="M393.9,103.3l1.6,8.3h1.6l1.5-10.5h-1.1l-1.3,8.8l-1.7-8.8h-1.2l-1.7,8.8l-1.3-8.8H389l1.5,10.5h1.6L393.9,103.3
		L393.9,103.3z M402.5,110.7v-8.5h0.9v-0.9h-2.7v0.9h0.9v8.5h-0.9v0.9h2.7v-0.9H402.5L402.5,110.7z M407.1,103.6l3.5,8.1h1.1v-10.5
		h-1.1v8.1l-3.5-8.1H406v10.5h1.1V103.6L407.1,103.6z M419,107.4v2c0,0.4-0.2,0.7-0.6,1c-0.4,0.4-0.9,0.6-1.2,0.6
		c-0.5,0-0.8-0.1-0.9-0.4c-0.2-0.2-0.3-0.6-0.3-0.9v-6.4c0-0.9,0.5-1.3,1.5-1.3s1.5,0.5,1.5,1.3v0.9h1.1v-0.9c0-0.8-0.2-1.2-0.7-1.7
		c-0.5-0.4-1.1-0.6-2-0.6s-1.5,0.2-2,0.6c-0.5,0.4-0.7,0.9-0.7,1.7v6.4c0,1.5,0.8,2.3,2.4,2.3c0.5,0,0.9-0.1,1.2-0.4
		c0.4-0.3,0.7-0.6,0.9-0.9l0.4,1h0.5v-5.3h-2.9v0.9L419,107.4L419,107.4z M428,108.5c-0.1-0.3-0.4-0.7-0.7-0.9l-2.8-2.7
		c-0.3-0.2-0.4-0.5-0.5-0.7s-0.1-0.5-0.1-0.9c0-0.4,0.1-0.7,0.4-0.9c0.3-0.2,0.7-0.3,1.1-0.3c0.5,0,0.9,0.1,1.1,0.3
		c0.3,0.2,0.4,0.5,0.4,0.9v1.4h1.1v-1.3c0-1.5-0.9-2.3-2.6-2.3c-0.9,0-1.6,0.2-2,0.6c-0.5,0.4-0.7,0.9-0.7,1.7
		c0,0.5,0.1,0.9,0.2,1.2c0.1,0.3,0.4,0.7,0.7,0.9l2.8,2.7c0.3,0.3,0.4,0.5,0.5,0.7s0.1,0.5,0.1,0.9c0,0.4-0.1,0.7-0.4,0.9
		s-0.7,0.3-1.2,0.3c-0.6,0-0.9-0.1-1.2-0.3c-0.3-0.2-0.4-0.5-0.4-0.9v-1.4h-1.1v1.3c0,1.5,0.9,2.3,2.7,2.3c1.8,0,2.7-0.8,2.7-2.3
		C428.2,109.2,428.1,108.8,428,108.5L428,108.5z"/>
	<path d="M249.6,94.5c-1,0-1.5-0.5-1.5-1.3v-6.4c0-0.9,0.5-1.3,1.5-1.3c1,0,1.5,0.5,1.5,1.3v1.5h1.1v-1.5c0-0.8-0.2-1.2-0.7-1.7
		c-0.5-0.4-1.1-0.6-2-0.6s-1.5,0.2-2,0.6c-0.5,0.4-0.7,0.9-0.7,1.7v6.4c0,0.8,0.2,1.2,0.7,1.7s1.1,0.6,2,0.6s1.5-0.2,2-0.6
		c0.5-0.4,0.7-0.9,0.7-1.7v-0.9h-1.1v0.9C251.1,94,250.5,94.5,249.6,94.5L249.6,94.5z M259.5,85c-0.5-0.4-1.1-0.6-2.1-0.6
		s-1.6,0.2-2.1,0.6c-0.5,0.4-0.7,0.9-0.7,1.7v6.4c0,0.8,0.2,1.2,0.7,1.7s1.1,0.6,2.1,0.6s1.6-0.2,2.1-0.6c0.5-0.4,0.7-0.9,0.7-1.7
		v-6.4C260.3,85.9,260,85.4,259.5,85L259.5,85z M257.5,94.5c-1,0-1.6-0.5-1.6-1.3v-6.4c0-0.9,0.6-1.3,1.6-1.3s1.6,0.5,1.6,1.3v6.4
		C259.1,94,258.6,94.5,257.5,94.5L257.5,94.5z M264.3,87.1l3.5,8.1h1.1V84.7h-1.1v8.1l-3.5-8.1h-1.1v10.4h1.1V87.1L264.3,87.1z
		 M274.6,94.5c-1,0-1.5-0.5-1.5-1.3v-6.4c0-0.9,0.5-1.3,1.5-1.3s1.5,0.5,1.5,1.3v1.5h1.1v-1.5c0-0.8-0.2-1.2-0.7-1.7
		c-0.5-0.4-1.1-0.6-2-0.6s-1.5,0.2-2,0.6c-0.5,0.4-0.7,0.9-0.7,1.7v6.4c0,0.8,0.2,1.2,0.7,1.7c0.5,0.4,1.1,0.6,2,0.6s1.5-0.2,2-0.6
		c0.5-0.4,0.7-0.9,0.7-1.7v-0.9h-1.1v0.9C276.2,94,275.6,94.5,274.6,94.5L274.6,94.5z M284.8,94.2h-3.6v-3.9h2.8v-0.9h-2.8v-3.7h3.5
		v-0.9h-4.6v10.4h4.7L284.8,94.2L284.8,94.2z M288.2,91.9h1.3c0.9,0,1.5-0.2,1.9-0.6c0.5-0.4,0.7-0.9,0.7-1.7v-2.7
		c0-0.7-0.2-1.2-0.7-1.7c-0.5-0.4-1-0.6-1.9-0.6h-2.5v10.5h1.1V91.9L288.2,91.9z M289.6,91h-1.3v-5.3h1.3c0.5,0,0.9,0.1,1,0.4
		c0.3,0.2,0.4,0.6,0.4,0.9v2.7C291,90.5,290.5,91,289.6,91L289.6,91L289.6,91z M293.5,84.7v0.9h2.1v9.5h1.1v-9.5h2.1v-0.9H293.5
		L293.5,84.7z M303.6,94.5c-1,0-1.6-0.5-1.6-1.3v-8.4h-1.1v8.4c0,0.8,0.2,1.2,0.7,1.7c0.5,0.5,1.1,0.6,2.1,0.6s1.6-0.2,2.1-0.6
		c0.5-0.4,0.7-0.9,0.7-1.7v-8.4h-1.1v8.4C305.2,94,304.6,94.5,303.6,94.5L303.6,94.5z M308.4,95.1h1.1l0.6-2.5h3l0.6,2.5h1.1
		l-2.4-10.5h-1.7L308.4,95.1L308.4,95.1z M312.9,91.7h-2.7l1.3-5.9L312.9,91.7L312.9,91.7z M321.1,95.1v-0.9h-2.9v-9.5h-1.1v10.4
		H321.1L321.1,95.1z"/>
	<path d="M257.4,110.7c0.5-0.4,0.7-0.9,0.7-1.7v-6c0-0.7-0.2-1.2-0.7-1.7c-0.5-0.4-1-0.6-1.9-0.6H253v10.4h2.6
		C256.3,111.3,256.9,111.1,257.4,110.7L257.4,110.7z M256.6,109.9c-0.3,0.3-0.6,0.4-1,0.4h-1.4v-8.5h1.4c0.5,0,0.8,0.1,1,0.4
		c0.3,0.3,0.4,0.6,0.4,0.9v6C256.9,109.4,256.8,109.6,256.6,109.9L256.6,109.9z M262.2,107.6h1.3l1.9,3.7h1.2l-2-3.9
		c0.9-0.3,1.4-1,1.4-2.1V103c0-0.7-0.2-1.2-0.7-1.7c-0.5-0.4-1-0.6-1.9-0.6H261v10.4h1.1L262.2,107.6L262.2,107.6z M263.5,106.6
		h-1.3v-4.8h1.3c0.5,0,0.9,0.1,1,0.4s0.4,0.6,0.4,0.9v2.3C264.9,106.1,264.4,106.6,263.5,106.6L263.5,106.6L263.5,106.6z
		 M267.9,111.3h1.1l0.6-2.4h3l0.6,2.4h1.1l-2.4-10.4h-1.7L267.9,111.3L267.9,111.3z M272.4,107.8h-2.7l1.3-5.9L272.4,107.8
		L272.4,107.8z"/>
	<path d="M280.1,102.9l1.6,8.3h1.6l1.5-10.4h-1.1l-1.3,8.8l-1.7-8.8h-1.2l-1.7,8.8l-1.3-8.8h-1.1l1.5,10.4h1.6L280.1,102.9
		L280.1,102.9z M288.7,110.3v-8.5h0.9v-0.9h-2.7v0.9h0.9v8.5h-0.9v0.9h2.7v-0.9H288.7L288.7,110.3z M293.4,103.2l3.5,8.1h1.1v-10.4
		h-1.1v8.1l-3.5-8.1h-1.1v10.4h1.1V103.2L293.4,103.2z M305.2,106.9v2c0,0.4-0.2,0.7-0.6,1c-0.4,0.4-0.9,0.6-1.2,0.6
		c-0.5,0-0.8-0.1-0.9-0.4c-0.2-0.2-0.3-0.6-0.3-0.9v-6.4c0-0.9,0.5-1.3,1.5-1.3c1,0,1.5,0.5,1.5,1.3v0.9h1.1v-0.9
		c0-0.8-0.2-1.2-0.7-1.7c-0.5-0.4-1.1-0.6-2-0.6s-1.5,0.2-2,0.6c-0.5,0.4-0.7,0.9-0.7,1.7v6.4c0,1.5,0.8,2.3,2.4,2.3
		c0.5,0,0.9-0.1,1.2-0.4c0.4-0.2,0.7-0.6,0.9-0.9l0.4,1h0.5v-5.3h-2.9v0.9L305.2,106.9L305.2,106.9z M314.2,108
		c-0.1-0.3-0.4-0.7-0.7-0.9l-2.8-2.7c-0.3-0.2-0.4-0.5-0.5-0.7s-0.1-0.5-0.1-0.9c0-0.4,0.1-0.7,0.4-0.9c0.3-0.2,0.7-0.3,1.1-0.3
		c0.5,0,0.9,0.1,1.1,0.3c0.3,0.2,0.4,0.5,0.4,0.9v1.4h1.1V103c0-1.5-0.9-2.3-2.6-2.3c-0.9,0-1.6,0.2-2,0.6c-0.5,0.4-0.7,0.9-0.7,1.7
		c0,0.5,0.1,0.9,0.2,1.2c0.1,0.3,0.4,0.7,0.7,0.9l2.8,2.7c0.3,0.3,0.4,0.5,0.5,0.7c0.1,0.2,0.1,0.5,0.1,0.9c0,0.4-0.1,0.7-0.4,0.9
		c-0.3,0.2-0.7,0.3-1.2,0.3c-0.6,0-0.9-0.1-1.2-0.3c-0.3-0.2-0.4-0.5-0.4-0.9v-1.4H309v1.3c0,1.5,0.9,2.3,2.7,2.3s2.7-0.8,2.7-2.3
		C314.4,108.8,314.3,108.4,314.2,108L314.2,108z"/>
	<path d="M155,91.9c-0.1-0.3-0.4-0.7-0.7-0.9l-2.8-2.7c-0.3-0.2-0.4-0.5-0.5-0.7c-0.1-0.2-0.1-0.5-0.1-0.9c0-0.4,0.1-0.7,0.4-0.9
		c0.3-0.2,0.7-0.3,1.1-0.3s0.9,0.1,1.1,0.3c0.3,0.2,0.4,0.5,0.4,0.9v1.4h1.1v-1.3c0-1.5-0.9-2.3-2.6-2.3c-0.9,0-1.6,0.2-2,0.6
		c-0.5,0.4-0.7,0.9-0.7,1.7c0,0.5,0.1,0.9,0.2,1.2c0.1,0.3,0.4,0.7,0.7,0.9l2.8,2.7c0.3,0.3,0.4,0.5,0.5,0.7
		c0.1,0.2,0.1,0.5,0.1,0.9c0,0.4-0.1,0.7-0.4,0.9c-0.3,0.2-0.7,0.3-1.2,0.3c-0.6,0-0.9-0.1-1.2-0.3c-0.3-0.2-0.4-0.5-0.4-0.9v-1.4
		h-1.1v1.3c0,1.5,0.9,2.3,2.7,2.3c1.8,0,2.7-0.8,2.7-2.3C155.2,92.7,155.1,92.3,155,91.9L155,91.9z M162.8,94.2h-3.6v-3.9h2.8v-0.9
		h-2.8v-3.7h3.5v-0.9h-4.6v10.4h4.7L162.8,94.2L162.8,94.2z M169.3,95.1v-0.9h-2.9v-9.5h-1.1v10.4H169.3L169.3,95.1z M176,94.2h-3.6
		v-3.9h2.8v-0.9h-2.8v-3.7h3.5v-0.9h-4.6v10.4h4.7L176,94.2L176,94.2z M180.8,94.5c-1,0-1.5-0.5-1.5-1.3v-6.4c0-0.9,0.5-1.3,1.5-1.3
		c1,0,1.5,0.5,1.5,1.3v1.5h1.1v-1.5c0-0.8-0.2-1.2-0.7-1.7c-0.5-0.4-1.1-0.6-2-0.6c-0.9,0-1.5,0.2-2,0.6c-0.5,0.4-0.7,0.9-0.7,1.7
		v6.4c0,0.8,0.2,1.2,0.7,1.7c0.5,0.4,1.1,0.6,2,0.6c0.9,0,1.5-0.2,2-0.6c0.5-0.4,0.7-0.9,0.7-1.7v-0.9h-1.1v0.9
		C182.4,94,181.9,94.5,180.8,94.5L180.8,94.5z M185.2,84.7v0.9h2.1v9.5h1.1v-9.5h2.1v-0.9H185.2L185.2,84.7z"/>
	<path d="M138,111.3h1.1l0.6-2.4h3l0.6,2.4h1.1l-2.4-10.4h-1.7L138,111.3L138,111.3z M142.5,107.8h-2.7l1.3-5.9L142.5,107.8
		L142.5,107.8z M147.8,107.6h1.3l1.9,3.7h1.2l-2-3.9c0.9-0.3,1.4-1,1.4-2.1V103c0-0.7-0.2-1.2-0.7-1.7c-0.5-0.4-1-0.6-1.9-0.6h-2.5
		v10.4h1.1L147.8,107.6L147.8,107.6z M149.1,106.6h-1.3v-4.8h1.3c0.5,0,0.9,0.1,1,0.4c0.3,0.2,0.4,0.6,0.4,0.9v2.3
		C150.6,106.1,150.1,106.6,149.1,106.6L149.1,106.6L149.1,106.6z M156.9,110.6c-1,0-1.5-0.5-1.5-1.3v-6.4c0-0.9,0.5-1.3,1.5-1.3
		s1.5,0.5,1.5,1.3v1.5h1.1v-1.5c0-0.8-0.2-1.2-0.7-1.7c-0.5-0.4-1.1-0.6-2-0.6s-1.5,0.2-2,0.6s-0.7,0.9-0.7,1.7v6.4
		c0,0.8,0.2,1.2,0.7,1.7c0.5,0.4,1.1,0.6,2,0.6c0.9,0,1.5-0.2,2-0.6c0.5-0.4,0.7-0.9,0.7-1.7v-0.9h-1.1v0.9
		C158.4,110.1,158,110.6,156.9,110.6L156.9,110.6z M163.6,106.4h3.1v4.8h1.1v-10.4h-1.1v4.6h-3.1v-4.6h-1.1v10.4h1.1V106.4
		L163.6,106.4z M172.5,110.3v-8.5h0.8v-0.9h-2.7v0.9h0.8v8.5h-0.8v0.9h2.7v-0.9H172.5L172.5,110.3z M174.9,100.8v0.9h2.1v9.5h1.1
		v-9.5h2.1v-0.9H174.9L174.9,100.8z M187.1,110.3h-3.6v-3.9h2.8v-0.9h-2.8v-3.7h3.5v-0.9h-4.6v10.4h4.7L187.1,110.3L187.1,110.3z
		 M191.9,110.6c-1,0-1.5-0.5-1.5-1.3v-6.4c0-0.9,0.5-1.3,1.5-1.3s1.5,0.5,1.5,1.3v1.5h1.1v-1.5c0-0.8-0.2-1.2-0.7-1.7
		c-0.5-0.4-1.1-0.6-2-0.6c-0.9,0-1.5,0.2-2,0.6s-0.7,0.9-0.7,1.7v6.4c0,0.8,0.2,1.2,0.7,1.7s1.1,0.6,2,0.6c0.9,0,1.5-0.2,2-0.6
		c0.5-0.4,0.7-0.9,0.7-1.7v-0.9h-1.1v0.9C193.4,110.1,192.9,110.6,191.9,110.6L191.9,110.6z M196.3,100.8v0.9h2.1v9.5h1.1v-9.5h2.1
		v-0.9H196.3L196.3,100.8z"/>
	<path d="M39.3,94.5c-1,0-1.5-0.5-1.5-1.3v-6.4c0-0.9,0.5-1.3,1.5-1.3s1.5,0.5,1.5,1.3v1.5H42v-1.5c0-0.8-0.2-1.2-0.7-1.7
		c-0.5-0.4-1.1-0.6-2-0.6c-0.9,0-1.5,0.2-2,0.6c-0.5,0.4-0.7,0.9-0.7,1.7v6.4c0,0.8,0.2,1.2,0.7,1.7c0.5,0.4,1.1,0.6,2,0.6
		c0.9,0,1.5-0.2,2-0.6c0.5-0.4,0.7-0.9,0.7-1.7v-0.9h-1.1v0.9C40.9,94,40.3,94.5,39.3,94.5L39.3,94.5z M48.8,95.1v-0.9h-2.9v-9.5
		h-1.1v10.4H48.8L48.8,95.1z M52.2,94.2v-8.5h0.9v-0.9h-2.7v0.9h0.9v8.5h-0.9v0.9h2.7v-0.9H52.2L52.2,94.2z M60.6,94.2H57v-3.9h2.8
		v-0.9H57v-3.7h3.5v-0.9h-4.6v10.4h4.7L60.6,94.2L60.6,94.2z M64.1,87.1l3.5,8.1h1.1V84.7h-1.1v8.1l-3.5-8.1H63v10.4h1.1V87.1
		L64.1,87.1z M70.8,84.7v0.9h2.1v9.5h1.1v-9.5h2.1v-0.9H70.8L70.8,84.7z"/>
	<path d="M28,108h1.3c0.9,0,1.5-0.2,1.9-0.6c0.5-0.4,0.7-0.9,0.7-1.7V103c0-0.7-0.2-1.2-0.7-1.7c-0.5-0.4-1-0.6-1.9-0.6h-2.5v10.4
		H28L28,108L28,108z M29.3,107.1H28v-5.3h1.3c0.5,0,0.9,0.1,1,0.4s0.4,0.6,0.4,0.9v2.7C30.7,106.6,30.2,107.1,29.3,107.1L29.3,107.1
		L29.3,107.1z M38.5,111.3v-0.9h-2.9v-9.5h-1.1v10.4H38.5L38.5,111.3z M39.4,111.3h1.1l0.6-2.4h3l0.6,2.4h1.1l-2.4-10.4h-1.7
		L39.4,111.3L39.4,111.3z M44,107.8h-2.7l1.3-5.9L44,107.8L44,107.8z M49.3,103.2l3.5,8.1h1.1v-10.4h-1.1v8.1l-3.5-8.1h-1.1v10.4
		h1.1V103.2L49.3,103.2z M58.2,103.2l3.5,8.1h1.1v-10.4h-1.1v8.1l-3.5-8.1h-1.1v10.4h1.1V103.2L58.2,103.2z M67.5,110.3v-8.5h0.9
		v-0.9h-2.7v0.9h0.8v8.5h-0.8v0.9h2.7v-0.9H67.5L67.5,110.3z M72.2,103.2l3.5,8.1h1.1v-10.4h-1.1v8.1l-3.5-8.1h-1.1v10.4h1.1V103.2
		L72.2,103.2z M84,106.9v2c0,0.4-0.2,0.7-0.6,1c-0.4,0.4-0.9,0.6-1.2,0.6c-0.5,0-0.8-0.1-0.9-0.4c-0.2-0.2-0.3-0.6-0.3-0.9v-6.4
		c0-0.9,0.5-1.3,1.5-1.3c1,0,1.5,0.5,1.5,1.3v0.9h1.1v-0.9c0-0.8-0.2-1.2-0.7-1.7c-0.5-0.4-1.1-0.6-2-0.6c-0.9,0-1.5,0.2-2,0.6
		c-0.5,0.4-0.7,0.9-0.7,1.7v6.4c0,1.5,0.8,2.3,2.4,2.3c0.5,0,0.9-0.1,1.2-0.4c0.4-0.2,0.7-0.6,0.9-0.9l0.4,1h0.5v-5.3h-2.9v0.9
		L84,106.9L84,106.9z"/>
	<path class="st15" d="M528.2,173.7c-0.8,0-1.1-0.3-1.1-0.9v-4.9c0-0.7,0.4-0.9,1.1-0.9c0.8,0,1.1,0.3,1.1,0.9v1.1h0.9v-1.1
		c0-0.6-0.2-0.9-0.5-1.2c-0.4-0.3-0.9-0.5-1.5-0.5c-0.7,0-1.1,0.2-1.5,0.5c-0.4,0.3-0.5,0.8-0.5,1.2v4.9c0,0.6,0.2,0.9,0.5,1.2
		c0.4,0.3,0.9,0.5,1.5,0.5c0.7,0,1.1-0.2,1.5-0.5c0.4-0.3,0.5-0.8,0.5-1.2v-0.7h-0.9v0.7C529.4,173.4,529,173.7,528.2,173.7
		L528.2,173.7z M535.9,166.5c-0.4-0.3-0.9-0.5-1.6-0.5s-1.2,0.2-1.6,0.5c-0.4,0.3-0.6,0.8-0.6,1.2v4.9c0,0.6,0.2,0.9,0.6,1.2
		c0.4,0.3,0.9,0.5,1.6,0.5c0.7,0,1.2-0.2,1.6-0.5c0.4-0.3,0.6-0.8,0.6-1.2v-4.9C536.4,167.2,536.2,166.8,535.9,166.5L535.9,166.5z
		 M534.3,173.7c-0.9,0-1.2-0.3-1.2-0.9v-4.9c0-0.7,0.4-0.9,1.2-0.9c0.9,0,1.2,0.3,1.2,0.9v4.9C535.5,173.4,535.1,173.7,534.3,173.7
		L534.3,173.7z M542.4,171.8c-0.1-0.3-0.3-0.5-0.5-0.8l-2.2-2.1c-0.2-0.2-0.3-0.4-0.4-0.5s-0.1-0.4-0.1-0.7c0-0.3,0.1-0.5,0.3-0.7
		c0.2-0.2,0.5-0.3,0.9-0.3c0.4,0,0.7,0.1,0.9,0.3c0.2,0.2,0.3,0.4,0.3,0.7v1.1h0.9v-1c0-1.1-0.7-1.7-2-1.7c-0.7,0-1.2,0.2-1.5,0.5
		c-0.4,0.3-0.5,0.8-0.5,1.2c0,0.4,0,0.7,0.1,0.9c0.1,0.3,0.3,0.5,0.6,0.8l2.2,2.1c0.2,0.2,0.3,0.4,0.4,0.6s0.1,0.4,0.1,0.7
		c0,0.3-0.1,0.5-0.3,0.7c-0.2,0.2-0.5,0.3-0.9,0.3c-0.4,0-0.7-0.1-0.9-0.3c-0.2-0.2-0.3-0.4-0.3-0.7v-1.1h-0.9v1
		c0,1.1,0.7,1.7,2.1,1.7c1.4,0,2.1-0.6,2.1-1.7C542.6,172.3,542.5,172,542.4,171.8L542.4,171.8z M544,166.3v0.8h1.6v7.3h0.9V167h1.6
		v-0.8H544L544,166.3z M556.1,173.6h-2.7v-2.9h2.2v-0.8h-2.2V167h2.7v-0.8h-3.5v8h3.6L556.1,173.6L556.1,173.6z M561.7,171.8
		c-0.1-0.3-0.3-0.5-0.5-0.8L559,169c-0.2-0.2-0.3-0.4-0.4-0.5s-0.1-0.4-0.1-0.7c0-0.3,0.1-0.5,0.3-0.7c0.2-0.2,0.5-0.3,0.9-0.3
		s0.7,0.1,0.9,0.3c0.2,0.2,0.3,0.4,0.3,0.7v1.1h0.9v-1c0-1.1-0.7-1.7-2-1.7c-0.7,0-1.2,0.2-1.5,0.5c-0.4,0.3-0.5,0.8-0.5,1.2
		c0,0.4,0,0.7,0.1,0.9c0.1,0.3,0.3,0.5,0.6,0.8l2.2,2.1c0.2,0.2,0.3,0.4,0.4,0.6s0.1,0.4,0.1,0.7c0,0.3-0.1,0.5-0.3,0.7
		c-0.2,0.2-0.5,0.3-0.9,0.3c-0.4,0-0.7-0.1-0.9-0.3c-0.2-0.2-0.3-0.4-0.3-0.7v-1.1h-0.9v1c0,1.1,0.7,1.7,2.1,1.7s2.1-0.6,2.1-1.7
		C561.9,172.3,561.8,172,561.7,171.8L561.7,171.8z M563.2,166.3v0.8h1.6v7.3h0.9V167h1.6v-0.8H563.2L563.2,166.3z M568.1,174.2h0.9
		l0.4-1.8h2.4l0.4,1.8h0.9l-1.8-8h-1.3L568.1,174.2L568.1,174.2z M571.6,171.7h-2l1-4.5L571.6,171.7L571.6,171.7z M574.8,174.2h2
		c0.7,0,1.1-0.2,1.4-0.5c0.3-0.3,0.5-0.8,0.5-1.2v-1.1c0-0.8-0.4-1.2-1-1.3c0.6-0.2,0.9-0.7,0.9-1.3V168c0-0.6-0.2-0.9-0.5-1.2
		c-0.4-0.3-0.9-0.5-1.4-0.5h-1.9L574.8,174.2L574.8,174.2z M577.6,173.3c-0.2,0.2-0.5,0.3-0.9,0.3h-1.1v-3.1h1.1
		c0.4,0,0.6,0.1,0.8,0.3c0.2,0.2,0.3,0.5,0.3,0.8v1.1C577.9,172.8,577.8,173.1,577.6,173.3L577.6,173.3z M577.4,169.5
		c-0.2,0.2-0.5,0.3-0.9,0.3h-1V167h1c0.4,0,0.6,0.1,0.9,0.3c0.3,0.2,0.3,0.5,0.3,0.7v0.8C577.7,169,577.6,169.2,577.4,169.5
		L577.4,169.5z M584.2,174.2v-0.8h-2.3v-7.2H581v8H584.2L584.2,174.2z M586.7,173.6V167h0.6v-0.8h-2.1v0.8h0.7v6.5h-0.7v0.8h2.1
		v-0.8H586.7L586.7,173.6z M593.3,171.8c-0.1-0.3-0.3-0.5-0.5-0.8l-2.2-2.1c-0.2-0.2-0.3-0.4-0.4-0.5s-0.1-0.4-0.1-0.7
		c0-0.3,0.1-0.5,0.3-0.7c0.2-0.2,0.5-0.3,0.9-0.3s0.7,0.1,0.9,0.3c0.2,0.2,0.3,0.4,0.3,0.7v1.1h0.9v-1c0-1.1-0.7-1.7-2-1.7
		c-0.7,0-1.2,0.2-1.5,0.5c-0.4,0.3-0.5,0.8-0.5,1.2c0,0.4,0,0.7,0.1,0.9c0.1,0.3,0.3,0.5,0.6,0.8l2.2,2.1c0.2,0.2,0.3,0.4,0.4,0.6
		s0.1,0.4,0.1,0.7c0,0.3-0.1,0.5-0.3,0.7c-0.2,0.2-0.5,0.3-0.9,0.3c-0.4,0-0.7-0.1-0.9-0.3c-0.2-0.2-0.3-0.4-0.3-0.7v-1.1h-0.9v1
		c0,1.1,0.7,1.7,2.1,1.7s2.1-0.6,2.1-1.7C593.4,172.3,593.3,172,593.3,171.8L593.3,171.8z M596.4,170.5h2.5v3.7h0.9v-8h-0.9v3.6
		h-2.5v-3.6h-0.9v8h0.9V170.5L596.4,170.5z M605.9,173.6h-2.7v-2.9h2.2v-0.8h-2.2V167h2.7v-0.8h-3.5v8h3.6L605.9,173.6L605.9,173.6z
		 M611.1,173.8c0.3-0.3,0.5-0.8,0.5-1.2v-4.6c0-0.6-0.2-0.9-0.5-1.2c-0.4-0.3-0.9-0.5-1.4-0.5h-2v8h2
		C610.3,174.2,610.8,174.1,611.1,173.8L611.1,173.8z M610.4,173.3c-0.2,0.2-0.5,0.3-0.9,0.3h-1.1V167h1.1c0.4,0,0.6,0.1,0.9,0.3
		c0.3,0.2,0.3,0.5,0.3,0.7v4.6C610.8,172.8,610.7,173.1,610.4,173.3L610.4,173.3z"/>
	<g>
		<g>
			<defs>
				<rect id="SVGID_31_" x="507.3" y="156.2" width="123.3" height="28.4"/>
			</defs>
			<clipPath id="SVGID_32_">
				<use xlink:href="#SVGID_31_"  style="overflow:visible;"/>
			</clipPath>
			<path class="st18" d="M634.3,188.4H503.5v-36h130.8V188.4z M511.1,180.9h115.7V160H511.1V180.9z"/>
		</g>
	</g>
	<rect x="567" y="135.3" class="st2" width="3.8" height="24.7"/>
	<path class="st2" d="M569.8,134.9h-1.9V61.4h1.9V134.9z M455.1,134.9h-1.9V62h1.9V134.9z M683.6,134.4h-1.9V62h1.9V134.4z
		 M341.3,134h-1.9V61h1.9V134z M227.6,134h-1.9V61h1.9V134z M113.8,134h-1.9V61h1.9V134z"/>
	<g>
		<g>
			<defs>
				<path id="SVGID_33_" d="M682.2,109.7c6.5,0,11.9-5.3,11.9-11.9c0-6.5-5.3-11.9-11.9-11.9s-11.9,5.3-11.9,11.9
					C670.3,104.4,675.7,109.7,682.2,109.7L682.2,109.7z"/>
			</defs>
			<clipPath id="SVGID_34_">
				<use xlink:href="#SVGID_33_"  style="overflow:visible;"/>
			</clipPath>
			<rect x="665.6" y="81.3" class="st19" width="33.2" height="33.2"/>
		</g>
	</g>
	<path class="st2" d="M682.2,110.7c-7,0-12.8-5.8-12.8-12.8c0-7,5.8-12.8,12.8-12.8c7,0,12.8,5.8,12.8,12.8
		C695,104.9,689.2,110.7,682.2,110.7z M682.2,87c-6,0-10.9,4.9-10.9,10.9c0,6,4.9,10.9,10.9,10.9s10.9-4.9,10.9-10.9
		C693.1,91.9,688.2,87,682.2,87z"/>
	<g>
		<g>
			<defs>
				<polyline id="SVGID_35_" points="679.8,90.8 686.6,97.4 679.8,104.1 				"/>
			</defs>
			<clipPath id="SVGID_36_">
				<use xlink:href="#SVGID_35_"  style="overflow:visible;"/>
			</clipPath>
			<polygon class="st20" points="681.1,105.5 678.5,102.8 683.8,97.4 678.5,92.1 681.1,89.5 689.2,97.4 			"/>
		</g>
	</g>
	<g>
		<g>
			<defs>
				<path id="SVGID_37_" d="M568.4,109.7c6.5,0,11.9-5.3,11.9-11.9c0-6.5-5.3-11.9-11.9-11.9s-11.9,5.3-11.9,11.9
					C556.6,104.4,561.9,109.7,568.4,109.7L568.4,109.7z"/>
			</defs>
			<clipPath id="SVGID_38_">
				<use xlink:href="#SVGID_37_"  style="overflow:visible;"/>
			</clipPath>
			<rect x="551.8" y="81.3" class="st21" width="33.2" height="33.2"/>
		</g>
	</g>
	<path class="st2" d="M568.4,110.7c-7,0-12.8-5.8-12.8-12.8c0-7,5.8-12.8,12.8-12.8c7,0,12.8,5.8,12.8,12.8
		C581.2,104.9,575.4,110.7,568.4,110.7z M568.4,87c-6,0-10.9,4.9-10.9,10.9c0,6,4.9,10.9,10.9,10.9s10.9-4.9,10.9-10.9
		C579.3,91.9,574.4,87,568.4,87z"/>
	<g>
		<g>
			<defs>
				<polyline id="SVGID_39_" points="566,90.8 572.8,97.4 566,104.1 				"/>
			</defs>
			<clipPath id="SVGID_40_">
				<use xlink:href="#SVGID_39_"  style="overflow:visible;"/>
			</clipPath>
			<polygon class="st22" points="567.4,105.5 564.7,102.8 570,97.4 564.7,92.1 567.4,89.5 575.4,97.4 			"/>
		</g>
	</g>
	<g>
		<g>
			<defs>
				<path id="SVGID_41_" d="M453.7,109.7c6.5,0,11.9-5.3,11.9-11.9c0-6.5-5.3-11.9-11.9-11.9c-6.5,0-11.9,5.3-11.9,11.9
					C441.8,104.4,447.1,109.7,453.7,109.7L453.7,109.7z"/>
			</defs>
			<clipPath id="SVGID_42_">
				<use xlink:href="#SVGID_41_"  style="overflow:visible;"/>
			</clipPath>
			<rect x="437.1" y="81.3" class="st23" width="33.2" height="33.2"/>
		</g>
	</g>
	<path class="st2" d="M453.7,110.7c-7,0-12.8-5.8-12.8-12.8c0-7,5.8-12.8,12.8-12.8s12.8,5.8,12.8,12.8
		C466.5,104.9,460.7,110.7,453.7,110.7z M453.7,87c-6,0-10.9,4.9-10.9,10.9c0,6,4.9,10.9,10.9,10.9s10.9-4.9,10.9-10.9
		C464.6,91.9,459.7,87,453.7,87z"/>
	<g>
		<g>
			<defs>
				<polyline id="SVGID_43_" points="451.3,90.8 458.1,97.4 451.3,104.1 				"/>
			</defs>
			<clipPath id="SVGID_44_">
				<use xlink:href="#SVGID_43_"  style="overflow:visible;"/>
			</clipPath>
			<polygon class="st24" points="452.6,105.5 450,102.8 455.3,97.4 450,92.1 452.6,89.5 460.7,97.4 			"/>
		</g>
	</g>
	<g>
		<g>
			<defs>
				<path id="SVGID_45_" d="M339.9,109.7c6.5,0,11.9-5.3,11.9-11.9c0-6.5-5.3-11.9-11.9-11.9c-6.5,0-11.9,5.3-11.9,11.9
					C328.1,104.4,333.4,109.7,339.9,109.7L339.9,109.7z"/>
			</defs>
			<clipPath id="SVGID_46_">
				<use xlink:href="#SVGID_45_"  style="overflow:visible;"/>
			</clipPath>
			<rect x="323.3" y="81.3" class="st25" width="33.2" height="33.2"/>
		</g>
	</g>
	<path class="st2" d="M339.9,110.7c-7,0-12.8-5.8-12.8-12.8c0-7,5.8-12.8,12.8-12.8s12.8,5.8,12.8,12.8
		C352.7,104.9,346.9,110.7,339.9,110.7z M339.9,87c-6,0-10.9,4.9-10.9,10.9c0,6,4.9,10.9,10.9,10.9s10.9-4.9,10.9-10.9
		C350.8,91.9,345.9,87,339.9,87z"/>
	<g>
		<g>
			<defs>
				<polyline id="SVGID_47_" points="337.5,90.8 344.3,97.4 337.5,104.1 				"/>
			</defs>
			<clipPath id="SVGID_48_">
				<use xlink:href="#SVGID_47_"  style="overflow:visible;"/>
			</clipPath>
			<polygon class="st26" points="338.9,105.5 336.2,102.8 341.5,97.4 336.2,92.1 338.9,89.5 346.9,97.4 			"/>
		</g>
	</g>
	<g>
		<g>
			<defs>
				<path id="SVGID_49_" d="M226.1,109.7c6.5,0,11.9-5.3,11.9-11.9c0-6.5-5.3-11.9-11.9-11.9s-11.9,5.3-11.9,11.9
					C214.3,104.4,219.6,109.7,226.1,109.7L226.1,109.7z"/>
			</defs>
			<clipPath id="SVGID_50_">
				<use xlink:href="#SVGID_49_"  style="overflow:visible;"/>
			</clipPath>
			<rect x="209.5" y="81.3" class="st27" width="33.2" height="33.2"/>
		</g>
	</g>
	<path class="st2" d="M226.1,110.7c-7,0-12.8-5.8-12.8-12.8c0-7,5.8-12.8,12.8-12.8s12.8,5.8,12.8,12.8
		C238.9,104.9,233.1,110.7,226.1,110.7z M226.1,87c-6,0-10.9,4.9-10.9,10.9c0,6,4.9,10.9,10.9,10.9c6,0,10.9-4.9,10.9-10.9
		C237,91.9,232.1,87,226.1,87z"/>
	<g>
		<g>
			<defs>
				<polyline id="SVGID_51_" points="223.8,90.8 230.5,97.4 223.8,104.1 				"/>
			</defs>
			<clipPath id="SVGID_52_">
				<use xlink:href="#SVGID_51_"  style="overflow:visible;"/>
			</clipPath>
			<polygon class="st28" points="225.1,105.5 222.4,102.8 227.7,97.4 222.4,92.1 225.1,89.5 233.1,97.4 			"/>
		</g>
	</g>
	<g>
		<g>
			<defs>
				<path id="SVGID_53_" d="M112.4,109.7c6.5,0,11.9-5.3,11.9-11.9c0-6.5-5.3-11.9-11.9-11.9s-11.9,5.3-11.9,11.9
					C100.5,104.4,105.8,109.7,112.4,109.7L112.4,109.7z"/>
			</defs>
			<clipPath id="SVGID_54_">
				<use xlink:href="#SVGID_53_"  style="overflow:visible;"/>
			</clipPath>
			<rect x="95.8" y="81.3" class="st29" width="33.2" height="33.2"/>
		</g>
	</g>
	<path class="st2" d="M112.4,110.7c-7,0-12.8-5.8-12.8-12.8c0-7,5.8-12.8,12.8-12.8s12.8,5.8,12.8,12.8
		C125.2,104.9,119.4,110.7,112.4,110.7z M112.4,87c-6,0-10.9,4.9-10.9,10.9c0,6,4.9,10.9,10.9,10.9s10.9-4.9,10.9-10.9
		C123.3,91.9,118.3,87,112.4,87z"/>
	<g>
		<g>
			<defs>
				<polyline id="SVGID_55_" points="110.1,90.8 116.7,97.5 110.1,104.2 				"/>
			</defs>
			<clipPath id="SVGID_56_">
				<use xlink:href="#SVGID_55_"  style="overflow:visible;"/>
			</clipPath>
			<polygon class="st30" points="111.4,105.6 108.8,102.9 114.1,97.5 108.8,92.2 111.4,89.5 119.5,97.5 			"/>
		</g>
	</g>
	<g>
		<path d="M360.8,8.5v4h-0.3c-0.1-3.7-3.9-3.7-4.2-3.7H355v13.6c0,1.5,0.7,1.9,1.7,1.9v0.3h-5.6v-0.3c0.9,0,1.6-0.4,1.6-1.9V8.8
			h-1.3c-0.7,0-4.1,0-4.2,3.7h-0.3v-4C346.9,8.5,360.8,8.5,360.8,8.5z"/>
		<path d="M375.8,24.4H374c-2.9,0-2.6,0-3.9-4.9c-0.7-2.4-2.9-2.4-3.5-2.4h-1v5c0,1.6,0.5,2.1,1.4,2.1v0.3h-5.1v-0.3
			c0.9,0,1.4-0.5,1.4-2.4V10.5c0-1.4-0.4-1.7-1.4-1.7V8.5h4.4c4.6,0,7,0.6,7,4.4c0,3.1-1.8,4-4.3,4.2c1.5,0.1,3,0.2,4.3,5.2
			c0.4,1.7,1.8,2,2.5,2V24.4z M366.2,8.8h-0.7v8.1h0.7c2.6,0,4.6,0,4.6-4C370.7,8.7,368.6,8.8,366.2,8.8z"/>
		<path d="M391.2,24.4H386v-0.3c1.2,0,1-1.3,0.5-2.6l-0.8-2h-5.9c-0.6,1.8-1.6,4.6,1.5,4.6v0.3h-5.1v-0.3c0.9,0,1.4-0.1,3.4-5.4
			l3.8-10.3h0.3c2.7,6.7,5.6,13.8,5.6,13.8c0.8,1.8,1.2,1.8,1.9,1.8V24.4z M385.5,19.3l-2.9-7.6l-2.7,7.6H385.5z"/>
		<path d="M397.5,24.4h-4.9v-0.3c0.9,0,1.5-0.9,1.5-2.4V11.1c0-1.4-0.6-2.4-1.5-2.4V8.5h4.9c4.6,0,9,1.4,9,8.1
			C406.6,23.4,402,24.4,397.5,24.4z M397.5,8.8h-1v15.5h1c2.5,0,6.3-0.1,6.3-7.7C403.8,9.1,400,8.8,397.5,8.8z"/>
		<path d="M414.6,8.5v0.3c-0.9,0-1.6,0.4-1.6,1.8V22c0,1.5,0.7,2.2,1.6,2.2v0.3h-5.5v-0.3c0.9,0,1.6-0.6,1.6-2.2V10.6
			c0-1.4-0.6-1.8-1.6-1.8V8.5H414.6z"/>
		<path d="M430.1,8.5v4h-0.3c-0.1-3.7-3.9-3.7-4.2-3.7h-1.3v13.6c0,1.5,0.7,1.9,1.7,1.9v0.3h-5.6v-0.3c0.9,0,1.6-0.4,1.6-1.9V8.8
			h-1.3c-0.7,0-4.1,0-4.2,3.7h-0.3v-4C416.2,8.5,430.1,8.5,430.1,8.5z"/>
		<path d="M437.3,8.5v0.3c-0.9,0-1.6,0.4-1.6,1.8V22c0,1.5,0.7,2.2,1.6,2.2v0.3h-5.5v-0.3c0.9,0,1.6-0.6,1.6-2.2V10.6
			c0-1.4-0.6-1.8-1.6-1.8V8.5H437.3z"/>
		<path d="M446.8,24.7c-5,0-7.4-3.6-7.4-8.1c0-4.6,2.4-8.3,7.4-8.3s7.4,3.8,7.4,8.3C454.2,21.1,451.7,24.7,446.8,24.7z M446.8,8.5
			c-2.7,0-4.7,1.8-4.7,8.1s2.1,7.8,4.7,7.8s4.7-1.5,4.7-7.8S449.4,8.5,446.8,8.5z"/>
		<path d="M473,8.5v0.3c-3.3,0-3.2,3.3-3.2,5.4v10.3H469L459.4,12v6.8c0,2,0,5.4,2.9,5.4v0.3h-6.5v-0.3c3.3,0,3.3-3.3,3.3-5.4v-7.1
			l-0.9-1.2c-1.4-1.8-2.1-1.7-2.7-1.7V8.5h4.2l9.9,12.7v-7c0-2.1,0-5.4-2.9-5.4V8.5H473z"/>
	</g>
	<g>
		<path d="M488.3,24.4h-5.2v-0.3c1.2,0,1-1.3,0.5-2.6l-0.8-2h-5.9c-0.6,1.8-1.6,4.6,1.5,4.6v0.3h-5.1v-0.3c0.9,0,1.4-0.1,3.4-5.4
			l3.8-10.3h0.3c2.7,6.7,5.6,13.8,5.6,13.8c0.8,1.8,1.2,1.8,1.9,1.8V24.4z M482.7,19.3l-2.9-7.6l-2.7,7.6H482.7z"/>
		<path d="M501.3,19.5v4.9h-11.4v-0.3c0.9,0,1.2-0.9,1.2-2.4V10.7c0-1.4-0.5-1.9-1.4-1.9V8.5h5.4v0.3c-0.9,0-1.7,0.4-1.7,2v13.4h0.9
			c2.5,0,6.3,0,6.7-4.6H501.3z"/>
	</g>
	<g>
		<path d="M512.9,21.4c0,2.7,0.9,2.8,2.3,2.8v0.3h-6v-0.3c1.1,0,1.5-0.6,1.5-2.7V10.9c0-1.6-0.3-2.2-1.4-2.2V8.4h4.1
			c4.6,0,7.5,0.6,7.5,4.6s-3,4.6-7.5,4.6h-0.4L512.9,21.4L512.9,21.4z M513.2,17.3c2.7,0,5-0.1,5-4.3c0-4.4-2.4-4.3-5-4.3h-0.4v8.5
			H513.2z"/>
		<path d="M535.1,24.4h-5.2v-0.3c1.2,0,1-1.3,0.5-2.6l-0.8-2h-5.9c-0.6,1.8-1.6,4.6,1.5,4.6v0.3h-5.1v-0.3c0.9,0,1.4-0.1,3.4-5.4
			l3.8-10.3h0.3c2.7,6.7,5.6,13.8,5.6,13.8c0.8,1.8,1.2,1.8,1.9,1.8V24.4z M529.5,19.3l-2.9-7.6l-2.7,7.6H529.5z"/>
	</g>
	<g>
		<path d="M548.8,8.5v4h-0.3c-0.1-3.7-3.9-3.7-4.2-3.7H543v13.6c0,1.5,0.7,1.9,1.7,1.9v0.3h-5.6v-0.3c0.9,0,1.6-0.4,1.6-1.9V8.8
			h-1.3c-0.7,0-4.1,0-4.2,3.7h-0.3v-4C534.9,8.5,548.8,8.5,548.8,8.5z"/>
		<path d="M561.6,21.4c0,1.9-0.1,2.5,1.1,2.8v0.3h-4v-0.3c0.6-0.2,0.7-0.8,0.7-2.8V17h-6.3v4.4c0,2.3,0,2.6,0.7,2.8v0.3h-4.1v-0.3
			c1.2-0.3,1.1-0.6,1.1-2.8v-9.8c0-2.1,0-2.7-1.1-2.8V8.5h4.1v0.3c-0.7,0.2-0.7,0.7-0.7,2.8v5h6.3v-5c0-2.2,0-2.7-0.7-2.8V8.5h4v0.3
			c-1,0.2-1.1,0.7-1.1,2.8V21.4z"/>
	</g>
</g>
</svg>
