<?xml version="1.0" encoding="utf-8"?>
<!-- Generator: Adobe Illustrator 22.1.0, SVG Export Plug-In . SVG Version: 6.00 Build 0)  -->
<svg version="1.1" id="Layer_1" xmlns="http://www.w3.org/2000/svg" xmlns:xlink="http://www.w3.org/1999/xlink" x="0px" y="0px"
	 viewBox="0 0 225.5 1097.3" style="enable-background:new 0 0 225.5 1097.3;" xml:space="preserve">
<style type="text/css">
	.st0{fill:#FFFFFF;}
	.st1{clip-path:url(#SVGID_2_);fill:#DBDBDB;}
	.st2{fill:#CBCBCB;}
	.st3{fill:#DBDBDB;}
	.st4{clip-path:url(#SVGID_4_);fill:#FFFFFF;}
	.st5{clip-path:url(#SVGID_6_);fill:#DBDBDB;}
	.st6{clip-path:url(#SVGID_8_);fill:#FFFFFF;}
	.st7{clip-path:url(#SVGID_10_);fill:#DBDBDB;}
	.st8{clip-path:url(#SVGID_12_);fill:#FFFFFF;}
	.st9{clip-path:url(#SVGID_14_);fill:#DBDBDB;}
	.st10{clip-path:url(#SVGID_16_);fill:#FFFFFF;}
	.st11{clip-path:url(#SVGID_18_);fill:#DBDBDB;}
	.st12{clip-path:url(#SVGID_20_);fill:#FFFFFF;}
	.st13{clip-path:url(#SVGID_22_);fill:#DBDBDB;}
	.st14{clip-path:url(#SVGID_24_);fill:#DBDBDB;}
	.st15{clip-path:url(#SVGID_26_);fill:#FFFFFF;}
	.st16{clip-path:url(#SVGID_28_);fill:#DBDBDB;}
	.st17{clip-path:url(#SVGID_30_);fill:#FFFFFF;}
	.st18{clip-path:url(#SVGID_32_);fill:#DBDBDB;}
	.st19{clip-path:url(#SVGID_34_);fill:#FFFFFF;}
	.st20{clip-path:url(#SVGID_36_);fill:#DBDBDB;}
	.st21{clip-path:url(#SVGID_38_);fill:#FFFFFF;}
	.st22{clip-path:url(#SVGID_40_);fill:#DBDBDB;}
	.st23{clip-path:url(#SVGID_42_);fill:#FFFFFF;}
	.st24{clip-path:url(#SVGID_44_);fill:#DBDBDB;}
</style>
<g>
	<polygon class="st0" points="0,639.4 225.7,639.4 225.7,1097.3 0,1097.3 	"/>
	<g>
		<g>
			<defs>
				<rect id="SVGID_1_" y="639.4" width="225.7" height="458"/>
			</defs>
			<clipPath id="SVGID_2_">
				<use xlink:href="#SVGID_1_"  style="overflow:visible;"/>
			</clipPath>
			<path class="st1" d="M229.5,1101.1H-3.8V635.6h233.2V1101.1z M3.8,1093.5h218.1V643.2H3.8V1093.5z"/>
		</g>
	</g>
	<path d="M144.4,894.1h1.3c0.9,0,1.5-0.2,1.9-0.6c0.5-0.4,0.7-0.9,0.7-1.7V889c0-0.7-0.2-1.2-0.7-1.7c-0.5-0.4-1-0.6-1.9-0.6h-2.5
		v10.4h1.1V894.1L144.4,894.1z M145.7,893.1h-1.3v-5.3h1.3c0.5,0,0.9,0.1,1,0.4c0.3,0.2,0.4,0.6,0.4,0.9v2.7
		C147.2,892.7,146.7,893.1,145.7,893.1L145.7,893.1L145.7,893.1z M155.6,896.3H152v-3.9h2.8v-0.9H152v-3.7h3.5v-0.9h-4.6v10.4h4.7
		L155.6,896.3L155.6,896.3z M159.1,893.6h1.3l1.9,3.7h1.2l-2-3.9c0.9-0.3,1.4-1,1.4-2.1V889c0-0.7-0.2-1.2-0.7-1.7
		c-0.5-0.4-1-0.6-1.9-0.6H158v10.4h1.1L159.1,893.6L159.1,893.6z M160.4,892.6h-1.3v-4.8h1.3c0.5,0,0.9,0.1,1,0.4
		c0.3,0.2,0.4,0.6,0.4,0.9v2.3C161.8,892.3,161.4,892.6,160.4,892.6L160.4,892.6L160.4,892.6z M167,888.7l1.9,7h1l1.9-7v8.6h1.1
		v-10.4h-1.7l-1.9,6.9l-1.8-6.9h-1.7v10.4h1.1L167,888.7L167,888.7z M177.6,896.3v-8.5h0.9v-0.9h-2.7v0.9h0.9v8.5h-0.9v0.9h2.7v-0.9
		H177.6L177.6,896.3z M180,886.8v0.9h2.1v9.5h1.1v-9.5h2.1v-0.9H180L180,886.8z M192.4,894.1c-0.1-0.3-0.4-0.7-0.7-0.9l-2.8-2.7
		c-0.3-0.2-0.4-0.5-0.5-0.7s-0.1-0.5-0.1-0.9s0.1-0.7,0.4-0.9c0.3-0.2,0.7-0.3,1.1-0.3c0.5,0,0.9,0.1,1.1,0.3
		c0.3,0.2,0.4,0.5,0.4,0.9v1.4h1.1v-1.3c0-1.5-0.9-2.3-2.6-2.3c-0.9,0-1.6,0.2-2,0.6c-0.5,0.4-0.7,0.9-0.7,1.7
		c0,0.5,0.1,0.9,0.2,1.2c0.1,0.3,0.4,0.7,0.7,0.9l2.8,2.7c0.3,0.3,0.4,0.5,0.5,0.7s0.1,0.5,0.1,0.9s-0.1,0.7-0.4,0.9
		c-0.3,0.2-0.7,0.3-1.2,0.3c-0.6,0-0.9-0.1-1.2-0.3c-0.3-0.2-0.4-0.5-0.4-0.9v-1.4h-1.1v1.3c0,1.5,0.9,2.3,2.7,2.3s2.7-0.8,2.7-2.3
		C192.6,894.8,192.5,894.4,192.4,894.1L192.4,894.1z"/>
	<path d="M36.2,751c-0.1-0.3-0.4-0.7-0.7-0.9l-2.8-2.7c-0.3-0.2-0.4-0.5-0.5-0.7c-0.1-0.2-0.1-0.5-0.1-0.9c0-0.4,0.1-0.7,0.4-0.9
		c0.3-0.2,0.7-0.3,1.1-0.3c0.5,0,0.9,0.1,1.1,0.3c0.3,0.2,0.4,0.5,0.4,0.9v1.4h1.1V746c0-1.5-0.9-2.3-2.6-2.3c-0.9,0-1.6,0.2-2,0.6
		c-0.5,0.4-0.7,0.9-0.7,1.7c0,0.5,0.1,0.9,0.2,1.2c0.1,0.3,0.4,0.7,0.7,0.9l2.8,2.7c0.3,0.3,0.4,0.5,0.5,0.7
		c0.1,0.2,0.1,0.5,0.1,0.9s-0.1,0.7-0.4,0.9c-0.3,0.2-0.7,0.3-1.2,0.3c-0.6,0-0.9-0.1-1.2-0.3c-0.3-0.2-0.4-0.5-0.4-0.9v-1.4H31v1.3
		c0,1.5,0.9,2.3,2.7,2.3c1.8,0,2.7-0.8,2.7-2.3C36.3,751.6,36.3,751.3,36.2,751L36.2,751z M44,753.2h-3.6v-3.9h2.8v-0.9h-2.8v-3.7
		h3.5v-0.9h-4.6v10.5h4.7L44,753.2L44,753.2z M50.5,754.1v-0.9h-2.9v-9.5h-1.1v10.5L50.5,754.1L50.5,754.1z M57.2,753.2h-3.6v-3.9
		h2.8v-0.9h-2.8v-3.7h3.5v-0.9h-4.6v10.5h4.7L57.2,753.2L57.2,753.2z M62,753.4c-1,0-1.5-0.5-1.5-1.3v-6.4c0-0.9,0.5-1.3,1.5-1.3
		c1,0,1.5,0.5,1.5,1.3v1.5h1.1v-1.5c0-0.8-0.2-1.2-0.7-1.7c-0.5-0.4-1.1-0.6-2-0.6s-1.5,0.2-2,0.6c-0.5,0.4-0.7,0.9-0.7,1.7v6.4
		c0,0.8,0.2,1.2,0.7,1.7c0.5,0.5,1.1,0.6,2,0.6s1.5-0.2,2-0.6c0.5-0.4,0.7-0.9,0.7-1.7v-0.9h-1.1v0.9C63.5,753,63.1,753.4,62,753.4
		L62,753.4z M66.4,743.7v0.9h2.1v9.5h1.1v-9.5h2.1v-0.9H66.4L66.4,743.7z M82,753.5c0.5-0.4,0.7-0.9,0.7-1.7v-6
		c0-0.7-0.2-1.2-0.7-1.7c-0.5-0.4-1-0.6-1.9-0.6h-2.6v10.5h2.6C81,754.1,81.5,753.9,82,753.5L82,753.5z M81.2,752.8
		c-0.3,0.3-0.6,0.4-1,0.4h-1.4v-8.5h1.4c0.5,0,0.8,0.1,1,0.4c0.3,0.3,0.4,0.6,0.4,0.9v6C81.5,752.2,81.4,752.6,81.2,752.8
		L81.2,752.8z M90.4,753.2h-3.6v-3.9h2.8v-0.9h-2.8v-3.7h3.5v-0.9h-4.6v10.5h4.7L90.4,753.2L90.4,753.2z M97.8,751
		c-0.1-0.3-0.4-0.7-0.7-0.9l-2.8-2.7c-0.3-0.2-0.4-0.5-0.5-0.7s-0.1-0.5-0.1-0.9c0-0.4,0.1-0.7,0.4-0.9c0.3-0.2,0.7-0.3,1.1-0.3
		s0.9,0.1,1.1,0.3c0.3,0.2,0.4,0.5,0.4,0.9v1.4h1.1V746c0-1.5-0.9-2.3-2.6-2.3c-0.9,0-1.6,0.2-2,0.6c-0.5,0.4-0.7,0.9-0.7,1.7
		c0,0.5,0.1,0.9,0.2,1.2c0.1,0.3,0.4,0.7,0.7,0.9l2.8,2.7c0.3,0.3,0.4,0.5,0.5,0.7c0.1,0.2,0.1,0.5,0.1,0.9s-0.1,0.7-0.4,0.9
		c-0.3,0.2-0.7,0.3-1.2,0.3c-0.6,0-0.9-0.1-1.2-0.3c-0.3-0.2-0.4-0.5-0.4-0.9v-1.4h-1.1v1.3c0,1.5,0.9,2.3,2.7,2.3
		c1.8,0,2.7-0.8,2.7-2.3C97.9,751.6,97.8,751.3,97.8,751L97.8,751z M102.3,753.2v-8.5h0.9v-0.9h-2.7v0.9h0.8v8.5h-0.8v0.9h2.7v-0.9
		H102.3L102.3,753.2z M109.8,749.8v2c0,0.4-0.2,0.7-0.6,1s-0.9,0.6-1.2,0.6c-0.5,0-0.8-0.1-0.9-0.4c-0.2-0.2-0.3-0.6-0.3-0.9v-6.4
		c0-0.9,0.5-1.3,1.5-1.3s1.5,0.5,1.5,1.3v0.9h1.1v-0.9c0-0.8-0.2-1.2-0.7-1.7c-0.5-0.4-1.1-0.6-2-0.6s-1.5,0.2-2,0.6
		s-0.7,0.9-0.7,1.7v6.4c0,1.5,0.8,2.3,2.4,2.3c0.5,0,0.9-0.1,1.2-0.4s0.7-0.6,0.9-0.9l0.4,1h0.5v-5.3H108v0.9L109.8,749.8
		L109.8,749.8z M115,746l3.5,8.1h1.1v-10.5h-1.1v8.1l-3.5-8.1h-1.1v10.5h1.1V746L115,746z M126.6,754.1h2.6c0.9,0,1.5-0.2,1.9-0.6
		c0.5-0.4,0.7-0.9,0.7-1.7v-1.4c0-0.9-0.5-1.5-1.3-1.8c0.8-0.3,1.1-0.9,1.1-1.8v-0.9c0-0.7-0.2-1.2-0.7-1.7c-0.5-0.4-1-0.6-1.9-0.6
		h-2.5L126.6,754.1L126.6,754.1z M130.3,752.8c-0.3,0.3-0.6,0.4-1,0.4h-1.4v-4.1h1.4c0.5,0,0.8,0.2,1,0.5c0.3,0.3,0.4,0.6,0.4,0.9
		v1.4C130.7,752.2,130.5,752.6,130.3,752.8L130.3,752.8z M130.1,747.9c-0.3,0.3-0.6,0.4-1,0.4h-1.3v-3.6h1.3c0.5,0,0.8,0.1,1,0.4
		c0.3,0.3,0.4,0.6,0.4,0.9v0.9C130.5,747.3,130.3,747.6,130.1,747.9L130.1,747.9z M137.3,753.4c-1,0-1.6-0.5-1.6-1.3v-8.4h-1.1v8.4
		c0,0.8,0.2,1.2,0.7,1.7c0.5,0.5,1.1,0.6,2.1,0.6c0.9,0,1.6-0.2,2.1-0.6c0.5-0.4,0.7-0.9,0.7-1.7v-8.4h-1.1v8.4
		C138.9,753,138.3,753.4,137.3,753.4L137.3,753.4z M144.6,753.2v-8.5h0.9v-0.9h-2.7v0.9h0.9v8.5h-0.9v0.9h2.7v-0.9H144.6
		L144.6,753.2z M152.2,754.1v-0.9h-2.9v-9.5h-1.1v10.5L152.2,754.1L152.2,754.1z M158.6,753.5c0.5-0.4,0.7-0.9,0.7-1.7v-6
		c0-0.7-0.2-1.2-0.7-1.7c-0.5-0.4-1-0.6-1.9-0.6h-2.6v10.5h2.6C157.6,754.1,158.2,753.9,158.6,753.5L158.6,753.5z M157.8,752.8
		c-0.3,0.3-0.6,0.4-1,0.4h-1.4v-8.5h1.4c0.5,0,0.8,0.1,1,0.4c0.3,0.3,0.4,0.6,0.4,0.9v6C158.2,752.2,158.1,752.6,157.8,752.8
		L157.8,752.8z M167.1,749.3h2.7v-0.9h-2.7v-3.7h3.3v-0.9h-4.5v10.5h1.1V749.3L167.1,749.3z M174.1,753.2v-8.5h0.9v-0.9h-2.7v0.9
		h0.9v8.5h-0.9v0.9h2.7v-0.9H174.1L174.1,753.2z M178.7,750.4h1.3l1.9,3.7h1.2l-2-3.9c0.9-0.3,1.4-1,1.4-2.1v-2.3
		c0-0.7-0.2-1.2-0.7-1.7c-0.5-0.4-1-0.6-1.9-0.6h-2.5v10.5h1.1L178.7,750.4L178.7,750.4z M180.1,749.5h-1.3v-4.8h1.3
		c0.5,0,0.9,0.1,1,0.4c0.3,0.2,0.4,0.6,0.4,0.9v2.3C181.5,749.1,181,749.5,180.1,749.5L180.1,749.5L180.1,749.5z M186.6,745.5l1.9,7
		h1l1.9-7v8.6h1.1v-10.5h-1.7l-1.9,6.9l-1.8-6.9h-1.7v10.5h1.1L186.6,745.5L186.6,745.5z"/>
	<path d="M43.9,825c-1,0-1.5-0.5-1.5-1.3v-6.4c0-0.9,0.5-1.3,1.5-1.3c1,0,1.5,0.5,1.5,1.3v1.5h1.1v-1.5c0-0.8-0.2-1.2-0.7-1.7
		c-0.5-0.4-1.1-0.6-2-0.6s-1.5,0.2-2,0.6c-0.5,0.4-0.7,0.9-0.7,1.7v6.4c0,0.8,0.2,1.2,0.7,1.7c0.5,0.5,1.1,0.6,2,0.6s1.5-0.2,2-0.6
		c0.5-0.4,0.7-0.9,0.7-1.7v-0.9h-1.1v0.9C45.4,824.6,44.8,825,43.9,825L43.9,825z M53.9,815.6c-0.5-0.4-1.1-0.6-2.1-0.6
		c-0.9,0-1.6,0.2-2.1,0.6c-0.5,0.4-0.7,0.9-0.7,1.7v6.4c0,0.8,0.2,1.2,0.7,1.7c0.5,0.5,1.1,0.6,2.1,0.6c0.9,0,1.6-0.2,2.1-0.6
		c0.5-0.4,0.7-0.9,0.7-1.7v-6.4C54.6,816.6,54.3,816,53.9,815.6L53.9,815.6z M51.9,825c-1,0-1.6-0.5-1.6-1.3v-6.4
		c0-0.9,0.6-1.3,1.6-1.3s1.6,0.5,1.6,1.3v6.4C53.5,824.6,52.9,825,51.9,825L51.9,825z M58.7,817.6l3.5,8.1h1.1v-10.5h-1.1v8.1
		l-3.5-8.1h-1.1v10.5h1.1V817.6L58.7,817.6z M68.9,825c-1,0-1.5-0.5-1.5-1.3v-6.4c0-0.9,0.5-1.3,1.5-1.3c1,0,1.5,0.5,1.5,1.3v1.5
		h1.1v-1.5c0-0.8-0.2-1.2-0.7-1.7c-0.5-0.4-1.1-0.6-2-0.6s-1.5,0.2-2,0.6c-0.5,0.4-0.7,0.9-0.7,1.7v6.4c0,0.8,0.2,1.2,0.7,1.7
		c0.5,0.4,1.1,0.6,2,0.6s1.5-0.2,2-0.6s0.7-0.9,0.7-1.7v-0.9h-1.1v0.9C70.4,824.6,70,825,68.9,825L68.9,825z M79.2,824.7h-3.6v-3.9
		h2.8v-0.9h-2.8v-3.7h3.5v-0.9h-4.6v10.5h4.7L79.2,824.7L79.2,824.7z M82.6,822.5h1.3c0.9,0,1.5-0.2,1.9-0.6
		c0.5-0.4,0.7-0.9,0.7-1.7v-2.7c0-0.7-0.2-1.2-0.7-1.7c-0.5-0.4-1-0.6-1.9-0.6h-2.5v10.5h1.1V822.5L82.6,822.5z M83.9,821.5h-1.3
		v-5.3h1.3c0.5,0,0.9,0.1,1,0.4c0.3,0.2,0.4,0.6,0.4,0.9v2.7C85.3,821.1,84.9,821.5,83.9,821.5L83.9,821.5L83.9,821.5z M87.9,815.3
		v0.9H90v9.5h1.1v-9.5h2.1v-0.9H87.9L87.9,815.3z M97.8,825c-1,0-1.6-0.5-1.6-1.3v-8.4h-1.1v8.4c0,0.8,0.2,1.2,0.7,1.7
		s1.1,0.6,2.1,0.6c0.9,0,1.6-0.2,2.1-0.6c0.5-0.4,0.7-0.9,0.7-1.7v-8.4h-1.1v8.4C99.5,824.6,99,825,97.8,825L97.8,825z M102.7,825.7
		h1.1l0.6-2.5h3l0.6,2.5h1.1l-2.4-10.5h-1.7L102.7,825.7L102.7,825.7z M107.2,822.4h-2.7l1.3-5.9L107.2,822.4L107.2,822.4z
		 M115.5,825.7v-0.9h-2.9v-9.5h-1.1v10.5L115.5,825.7L115.5,825.7z M125.6,825.1c0.5-0.4,0.7-0.9,0.7-1.7v-6c0-0.7-0.2-1.2-0.7-1.7
		c-0.5-0.4-1-0.6-1.9-0.6h-2.6v10.5h2.6C124.6,825.7,125.3,825.5,125.6,825.1L125.6,825.1z M124.8,824.4c-0.3,0.3-0.6,0.4-1,0.4
		h-1.4v-8.5h1.4c0.5,0,0.8,0.1,1,0.4c0.3,0.3,0.4,0.6,0.4,0.9v6C125.2,823.8,125.1,824.2,124.8,824.4L124.8,824.4z M130.4,822h1.3
		l1.9,3.7h1.2l-2-3.9c0.9-0.3,1.4-1,1.4-2.1v-2.3c0-0.7-0.2-1.2-0.7-1.7c-0.5-0.4-1-0.6-1.9-0.6h-2.5v10.5h1.1L130.4,822L130.4,822z
		 M131.7,821h-1.3v-4.8h1.3c0.5,0,0.9,0.1,1,0.4c0.3,0.2,0.4,0.6,0.4,0.9v2.3C133.1,820.7,132.6,821,131.7,821L131.7,821L131.7,821z
		 M136.2,825.7h1.1l0.6-2.5h3l0.6,2.5h1.1l-2.4-10.5h-1.7L136.2,825.7L136.2,825.7z M140.6,822.4H138l1.3-5.9L140.6,822.4
		L140.6,822.4z"/>
	<path d="M148.4,817.3l1.6,8.3h1.6l1.5-10.5H152l-1.3,8.8l-1.7-8.8h-1.2L146,824l-1.3-8.8h-1.1l1.5,10.5h1.6L148.4,817.3
		L148.4,817.3z M156.9,824.7v-8.5h0.9v-0.9H155v0.9h0.9v8.5H155v0.9h2.7v-0.9H156.9L156.9,824.7z M161.7,817.6l3.5,8.1h1.1v-10.5
		h-1.1v8.1l-3.5-8.1h-1.1v10.5h1.1V817.6L161.7,817.6z M173.4,821.4v2c0,0.4-0.2,0.7-0.6,1s-0.9,0.6-1.2,0.6c-0.5,0-0.8-0.1-0.9-0.4
		c-0.2-0.2-0.3-0.6-0.3-0.9v-6.4c0-0.9,0.5-1.3,1.5-1.3s1.5,0.5,1.5,1.3v0.9h1.1v-0.9c0-0.8-0.2-1.2-0.7-1.7c-0.5-0.4-1.1-0.6-2-0.6
		s-1.5,0.2-2,0.6c-0.5,0.4-0.7,0.9-0.7,1.7v6.4c0,1.5,0.8,2.3,2.4,2.3c0.5,0,0.9-0.1,1.2-0.4c0.4-0.2,0.7-0.6,0.9-0.9l0.4,1h0.5
		v-5.3h-2.9v0.9L173.4,821.4L173.4,821.4z M182.5,822.6c-0.1-0.3-0.4-0.7-0.7-0.9l-2.8-2.7c-0.3-0.2-0.4-0.5-0.5-0.7
		c-0.1-0.2-0.1-0.5-0.1-0.9s0.1-0.7,0.4-0.9c0.3-0.2,0.7-0.3,1.1-0.3s0.9,0.1,1.1,0.3c0.3,0.2,0.4,0.5,0.4,0.9v1.4h1.1v-1.3
		c0-1.5-0.9-2.3-2.6-2.3c-0.9,0-1.6,0.2-2,0.6c-0.5,0.4-0.7,0.9-0.7,1.7c0,0.5,0.1,0.9,0.2,1.2c0.1,0.3,0.4,0.7,0.7,0.9l2.8,2.7
		c0.3,0.3,0.4,0.5,0.5,0.7c0.1,0.2,0.1,0.5,0.1,0.9c0,0.4-0.1,0.7-0.4,0.9c-0.3,0.2-0.7,0.3-1.2,0.3c-0.6,0-0.9-0.1-1.2-0.3
		c-0.3-0.2-0.4-0.5-0.4-0.9v-1.4h-1.1v1.3c0,1.5,0.9,2.3,2.7,2.3s2.7-0.8,2.7-2.3C182.6,823.2,182.6,822.8,182.5,822.6L182.5,822.6z
		"/>
	<path d="M42.5,883.9h2.7V883h-2.7v-3.7h3.3v-0.9h-4.5v10.4h1.1V883.9L42.5,883.9z M49.4,887.8v-8.5h0.9v-0.9h-2.7v0.9h0.9v8.5h-0.9
		v0.9h2.7v-0.9H49.4L49.4,887.8z M54.1,880.7l3.5,8.1h1.1v-10.4h-1.1v8.1l-3.5-8.1H53v10.4h1.1V880.7L54.1,880.7z M61,888.7h1.1
		l0.6-2.4h3l0.6,2.4h1.1L65,878.3h-1.7L61,888.7L61,888.7z M65.5,885.4h-2.7l1.3-5.9L65.5,885.4L65.5,885.4z M73.8,888.7v-0.9h-2.9
		v-9.5h-1.1v10.4H73.8L73.8,888.7z"/>
	<path d="M30.8,904.3c0.5-0.4,0.7-0.9,0.7-1.7v-6c0-0.7-0.2-1.2-0.7-1.7c-0.5-0.4-1-0.6-1.9-0.6h-2.6v10.4h2.6
		C29.8,904.9,30.3,904.7,30.8,904.3L30.8,904.3z M30,903.5c-0.3,0.3-0.6,0.4-1,0.4h-1.4v-8.5h1.4c0.5,0,0.8,0.1,1,0.4
		c0.3,0.3,0.4,0.6,0.4,0.9v6C30.3,903,30.2,903.3,30,903.5L30,903.5z M35.6,901.2h1.3l1.9,3.7H40l-2-3.9c0.9-0.3,1.4-1,1.4-2.1v-2.3
		c0-0.7-0.2-1.2-0.7-1.7c-0.5-0.4-1-0.6-1.9-0.6h-2.5v10.4h1.1L35.6,901.2L35.6,901.2z M36.9,900.2h-1.3v-4.8h1.3
		c0.5,0,0.9,0.1,1,0.4c0.3,0.2,0.4,0.6,0.4,0.9v2.3C38.3,899.8,37.8,900.2,36.9,900.2L36.9,900.2L36.9,900.2z M41.2,904.9h1.1
		l0.6-2.4h3l0.6,2.4h1.1l-2.4-10.4h-1.7L41.2,904.9L41.2,904.9z M45.8,901.5h-2.7l1.3-5.9L45.8,901.5L45.8,901.5z"/>
	<path d="M53.6,896.5l1.6,8.3h1.6l1.5-10.4h-1.1l-1.3,8.8l-1.7-8.8h-1.2l-1.7,8.8l-1.3-8.8h-1.1l1.5,10.4h1.6L53.6,896.5L53.6,896.5
		z M62.1,903.9v-8.5H63v-0.9h-2.7v0.9h0.9v8.5h-0.9v0.9H63v-0.9H62.1L62.1,903.9z M66.7,896.8l3.5,8.1h1.1v-10.4h-1.1v8.1l-3.5-8.1
		h-1.1v10.4h1.1V896.8L66.7,896.8z M78.6,900.6v2c0,0.4-0.2,0.7-0.6,1c-0.4,0.4-0.9,0.6-1.2,0.6c-0.5,0-0.8-0.1-0.9-0.4
		c-0.2-0.2-0.3-0.6-0.3-0.9v-6.4c0-0.9,0.5-1.3,1.5-1.3c1,0,1.5,0.5,1.5,1.3v0.9h1.1v-0.9c0-0.8-0.2-1.2-0.7-1.7
		c-0.5-0.4-1.1-0.6-2-0.6s-1.5,0.2-2,0.6c-0.5,0.4-0.7,0.9-0.7,1.7v6.4c0,1.5,0.8,2.3,2.4,2.3c0.5,0,0.9-0.1,1.2-0.4
		c0.4-0.2,0.7-0.6,0.9-0.9l0.4,1h0.5v-5.3h-2.9v0.9L78.6,900.6L78.6,900.6z M87.6,901.7c-0.1-0.3-0.4-0.7-0.7-0.9l-2.8-2.7
		c-0.3-0.2-0.4-0.5-0.5-0.7s-0.1-0.5-0.1-0.9c0-0.4,0.1-0.7,0.4-0.9c0.3-0.2,0.7-0.3,1.1-0.3c0.5,0,0.9,0.1,1.1,0.3
		c0.3,0.2,0.4,0.5,0.4,0.9v1.4h1.1v-1.3c0-1.5-0.9-2.3-2.6-2.3c-0.9,0-1.6,0.2-2,0.6c-0.5,0.4-0.7,0.9-0.7,1.7
		c0,0.5,0.1,0.9,0.2,1.2c0.1,0.3,0.4,0.7,0.7,0.9l2.8,2.7c0.3,0.3,0.4,0.5,0.5,0.7c0.1,0.2,0.1,0.5,0.1,0.9s-0.1,0.7-0.4,0.9
		c-0.3,0.2-0.7,0.3-1.2,0.3s-0.9-0.1-1.2-0.3c-0.3-0.2-0.4-0.5-0.4-0.9v-1.4h-1.1v1.3c0,1.5,0.9,2.3,2.7,2.3c1.8,0,2.7-0.8,2.7-2.3
		C87.8,902.4,87.8,902,87.6,901.7L87.6,901.7z"/>
	<path d="M69.9,993.3c-1,0-1.5-0.5-1.5-1.3v-6.4c0-0.9,0.5-1.3,1.5-1.3c1,0,1.5,0.5,1.5,1.3v1.5h1.1v-1.5c0-0.8-0.2-1.2-0.7-1.7
		c-0.5-0.4-1.1-0.6-2-0.6s-1.5,0.2-2,0.6s-0.7,0.9-0.7,1.7v6.4c0,0.8,0.2,1.2,0.7,1.7c0.5,0.5,1.1,0.6,2,0.6s1.5-0.2,2-0.6
		c0.5-0.4,0.7-0.9,0.7-1.7v-0.9h-1.1v0.9C71.5,992.9,70.9,993.3,69.9,993.3L69.9,993.3z M79.9,983.9c-0.5-0.4-1.1-0.6-2.1-0.6
		s-1.6,0.2-2.1,0.6c-0.5,0.4-0.7,0.9-0.7,1.7v6.4c0,0.8,0.2,1.2,0.7,1.7c0.5,0.4,1.1,0.6,2.1,0.6s1.6-0.2,2.1-0.6
		c0.5-0.4,0.7-0.9,0.7-1.7v-6.4C80.6,984.9,80.4,984.3,79.9,983.9L79.9,983.9z M77.9,993.3c-1,0-1.6-0.5-1.6-1.3v-6.4
		c0-0.9,0.6-1.3,1.6-1.3c1,0,1.6,0.5,1.6,1.3v6.4C79.5,992.9,79,993.3,77.9,993.3L77.9,993.3z M84.8,985.9l3.5,8.1h1.1v-10.4h-1.1
		v8.1l-3.5-8.1h-1.1V994h1.1V985.9L84.8,985.9z M97.6,990.9c-0.1-0.3-0.4-0.7-0.7-0.9l-2.8-2.7c-0.3-0.2-0.4-0.5-0.5-0.7
		c-0.1-0.2-0.1-0.5-0.1-0.9s0.1-0.7,0.4-0.9c0.3-0.2,0.7-0.3,1.1-0.3s0.9,0.1,1.1,0.3c0.3,0.2,0.4,0.5,0.4,0.9v1.4h1.1v-1.3
		c0-1.5-0.9-2.3-2.6-2.3c-0.9,0-1.6,0.2-2,0.6c-0.5,0.4-0.7,0.9-0.7,1.7c0,0.5,0.1,0.9,0.2,1.2c0.1,0.3,0.4,0.7,0.7,0.9l2.8,2.7
		c0.3,0.3,0.4,0.5,0.5,0.7c0.1,0.2,0.1,0.5,0.1,0.9s-0.1,0.7-0.4,0.9c-0.3,0.2-0.7,0.3-1.2,0.3s-0.9-0.1-1.2-0.3
		c-0.3-0.2-0.4-0.5-0.4-0.9v-1.4h-1.1v1.3c0,1.5,0.9,2.3,2.7,2.3c1.8,0,2.7-0.8,2.7-2.3C97.8,991.5,97.7,991.1,97.6,990.9
		L97.6,990.9z M99.5,983.6v0.9h2.1v9.5h1.1v-9.5h2.1v-0.9H99.5L99.5,983.6z M108,990.3h1.3l1.9,3.7h1.2l-2-3.9
		c0.9-0.3,1.4-1,1.4-2.1v-2.3c0-0.7-0.2-1.2-0.7-1.7c-0.5-0.4-1-0.6-1.9-0.6h-2.5v10.4h1.1L108,990.3L108,990.3z M109.3,989.3H108
		v-4.8h1.3c0.5,0,0.9,0.1,1,0.4c0.3,0.2,0.4,0.6,0.4,0.9v2.3C110.7,989,110.3,989.3,109.3,989.3L109.3,989.3L109.3,989.3z
		 M117.3,993.3c-1,0-1.6-0.5-1.6-1.3v-8.4h-1.1v8.4c0,0.8,0.2,1.2,0.7,1.7c0.5,0.5,1.1,0.6,2.1,0.6s1.6-0.2,2.1-0.6
		c0.5-0.4,0.7-0.9,0.7-1.7v-8.4h-1.1v8.4C118.9,992.9,118.4,993.3,117.3,993.3L117.3,993.3z M125.5,993.3c-1,0-1.5-0.5-1.5-1.3v-6.4
		c0-0.9,0.5-1.3,1.5-1.3c1,0,1.5,0.5,1.5,1.3v1.5h1.1v-1.5c0-0.8-0.2-1.2-0.7-1.7c-0.5-0.4-1.1-0.6-2-0.6s-1.5,0.2-2,0.6
		s-0.7,0.9-0.7,1.7v6.4c0,0.8,0.2,1.2,0.7,1.7c0.5,0.5,1.1,0.6,2,0.6s1.5-0.2,2-0.6c0.5-0.4,0.7-0.9,0.7-1.7v-0.9h-1.1v0.9
		C127.1,992.9,126.6,993.3,125.5,993.3L125.5,993.3z M129.9,983.6v0.9h2.1v9.5h1.1v-9.5h2.1v-0.9H129.9L129.9,983.6z M138.7,993
		v-8.5h0.9v-0.9h-2.7v0.9h0.9v8.5h-0.9v0.9h2.7V993H138.7L138.7,993z M146.9,983.9c-0.5-0.4-1.1-0.6-2.1-0.6c-0.9,0-1.6,0.2-2.1,0.6
		s-0.7,0.9-0.7,1.7v6.4c0,0.8,0.2,1.2,0.7,1.7c0.5,0.4,1.1,0.6,2.1,0.6c0.9,0,1.6-0.2,2.1-0.6c0.5-0.4,0.7-0.9,0.7-1.7v-6.4
		C147.5,984.9,147.3,984.3,146.9,983.9L146.9,983.9z M144.8,993.3c-1,0-1.6-0.5-1.6-1.3v-6.4c0-0.9,0.6-1.3,1.6-1.3
		c1,0,1.6,0.5,1.6,1.3v6.4C146.4,992.9,145.8,993.3,144.8,993.3L144.8,993.3z M151.6,985.9l3.5,8.1h1.1v-10.4h-1.1v8.1l-3.5-8.1
		h-1.1V994h1.1V985.9L151.6,985.9z"/>
	<path d="M76.9,1055.1v0.9H79v9.5h1.1v-9.5h2.1v-0.9H76.9L76.9,1055.1z M85.8,1064.6v-8.5h0.9v-0.9h-2.7v0.9h0.9v8.5h-0.9v0.9h2.7
		v-0.9H85.8L85.8,1064.6z M90.5,1056.9l1.9,7h1l1.9-7v8.6h1.1v-10.4h-1.7l-1.9,6.9l-1.8-6.9h-1.7v10.4h1.1L90.5,1056.9L90.5,1056.9z
		 M104.4,1064.6h-3.6v-3.9h2.8v-0.9h-2.8v-3.7h3.5v-0.9h-4.6v10.4h4.7L104.4,1064.6L104.4,1064.6z M115.5,1062.4
		c-0.1-0.3-0.4-0.7-0.7-0.9l-2.8-2.7c-0.3-0.2-0.4-0.5-0.5-0.7c-0.1-0.2-0.1-0.5-0.1-0.9s0.1-0.7,0.4-0.9c0.3-0.2,0.7-0.3,1.1-0.3
		s0.9,0.1,1.1,0.3c0.3,0.2,0.4,0.5,0.4,0.9v1.4h1.1v-1.3c0-1.5-0.9-2.3-2.6-2.3c-0.9,0-1.6,0.2-2,0.6c-0.5,0.4-0.7,0.9-0.7,1.7
		c0,0.5,0.1,0.9,0.2,1.2c0.1,0.3,0.4,0.7,0.7,0.9l2.8,2.7c0.3,0.3,0.4,0.5,0.5,0.7s0.1,0.5,0.1,0.9s-0.1,0.7-0.4,0.9
		c-0.3,0.2-0.7,0.3-1.2,0.3c-0.6,0-0.9-0.1-1.2-0.3c-0.3-0.2-0.4-0.5-0.4-0.9v-1.4h-1.1v1.3c0,1.5,0.9,2.3,2.7,2.3
		c1.8,0,2.7-0.8,2.7-2.3C115.6,1063.1,115.6,1062.7,115.5,1062.4L115.5,1062.4z M117.6,1065.6h1.1l0.6-2.4h3l0.6,2.4h1.1l-2.4-10.4
		h-1.7L117.6,1065.6L117.6,1065.6z M122.1,1062.3h-2.7l1.3-5.9L122.1,1062.3L122.1,1062.3z"/>
	<path d="M131.4,1055.1h-1.1l-2.1,9.2l-2.1-9.2H125l2.4,10.4h1.7L131.4,1055.1L131.4,1055.1z M138.4,1064.6h-3.6v-3.9h2.8v-0.9h-2.8
		v-3.7h3.5v-0.9h-4.6v10.4h4.7L138.4,1064.6L138.4,1064.6z M145.4,1065c0.5-0.4,0.7-0.9,0.7-1.7v-6c0-0.7-0.2-1.2-0.7-1.7
		c-0.5-0.4-1-0.6-1.9-0.6h-2.6v10.4h2.6C144.2,1065.6,144.9,1065.4,145.4,1065L145.4,1065z M144.5,1064.2c-0.3,0.3-0.6,0.4-1,0.4
		H142v-8.5h1.4c0.5,0,0.8,0.1,1,0.4c0.3,0.3,0.4,0.6,0.4,0.9v6C144.9,1063.7,144.7,1064.1,144.5,1064.2L144.5,1064.2z"/>
	<path d="M62.9,682.9c-1,0-1.5-0.5-1.5-1.3v-6.4c0-0.9,0.5-1.3,1.5-1.3c1,0,1.5,0.5,1.5,1.3v1.5h1.1v-1.5c0-0.8-0.2-1.2-0.7-1.7
		c-0.5-0.4-1.1-0.6-2-0.6c-0.9,0-1.5,0.2-2,0.6c-0.5,0.4-0.7,0.9-0.7,1.7v6.4c0,0.8,0.2,1.2,0.7,1.7c0.5,0.4,1.1,0.6,2,0.6
		c0.9,0,1.5-0.2,2-0.6s0.7-0.9,0.7-1.7v-0.9h-1.1v0.9C64.4,682.4,63.8,682.9,62.9,682.9L62.9,682.9z M72.3,683.6v-0.9h-2.9v-9.5
		h-1.1v10.5L72.3,683.6L72.3,683.6z M75.8,682.6v-8.5h0.9v-0.9h-2.7v0.9h0.9v8.5h-0.9v0.9h2.7v-0.9H75.8L75.8,682.6z M84.1,682.6
		h-3.6v-3.9h2.8v-0.9h-2.8v-3.7H84v-0.9h-4.6v10.5h4.7L84.1,682.6L84.1,682.6z M87.6,675.5l3.5,8.1h1.1v-10.4h-1.1v8.1l-3.5-8.1
		h-1.1v10.5h1.1V675.5L87.6,675.5z M94.3,673.1v0.9h2.1v9.5h1.1v-9.5h2.1v-0.9H94.3L94.3,673.1z M106.4,680.3h1.3
		c0.9,0,1.5-0.2,1.9-0.6c0.5-0.4,0.7-0.9,0.7-1.7v-2.7c0-0.7-0.2-1.2-0.7-1.7c-0.5-0.4-1-0.6-1.9-0.6h-2.5v10.5h1.1V680.3
		L106.4,680.3z M107.7,679.4h-1.3v-5.3h1.3c0.5,0,0.9,0.1,1,0.4c0.2,0.3,0.4,0.6,0.4,0.9v2.7C109.1,678.9,108.7,679.4,107.7,679.4
		L107.7,679.4L107.7,679.4z M116.9,683.6v-0.9H114v-9.5h-1.1v10.5L116.9,683.6L116.9,683.6z M117.9,683.6h1.1l0.6-2.5h3l0.6,2.5h1.1
		L122,673h-1.7L117.9,683.6L117.9,683.6z M122.4,680.2h-2.7l1.3-5.9L122.4,680.2L122.4,680.2z M127.7,675.5l3.5,8.1h1.1v-10.4h-1.1
		v8.1l-3.5-8.1h-1.1v10.5h1.1V675.5L127.7,675.5z M136.7,675.5l3.5,8.1h1.1v-10.4h-1.1v8.1l-3.5-8.1h-1.1v10.5h1.1V675.5
		L136.7,675.5z M146,682.6v-8.5h0.9v-0.9h-2.7v0.9h0.8v8.5h-0.8v0.9h2.7v-0.9H146L146,682.6z M150.7,675.5l3.5,8.1h1.1v-10.4h-1.1
		v8.1l-3.5-8.1h-1.1v10.5h1.1V675.5L150.7,675.5z M162.5,679.2v2c0,0.4-0.2,0.7-0.6,1s-0.9,0.6-1.2,0.6c-0.5,0-0.8-0.1-0.9-0.4
		c-0.2-0.3-0.3-0.6-0.3-0.9V675c0-0.9,0.5-1.3,1.5-1.3c1,0,1.5,0.5,1.5,1.3v0.9h1.1V675c0-0.8-0.2-1.2-0.7-1.7
		c-0.5-0.4-1.1-0.6-2-0.6s-1.5,0.2-2,0.6c-0.5,0.4-0.7,0.9-0.7,1.7v6.4c0,1.5,0.8,2.3,2.4,2.3c0.5,0,0.9-0.1,1.2-0.4
		c0.4-0.2,0.7-0.6,0.9-0.9l0.4,1h0.5v-5.3h-2.9v0.9L162.5,679.2L162.5,679.2z"/>
	<path class="st2" d="M42,943.3c-0.8,0-1.1-0.3-1.1-0.9v-4.9c0-0.7,0.4-0.9,1.1-0.9s1.1,0.3,1.1,0.9v1.1H44v-1.1
		c0-0.6-0.2-0.9-0.5-1.2c-0.4-0.3-0.9-0.5-1.5-0.5c-0.7,0-1.1,0.2-1.5,0.5c-0.4,0.3-0.5,0.8-0.5,1.2v4.9c0,0.6,0.2,0.9,0.5,1.2
		c0.4,0.3,0.9,0.5,1.5,0.5c0.7,0,1.1-0.2,1.5-0.5c0.4-0.3,0.5-0.8,0.5-1.2v-0.7h-0.9v0.7C43.2,942.9,42.9,943.3,42,943.3L42,943.3z
		 M53.5,936.1c-0.4-0.3-0.9-0.5-1.6-0.5s-1.2,0.2-1.6,0.5c-0.4,0.3-0.6,0.8-0.6,1.2v4.9c0,0.6,0.2,0.9,0.6,1.2s0.9,0.5,1.6,0.5
		s1.2-0.2,1.6-0.5c0.4-0.3,0.6-0.8,0.6-1.2v-4.9C54,936.7,53.9,936.3,53.5,936.1L53.5,936.1z M52,943.3c-0.9,0-1.2-0.3-1.2-0.9v-4.9
		c0-0.7,0.4-0.9,1.2-0.9s1.2,0.3,1.2,0.9v4.9C53.2,942.9,52.7,943.3,52,943.3L52,943.3z M63.9,941.4c-0.1-0.3-0.3-0.5-0.5-0.8
		l-2.2-2.1c-0.2-0.2-0.3-0.4-0.4-0.5c-0.1-0.2-0.1-0.4-0.1-0.7c0-0.3,0.1-0.5,0.3-0.7c0.2-0.2,0.5-0.3,0.9-0.3s0.7,0.1,0.9,0.3
		c0.2,0.2,0.3,0.4,0.3,0.7v1.1h0.9v-1c0-1.1-0.7-1.7-2-1.7c-0.7,0-1.2,0.2-1.5,0.5c-0.4,0.3-0.5,0.8-0.5,1.2c0,0.4,0,0.7,0.1,0.9
		c0.1,0.3,0.3,0.5,0.6,0.8l2.2,2.1c0.2,0.2,0.3,0.4,0.4,0.6c0.1,0.2,0.1,0.4,0.1,0.7c0,0.3-0.1,0.5-0.3,0.7
		c-0.2,0.2-0.5,0.3-0.9,0.3c-0.4,0-0.7-0.1-0.9-0.3c-0.2-0.2-0.3-0.4-0.3-0.7v-1.1h-0.9v1c0,1.1,0.7,1.7,2.1,1.7s2.1-0.6,2.1-1.7
		C64,941.8,64,941.6,63.9,941.4L63.9,941.4z M69.2,935.8v0.8h1.6v7.3h0.9v-7.3h1.6v-0.8H69.2L69.2,935.8z M88.9,943.1h-2.7v-2.9h2.2
		v-0.8h-2.2v-2.8h2.7v-0.8h-3.5v8h3.6L88.9,943.1L88.9,943.1z M98.3,941.4c-0.1-0.3-0.3-0.5-0.5-0.8l-2.2-2.1
		c-0.2-0.2-0.3-0.4-0.4-0.5c-0.1-0.2-0.1-0.4-0.1-0.7c0-0.3,0.1-0.5,0.3-0.7c0.2-0.2,0.5-0.3,0.9-0.3c0.4,0,0.7,0.1,0.9,0.3
		c0.2,0.2,0.3,0.4,0.3,0.7v1.1h0.9v-1c0-1.1-0.7-1.7-2-1.7c-0.7,0-1.2,0.2-1.5,0.5c-0.4,0.3-0.5,0.8-0.5,1.2c0,0.4,0,0.7,0.1,0.9
		c0.1,0.3,0.3,0.5,0.6,0.8l2.2,2.1c0.2,0.2,0.3,0.4,0.4,0.6c0.1,0.2,0.1,0.4,0.1,0.7c0,0.3-0.1,0.5-0.3,0.7
		c-0.2,0.2-0.5,0.3-0.9,0.3c-0.5,0-0.7-0.1-0.9-0.3c-0.2-0.2-0.3-0.4-0.3-0.7v-1.1h-0.9v1c0,1.1,0.7,1.7,2.1,1.7
		c1.4,0,2.1-0.6,2.1-1.7C98.5,941.8,98.4,941.6,98.3,941.4L98.3,941.4z M103.6,935.8v0.8h1.6v7.3h0.9v-7.3h1.6v-0.8H103.6
		L103.6,935.8z"/>
	<path class="st2" d="M111.9,943.7h0.9l0.4-1.8h2.4l0.4,1.8h0.9l-1.8-8h-1.3L111.9,943.7L111.9,943.7z M115.3,941.2h-2l1-4.5
		L115.3,941.2L115.3,941.2z M122.3,943.7h2c0.7,0,1.1-0.2,1.4-0.5c0.3-0.3,0.5-0.8,0.5-1.2v-1.1c0-0.8-0.4-1.2-1-1.3
		c0.6-0.2,0.9-0.7,0.9-1.3v-0.8c0-0.6-0.2-0.9-0.5-1.2c-0.4-0.3-0.9-0.5-1.4-0.5h-1.9L122.3,943.7L122.3,943.7z M125.1,942.8
		c-0.2,0.2-0.5,0.3-0.9,0.3h-1.1v-3.1h1.1c0.4,0,0.6,0.1,0.8,0.3c0.2,0.2,0.3,0.5,0.3,0.8v1.1C125.3,942.3,125.3,942.6,125.1,942.8
		L125.1,942.8z M125,939c-0.2,0.2-0.5,0.3-0.9,0.3h-1v-2.7h1c0.4,0,0.6,0.1,0.9,0.3c0.3,0.2,0.3,0.5,0.3,0.7v0.8
		C125.3,938.5,125.2,938.7,125,939L125,939z M135.4,943.7V943h-2.3v-7.3h-0.9v8L135.4,943.7L135.4,943.7z M141.8,943.1v-6.5h0.6
		v-0.8h-2.1v0.8h0.6v6.5h-0.6v0.8h2.1v-0.8H141.8L141.8,943.1z M152.1,941.4c-0.1-0.3-0.3-0.5-0.5-0.8l-2.2-2.1
		c-0.2-0.2-0.3-0.4-0.4-0.5c-0.1-0.2-0.1-0.4-0.1-0.7c0-0.3,0.1-0.5,0.3-0.7c0.2-0.2,0.5-0.3,0.9-0.3s0.7,0.1,0.9,0.3
		c0.2,0.2,0.3,0.4,0.3,0.7v1.1h0.9v-1c0-1.1-0.7-1.7-2-1.7c-0.7,0-1.2,0.2-1.5,0.5c-0.4,0.3-0.5,0.8-0.5,1.2c0,0.4,0,0.7,0.1,0.9
		s0.3,0.5,0.6,0.8l2.2,2.1c0.2,0.2,0.3,0.4,0.4,0.6c0.1,0.2,0.1,0.4,0.1,0.7c0,0.3-0.1,0.5-0.3,0.7c-0.2,0.2-0.5,0.3-0.9,0.3
		c-0.4,0-0.7-0.1-0.9-0.3c-0.2-0.2-0.3-0.4-0.3-0.7v-1.1h-0.9v1c0,1.1,0.7,1.7,2.1,1.7s2.1-0.6,2.1-1.7
		C152.3,941.8,152.2,941.6,152.1,941.4L152.1,941.4z M159.1,940h2.5v3.7h0.9v-8h-0.9v3.6h-2.5v-3.6h-0.9v8h0.9V940L159.1,940z
		 M172.3,943.1h-2.7v-2.9h2.2v-0.8h-2.2v-2.8h2.7v-0.8h-3.5v8h3.6L172.3,943.1L172.3,943.1z M181.4,943.4c0.3-0.3,0.5-0.8,0.5-1.2
		v-4.6c0-0.6-0.2-0.9-0.5-1.2c-0.4-0.3-0.9-0.5-1.4-0.5h-2v8h2C180.5,943.7,181.1,943.6,181.4,943.4L181.4,943.4z M180.7,942.8
		c-0.2,0.2-0.5,0.3-0.9,0.3h-1.1v-6.5h1.1c0.4,0,0.6,0.1,0.9,0.3c0.3,0.2,0.3,0.5,0.3,0.7v4.6C181,942.3,180.9,942.6,180.7,942.8
		L180.7,942.8z"/>
	<rect x="2.8" y="951.8" class="st3" width="220" height="1.9"/>
	<rect x="111.9" y="853.7" class="st3" width="1.9" height="73"/>
	<path class="st3" d="M222.8,1025.3H0.9v-1.9h221.9V1025.3z M222.8,928.1H0.9v-1.9h221.9V928.1z M222.8,857H0.9v-1.9h221.9V857z
		 M222.8,785.4H0.9v-1.9h221.9V785.4z M223,713.8H1.1v-1.9H223V713.8z"/>
	<g>
		<g>
			<defs>
				<path id="SVGID_3_" d="M100.5,712.9c0,6.5,5.3,11.9,11.9,11.9s11.9-5.3,11.9-11.9c0-6.5-5.3-11.9-11.9-11.9
					S100.5,706.3,100.5,712.9L100.5,712.9z"/>
			</defs>
			<clipPath id="SVGID_4_">
				<use xlink:href="#SVGID_3_"  style="overflow:visible;"/>
			</clipPath>
			<rect x="95.8" y="696.3" class="st4" width="33.2" height="33.2"/>
		</g>
	</g>
	<path class="st3" d="M112.4,725.7c-7,0-12.8-5.8-12.8-12.8c0-7,5.8-12.8,12.8-12.8s12.8,5.8,12.8,12.8
		C125.2,719.9,119.4,725.7,112.4,725.7z M112.4,702c-6,0-10.9,4.9-10.9,10.9c0,6,4.9,10.9,10.9,10.9c6,0,10.9-4.9,10.9-10.9
		C123.3,706.9,118.3,702,112.4,702z"/>
	<g>
		<g>
			<defs>
				<polyline id="SVGID_5_" points="119.6,710.5 112.8,717.2 106.1,710.5 				"/>
			</defs>
			<clipPath id="SVGID_6_">
				<use xlink:href="#SVGID_5_"  style="overflow:visible;"/>
			</clipPath>
			<polygon class="st5" points="112.8,719.9 104.8,711.9 107.4,709.2 112.8,714.6 118.2,709.2 120.9,711.9 			"/>
		</g>
	</g>
	<g>
		<g>
			<defs>
				<path id="SVGID_7_" d="M100.5,784.9c0,6.5,5.3,11.9,11.9,11.9s11.9-5.3,11.9-11.9c0-6.5-5.3-11.9-11.9-11.9
					S100.5,778.4,100.5,784.9L100.5,784.9z"/>
			</defs>
			<clipPath id="SVGID_8_">
				<use xlink:href="#SVGID_7_"  style="overflow:visible;"/>
			</clipPath>
			<rect x="95.8" y="768.3" class="st6" width="33.2" height="33.2"/>
		</g>
	</g>
	<path class="st3" d="M112.4,797.7c-7,0-12.8-5.8-12.8-12.8c0-7,5.8-12.8,12.8-12.8s12.8,5.8,12.8,12.8
		C125.2,792,119.4,797.7,112.4,797.7z M112.4,774c-6,0-10.9,4.9-10.9,10.9c0,6,4.9,10.9,10.9,10.9c6,0,10.9-4.9,10.9-10.9
		C123.3,778.9,118.3,774,112.4,774z"/>
	<g>
		<g>
			<defs>
				<polyline id="SVGID_9_" points="119.6,782.6 112.8,789.3 106.1,782.6 				"/>
			</defs>
			<clipPath id="SVGID_10_">
				<use xlink:href="#SVGID_9_"  style="overflow:visible;"/>
			</clipPath>
			<polygon class="st7" points="112.8,791.9 104.8,784 107.4,781.2 112.8,786.6 118.2,781.2 120.9,784 			"/>
		</g>
	</g>
	<g>
		<g>
			<defs>
				<path id="SVGID_11_" d="M100.5,856c0,6.5,5.3,11.9,11.9,11.9s11.9-5.3,11.9-11.9s-5.3-11.9-11.9-11.9S100.5,849.5,100.5,856
					L100.5,856z"/>
			</defs>
			<clipPath id="SVGID_12_">
				<use xlink:href="#SVGID_11_"  style="overflow:visible;"/>
			</clipPath>
			<rect x="95.8" y="839.4" class="st8" width="33.2" height="33.2"/>
		</g>
	</g>
	<path class="st3" d="M112.4,868.8c-7,0-12.8-5.8-12.8-12.8s5.8-12.8,12.8-12.8s12.8,5.8,12.8,12.8S119.4,868.8,112.4,868.8z
		 M112.4,845.1c-6,0-10.9,4.9-10.9,10.9s4.9,10.9,10.9,10.9c6,0,10.9-4.9,10.9-10.9S118.3,845.1,112.4,845.1z"/>
	<g>
		<g>
			<defs>
				<polyline id="SVGID_13_" points="119.6,853.7 112.8,860.4 106.1,853.7 				"/>
			</defs>
			<clipPath id="SVGID_14_">
				<use xlink:href="#SVGID_13_"  style="overflow:visible;"/>
			</clipPath>
			<polygon class="st9" points="112.8,863.1 104.8,855.1 107.4,852.3 112.8,857.7 118.2,852.3 120.9,855.1 			"/>
		</g>
	</g>
	<g>
		<g>
			<defs>
				<path id="SVGID_15_" d="M100.5,962.2c0,6.5,5.3,11.9,11.9,11.9s11.9-5.3,11.9-11.9s-5.3-11.9-11.9-11.9S100.5,955.7,100.5,962.2
					L100.5,962.2z"/>
			</defs>
			<clipPath id="SVGID_16_">
				<use xlink:href="#SVGID_15_"  style="overflow:visible;"/>
			</clipPath>
			<rect x="95.8" y="945.6" class="st10" width="33.2" height="33.2"/>
		</g>
	</g>
	<path class="st3" d="M112.4,975c-7,0-12.8-5.8-12.8-12.8c0-7,5.8-12.8,12.8-12.8s12.8,5.8,12.8,12.8
		C125.2,969.3,119.4,975,112.4,975z M112.4,951.3c-6,0-10.9,4.9-10.9,10.9s4.9,10.9,10.9,10.9c6,0,10.9-4.9,10.9-10.9
		S118.3,951.3,112.4,951.3z"/>
	<g>
		<g>
			<defs>
				<polyline id="SVGID_17_" points="119.6,959.9 112.8,966.6 106.1,959.9 				"/>
			</defs>
			<clipPath id="SVGID_18_">
				<use xlink:href="#SVGID_17_"  style="overflow:visible;"/>
			</clipPath>
			<polygon class="st11" points="112.8,969.2 104.8,961.3 107.4,958.5 112.8,963.9 118.2,958.5 120.9,961.3 			"/>
		</g>
	</g>
	<g>
		<g>
			<defs>
				<path id="SVGID_19_" d="M100.5,1024.8c0,6.5,5.3,11.9,11.9,11.9s11.9-5.3,11.9-11.9c0-6.5-5.3-11.9-11.9-11.9
					S100.5,1018.3,100.5,1024.8L100.5,1024.8z"/>
			</defs>
			<clipPath id="SVGID_20_">
				<use xlink:href="#SVGID_19_"  style="overflow:visible;"/>
			</clipPath>
			<rect x="95.8" y="1008.2" class="st12" width="33.2" height="33.2"/>
		</g>
	</g>
	<path class="st3" d="M112.4,1037.6c-7,0-12.8-5.8-12.8-12.8c0-7,5.8-12.8,12.8-12.8s12.8,5.8,12.8,12.8
		C125.2,1031.8,119.4,1037.6,112.4,1037.6z M112.4,1013.9c-6,0-10.9,4.9-10.9,10.9s4.9,10.9,10.9,10.9c6,0,10.9-4.9,10.9-10.9
		S118.3,1013.9,112.4,1013.9z"/>
	<g>
		<g>
			<defs>
				<polyline id="SVGID_21_" points="119.6,1022.4 112.8,1029.2 106.1,1022.4 				"/>
			</defs>
			<clipPath id="SVGID_22_">
				<use xlink:href="#SVGID_21_"  style="overflow:visible;"/>
			</clipPath>
			<polygon class="st13" points="112.8,1031.8 104.8,1023.9 107.4,1021.1 112.8,1026.5 118.2,1021.1 120.9,1023.9 			"/>
		</g>
	</g>
	<g>
		<path d="M31.6,595.8h-4.9v-0.3c0.9,0,1.5-0.9,1.5-2.4v-10.6c0-1.4-0.6-2.4-1.5-2.4v-0.3h4.9c4.6,0,9,1.4,9,8.1
			C40.6,594.7,36.1,595.8,31.6,595.8z M31.6,580.1h-1v15.5h1c2.5,0,6.3-0.1,6.3-7.7C37.9,580.5,34.1,580.1,31.6,580.1z"/>
		<path d="M54.1,591.1v4.7H42.7v-0.3c0.9,0,1.2-0.9,1.2-2.4v-10.9c0-1.4-0.2-2.2-1.2-2.2v-0.3h11.2v4.1h-0.3
			c-0.3-3.8-4.2-3.8-6.1-3.8h-1.2v7.5h1.5c0.6,0,3,0,3.1-2.3h0.3v4.9h-0.3c-0.1-2.3-2.6-2.3-3.1-2.3h-1.5v7.7h1c2,0,6.1,0.1,6.5-4.5
			L54.1,591.1L54.1,591.1z"/>
		<path d="M61.9,596.1c-3.7,0-5.4-1.2-5.4-1.2v-4.4h0.3c0.3,2.7,1.2,5.3,5.1,5.3c3.4,0,3.9-3.9,1.2-5.7l-3.8-2.5
			c-2.2-1.4-4.3-3.5-2.5-6.2c0,0,1.1-1.8,4.3-1.8c3.3,0,5.2,1,5.2,1v3.8h-0.3c-0.2-2.3-1.1-4.6-4.9-4.6c-2.5,0-4.4,3.1-0.9,5.4
			l3.8,2.5c3,2,3.5,4.6,2.4,6.4C66.5,594.2,65.4,596.1,61.9,596.1z"/>
		<path d="M75.1,579.8v0.3c-0.9,0-1.6,0.4-1.6,1.8v11.5c0,1.5,0.7,2.2,1.6,2.2v0.3h-5.5v-0.3c0.9,0,1.6-0.6,1.6-2.2v-11.5
			c0-1.4-0.6-1.8-1.6-1.8v-0.3H75.1z"/>
		<path d="M91.9,589.4v0.3c-1.3,0-1.5,0.2-1.5,5.3c-1.4,0.6-3.3,0.9-5.8,0.9c-4.9,0-7.5-3.7-7.5-8.2c0-4.6,2.6-8.2,7.5-8.2
			c2.7,0,4.4,0.4,5.8,1.3l-0.2,3.7h-0.5c-0.4-3.8-2.4-4.6-5.1-4.6c-2.6,0-4.6,1.7-4.6,8s2,8,4.6,8c2.7,0,3.8-0.6,3.8-2.5
			c0-3.4-0.3-3.5-1.8-3.5v-0.3L91.9,589.4L91.9,589.4z"/>
		<path d="M110.4,579.8v0.3c-3.3,0-3.2,3.3-3.2,5.4v10.3h-0.8l-9.7-12.5v6.8c0,2,0,5.4,2.9,5.4v0.3h-6.5v-0.3c3.3,0,3.3-3.3,3.3-5.4
			v-7.1l-0.9-1.2c-1.4-1.8-2.1-1.7-2.7-1.7v-0.3h4.2l9.9,12.7v-7c0-2.1,0-5.4-2.9-5.4v-0.3L110.4,579.8L110.4,579.8z"/>
		<path d="M118.6,596.3H117l7-17h1.6L118.6,596.3z"/>
		<path d="M137.1,595.8h-4.6v-0.2c0.9,0,1.3-0.9,1.3-2.6v-10.6c0-1.4-0.3-2.5-1.3-2.5v-0.2h4.6c3.1,0,5.9,0.2,5.9,3.9
			c0,3.5-3.3,3.9-3.8,3.9c1.5,0,4.8,0.3,4.8,4.2C144,595.7,141.1,595.8,137.1,595.8z M136.2,580.1v7.5h1.3c1.4,0,2.9-0.5,2.9-3.9
			c0-3.3-1.9-3.6-3.3-3.6H136.2z M137.6,587.8h-1.3v7.7h1c2.2,0,4.3,0,4.3-3.9C141.5,588,139.3,587.8,137.6,587.8z"/>
	</g>
	<g>
		<path d="M147.7,590.4v-8.2c0-1.5-0.6-2-1.6-2v-0.3h5.7v0.3c-0.9,0-1.8,0.2-1.8,2v8.4c0,2.8,1.7,4.5,4.2,4.5c2.3,0,4.1-1.6,4.1-4.6
			v-6.2c0-2.2,0-4.2-2.7-4.2v-0.3h5.9v0.3c-2.9,0-2.9,2-2.9,4.2v6.2c0,4.1-2.7,5.6-5.5,5.6C150,596.1,147.7,594.1,147.7,590.4z"/>
		<path d="M168.7,579.8v0.3c-0.9,0-1.6,0.4-1.6,1.8v11.5c0,1.5,0.7,2.2,1.6,2.2v0.3h-5.5v-0.3c0.9,0,1.6-0.6,1.6-2.2v-11.5
			c0-1.4-0.6-1.8-1.6-1.8v-0.3H168.7z"/>
		<path d="M182.3,590.8v4.9H171v-0.3c0.9,0,1.2-0.9,1.2-2.4V582c0-1.4-0.5-1.9-1.4-1.9v-0.3h5.4v0.3c-0.9,0-1.7,0.4-1.7,2v13.4h0.9
			c2.5,0,6.3,0,6.7-4.6L182.3,590.8L182.3,590.8z"/>
		<path d="M189.5,595.8h-4.9v-0.3c0.9,0,1.5-0.9,1.5-2.4v-10.6c0-1.4-0.6-2.4-1.5-2.4v-0.3h4.9c4.6,0,9,1.4,9,8.1
			C198.6,594.7,194.1,595.8,189.5,595.8z M189.5,580.1h-1v15.5h1c2.5,0,6.3-0.1,6.3-7.7C195.9,580.5,192.1,580.1,189.5,580.1z"/>
	</g>
	<g>
		<path d="M90,615.5c0,2.7,0.9,2.8,2.3,2.8v0.3h-6v-0.3c1.1,0,1.5-0.6,1.5-2.7v-10.5c0-1.6-0.3-2.2-1.4-2.2v-0.3h4.1
			c4.6,0,7.5,0.6,7.5,4.6c0,4-3,4.6-7.5,4.6h-0.4L90,615.5L90,615.5z M90.5,611.4c2.7,0,5-0.1,5-4.3c0-4.4-2.4-4.3-5-4.3h-0.4v8.5
			H90.5z"/>
		<path d="M112.4,618.5h-5.2v-0.3c1.2,0,1-1.3,0.5-2.6l-0.8-2H101c-0.6,1.8-1.6,4.6,1.5,4.6v0.3h-5.1v-0.3c0.9,0,1.4-0.1,3.4-5.4
			l3.8-10.3h0.3c2.7,6.7,5.6,13.8,5.6,13.8c0.8,1.8,1.2,1.8,1.9,1.8V618.5z M106.8,613.4l-2.9-7.6l-2.7,7.6H106.8z"/>
	</g>
	<g>
		<path d="M125.9,602.5v4h-0.3c-0.1-3.7-3.9-3.7-4.2-3.7h-1.3v13.6c0,1.5,0.7,1.9,1.7,1.9v0.3h-5.6v-0.3c0.9,0,1.6-0.4,1.6-1.9
			v-13.6h-1.3c-0.7,0-4.1,0-4.2,3.7h-0.3v-4H125.9z"/>
		<path d="M138.8,615.5c0,1.9-0.1,2.5,1.1,2.8v0.3h-4v-0.3c0.6-0.2,0.7-0.8,0.7-2.8v-4.4h-6.3v4.4c0,2.3,0,2.6,0.7,2.8v0.3H127v-0.3
			c1.2-0.3,1.1-0.6,1.1-2.8v-9.8c0-2.1,0-2.7-1.1-2.8v-0.3h4.1v0.3c-0.7,0.2-0.7,0.7-0.7,2.8v5h6.3v-5c0-2.2,0-2.7-0.7-2.8v-0.3h4
			v0.3c-1,0.2-1.1,0.7-1.1,2.8V615.5z"/>
	</g>
	<polygon class="st0" points="0,64.8 225.7,64.8 225.7,522.8 0,522.8 	"/>
	<g>
		<g>
			<defs>
				<rect id="SVGID_23_" y="64.8" width="225.7" height="458"/>
			</defs>
			<clipPath id="SVGID_24_">
				<use xlink:href="#SVGID_23_"  style="overflow:visible;"/>
			</clipPath>
			<path class="st14" d="M229.5,526.6H-3.8V61h233.2V526.6z M3.8,519h218.1V68.6H3.8V519z"/>
		</g>
	</g>
	<path d="M144.4,390.6h1.3c0.9,0,1.5-0.2,1.9-0.6c0.5-0.4,0.7-0.9,0.7-1.7v-2.7c0-0.7-0.2-1.2-0.7-1.7c-0.5-0.4-1-0.6-1.9-0.6h-2.5
		v10.4h1.1V390.6L144.4,390.6z M145.7,389.6h-1.3v-5.3h1.3c0.5,0,0.9,0.1,1,0.4c0.3,0.2,0.4,0.6,0.4,0.9v2.7
		C147.2,389.3,146.7,389.6,145.7,389.6L145.7,389.6L145.7,389.6z M155.6,392.9H152V389h2.8V388H152v-3.7h3.5v-0.9h-4.6v10.4h4.7
		L155.6,392.9L155.6,392.9z M159.1,390.1h1.3l1.9,3.7h1.2l-2-3.9c0.9-0.3,1.4-1,1.4-2.1v-2.3c0-0.7-0.2-1.2-0.7-1.7
		c-0.5-0.4-1-0.6-1.9-0.6H158v10.4h1.1L159.1,390.1L159.1,390.1z M160.4,389.2h-1.3v-4.8h1.3c0.5,0,0.9,0.1,1,0.4
		c0.3,0.2,0.4,0.6,0.4,0.9v2.3C161.8,388.8,161.4,389.2,160.4,389.2L160.4,389.2L160.4,389.2z M167,385.2l1.9,7h1l1.9-7v8.6h1.1
		v-10.4h-1.7l-1.9,6.9l-1.8-6.9h-1.7v10.4h1.1L167,385.2L167,385.2z M177.6,392.9v-8.5h0.9v-0.9h-2.7v0.9h0.9v8.5h-0.9v0.9h2.7v-0.9
		H177.6L177.6,392.9z M180,383.4v0.9h2.1v9.5h1.1v-9.5h2.1v-0.9H180L180,383.4z M192.4,390.7c-0.1-0.3-0.4-0.7-0.7-0.9l-2.8-2.7
		c-0.3-0.2-0.4-0.5-0.5-0.7s-0.1-0.5-0.1-0.9c0-0.4,0.1-0.7,0.4-0.9c0.3-0.2,0.7-0.3,1.1-0.3c0.5,0,0.9,0.1,1.1,0.3
		c0.3,0.2,0.4,0.5,0.4,0.9v1.4h1.1v-1.3c0-1.5-0.9-2.3-2.6-2.3c-0.9,0-1.6,0.2-2,0.6c-0.5,0.4-0.7,0.9-0.7,1.7
		c0,0.5,0.1,0.9,0.2,1.2c0.1,0.3,0.4,0.7,0.7,0.9l2.8,2.7c0.3,0.3,0.4,0.5,0.5,0.7s0.1,0.5,0.1,0.9s-0.1,0.7-0.4,0.9
		s-0.7,0.3-1.2,0.3c-0.6,0-0.9-0.1-1.2-0.3c-0.3-0.2-0.4-0.5-0.4-0.9v-1.4h-1.1v1.3c0,1.5,0.9,2.3,2.7,2.3s2.7-0.8,2.7-2.3
		C192.6,391.3,192.5,391,192.4,390.7L192.4,390.7z"/>
	<path d="M43.1,382.1c-0.1-0.3-0.4-0.7-0.7-0.9l-2.8-2.7c-0.3-0.2-0.4-0.5-0.5-0.7s-0.1-0.5-0.1-0.9c0-0.4,0.1-0.7,0.4-0.9
		c0.3-0.2,0.7-0.3,1.1-0.3s0.9,0.1,1.1,0.3c0.3,0.2,0.4,0.5,0.4,0.9v1.4h1.1v-1.3c0-1.5-0.9-2.3-2.6-2.3c-0.9,0-1.6,0.2-2,0.6
		c-0.5,0.4-0.7,0.9-0.7,1.7c0,0.5,0.1,0.9,0.2,1.2c0.1,0.3,0.4,0.7,0.7,0.9l2.8,2.7c0.3,0.3,0.4,0.5,0.5,0.7
		c0.1,0.2,0.1,0.5,0.1,0.9c0,0.4-0.1,0.7-0.4,0.9c-0.3,0.2-0.7,0.3-1.2,0.3c-0.6,0-0.9-0.1-1.2-0.3c-0.3-0.2-0.4-0.5-0.4-0.9v-1.4
		h-1.1v1.3c0,1.5,0.9,2.3,2.7,2.3c1.8,0,2.7-0.8,2.7-2.3C43.3,382.8,43.2,382.4,43.1,382.1L43.1,382.1z M50.9,384.3h-3.6v-3.9h2.8
		v-0.9h-2.8v-3.7h3.5v-0.9h-4.6v10.4H51L50.9,384.3L50.9,384.3z M57.5,385.3v-0.9h-2.9v-9.5h-1.1v10.4H57.5L57.5,385.3z M64.1,384.3
		h-3.6v-3.9h2.8v-0.9h-2.8v-3.7H64v-0.9h-4.6v10.4h4.7L64.1,384.3L64.1,384.3z M68.9,384.6c-1,0-1.5-0.5-1.5-1.3v-6.4
		c0-0.9,0.5-1.3,1.5-1.3c1,0,1.5,0.5,1.5,1.3v1.5h1.1v-1.5c0-0.8-0.2-1.2-0.7-1.7c-0.5-0.4-1.1-0.6-2-0.6s-1.5,0.2-2,0.6
		c-0.5,0.4-0.7,0.9-0.7,1.7v6.4c0,0.8,0.2,1.2,0.7,1.7c0.5,0.4,1.1,0.6,2,0.6s1.5-0.2,2-0.6c0.5-0.4,0.7-0.9,0.7-1.7v-0.9h-1.1v0.9
		C70.5,384.1,70,384.6,68.9,384.6L68.9,384.6z M73.3,374.8v0.9h2.1v9.5h1.1v-9.5h2.1v-0.9H73.3L73.3,374.8z"/>
	<path d="M23.3,400.7c-1,0-1.5-0.5-1.5-1.3V393c0-0.9,0.5-1.3,1.5-1.3c1,0,1.5,0.5,1.5,1.3v1.5H26V393c0-0.8-0.2-1.2-0.7-1.7
		c-0.5-0.4-1.1-0.6-2-0.6s-1.5,0.2-2,0.6c-0.5,0.4-0.7,0.9-0.7,1.7v6.4c0,0.8,0.2,1.2,0.7,1.7c0.5,0.5,1.1,0.6,2,0.6s1.5-0.2,2-0.6
		c0.5-0.4,0.7-0.9,0.7-1.7v-0.9h-1.1v0.9C24.8,400.3,24.3,400.7,23.3,400.7L23.3,400.7z M33.3,391.3c-0.5-0.4-1.1-0.6-2.1-0.6
		c-0.9,0-1.6,0.2-2.1,0.6c-0.5,0.4-0.7,0.9-0.7,1.7v6.4c0,0.8,0.2,1.2,0.7,1.7c0.5,0.5,1.1,0.6,2.1,0.6c0.9,0,1.6-0.2,2.1-0.6
		c0.5-0.4,0.7-0.9,0.7-1.7v-6.4C34,392.3,33.8,391.7,33.3,391.3L33.3,391.3z M31.3,400.7c-1,0-1.6-0.5-1.6-1.3V393
		c0-0.9,0.6-1.3,1.6-1.3c1,0,1.6,0.5,1.6,1.3v6.4C32.9,400.3,32.3,400.7,31.3,400.7L31.3,400.7z M38.1,393.3l3.5,8.1h1.1V391h-1.1
		v8.1l-3.5-8.1H37v10.4h1.1V393.3L38.1,393.3z M44.8,391v0.9h2.1v9.5h1.1v-9.5h2.1V391H44.8L44.8,391z M53.4,397.7h1.3l1.9,3.7h1.2
		l-2-3.9c0.9-0.3,1.4-1,1.4-2.1v-2.3c0-0.7-0.2-1.2-0.7-1.7c-0.5-0.4-1-0.6-1.9-0.6h-2.5v10.4h1.1L53.4,397.7L53.4,397.7z
		 M54.7,396.8h-1.3v-4.8h1.3c0.5,0,0.9,0.1,1,0.4c0.3,0.2,0.4,0.6,0.4,0.9v2.3C56.1,396.4,55.7,396.8,54.7,396.8L54.7,396.8
		L54.7,396.8z M59.1,401.4h1.1l0.6-2.4h3l0.6,2.4h1.1L63.1,391h-1.7L59.1,401.4L59.1,401.4z M63.6,398.1H61l1.3-5.9L63.6,398.1
		L63.6,398.1z M70.3,400.7c-1,0-1.5-0.5-1.5-1.3V393c0-0.9,0.5-1.3,1.5-1.3c1,0,1.5,0.5,1.5,1.3v1.5h1.1V393c0-0.8-0.2-1.2-0.7-1.7
		c-0.5-0.4-1.1-0.6-2-0.6s-1.5,0.2-2,0.6c-0.5,0.4-0.7,0.9-0.7,1.7v6.4c0,0.8,0.2,1.2,0.7,1.7c0.5,0.5,1.1,0.6,2,0.6s1.5-0.2,2-0.6
		c0.5-0.4,0.7-0.9,0.7-1.7v-0.9h-1.1v0.9C71.8,400.3,71.2,400.7,70.3,400.7L70.3,400.7z M74.5,391v0.9h2.1v9.5h1.1v-9.5h2.1V391
		H74.5L74.5,391z M86.6,391.3c-0.5-0.4-1.1-0.6-2.1-0.6c-0.9,0-1.6,0.2-2.1,0.6c-0.5,0.4-0.7,0.9-0.7,1.7v6.4c0,0.8,0.2,1.2,0.7,1.7
		c0.5,0.5,1.1,0.6,2.1,0.6c0.9,0,1.6-0.2,2.1-0.6c0.5-0.4,0.7-0.9,0.7-1.7v-6.4C87.2,392.3,86.9,391.7,86.6,391.3L86.6,391.3z
		 M84.5,400.7c-1,0-1.6-0.5-1.6-1.3V393c0-0.9,0.6-1.3,1.6-1.3c1,0,1.6,0.5,1.6,1.3v6.4C86.1,400.3,85.5,400.7,84.5,400.7
		L84.5,400.7z M91.3,397.7h1.3l1.9,3.7h1.2l-2-3.9c0.9-0.3,1.4-1,1.4-2.1v-2.3c0-0.7-0.2-1.2-0.7-1.7c-0.5-0.4-1-0.6-1.9-0.6h-2.5
		v10.4h1.1L91.3,397.7L91.3,397.7z M92.6,396.8h-1.3v-4.8h1.3c0.5,0,0.9,0.1,1,0.4c0.3,0.2,0.4,0.6,0.4,0.9v2.3
		C94.1,396.4,93.6,396.8,92.6,396.8L92.6,396.8L92.6,396.8z"/>
	<path d="M63,176.4c-0.1-0.3-0.4-0.7-0.7-0.9l-2.8-2.7c-0.3-0.2-0.4-0.5-0.5-0.7c-0.1-0.2-0.1-0.5-0.1-0.9s0.1-0.7,0.4-0.9
		c0.3-0.2,0.7-0.3,1.1-0.3c0.5,0,0.9,0.1,1.1,0.3c0.3,0.2,0.4,0.5,0.4,0.9v1.4h1.1v-1.3c0-1.5-0.9-2.3-2.6-2.3c-0.9,0-1.6,0.2-2,0.6
		c-0.5,0.4-0.7,0.9-0.7,1.7c0,0.5,0.1,0.9,0.2,1.2c0.1,0.3,0.4,0.7,0.7,0.9l2.8,2.7c0.3,0.3,0.4,0.5,0.5,0.7
		c0.1,0.2,0.1,0.5,0.1,0.9s-0.1,0.7-0.4,0.9c-0.3,0.2-0.7,0.3-1.2,0.3c-0.6,0-0.9-0.1-1.2-0.3c-0.3-0.2-0.4-0.5-0.4-0.9v-1.4h-1.1
		v1.3c0,1.5,0.9,2.3,2.7,2.3c1.8,0,2.7-0.8,2.7-2.3C63.1,177.1,63.1,176.7,63,176.4L63,176.4z M70.7,178.6h-3.6v-3.9H70v-0.9h-2.8
		V170h3.5v-0.9h-4.6v10.4h4.7L70.7,178.6L70.7,178.6z M77.3,179.5v-0.9h-2.9v-9.5h-1.1v10.4H77.3L77.3,179.5z M83.9,178.6h-3.6v-3.9
		h2.8v-0.9h-2.8V170h3.5v-0.9h-4.6v10.4H84L83.9,178.6L83.9,178.6z M88.7,178.9c-1,0-1.5-0.5-1.5-1.3v-6.4c0-0.9,0.5-1.3,1.5-1.3
		s1.5,0.5,1.5,1.3v1.5h1.1v-1.5c0-0.8-0.2-1.2-0.7-1.7c-0.5-0.4-1.1-0.6-2-0.6s-1.5,0.2-2,0.6c-0.5,0.4-0.7,0.9-0.7,1.7v6.4
		c0,0.8,0.2,1.2,0.7,1.7c0.5,0.4,1.1,0.6,2,0.6s1.5-0.2,2-0.6c0.5-0.4,0.7-0.9,0.7-1.7v-0.9h-1.1v0.9
		C90.4,178.4,89.8,178.9,88.7,178.9L88.7,178.9z M93.1,169.1v0.9h2.1v9.5h1.1V170h2.1v-0.9H93.1L93.1,169.1z M103.3,179.5h1.1
		l0.6-2.4h3l0.6,2.4h1.1l-2.4-10.4h-1.7L103.3,179.5L103.3,179.5z M107.8,176.2h-2.7l1.3-5.9L107.8,176.2L107.8,176.2z M113.1,175.8
		h1.3l1.9,3.7h1.2l-2-3.9c0.9-0.3,1.4-1,1.4-2.1v-2.3c0-0.7-0.2-1.2-0.7-1.7c-0.5-0.4-1-0.6-1.9-0.6H112v10.4h1.1L113.1,175.8
		L113.1,175.8z M114.4,174.9h-1.3V170h1.3c0.5,0,0.9,0.1,1,0.4c0.3,0.2,0.4,0.6,0.4,0.9v2.3C115.9,174.5,115.4,174.9,114.4,174.9
		L114.4,174.9L114.4,174.9z M122.2,178.9c-1,0-1.5-0.5-1.5-1.3v-6.4c0-0.9,0.5-1.3,1.5-1.3s1.5,0.5,1.5,1.3v1.5h1.1v-1.5
		c0-0.8-0.2-1.2-0.7-1.7c-0.5-0.4-1.1-0.6-2-0.6s-1.5,0.2-2,0.6c-0.5,0.4-0.7,0.9-0.7,1.7v6.4c0,0.8,0.2,1.2,0.7,1.7
		c0.5,0.4,1.1,0.6,2,0.6s1.5-0.2,2-0.6c0.5-0.4,0.7-0.9,0.7-1.7v-0.9h-1.1v0.9C123.7,178.4,123.3,178.9,122.2,178.9L122.2,178.9z
		 M128.9,174.7h3.1v4.8h1.1v-10.4H132v4.6h-3.1v-4.6h-1.1v10.4h1.1V174.7L128.9,174.7z M137.8,178.6V170h0.9v-0.9h-2.7v0.9h0.9v8.5
		h-0.9v0.9h2.7v-0.9H137.8L137.8,178.6z M140.2,169.1v0.9h2.1v9.5h1.1V170h2.1v-0.9H140.2L140.2,169.1z M152.4,178.6h-3.6v-3.9h2.8
		v-0.9h-2.8V170h3.5v-0.9h-4.6v10.4h4.7L152.4,178.6L152.4,178.6z M157.2,178.9c-1,0-1.5-0.5-1.5-1.3v-6.4c0-0.9,0.5-1.3,1.5-1.3
		s1.5,0.5,1.5,1.3v1.5h1.1v-1.5c0-0.8-0.2-1.2-0.7-1.7c-0.5-0.4-1.1-0.6-2-0.6s-1.5,0.2-2,0.6c-0.5,0.4-0.7,0.9-0.7,1.7v6.4
		c0,0.8,0.2,1.2,0.7,1.7c0.5,0.4,1.1,0.6,2,0.6s1.5-0.2,2-0.6c0.5-0.4,0.7-0.9,0.7-1.7v-0.9h-1.1v0.9
		C158.7,178.4,158.2,178.9,157.2,178.9L157.2,178.9z M161.6,169.1v0.9h2.1v9.5h1.1V170h2.1v-0.9H161.6L161.6,169.1z"/>
	<path d="M43.9,250.5c-1,0-1.5-0.5-1.5-1.3v-6.4c0-0.9,0.5-1.3,1.5-1.3c1,0,1.5,0.5,1.5,1.3v1.5h1.1v-1.5c0-0.8-0.2-1.2-0.7-1.7
		c-0.5-0.4-1.1-0.6-2-0.6s-1.5,0.2-2,0.6c-0.5,0.4-0.7,0.9-0.7,1.7v6.4c0,0.8,0.2,1.2,0.7,1.7c0.5,0.4,1.1,0.6,2,0.6s1.5-0.2,2-0.6
		c0.5-0.4,0.7-0.9,0.7-1.7v-0.9h-1.1v0.9C45.4,250,44.8,250.5,43.9,250.5L43.9,250.5z M53.9,241.1c-0.5-0.4-1.1-0.6-2.1-0.6
		c-0.9,0-1.6,0.2-2.1,0.6c-0.5,0.4-0.7,0.9-0.7,1.7v6.4c0,0.8,0.2,1.2,0.7,1.7c0.5,0.4,1.1,0.6,2.1,0.6c0.9,0,1.6-0.2,2.1-0.6
		c0.5-0.4,0.7-0.9,0.7-1.7v-6.5C54.6,242,54.3,241.4,53.9,241.1L53.9,241.1z M51.9,250.5c-1,0-1.6-0.5-1.6-1.3v-6.4
		c0-0.9,0.6-1.3,1.6-1.3s1.6,0.5,1.6,1.3v6.4C53.5,250,52.9,250.5,51.9,250.5L51.9,250.5z M58.7,243.1l3.5,8.1h1.1v-10.4h-1.1v8.1
		l-3.5-8.1h-1.1v10.4h1.1V243.1L58.7,243.1z M68.9,250.5c-1,0-1.5-0.5-1.5-1.3v-6.4c0-0.9,0.5-1.3,1.5-1.3c1,0,1.5,0.5,1.5,1.3v1.5
		h1.1v-1.5c0-0.8-0.2-1.2-0.7-1.7c-0.5-0.4-1.1-0.6-2-0.6s-1.5,0.2-2,0.6c-0.5,0.4-0.7,0.9-0.7,1.7v6.4c0,0.8,0.2,1.2,0.7,1.7
		c0.5,0.4,1.1,0.6,2,0.6s1.5-0.2,2-0.6c0.5-0.4,0.7-0.9,0.7-1.7v-0.9h-1.1v0.9C70.4,250,70,250.5,68.9,250.5L68.9,250.5z
		 M79.2,250.2h-3.6v-3.9h2.8v-0.9h-2.8v-3.7h3.5v-0.9h-4.6v10.4h4.7L79.2,250.2L79.2,250.2z M82.6,247.9h1.3c0.9,0,1.5-0.2,1.9-0.6
		c0.5-0.4,0.7-0.9,0.7-1.7v-2.7c0-0.7-0.2-1.2-0.7-1.7c-0.5-0.4-1-0.6-1.9-0.6h-2.5V251h1.1V247.9L82.6,247.9z M83.9,246.9h-1.3
		v-5.3h1.3c0.5,0,0.9,0.1,1,0.4c0.3,0.2,0.4,0.6,0.4,0.9v2.7C85.3,246.6,84.9,246.9,83.9,246.9L83.9,246.9L83.9,246.9z M87.9,240.7
		v0.9H90v9.5h1.1v-9.5h2.1v-0.9H87.9L87.9,240.7z M97.8,250.5c-1,0-1.6-0.5-1.6-1.3v-8.4h-1.1v8.4c0,0.8,0.2,1.2,0.7,1.7
		c0.5,0.4,1.1,0.6,2.1,0.6c0.9,0,1.6-0.2,2.1-0.6c0.5-0.4,0.7-0.9,0.7-1.7v-8.4h-1.1v8.4C99.5,250,99,250.5,97.8,250.5L97.8,250.5z
		 M102.7,251.1h1.1l0.6-2.4h3l0.6,2.4h1.1l-2.4-10.4h-1.7L102.7,251.1L102.7,251.1z M107.2,247.8h-2.7l1.3-5.9L107.2,247.8
		L107.2,247.8z M115.5,251.1v-0.9h-2.9v-9.5h-1.1v10.4H115.5L115.5,251.1z M125.6,250.5c0.5-0.4,0.7-0.9,0.7-1.7v-6
		c0-0.7-0.2-1.2-0.7-1.7c-0.5-0.4-1-0.6-1.9-0.6h-2.6V251h2.6C124.6,251.1,125.3,250.9,125.6,250.5L125.6,250.5z M124.8,249.8
		c-0.3,0.3-0.6,0.4-1,0.4h-1.4v-8.5h1.4c0.5,0,0.8,0.1,1,0.4c0.3,0.3,0.4,0.6,0.4,0.9v6C125.2,249.2,125.1,249.6,124.8,249.8
		L124.8,249.8z M130.4,247.4h1.3l1.9,3.7h1.2l-2-3.9c0.9-0.3,1.4-1,1.4-2.1v-2.3c0-0.7-0.2-1.2-0.7-1.7c-0.5-0.4-1-0.6-1.9-0.6h-2.5
		V251h1.1L130.4,247.4L130.4,247.4z M131.7,246.5h-1.3v-4.8h1.3c0.5,0,0.9,0.1,1,0.4c0.3,0.2,0.4,0.6,0.4,0.9v2.3
		C133.1,246.1,132.6,246.5,131.7,246.5L131.7,246.5L131.7,246.5z M136.2,251.1h1.1l0.6-2.4h3l0.6,2.4h1.1l-2.4-10.4h-1.7
		L136.2,251.1L136.2,251.1z M140.6,247.8H138l1.3-5.9L140.6,247.8L140.6,247.8z"/>
	<path d="M148.4,242.8l1.6,8.3h1.6l1.5-10.4H152l-1.3,8.8l-1.7-8.8h-1.2l-1.7,8.8l-1.3-8.8h-1.1l1.5,10.4h1.6L148.4,242.8
		L148.4,242.8z M156.9,250.2v-8.5h0.9v-0.9H155v0.9h0.9v8.5H155v0.9h2.7v-0.9H156.9L156.9,250.2z M161.7,243.1l3.5,8.1h1.1v-10.4
		h-1.1v8.1l-3.5-8.1h-1.1v10.4h1.1V243.1L161.7,243.1z M173.4,246.8v2c0,0.4-0.2,0.7-0.6,1c-0.4,0.4-0.9,0.6-1.2,0.6
		c-0.5,0-0.8-0.1-0.9-0.4c-0.2-0.2-0.3-0.6-0.3-0.9v-6.4c0-0.9,0.5-1.3,1.5-1.3s1.5,0.5,1.5,1.3v0.9h1.1v-0.9c0-0.8-0.2-1.2-0.7-1.7
		c-0.5-0.4-1.1-0.6-2-0.6s-1.5,0.2-2,0.6c-0.5,0.4-0.7,0.9-0.7,1.7v6.4c0,1.5,0.8,2.3,2.4,2.3c0.5,0,0.9-0.1,1.2-0.4
		c0.4-0.2,0.7-0.6,0.9-0.9l0.4,1h0.5v-5.3h-2.9v0.9L173.4,246.8L173.4,246.8z M182.5,248c-0.1-0.3-0.4-0.7-0.7-0.9l-2.8-2.7
		c-0.3-0.2-0.4-0.5-0.5-0.7c-0.1-0.2-0.1-0.5-0.1-0.9c0-0.4,0.1-0.7,0.4-0.9c0.3-0.2,0.7-0.3,1.1-0.3s0.9,0.1,1.1,0.3
		c0.3,0.2,0.4,0.5,0.4,0.9v1.4h1.1v-1.6c0-1.5-0.9-2.3-2.6-2.3c-0.9,0-1.6,0.2-2,0.6c-0.5,0.4-0.7,0.9-0.7,1.7
		c0,0.5,0.1,0.9,0.2,1.2c0.1,0.3,0.4,0.7,0.7,0.9l2.8,2.7c0.3,0.3,0.4,0.5,0.5,0.7c0.1,0.2,0.1,0.5,0.1,0.9c0,0.4-0.1,0.7-0.4,0.9
		c-0.3,0.2-0.7,0.3-1.2,0.3c-0.6,0-0.9-0.1-1.2-0.3c-0.3-0.2-0.4-0.5-0.4-0.9v-1.4h-1.1v1.3c0,1.5,0.9,2.3,2.7,2.3s2.7-0.8,2.7-2.3
		C182.6,248.7,182.6,248.3,182.5,248L182.5,248z"/>
	<path d="M63.3,317.9H66v-0.9h-2.7v-3.7h3.3v-0.9h-4.5v10.4h1.1V317.9L63.3,317.9z M70.4,321.8v-8.5h0.9v-0.9h-2.7v0.9h0.9v8.5h-0.9
		v0.9h2.7v-0.9H70.4L70.4,321.8z M75,314.6l3.5,8.1h1.1v-10.4h-1.1v8.1l-3.5-8.1h-1.1v10.4H75V314.6L75,314.6z M81.9,322.7h1.1
		l0.6-2.4h3l0.6,2.4h1.1L86,312.3h-1.7L81.9,322.7L81.9,322.7z M86.5,319.4h-2.7l1.3-5.9L86.5,319.4L86.5,319.4z M94.7,322.7v-0.9
		h-2.9v-9.5h-1.1v10.4H94.7L94.7,322.7z M104.9,322.1c0.5-0.4,0.7-0.9,0.7-1.7v-6c0-0.7-0.2-1.2-0.7-1.7c-0.5-0.4-1-0.6-1.9-0.6
		h-2.6v10.4h2.6C103.8,322.7,104.4,322.5,104.9,322.1L104.9,322.1z M104,321.4c-0.3,0.3-0.6,0.4-1,0.4h-1.4v-8.5h1.4
		c0.5,0,0.8,0.1,1,0.4c0.3,0.3,0.4,0.6,0.4,0.9v6C104.4,320.8,104.2,321.2,104,321.4L104,321.4z M109.6,319h1.3l1.9,3.7h1.2l-2-3.9
		c0.9-0.3,1.4-1,1.4-2.1v-2.3c0-0.7-0.2-1.2-0.7-1.7c-0.5-0.4-1-0.6-1.9-0.6h-2.5v10.4h1.1L109.6,319L109.6,319z M110.9,318.1h-1.3
		v-4.8h1.3c0.5,0,0.9,0.1,1,0.4c0.3,0.2,0.4,0.6,0.4,0.9v2.3C112.4,317.7,111.9,318.1,110.9,318.1L110.9,318.1L110.9,318.1z
		 M115.3,322.7h1.1l0.6-2.4h3l0.6,2.4h1.1l-2.4-10.4h-1.7L115.3,322.7L115.3,322.7z M119.8,319.4h-2.7l1.3-5.9L119.8,319.4
		L119.8,319.4z"/>
	<path d="M127.5,314.4l1.6,8.3h1.6l1.5-10.4h-1.1l-1.3,8.8l-1.7-8.8h-1.2l-1.7,8.8l-1.3-8.8h-1.1l1.5,10.4h1.6L127.5,314.4
		L127.5,314.4z M136.2,321.8v-8.5h0.8v-0.9h-2.7v0.9h0.8v8.5h-0.8v0.9h2.7v-0.9H136.2L136.2,321.8z M140.8,314.6l3.5,8.1h1.1v-10.4
		h-1.1v8.1l-3.5-8.1h-1.1v10.4h1.1V314.6L140.8,314.6z M152.7,318.4v2c0,0.4-0.2,0.7-0.6,1c-0.4,0.4-0.9,0.6-1.2,0.6
		c-0.5,0-0.8-0.1-0.9-0.4c-0.2-0.2-0.3-0.6-0.3-0.9v-6.4c0-0.9,0.5-1.3,1.5-1.3c1,0,1.5,0.5,1.5,1.3v0.9h1.1v-0.9
		c0-0.8-0.2-1.2-0.7-1.7c-0.5-0.4-1.1-0.6-2-0.6s-1.5,0.2-2,0.6c-0.5,0.4-0.7,0.9-0.7,1.7v6.4c0,1.5,0.8,2.3,2.4,2.3
		c0.5,0,0.9-0.1,1.2-0.4c0.4-0.2,0.7-0.6,0.9-0.9l0.4,1h0.5v-5.3h-2.9v0.9L152.7,318.4L152.7,318.4z M161.7,319.6
		c-0.1-0.3-0.4-0.7-0.7-0.9l-2.8-2.7c-0.3-0.2-0.4-0.5-0.5-0.7c-0.1-0.2-0.1-0.5-0.1-0.9c0-0.4,0.1-0.7,0.4-0.9s0.7-0.3,1.1-0.3
		s0.9,0.1,1.1,0.3c0.3,0.2,0.4,0.5,0.4,0.9v1.4h1.1v-1.3c0-1.5-0.9-2.3-2.6-2.3c-0.9,0-1.6,0.2-2,0.6c-0.5,0.4-0.7,0.9-0.7,1.7
		c0,0.5,0.1,0.9,0.2,1.2c0.1,0.3,0.4,0.7,0.7,0.9l2.8,2.7c0.3,0.3,0.4,0.5,0.5,0.7s0.1,0.5,0.1,0.9s-0.1,0.7-0.4,0.9
		s-0.7,0.3-1.2,0.3c-0.6,0-0.9-0.1-1.2-0.3s-0.4-0.5-0.4-0.9v-1.4h-1.1v1.3c0,1.5,0.9,2.3,2.7,2.3s2.7-0.8,2.7-2.3
		C161.8,320.2,161.8,319.9,161.7,319.6L161.7,319.6z"/>
	<path d="M69.9,489.9c-1,0-1.5-0.5-1.5-1.3v-6.4c0-0.9,0.5-1.3,1.5-1.3c1,0,1.5,0.5,1.5,1.3v1.5h1.1v-1.5c0-0.8-0.2-1.2-0.7-1.7
		c-0.5-0.4-1.1-0.6-2-0.6s-1.5,0.2-2,0.6c-0.5,0.4-0.7,0.9-0.7,1.7v6.4c0,0.8,0.2,1.2,0.7,1.7c0.5,0.5,1.1,0.6,2,0.6s1.5-0.2,2-0.6
		c0.5-0.4,0.7-0.9,0.7-1.7v-0.9h-1.1v0.9C71.5,489.4,70.9,489.9,69.9,489.9L69.9,489.9z M79.9,480.5c-0.5-0.4-1.1-0.6-2.1-0.6
		s-1.6,0.2-2.1,0.6c-0.5,0.4-0.7,0.9-0.7,1.7v6.4c0,0.8,0.2,1.2,0.7,1.7c0.5,0.4,1.1,0.6,2.1,0.6s1.6-0.2,2.1-0.6
		c0.5-0.4,0.7-0.9,0.7-1.7v-6.4C80.6,481.4,80.4,480.9,79.9,480.5L79.9,480.5z M77.9,489.9c-1,0-1.6-0.5-1.6-1.3v-6.4
		c0-0.9,0.6-1.3,1.6-1.3c1,0,1.6,0.5,1.6,1.3v6.4C79.5,489.4,79,489.9,77.9,489.9L77.9,489.9z M84.8,482.5l3.5,8.1h1.1V480h-1.1v8.1
		l-3.5-8.1h-1.1v10.5h1.1V482.5L84.8,482.5z M97.6,487.4c-0.1-0.3-0.4-0.7-0.7-0.9l-2.8-2.7c-0.3-0.2-0.4-0.5-0.5-0.7
		c-0.1-0.2-0.1-0.5-0.1-0.9s0.1-0.7,0.4-0.9c0.3-0.2,0.7-0.3,1.1-0.3s0.9,0.1,1.1,0.3c0.3,0.2,0.4,0.5,0.4,0.9v1.4h1.1v-1.3
		c0-1.5-0.9-2.3-2.6-2.3c-0.9,0-1.6,0.2-2,0.6c-0.5,0.4-0.7,0.9-0.7,1.7c0,0.5,0.1,0.9,0.2,1.2c0.1,0.3,0.4,0.7,0.7,0.9l2.8,2.7
		c0.3,0.3,0.4,0.5,0.5,0.7c0.1,0.2,0.1,0.5,0.1,0.9c0,0.4-0.1,0.7-0.4,0.9c-0.3,0.2-0.7,0.3-1.2,0.3s-0.9-0.1-1.2-0.3
		c-0.3-0.2-0.4-0.5-0.4-0.9v-1.4h-1.1v1.3c0,1.5,0.9,2.3,2.7,2.3c1.8,0,2.7-0.8,2.7-2.3C97.8,488.1,97.7,487.7,97.6,487.4
		L97.6,487.4z M99.5,480.1v0.9h2.1v9.5h1.1V481h2.1v-0.9H99.5L99.5,480.1z M108,486.8h1.3l1.9,3.7h1.2l-2-3.9c0.9-0.3,1.4-1,1.4-2.1
		v-2.3c0-0.7-0.2-1.2-0.7-1.7c-0.5-0.4-1-0.6-1.9-0.6h-2.5v10.5h1.1L108,486.8L108,486.8z M109.3,485.9H108V481h1.3
		c0.5,0,0.9,0.1,1,0.4c0.3,0.2,0.4,0.6,0.4,0.9v2.3C110.7,485.5,110.3,485.9,109.3,485.9L109.3,485.9L109.3,485.9z M117.3,489.9
		c-1,0-1.6-0.5-1.6-1.3v-8.4h-1.1v8.4c0,0.8,0.2,1.2,0.7,1.7c0.5,0.5,1.1,0.6,2.1,0.6s1.6-0.2,2.1-0.6c0.5-0.4,0.7-0.9,0.7-1.7v-8.4
		h-1.1v8.4C118.9,489.4,118.4,489.9,117.3,489.9L117.3,489.9z M125.5,489.9c-1,0-1.5-0.5-1.5-1.3v-6.4c0-0.9,0.5-1.3,1.5-1.3
		c1,0,1.5,0.5,1.5,1.3v1.5h1.1v-1.5c0-0.8-0.2-1.2-0.7-1.7c-0.5-0.4-1.1-0.6-2-0.6s-1.5,0.2-2,0.6c-0.5,0.4-0.7,0.9-0.7,1.7v6.4
		c0,0.8,0.2,1.2,0.7,1.7c0.5,0.5,1.1,0.6,2,0.6s1.5-0.2,2-0.6c0.5-0.4,0.7-0.9,0.7-1.7v-0.9h-1.1v0.9
		C127.1,489.4,126.6,489.9,125.5,489.9L125.5,489.9z M129.9,480.1v0.9h2.1v9.5h1.1V481h2.1v-0.9H129.9L129.9,480.1z M138.7,489.6
		V481h0.9v-0.9h-2.7v0.9h0.9v8.5h-0.9v0.9h2.7v-0.9H138.7L138.7,489.6z M146.9,480.5c-0.5-0.4-1.1-0.6-2.1-0.6
		c-0.9,0-1.6,0.2-2.1,0.6c-0.5,0.4-0.7,0.9-0.7,1.7v6.4c0,0.8,0.2,1.2,0.7,1.7c0.5,0.4,1.1,0.6,2.1,0.6c0.9,0,1.6-0.2,2.1-0.6
		c0.5-0.4,0.7-0.9,0.7-1.7v-6.4C147.5,481.4,147.3,480.9,146.9,480.5L146.9,480.5z M144.8,489.9c-1,0-1.6-0.5-1.6-1.3v-6.4
		c0-0.9,0.6-1.3,1.6-1.3c1,0,1.6,0.5,1.6,1.3v6.4C146.4,489.4,145.8,489.9,144.8,489.9L144.8,489.9z M151.6,482.5l3.5,8.1h1.1V480
		h-1.1v8.1l-3.5-8.1h-1.1v10.5h1.1V482.5L151.6,482.5z"/>
	<path d="M62.9,108.3c-1,0-1.5-0.5-1.5-1.3v-6.4c0-0.9,0.5-1.3,1.5-1.3c1,0,1.5,0.5,1.5,1.3v1.5h1.1v-1.5c0-0.8-0.2-1.2-0.7-1.7
		c-0.5-0.4-1.1-0.6-2-0.6c-0.9,0-1.5,0.2-2,0.6c-0.5,0.4-0.7,0.9-0.7,1.7v6.4c0,0.8,0.2,1.2,0.7,1.7c0.5,0.5,1.1,0.6,2,0.6
		c0.9,0,1.5-0.2,2-0.6c0.5-0.4,0.7-0.9,0.7-1.7v-0.9h-1.1v0.9C64.4,107.9,63.8,108.3,62.9,108.3L62.9,108.3z M72.3,109V108h-2.9
		v-9.5h-1.1V109H72.3L72.3,109z M75.8,108v-8.5h0.9v-0.9h-2.7v0.9h0.9v8.5h-0.9v0.9h2.7V108H75.8L75.8,108z M84.1,108h-3.6v-3.9h2.8
		v-0.9h-2.8v-3.7H84v-0.9h-4.6V109h4.7L84.1,108L84.1,108z M87.6,100.9l3.5,8.1h1.1V98.6h-1.1v8.1l-3.5-8.1h-1.1V109h1.1V100.9
		L87.6,100.9z M94.3,98.6v0.9h2.1v9.5h1.1v-9.5h2.1v-0.9H94.3L94.3,98.6z M106.4,105.8h1.3c0.9,0,1.5-0.2,1.9-0.6
		c0.5-0.4,0.7-0.9,0.7-1.7v-2.7c0-0.7-0.2-1.2-0.7-1.7c-0.5-0.4-1-0.6-1.9-0.6h-2.5v10.4h1.1V105.8L106.4,105.8z M107.7,104.8h-1.3
		v-5.3h1.3c0.5,0,0.9,0.1,1,0.4c0.2,0.3,0.4,0.6,0.4,0.9v2.7C109.1,104.3,108.7,104.8,107.7,104.8L107.7,104.8L107.7,104.8z
		 M116.9,109V108H114v-9.5h-1.1V109H116.9L116.9,109z M117.9,109h1.1l0.6-2.4h3l0.6,2.4h1.1L122,98.6h-1.7L117.9,109L117.9,109z
		 M122.4,105.6h-2.7l1.3-5.9L122.4,105.6L122.4,105.6z M127.7,100.9l3.5,8.1h1.1V98.6h-1.1v8.1l-3.5-8.1h-1.1V109h1.1V100.9
		L127.7,100.9z M136.7,100.9l3.5,8.1h1.1V98.6h-1.1v8.1l-3.5-8.1h-1.1V109h1.1V100.9L136.7,100.9z M146,108v-8.5h0.9v-0.9h-2.7v0.9
		h0.8v8.5h-0.8v0.9h2.7V108H146L146,108z M150.7,100.9l3.5,8.1h1.1V98.6h-1.1v8.1l-3.5-8.1h-1.1V109h1.1V100.9L150.7,100.9z
		 M162.5,104.6v2c0,0.4-0.2,0.7-0.6,1c-0.4,0.4-0.9,0.6-1.2,0.6c-0.5,0-0.8-0.1-0.9-0.4c-0.2-0.2-0.3-0.6-0.3-0.9v-6.4
		c0-0.9,0.5-1.3,1.5-1.3c1,0,1.5,0.5,1.5,1.3v0.9h1.1v-0.9c0-0.8-0.2-1.2-0.7-1.7c-0.5-0.4-1.1-0.6-2-0.6s-1.5,0.2-2,0.6
		c-0.5,0.4-0.7,0.9-0.7,1.7v6.4c0,1.5,0.8,2.3,2.4,2.3c0.5,0,0.9-0.1,1.2-0.4c0.4-0.2,0.7-0.6,0.9-0.9l0.4,1h0.5v-5.3h-2.9v0.9
		L162.5,104.6L162.5,104.6z"/>
	<path class="st2" d="M42,439.8c-0.8,0-1.1-0.3-1.1-0.9v-4.9c0-0.7,0.4-0.9,1.1-0.9s1.1,0.3,1.1,0.9v1.1H44v-1.1
		c0-0.6-0.2-0.9-0.5-1.2c-0.4-0.3-0.9-0.5-1.5-0.5c-0.7,0-1.1,0.2-1.5,0.5c-0.4,0.3-0.5,0.8-0.5,1.2v4.9c0,0.6,0.2,0.9,0.5,1.2
		c0.4,0.3,0.9,0.5,1.5,0.5c0.7,0,1.1-0.2,1.5-0.5c0.4-0.3,0.5-0.8,0.5-1.2v-0.7h-0.9v0.7C43.2,439.4,42.9,439.8,42,439.8L42,439.8z
		 M53.5,432.6c-0.4-0.3-0.9-0.5-1.6-0.5s-1.2,0.2-1.6,0.5c-0.4,0.3-0.6,0.8-0.6,1.2v4.9c0,0.6,0.2,0.9,0.6,1.2s0.9,0.5,1.6,0.5
		s1.2-0.2,1.6-0.5c0.4-0.3,0.6-0.8,0.6-1.2v-4.9C54,433.3,53.9,432.9,53.5,432.6L53.5,432.6z M52,439.8c-0.9,0-1.2-0.3-1.2-0.9v-4.9
		c0-0.7,0.4-0.9,1.2-0.9s1.2,0.3,1.2,0.9v4.9C53.2,439.4,52.7,439.8,52,439.8L52,439.8z M63.9,437.9c-0.1-0.3-0.3-0.5-0.5-0.8
		l-2.2-2.1c-0.2-0.2-0.3-0.4-0.4-0.5c-0.1-0.2-0.1-0.4-0.1-0.7c0-0.3,0.1-0.5,0.3-0.7c0.2-0.2,0.5-0.3,0.9-0.3s0.7,0.1,0.9,0.3
		c0.2,0.2,0.3,0.4,0.3,0.7v1.1h0.9v-1c0-1.1-0.7-1.7-2-1.7c-0.7,0-1.2,0.2-1.5,0.5c-0.4,0.3-0.5,0.8-0.5,1.2c0,0.4,0,0.7,0.1,0.9
		c0.1,0.3,0.3,0.5,0.6,0.8l2.2,2.1c0.2,0.2,0.3,0.4,0.4,0.6c0.1,0.2,0.1,0.4,0.1,0.7c0,0.3-0.1,0.5-0.3,0.7
		c-0.2,0.2-0.5,0.3-0.9,0.3c-0.4,0-0.7-0.1-0.9-0.3c-0.2-0.2-0.3-0.4-0.3-0.7v-1.1h-0.9v1c0,1.1,0.7,1.7,2.1,1.7s2.1-0.6,2.1-1.7
		C64,438.4,64,438.1,63.9,437.9L63.9,437.9z M69.2,432.3v0.8h1.6v7.3h0.9v-7.3h1.6v-0.8H69.2L69.2,432.3z M88.9,439.6h-2.7v-2.9h2.2
		v-0.8h-2.2v-2.8h2.7v-0.8h-3.5v8h3.6L88.9,439.6L88.9,439.6z M98.3,437.9c-0.1-0.3-0.3-0.5-0.5-0.8l-2.2-2.1
		c-0.2-0.2-0.3-0.4-0.4-0.5c-0.1-0.2-0.1-0.4-0.1-0.7c0-0.3,0.1-0.5,0.3-0.7c0.2-0.2,0.5-0.3,0.9-0.3c0.4,0,0.7,0.1,0.9,0.3
		c0.2,0.2,0.3,0.4,0.3,0.7v1.1h0.9v-1c0-1.1-0.7-1.7-2-1.7c-0.7,0-1.2,0.2-1.5,0.5c-0.4,0.3-0.5,0.8-0.5,1.2c0,0.4,0,0.7,0.1,0.9
		c0.1,0.3,0.3,0.5,0.6,0.8l2.2,2.1c0.2,0.2,0.3,0.4,0.4,0.6c0.1,0.2,0.1,0.4,0.1,0.7c0,0.3-0.1,0.5-0.3,0.7
		c-0.2,0.2-0.5,0.3-0.9,0.3c-0.5,0-0.7-0.1-0.9-0.3c-0.2-0.2-0.3-0.4-0.3-0.7v-1.1h-0.9v1c0,1.1,0.7,1.7,2.1,1.7
		c1.4,0,2.1-0.6,2.1-1.7C98.5,438.4,98.4,438.1,98.3,437.9L98.3,437.9z M103.6,432.3v0.8h1.6v7.3h0.9v-7.3h1.6v-0.8H103.6
		L103.6,432.3z"/>
	<path class="st2" d="M111.9,440.3h0.9l0.4-1.8h2.4l0.4,1.8h0.9l-1.8-8h-1.3L111.9,440.3L111.9,440.3z M115.3,437.7h-2l1-4.5
		L115.3,437.7L115.3,437.7z M122.3,440.3h2c0.7,0,1.1-0.2,1.4-0.5c0.3-0.3,0.5-0.8,0.5-1.2v-1.1c0-0.8-0.4-1.2-1-1.3
		c0.6-0.2,0.9-0.7,0.9-1.3V434c0-0.6-0.2-0.9-0.5-1.2c-0.4-0.3-0.9-0.5-1.4-0.5h-1.9L122.3,440.3L122.3,440.3z M125.1,439.3
		c-0.2,0.2-0.5,0.3-0.9,0.3h-1.1v-3.1h1.1c0.4,0,0.6,0.1,0.8,0.3c0.2,0.2,0.3,0.5,0.3,0.8v1.1C125.3,438.8,125.3,439.1,125.1,439.3
		L125.1,439.3z M125,435.5c-0.2,0.2-0.5,0.3-0.9,0.3h-1v-2.7h1c0.4,0,0.6,0.1,0.9,0.3c0.2,0.2,0.3,0.5,0.3,0.7v0.8
		C125.3,435.1,125.2,435.2,125,435.5L125,435.5z M135.4,440.3v-0.8h-2.3v-7.3h-0.9v8L135.4,440.3L135.4,440.3z M141.8,439.6v-6.5
		h0.6v-0.8h-2.1v0.8h0.6v6.5h-0.6v0.8h2.1v-0.8H141.8L141.8,439.6z M152.1,437.9c-0.1-0.3-0.3-0.5-0.5-0.8l-2.2-2.1
		c-0.2-0.2-0.3-0.4-0.4-0.5c-0.1-0.2-0.1-0.4-0.1-0.7c0-0.3,0.1-0.5,0.3-0.7c0.2-0.2,0.5-0.3,0.9-0.3s0.7,0.1,0.9,0.3
		c0.2,0.2,0.3,0.4,0.3,0.7v1.1h0.9v-1c0-1.1-0.7-1.7-2-1.7c-0.7,0-1.2,0.2-1.5,0.5c-0.4,0.3-0.5,0.8-0.5,1.2c0,0.4,0,0.7,0.1,0.9
		s0.3,0.5,0.6,0.8l2.2,2.1c0.2,0.2,0.3,0.4,0.4,0.6c0.1,0.2,0.1,0.4,0.1,0.7c0,0.3-0.1,0.5-0.3,0.7c-0.2,0.2-0.5,0.3-0.9,0.3
		c-0.4,0-0.7-0.1-0.9-0.3c-0.2-0.2-0.3-0.4-0.3-0.7v-1.1h-0.9v1c0,1.1,0.7,1.7,2.1,1.7s2.1-0.6,2.1-1.7
		C152.3,438.4,152.2,438.1,152.1,437.9L152.1,437.9z M159.1,436.6h2.5v3.7h0.9v-8h-0.9v3.6h-2.5v-3.6h-0.9v8h0.9V436.6L159.1,436.6z
		 M172.3,439.6h-2.7v-2.9h2.2v-0.8h-2.2v-2.8h2.7v-0.8h-3.5v8h3.6L172.3,439.6L172.3,439.6z M181.4,439.9c0.3-0.3,0.5-0.8,0.5-1.2
		v-4.6c0-0.6-0.2-0.9-0.5-1.2c-0.4-0.3-0.9-0.5-1.4-0.5h-2v8h2C180.5,440.3,181.1,440.2,181.4,439.9L181.4,439.9z M180.7,439.3
		c-0.2,0.2-0.5,0.3-0.9,0.3h-1.1v-6.5h1.1c0.4,0,0.6,0.1,0.9,0.3c0.2,0.2,0.3,0.5,0.3,0.7v4.6C181,438.8,180.9,439.1,180.7,439.3
		L180.7,439.3z"/>
	<rect x="2.8" y="448.3" class="st3" width="220" height="1.9"/>
	<rect x="111.9" y="350.2" class="st3" width="1.9" height="73"/>
	<path class="st3" d="M222.8,424.6H0.9v-1.9h221.9V424.6z M222.8,353.5H0.9v-1.9h221.9V353.5z M222.8,282.4H0.9v-1.9h221.9V282.4z
		 M222.8,210.8H0.9v-1.9h221.9V210.8z M223,139.2H1.1v-1.9H223V139.2z"/>
	<g>
		<g>
			<defs>
				<path id="SVGID_25_" d="M100.5,138.3c0,6.5,5.3,11.9,11.9,11.9s11.9-5.3,11.9-11.9c0-6.5-5.3-11.9-11.9-11.9
					S100.5,131.7,100.5,138.3L100.5,138.3z"/>
			</defs>
			<clipPath id="SVGID_26_">
				<use xlink:href="#SVGID_25_"  style="overflow:visible;"/>
			</clipPath>
			<rect x="95.8" y="121.7" class="st15" width="33.2" height="33.2"/>
		</g>
	</g>
	<path class="st3" d="M112.4,151.1c-7,0-12.8-5.8-12.8-12.8c0-7,5.8-12.8,12.8-12.8s12.8,5.8,12.8,12.8
		C125.2,145.3,119.4,151.1,112.4,151.1z M112.4,127.4c-6,0-10.9,4.9-10.9,10.9c0,6,4.9,10.9,10.9,10.9c6,0,10.9-4.9,10.9-10.9
		C123.3,132.3,118.3,127.4,112.4,127.4z"/>
	<g>
		<g>
			<defs>
				<polyline id="SVGID_27_" points="119.6,135.9 112.8,142.6 106.1,135.9 				"/>
			</defs>
			<clipPath id="SVGID_28_">
				<use xlink:href="#SVGID_27_"  style="overflow:visible;"/>
			</clipPath>
			<polygon class="st16" points="112.8,145.3 104.8,137.3 107.4,134.6 112.8,140 118.2,134.6 120.9,137.3 			"/>
		</g>
	</g>
	<g>
		<g>
			<defs>
				<path id="SVGID_29_" d="M100.5,210.3c0,6.5,5.3,11.9,11.9,11.9s11.9-5.3,11.9-11.9c0-6.5-5.3-11.9-11.9-11.9
					S100.5,203.8,100.5,210.3L100.5,210.3z"/>
			</defs>
			<clipPath id="SVGID_30_">
				<use xlink:href="#SVGID_29_"  style="overflow:visible;"/>
			</clipPath>
			<rect x="95.8" y="193.8" class="st17" width="33.2" height="33.2"/>
		</g>
	</g>
	<path class="st3" d="M112.4,223.1c-7,0-12.8-5.8-12.8-12.8c0-7,5.8-12.8,12.8-12.8s12.8,5.8,12.8,12.8
		C125.2,217.4,119.4,223.1,112.4,223.1z M112.4,199.4c-6,0-10.9,4.9-10.9,10.9c0,6,4.9,10.9,10.9,10.9c6,0,10.9-4.9,10.9-10.9
		C123.3,204.4,118.3,199.4,112.4,199.4z"/>
	<g>
		<g>
			<defs>
				<polyline id="SVGID_31_" points="119.6,208 112.8,214.7 106.1,208 				"/>
			</defs>
			<clipPath id="SVGID_32_">
				<use xlink:href="#SVGID_31_"  style="overflow:visible;"/>
			</clipPath>
			<polygon class="st18" points="112.8,217.4 104.8,209.4 107.4,206.6 112.8,212.1 118.2,206.6 120.9,209.4 			"/>
		</g>
	</g>
	<g>
		<g>
			<defs>
				<path id="SVGID_33_" d="M100.5,281.5c0,6.5,5.3,11.9,11.9,11.9s11.9-5.3,11.9-11.9c0-6.5-5.3-11.9-11.9-11.9
					S100.5,274.9,100.5,281.5L100.5,281.5z"/>
			</defs>
			<clipPath id="SVGID_34_">
				<use xlink:href="#SVGID_33_"  style="overflow:visible;"/>
			</clipPath>
			<rect x="95.8" y="264.9" class="st19" width="33.2" height="33.2"/>
		</g>
	</g>
	<path class="st3" d="M112.4,294.3c-7,0-12.8-5.8-12.8-12.8c0-7,5.8-12.8,12.8-12.8s12.8,5.8,12.8,12.8
		C125.2,288.5,119.4,294.3,112.4,294.3z M112.4,270.6c-6,0-10.9,4.9-10.9,10.9c0,6,4.9,10.9,10.9,10.9c6,0,10.9-4.9,10.9-10.9
		C123.3,275.5,118.3,270.6,112.4,270.6z"/>
	<g>
		<g>
			<defs>
				<polyline id="SVGID_35_" points="119.6,279.1 112.8,285.8 106.1,279.1 				"/>
			</defs>
			<clipPath id="SVGID_36_">
				<use xlink:href="#SVGID_35_"  style="overflow:visible;"/>
			</clipPath>
			<polygon class="st20" points="112.8,288.5 104.8,280.5 107.4,277.8 112.8,283.2 118.2,277.8 120.9,280.5 			"/>
		</g>
	</g>
	<g>
		<g>
			<defs>
				<path id="SVGID_37_" d="M100.5,352.6c0,6.5,5.3,11.9,11.9,11.9s11.9-5.3,11.9-11.9c0-6.5-5.3-11.9-11.9-11.9
					S100.5,346,100.5,352.6L100.5,352.6z"/>
			</defs>
			<clipPath id="SVGID_38_">
				<use xlink:href="#SVGID_37_"  style="overflow:visible;"/>
			</clipPath>
			<rect x="95.8" y="336" class="st21" width="33.2" height="33.2"/>
		</g>
	</g>
	<path class="st3" d="M112.4,365.4c-7,0-12.8-5.8-12.8-12.8c0-7,5.8-12.8,12.8-12.8s12.8,5.8,12.8,12.8
		C125.2,359.7,119.4,365.4,112.4,365.4z M112.4,341.7c-6,0-10.9,4.9-10.9,10.9c0,6,4.9,10.9,10.9,10.9c6,0,10.9-4.9,10.9-10.9
		C123.3,346.6,118.3,341.7,112.4,341.7z"/>
	<g>
		<g>
			<defs>
				<polyline id="SVGID_39_" points="119.6,350.2 112.8,356.9 106.1,350.2 				"/>
			</defs>
			<clipPath id="SVGID_40_">
				<use xlink:href="#SVGID_39_"  style="overflow:visible;"/>
			</clipPath>
			<polygon class="st22" points="112.8,359.6 104.8,351.6 107.4,348.9 112.8,354.3 118.2,348.9 120.9,351.6 			"/>
		</g>
	</g>
	<g>
		<g>
			<defs>
				<path id="SVGID_41_" d="M100.5,459.7c0,6.5,5.3,11.9,11.9,11.9s11.9-5.3,11.9-11.9s-5.3-11.9-11.9-11.9S100.5,453.2,100.5,459.7
					L100.5,459.7z"/>
			</defs>
			<clipPath id="SVGID_42_">
				<use xlink:href="#SVGID_41_"  style="overflow:visible;"/>
			</clipPath>
			<rect x="95.8" y="443.1" class="st23" width="33.2" height="33.2"/>
		</g>
	</g>
	<path class="st3" d="M112.4,472.5c-7,0-12.8-5.8-12.8-12.8s5.8-12.8,12.8-12.8s12.8,5.8,12.8,12.8S119.4,472.5,112.4,472.5z
		 M112.4,448.8c-6,0-10.9,4.9-10.9,10.9s4.9,10.9,10.9,10.9c6,0,10.9-4.9,10.9-10.9S118.3,448.8,112.4,448.8z"/>
	<g>
		<g>
			<defs>
				<polyline id="SVGID_43_" points="119.6,457.3 112.8,464.1 106.1,457.3 				"/>
			</defs>
			<clipPath id="SVGID_44_">
				<use xlink:href="#SVGID_43_"  style="overflow:visible;"/>
			</clipPath>
			<polygon class="st24" points="112.8,466.7 104.8,458.8 107.4,456 112.8,461.4 118.2,456 120.9,458.8 			"/>
		</g>
	</g>
	<g>
		<path d="M49,5.2v4h-0.3c-0.1-3.7-3.9-3.7-4.2-3.7h-1.3V19c0,1.5,0.7,1.9,1.7,1.9v0.3h-5.6v-0.3c0.9,0,1.6-0.4,1.6-1.9V5.5h-1.3
			c-0.7,0-4.1,0-4.2,3.7h-0.3v-4H49z"/>
		<path d="M64,21.2h-1.7c-2.9,0-2.6,0-3.9-4.9c-0.7-2.4-2.9-2.4-3.5-2.4h-1v5c0,1.6,0.5,2.1,1.4,2.1v0.3h-5.1V21
			c0.9,0,1.4-0.5,1.4-2.4V7.3c0-1.4-0.4-1.7-1.4-1.7V5.3h4.4c4.6,0,7,0.6,7,4.4c0,3.1-1.8,4-4.3,4.2c1.5,0.1,3,0.2,4.3,5.2
			c0.4,1.7,1.8,2,2.5,2V21.2z M54.5,5.5h-0.7v8.1h0.7c2.6,0,4.6,0,4.6-4C59.1,5.5,57,5.5,54.5,5.5z"/>
		<path d="M79.5,21.2h-5.2v-0.3c1.2,0,1-1.3,0.5-2.6l-0.8-2h-5.9c-0.6,1.8-1.6,4.6,1.5,4.6v0.3h-5.1v-0.3c0.9,0,1.4-0.1,3.4-5.4
			l3.8-10.3H72c2.7,6.7,5.6,13.8,5.6,13.8c0.8,1.8,1.2,1.8,1.9,1.8V21.2z M73.9,16.1l-2.9-7.6l-2.7,7.6H73.9z"/>
		<path d="M85.8,21.2h-4.9v-0.3c0.9,0,1.5-0.9,1.5-2.4V7.9c0-1.4-0.6-2.4-1.5-2.4V5.3h4.9c4.6,0,9,1.4,9,8.1
			C94.8,20.1,90.4,21.2,85.8,21.2z M85.8,5.5h-1V21h1c2.5,0,6.3-0.1,6.3-7.7C92.2,5.9,88.4,5.5,85.8,5.5z"/>
		<path d="M103,5.2v0.3c-0.9,0-1.6,0.4-1.6,1.8v11.5c0,1.5,0.7,2.2,1.6,2.2v0.3h-5.5v-0.3c0.9,0,1.6-0.6,1.6-2.2V7.3
			c0-1.4-0.6-1.8-1.6-1.8V5.2H103z"/>
		<path d="M118.4,5.2v4h-0.3c-0.1-3.7-3.9-3.7-4.2-3.7h-1.3V19c0,1.5,0.7,1.9,1.7,1.9v0.3h-5.6v-0.3c0.9,0,1.6-0.4,1.6-1.9V5.5H109
			c-0.7,0-4.1,0-4.2,3.7h-0.3v-4H118.4z"/>
		<path d="M125.6,5.2v0.3c-0.9,0-1.6,0.4-1.6,1.8v11.5c0,1.5,0.7,2.2,1.6,2.2v0.3h-5.5v-0.3c0.9,0,1.6-0.6,1.6-2.2V7.3
			c0-1.4-0.6-1.8-1.6-1.8V5.2H125.6z"/>
		<path d="M135,21.5c-5,0-7.4-3.6-7.4-8.1c0-4.6,2.4-8.3,7.4-8.3c5,0,7.4,3.8,7.4,8.3C142.4,17.9,140,21.5,135,21.5z M135,5.3
			c-2.7,0-4.7,1.8-4.7,8.1s2.1,7.8,4.7,7.8s4.7-1.5,4.7-7.8C139.8,7.1,137.8,5.3,135,5.3z"/>
		<path d="M161.3,5.2v0.3c-3.3,0-3.2,3.3-3.2,5.4v10.3h-0.8l-9.7-12.5v6.8c0,2,0,5.4,2.9,5.4v0.3H144v-0.3c3.3,0,3.3-3.3,3.3-5.4
			V8.4l-0.9-1.2c-1.4-1.8-2.1-1.7-2.7-1.7V5.2h4.2l9.9,12.7v-7c0-2.1,0-5.4-2.9-5.4V5.2L161.3,5.2L161.3,5.2z"/>
	</g>
	<g>
		<path d="M176.6,21.2h-5.2v-0.3c1.2,0,1-1.3,0.5-2.6l-0.8-2h-5.9c-0.6,1.8-1.6,4.6,1.5,4.6v0.3h-5.1v-0.3c0.9,0,1.4-0.1,3.4-5.4
			l3.8-10.3h0.3c2.7,6.7,5.6,13.8,5.6,13.8c0.8,1.8,1.2,1.8,1.9,1.8V21.2z M171,16.1l-2.9-7.6l-2.7,7.6H171z"/>
		<path d="M189.6,16.3v4.9h-11.4v-0.3c0.9,0,1.2-0.9,1.2-2.4V7.4c0-1.4-0.5-1.9-1.4-1.9V5.3h5.4v0.3c-0.9,0-1.7,0.4-1.7,2v13.4h0.9
			c2.5,0,6.3,0,6.7-4.6L189.6,16.3L189.6,16.3z"/>
	</g>
	<g>
		<path d="M90,40.9c0,2.7,0.9,2.8,2.3,2.8V44h-6v-0.3c1.1,0,1.5-0.6,1.5-2.7V30.5c0-1.6-0.3-2.2-1.4-2.2V28h4.1
			c4.6,0,7.5,0.6,7.5,4.6s-3,4.6-7.5,4.6h-0.4L90,40.9L90,40.9z M90.5,36.8c2.7,0,5-0.1,5-4.3c0-4.4-2.4-4.3-5-4.3h-0.4v8.5H90.5z"
			/>
		<path d="M112.4,43.9h-5.2v-0.3c1.2,0,1-1.3,0.5-2.6l-0.8-2H101c-0.6,1.8-1.6,4.6,1.5,4.6v0.3h-5.1v-0.3c0.9,0,1.4-0.1,3.4-5.4
			l3.8-10.3h0.3c2.7,6.7,5.6,13.8,5.6,13.8c0.8,1.8,1.2,1.8,1.9,1.8V43.9z M106.8,38.8l-2.9-7.6l-2.7,7.6H106.8z"/>
	</g>
	<g>
		<path d="M125.9,28v4h-0.3c-0.1-3.7-3.9-3.7-4.2-3.7h-1.3v13.6c0,1.5,0.7,1.9,1.7,1.9V44h-5.6v-0.3c0.9,0,1.6-0.4,1.6-1.9V28.3
			h-1.3c-0.7,0-4.1,0-4.2,3.7h-0.3v-4H125.9z"/>
		<path d="M138.8,40.9c0,1.9-0.1,2.5,1.1,2.8V44h-4v-0.3c0.6-0.2,0.7-0.8,0.7-2.8v-4.4h-6.3v4.4c0,2.3,0,2.6,0.7,2.8V44H127v-0.3
			c1.2-0.3,1.1-0.6,1.1-2.8v-9.8c0-2.1,0-2.7-1.1-2.8V28h4.1v0.3c-0.7,0.2-0.7,0.7-0.7,2.8v5h6.3v-5c0-2.2,0-2.7-0.7-2.8V28h4v0.3
			c-1,0.2-1.1,0.7-1.1,2.8V40.9z"/>
	</g>
</g>
</svg>
