<?xml version="1.0" encoding="utf-8"?>
<!-- Generator: Adobe Illustrator 22.1.0, SVG Export Plug-In . SVG Version: 6.00 Build 0)  -->
<svg version="1.1" id="Layer_1" xmlns="http://www.w3.org/2000/svg" xmlns:xlink="http://www.w3.org/1999/xlink" x="0px" y="0px"
	 viewBox="0 0 225.7 1242.3" style="enable-background:new 0 0 225.7 1242.3;" xml:space="preserve">
<style type="text/css">
	.st0{fill:#FFFFFF;}
	.st1{clip-path:url(#SVGID_2_);fill:#DBDBDB;}
	.st2{fill:#CBCBCB;}
	.st3{fill:#DBDBDB;}
	.st4{clip-path:url(#SVGID_4_);fill:#FFFFFF;}
	.st5{clip-path:url(#SVGID_6_);fill:#DBDBDB;}
	.st6{clip-path:url(#SVGID_8_);fill:#FFFFFF;}
	.st7{clip-path:url(#SVGID_10_);fill:#DBDBDB;}
	.st8{clip-path:url(#SVGID_12_);fill:#FFFFFF;}
	.st9{clip-path:url(#SVGID_14_);fill:#DBDBDB;}
	.st10{clip-path:url(#SVGID_16_);fill:#FFFFFF;}
	.st11{clip-path:url(#SVGID_18_);fill:#DBDBDB;}
	.st12{clip-path:url(#SVGID_20_);fill:#FFFFFF;}
	.st13{clip-path:url(#SVGID_22_);fill:#DBDBDB;}
	.st14{clip-path:url(#SVGID_24_);fill:#DBDBDB;}
	.st15{clip-path:url(#SVGID_26_);fill:#FFFFFF;}
	.st16{clip-path:url(#SVGID_28_);fill:#DBDBDB;}
	.st17{clip-path:url(#SVGID_30_);fill:#FFFFFF;}
	.st18{clip-path:url(#SVGID_32_);fill:#DBDBDB;}
	.st19{clip-path:url(#SVGID_34_);fill:#FFFFFF;}
	.st20{clip-path:url(#SVGID_36_);fill:#DBDBDB;}
	.st21{clip-path:url(#SVGID_38_);fill:#FFFFFF;}
	.st22{clip-path:url(#SVGID_40_);fill:#DBDBDB;}
	.st23{clip-path:url(#SVGID_42_);fill:#FFFFFF;}
	.st24{clip-path:url(#SVGID_44_);fill:#DBDBDB;}
</style>
<g>
	<polygon class="st0" points="0,713.2 225.7,713.2 225.7,1242.3 0,1242.3 	"/>
	<g>
		<g>
			<defs>
				<rect id="SVGID_1_" y="713.2" width="225.7" height="529.1"/>
			</defs>
			<clipPath id="SVGID_2_">
				<use xlink:href="#SVGID_1_"  style="overflow:visible;"/>
			</clipPath>
			<path class="st1" d="M229.5,1246.1H-3.8V709.5h233.2V1246.1z M3.8,1238.5h218.1V717H3.8V1238.5z"/>
		</g>
	</g>
	<path d="M89.4,1065.1h1.3c0.9,0,1.5-0.2,1.9-0.6c0.5-0.4,0.7-0.9,0.7-1.7v-2.7c0-0.7-0.2-1.2-0.7-1.7c-0.5-0.4-1-0.6-1.9-0.6h-2.5
		v10.5h1.1V1065.1L89.4,1065.1z M90.7,1064.2h-1.3v-5.3h1.3c0.5,0,0.9,0.1,1,0.4c0.3,0.2,0.4,0.6,0.4,0.9v2.7
		C92.2,1063.8,91.7,1064.2,90.7,1064.2L90.7,1064.2L90.7,1064.2z M100.6,1067.4H97v-3.9h2.8v-0.9H97v-3.7h3.5v-0.9H96v10.5h4.7
		L100.6,1067.4L100.6,1067.4z M104.1,1064.6h1.3l1.9,3.7h1.2l-2-3.9c0.9-0.3,1.4-1,1.4-2.1v-2.3c0-0.7-0.2-1.2-0.7-1.7
		c-0.5-0.4-1-0.6-1.9-0.6H103v10.5h1.1L104.1,1064.6L104.1,1064.6z M105.4,1063.7h-1.3v-4.8h1.3c0.5,0,0.9,0.1,1,0.4
		c0.3,0.2,0.4,0.6,0.4,0.9v2.3C106.9,1063.3,106.4,1063.7,105.4,1063.7L105.4,1063.7L105.4,1063.7z M112,1059.7l1.9,7h1l1.9-7v8.6
		h1.1v-10.5h-1.7l-1.9,6.9l-1.8-6.9h-1.7v10.5h1.1L112,1059.7L112,1059.7z M122.6,1067.4v-8.5h0.8v-0.9h-2.7v0.9h0.8v8.5h-0.8v0.9
		h2.7v-0.9H122.6L122.6,1067.4z M125,1057.9v0.9h2.1v9.5h1.1v-9.5h2.1v-0.9H125L125,1057.9z M137.4,1065.2c-0.1-0.3-0.4-0.7-0.7-0.9
		l-2.8-2.7c-0.3-0.2-0.4-0.5-0.5-0.7s-0.1-0.5-0.1-0.9s0.1-0.7,0.4-0.9c0.3-0.2,0.7-0.3,1.1-0.3s0.9,0.1,1.1,0.3
		c0.3,0.2,0.4,0.5,0.4,0.9v1.4h1.1v-1.3c0-1.5-0.9-2.3-2.6-2.3c-0.9,0-1.6,0.2-2,0.6c-0.5,0.4-0.7,0.9-0.7,1.7
		c0,0.5,0.1,0.9,0.2,1.2c0.1,0.3,0.4,0.7,0.7,0.9l2.8,2.7c0.3,0.3,0.4,0.5,0.5,0.7c0.1,0.2,0.1,0.5,0.1,0.9s-0.1,0.7-0.4,0.9
		c-0.3,0.2-0.7,0.3-1.2,0.3c-0.6,0-0.9-0.1-1.2-0.3c-0.3-0.2-0.4-0.5-0.4-0.9v-1.4h-1.1v1.3c0,1.5,0.9,2.3,2.7,2.3s2.7-0.8,2.7-2.3
		C137.6,1065.9,137.5,1065.5,137.4,1065.2L137.4,1065.2z"/>
	<path d="M97.2,816.3c-0.1-0.3-0.4-0.7-0.7-0.9l-2.8-2.7c-0.3-0.2-0.4-0.5-0.5-0.7c-0.1-0.2-0.1-0.5-0.1-0.9c0-0.4,0.1-0.7,0.4-0.9
		c0.3-0.2,0.7-0.3,1.1-0.3s0.9,0.1,1.1,0.3c0.3,0.2,0.4,0.5,0.4,0.9v1.4h1.1v-1.3c0-1.5-0.9-2.3-2.6-2.3c-0.9,0-1.6,0.2-2,0.6
		c-0.5,0.4-0.7,0.9-0.7,1.7c0,0.5,0.1,0.9,0.2,1.2c0.1,0.3,0.4,0.7,0.7,0.9l2.8,2.7c0.3,0.3,0.4,0.5,0.5,0.7
		c0.1,0.2,0.1,0.5,0.1,0.9s-0.1,0.7-0.4,0.9c-0.3,0.2-0.7,0.3-1.2,0.3c-0.6,0-0.9-0.1-1.2-0.3c-0.3-0.2-0.4-0.5-0.4-0.9v-1.4H92v1.3
		c0,1.5,0.9,2.3,2.7,2.3c1.8,0,2.7-0.8,2.7-2.3C97.4,817,97.3,816.6,97.2,816.3L97.2,816.3z M105,818.5h-3.6v-3.9h2.8v-0.9h-2.8V810
		h3.5V809h-4.6v10.5h4.7L105,818.5L105,818.5z M111.5,819.4v-0.9h-2.9V809h-1.1v10.5L111.5,819.4L111.5,819.4z M118.1,818.5h-3.6
		v-3.9h2.8v-0.9h-2.8V810h3.5V809h-4.6v10.5h4.7L118.1,818.5L118.1,818.5z M123,818.8c-1,0-1.5-0.5-1.5-1.3V811
		c0-0.9,0.5-1.3,1.5-1.3s1.5,0.5,1.5,1.3v1.5h1.1V811c0-0.8-0.2-1.2-0.7-1.7c-0.5-0.4-1.1-0.6-2-0.6s-1.5,0.2-2,0.6
		s-0.7,0.9-0.7,1.7v6.4c0,0.8,0.2,1.2,0.7,1.7c0.5,0.4,1.1,0.6,2,0.6s1.5-0.2,2-0.6c0.5-0.4,0.7-0.9,0.7-1.7v-0.9h-1.1v0.9
		C124.6,818.3,124,818.8,123,818.8L123,818.8z M127.3,809v0.9h2.1v9.5h1.1V810h2.1V809H127.3L127.3,809z"/>
	<path d="M57.6,835c0.5-0.4,0.7-0.9,0.7-1.7v-6c0-0.7-0.2-1.2-0.7-1.7c-0.5-0.4-1-0.6-1.9-0.6h-2.6v10.5h2.6
		C56.6,835.6,57.3,835.4,57.6,835L57.6,835z M56.8,834.2c-0.3,0.3-0.6,0.4-1,0.4h-1.4v-8.5h1.4c0.5,0,0.8,0.1,1,0.4
		c0.3,0.3,0.4,0.6,0.4,0.9v6C57.2,833.7,57.1,834,56.8,834.2L56.8,834.2z M66.1,834.6h-3.6v-3.9h2.8v-0.9h-2.8v-3.7H66v-0.9h-4.6
		v10.5h4.7L66.1,834.6L66.1,834.6z M73.4,832.4c-0.1-0.3-0.4-0.7-0.7-0.9l-2.8-2.7c-0.3-0.2-0.4-0.5-0.5-0.7
		c-0.1-0.2-0.1-0.5-0.1-0.9c0-0.4,0.1-0.7,0.4-0.9c0.3-0.2,0.7-0.3,1.1-0.3s0.9,0.1,1.1,0.3c0.3,0.2,0.4,0.5,0.4,0.9v1.4h1.1v-1.3
		c0-1.5-0.9-2.3-2.6-2.3c-0.9,0-1.6,0.2-2,0.6c-0.5,0.4-0.7,0.9-0.7,1.7c0,0.5,0.1,0.9,0.2,1.2c0.1,0.3,0.4,0.7,0.7,0.9l2.8,2.7
		c0.3,0.3,0.4,0.5,0.5,0.7s0.1,0.5,0.1,0.9c0,0.4-0.1,0.7-0.4,0.9c-0.3,0.2-0.7,0.3-1.2,0.3s-0.9-0.1-1.2-0.3
		c-0.3-0.2-0.4-0.5-0.4-0.9v-1.4h-1.1v1.3c0,1.5,0.9,2.3,2.7,2.3c1.8,0,2.7-0.8,2.7-2.3C73.6,833.1,73.6,832.7,73.4,832.4
		L73.4,832.4z M77.9,834.6v-8.5h0.9v-0.9H76v0.9h0.9v8.5H76v0.9h2.7v-0.9H77.9L77.9,834.6z M85.4,831.3v2c0,0.4-0.2,0.7-0.6,1
		s-0.9,0.6-1.2,0.6c-0.5,0-0.8-0.1-0.9-0.4c-0.2-0.2-0.3-0.6-0.3-0.9v-6.4c0-0.9,0.5-1.3,1.5-1.3c1,0,1.5,0.5,1.5,1.3v0.9h1.1v-0.9
		c0-0.8-0.2-1.2-0.7-1.7c-0.5-0.4-1.1-0.6-2-0.6s-1.5,0.2-2,0.6c-0.5,0.4-0.7,0.9-0.7,1.7v6.4c0,1.5,0.8,2.3,2.4,2.3
		c0.5,0,0.9-0.1,1.2-0.4s0.7-0.6,0.9-0.9l0.4,1h0.5v-5.3h-2.9v0.9L85.4,831.3L85.4,831.3z M90.6,827.5l3.5,8.1h1.1V825h-1.1v8.1
		l-3.5-8.1h-1.1v10.5h1.1V827.5L90.6,827.5z M102.1,823.5h-0.9l-3.2,13.7h0.9L102.1,823.5L102.1,823.5z M104.7,835.6h2.6
		c0.9,0,1.5-0.2,1.9-0.6c0.5-0.4,0.7-0.9,0.7-1.7v-1.4c0-0.9-0.5-1.5-1.3-1.8c0.8-0.3,1.1-0.9,1.1-1.8v-0.9c0-0.7-0.2-1.2-0.7-1.7
		c-0.5-0.4-1-0.6-1.9-0.6h-2.5L104.7,835.6L104.7,835.6z M108.3,834.2c-0.3,0.3-0.6,0.4-1,0.4h-1.4v-4.1h1.4c0.5,0,0.8,0.2,1,0.5
		c0.3,0.3,0.4,0.6,0.4,0.9v1.4C108.7,833.7,108.6,834,108.3,834.2L108.3,834.2z M108.2,829.3c-0.3,0.3-0.6,0.4-1,0.4h-1.3v-3.6h1.3
		c0.5,0,0.8,0.1,1,0.4c0.3,0.3,0.4,0.6,0.4,0.9v0.9C108.6,828.7,108.4,829,108.2,829.3L108.2,829.3z M115.4,834.9
		c-1,0-1.6-0.5-1.6-1.3v-8.4h-1.1v8.4c0,0.8,0.2,1.2,0.7,1.7s1.1,0.6,2.1,0.6c0.9,0,1.6-0.2,2.1-0.6s0.7-0.9,0.7-1.7v-8.4H117v8.4
		C117,834.4,116.4,834.9,115.4,834.9L115.4,834.9z M122.6,834.6v-8.5h0.8v-0.9h-2.7v0.9h0.8v8.5h-0.8v0.9h2.7v-0.9H122.6
		L122.6,834.6z M130.3,835.6v-0.9h-2.9v-9.5h-1.1v10.5L130.3,835.6L130.3,835.6z M136.7,835c0.5-0.4,0.7-0.9,0.7-1.7v-6
		c0-0.7-0.2-1.2-0.7-1.7c-0.5-0.4-1-0.6-1.9-0.6h-2.6v10.5h2.6C135.6,835.6,136.2,835.4,136.7,835L136.7,835z M135.9,834.2
		c-0.3,0.3-0.6,0.4-1,0.4h-1.4v-8.5h1.4c0.5,0,0.8,0.1,1,0.4c0.3,0.3,0.4,0.6,0.4,0.9v6C136.2,833.7,136.1,834,135.9,834.2
		L135.9,834.2z M145.2,830.7h2.7v-0.9h-2.7v-3.7h3.3v-0.9H144v10.5h1.1V830.7L145.2,830.7z M152.2,834.6v-8.5h0.9v-0.9h-2.7v0.9h0.9
		v8.5h-0.9v0.9h2.7v-0.9H152.2L152.2,834.6z M156.8,831.9h1.3l1.9,3.7h1.2l-2-3.9c0.9-0.3,1.4-1,1.4-2.1v-2.3c0-0.7-0.2-1.2-0.7-1.7
		c-0.5-0.4-1-0.6-1.9-0.6h-2.5v10.5h1.1L156.8,831.9L156.8,831.9z M158.2,830.9h-1.3v-4.8h1.3c0.5,0,0.9,0.1,1,0.4
		c0.3,0.2,0.4,0.6,0.4,0.9v2.3C159.6,830.5,159.1,830.9,158.2,830.9L158.2,830.9L158.2,830.9z M164.7,826.9l1.9,7h1l1.9-7v8.6h1.1
		V825H169l-1.9,6.9l-1.8-6.9h-1.7v10.5h1.1L164.7,826.9L164.7,826.9z"/>
	<path d="M77.9,890.4c-1,0-1.5-0.5-1.5-1.3v-6.4c0-0.9,0.5-1.3,1.5-1.3c1,0,1.5,0.5,1.5,1.3v1.5h1.1v-1.5c0-0.8-0.2-1.2-0.7-1.7
		c-0.5-0.4-1.1-0.6-2-0.6c-0.9,0-1.5,0.2-2,0.6c-0.5,0.4-0.7,0.9-0.7,1.7v6.4c0,0.8,0.2,1.2,0.7,1.7c0.5,0.5,1.1,0.6,2,0.6
		c0.9,0,1.5-0.2,2-0.6c0.5-0.4,0.7-0.9,0.7-1.7v-0.9h-1.1v0.9C79.5,889.9,79,890.4,77.9,890.4L77.9,890.4z M88,881
		c-0.5-0.4-1.1-0.6-2.1-0.6c-0.9,0-1.6,0.2-2.1,0.6c-0.5,0.4-0.7,0.9-0.7,1.7v6.4c0,0.8,0.2,1.2,0.7,1.7c0.5,0.4,1.1,0.6,2.1,0.6
		c0.9,0,1.6-0.2,2.1-0.6s0.7-0.9,0.7-1.7v-6.4C88.7,881.9,88.4,881.4,88,881L88,881z M85.9,890.4c-1,0-1.6-0.5-1.6-1.3v-6.4
		c0-0.9,0.6-1.3,1.6-1.3s1.6,0.5,1.6,1.3v6.4C87.5,889.9,86.9,890.4,85.9,890.4L85.9,890.4z M92.7,883l3.5,8.1h1.1v-10.4h-1.1v8.1
		l-3.5-8.1h-1.1V891h1.1V883L92.7,883z M103,890.4c-1,0-1.5-0.5-1.5-1.3v-6.4c0-0.9,0.5-1.3,1.5-1.3s1.5,0.5,1.5,1.3v1.5h1.1v-1.5
		c0-0.8-0.2-1.2-0.7-1.7c-0.5-0.4-1.1-0.6-2-0.6s-1.5,0.2-2,0.6c-0.5,0.4-0.7,0.9-0.7,1.7v6.4c0,0.8,0.2,1.2,0.7,1.7s1.1,0.6,2,0.6
		s1.5-0.2,2-0.6s0.7-0.9,0.7-1.7v-0.9h-1.1v0.9C104.6,889.9,104,890.4,103,890.4L103,890.4z M113.2,890.1h-3.6v-3.9h2.8v-0.9h-2.8
		v-3.7h3.5v-0.9h-4.6V891h4.7L113.2,890.1L113.2,890.1z M116.6,887.8h1.3c0.9,0,1.5-0.2,1.9-0.6c0.5-0.4,0.7-0.9,0.7-1.7v-2.7
		c0-0.7-0.2-1.2-0.7-1.7c-0.5-0.4-1-0.6-1.9-0.6h-2.5v10.4h1.1V887.8L116.6,887.8z M117.9,886.9h-1.3v-5.3h1.3c0.5,0,0.9,0.1,1,0.4
		c0.3,0.2,0.4,0.6,0.4,0.9v2.7C119.4,886.5,118.9,886.9,117.9,886.9L117.9,886.9L117.9,886.9z M121.9,880.6v0.9h2.1v9.5h1.1v-9.5
		h2.1v-0.9H121.9L121.9,880.6z M132,890.4c-1,0-1.6-0.5-1.6-1.3v-8.4h-1.1v8.4c0,0.8,0.2,1.2,0.7,1.7c0.5,0.4,1.1,0.6,2.1,0.6
		s1.6-0.2,2.1-0.6s0.7-0.9,0.7-1.7v-8.4h-1.1v8.4C133.6,889.9,133,890.4,132,890.4L132,890.4z M136.8,891h1.1l0.6-2.4h3l0.6,2.4h1.1
		l-2.4-10.4h-1.7L136.8,891L136.8,891z M141.3,887.7h-2.7l1.3-5.9L141.3,887.7L141.3,887.7z M149.5,891v-0.9h-2.9v-9.5h-1.1V891
		H149.5L149.5,891z"/>
	<path d="M85.8,906.6c0.5-0.4,0.7-0.9,0.7-1.7v-6c0-0.7-0.2-1.2-0.7-1.7c-0.5-0.4-1-0.6-1.9-0.6h-2.6V907h2.6
		C84.8,907.1,85.3,907,85.8,906.6L85.8,906.6z M85,905.8c-0.3,0.3-0.6,0.4-1,0.4h-1.4v-8.5h1.4c0.5,0,0.8,0.1,1,0.4
		c0.3,0.3,0.4,0.6,0.4,0.9v6C85.3,905.2,85.1,905.6,85,905.8L85,905.8z M90.5,903.4h1.3l1.9,3.7H95l-2-3.9c0.9-0.3,1.4-1,1.4-2.1
		v-2.3c0-0.7-0.2-1.2-0.7-1.7c-0.5-0.4-1-0.6-1.9-0.6h-2.5V907h1.1L90.5,903.4L90.5,903.4z M91.9,902.5h-1.3v-4.8h1.3
		c0.5,0,0.9,0.1,1,0.4c0.3,0.2,0.4,0.6,0.4,0.9v2.3C93.3,902.1,92.8,902.5,91.9,902.5L91.9,902.5L91.9,902.5z M96.2,907.1h1.1
		l0.6-2.4h3l0.6,2.4h1.1l-2.4-10.4h-1.7L96.2,907.1L96.2,907.1z M100.8,903.8h-2.7l1.3-5.9L100.8,903.8L100.8,903.8z"/>
	<path d="M108.6,898.8l1.6,8.3h1.6l1.5-10.4h-1.1l-1.3,8.8l-1.7-8.8h-1.2l-1.7,8.8l-1.3-8.8h-1.1l1.5,10.4h1.6L108.6,898.8
		L108.6,898.8z M117.1,906.2v-8.5h0.9v-0.9h-2.7v0.9h0.9v8.5h-0.9v0.9h2.7v-0.9H117.1L117.1,906.2z M121.7,899.1l3.5,8.1h1.1v-10.4
		h-1.1v8.1l-3.5-8.1h-1.1v10.4h1.1V899.1L121.7,899.1z M133.6,902.9v2c0,0.4-0.2,0.7-0.6,1c-0.4,0.4-0.9,0.6-1.2,0.6
		c-0.5,0-0.8-0.1-0.9-0.4c-0.2-0.2-0.3-0.6-0.3-0.9v-6.4c0-0.9,0.5-1.3,1.5-1.3c1,0,1.5,0.5,1.5,1.3v0.9h1.1v-0.9
		c0-0.8-0.2-1.2-0.7-1.7c-0.5-0.4-1.1-0.6-2-0.6s-1.5,0.2-2,0.6s-0.7,0.9-0.7,1.7v6.4c0,1.5,0.8,2.3,2.4,2.3c0.5,0,0.9-0.1,1.2-0.4
		c0.4-0.2,0.7-0.6,0.9-0.9l0.4,1h0.5v-5.3h-2.9v0.9L133.6,902.9L133.6,902.9z M142.6,904c-0.1-0.3-0.4-0.7-0.7-0.9l-2.8-2.7
		c-0.3-0.2-0.4-0.5-0.5-0.7c-0.1-0.2-0.1-0.5-0.1-0.9s0.1-0.7,0.4-0.9c0.3-0.2,0.7-0.3,1.1-0.3s0.9,0.1,1.1,0.3
		c0.3,0.2,0.4,0.5,0.4,0.9v1.4h1.1V899c0-1.5-0.9-2.3-2.6-2.3c-0.9,0-1.6,0.2-2,0.6c-0.5,0.4-0.7,0.9-0.7,1.7c0,0.5,0.1,0.9,0.2,1.2
		c0.1,0.3,0.4,0.7,0.7,0.9l2.8,2.7c0.3,0.3,0.4,0.5,0.5,0.7c0.1,0.2,0.1,0.5,0.1,0.9s-0.1,0.7-0.4,0.9c-0.3,0.2-0.7,0.3-1.2,0.3
		c-0.6,0-0.9-0.1-1.2-0.3c-0.3-0.2-0.4-0.5-0.4-0.9v-1.4h-1.1v1.3c0,1.5,0.9,2.3,2.7,2.3c1.8,0,2.7-0.8,2.7-2.3
		C142.8,904.7,142.8,904.3,142.6,904L142.6,904z"/>
	<path d="M64.3,991.9h2.7V991h-2.7v-3.7h3.3v-0.9h-4.5v10.4h1.1V991.9L64.3,991.9z M71.3,995.8v-8.5h0.9v-0.9h-2.7v0.9h0.9v8.5h-0.9
		v0.9h2.7v-0.9H71.3L71.3,995.8z M75.9,988.7l3.5,8.1h1.1v-10.4h-1.1v8.1l-3.5-8.1h-1.1v10.4h1.1V988.7L75.9,988.7z M82.9,996.7H84
		l0.6-2.4h3l0.6,2.4h1.1l-2.4-10.4h-1.7L82.9,996.7L82.9,996.7z M87.4,993.4h-2.7l1.3-5.9L87.4,993.4L87.4,993.4z M95.7,996.7v-0.9
		h-2.9v-9.5h-1.1v10.4H95.7L95.7,996.7z M105.8,996.2c0.5-0.4,0.7-0.9,0.7-1.7v-6c0-0.7-0.2-1.2-0.7-1.7c-0.5-0.4-1-0.6-1.9-0.6
		h-2.6v10.4h2.6C104.8,996.7,105.3,996.6,105.8,996.2L105.8,996.2z M105,995.4c-0.3,0.3-0.6,0.4-1,0.4h-1.4v-8.5h1.4
		c0.5,0,0.8,0.1,1,0.4c0.3,0.3,0.4,0.6,0.4,0.9v6C105.3,994.8,105.1,995.2,105,995.4L105,995.4z M110.6,993h1.3l1.9,3.7h1.2l-2-3.9
		c0.9-0.3,1.4-1,1.4-2.1v-2.3c0-0.7-0.2-1.2-0.7-1.7c-0.5-0.4-1-0.6-1.9-0.6h-2.5v10.4h1.1L110.6,993L110.6,993z M111.9,992.1h-1.3
		v-4.8h1.3c0.5,0,0.9,0.1,1,0.4c0.3,0.2,0.4,0.6,0.4,0.9v2.3C113.3,991.7,112.8,992.1,111.9,992.1L111.9,992.1L111.9,992.1z
		 M116.2,996.7h1.1l0.6-2.4h3l0.6,2.4h1.1l-2.4-10.4h-1.7L116.2,996.7L116.2,996.7z M120.8,993.4h-2.7l1.3-5.9L120.8,993.4
		L120.8,993.4z"/>
	<path d="M128.5,988.4l1.6,8.3h1.6l1.5-10.4h-1.1l-1.3,8.8l-1.7-8.8h-1.2l-1.7,8.8l-1.3-8.8h-1.1l1.5,10.4h1.6L128.5,988.4
		L128.5,988.4z M137.1,995.8v-8.5h0.8v-0.9h-2.7v0.9h0.8v8.5h-0.8v0.9h2.7v-0.9H137.1L137.1,995.8z M141.7,988.7l3.5,8.1h1.1v-10.4
		h-1.1v8.1l-3.5-8.1h-1.1v10.4h1.1V988.7L141.7,988.7z M153.6,992.5v2c0,0.4-0.2,0.7-0.6,1s-0.9,0.6-1.2,0.6c-0.5,0-0.8-0.1-0.9-0.4
		c-0.2-0.2-0.3-0.6-0.3-0.9v-6.4c0-0.9,0.5-1.3,1.5-1.3s1.5,0.5,1.5,1.3v0.9h1.1v-0.9c0-0.8-0.2-1.2-0.7-1.7c-0.5-0.4-1.1-0.6-2-0.6
		s-1.5,0.2-2,0.6c-0.5,0.4-0.7,0.9-0.7,1.7v6.4c0,1.5,0.8,2.3,2.4,2.3c0.5,0,0.9-0.1,1.2-0.4c0.4-0.2,0.7-0.6,0.9-0.9l0.4,1h0.5
		v-5.3h-2.9v0.9L153.6,992.5L153.6,992.5z M162.6,993.6c-0.1-0.3-0.4-0.7-0.7-0.9l-2.8-2.7c-0.3-0.2-0.4-0.5-0.5-0.7
		s-0.1-0.5-0.1-0.9c0-0.4,0.1-0.7,0.4-0.9c0.3-0.2,0.7-0.3,1.1-0.3c0.5,0,0.9,0.1,1.1,0.3c0.3,0.2,0.4,0.5,0.4,0.9v1.4h1.1v-1.3
		c0-1.5-0.9-2.3-2.6-2.3c-0.9,0-1.6,0.2-2,0.6c-0.5,0.4-0.7,0.9-0.7,1.7c0,0.5,0.1,0.9,0.2,1.2c0.1,0.3,0.4,0.7,0.7,0.9l2.8,2.7
		c0.3,0.3,0.4,0.5,0.5,0.7s0.1,0.5,0.1,0.9c0,0.4-0.1,0.7-0.4,0.9c-0.3,0.2-0.7,0.3-1.2,0.3c-0.6,0-0.9-0.1-1.2-0.3
		c-0.3-0.2-0.4-0.5-0.4-0.9v-1.4h-1.1v1.3c0,1.5,0.9,2.3,2.7,2.3s2.7-0.8,2.7-2.3C162.8,994.3,162.7,993.9,162.6,993.6L162.6,993.6z
		"/>
	<path d="M69.9,1138.8c-1,0-1.5-0.5-1.5-1.3v-6.4c0-0.9,0.5-1.3,1.5-1.3c1,0,1.5,0.5,1.5,1.3v1.5h1.1v-1.5c0-0.8-0.2-1.2-0.7-1.7
		c-0.5-0.4-1.1-0.6-2-0.6s-1.5,0.2-2,0.6s-0.7,0.9-0.7,1.7v6.4c0,0.8,0.2,1.2,0.7,1.7c0.5,0.5,1.1,0.6,2,0.6s1.5-0.2,2-0.6
		c0.5-0.4,0.7-0.9,0.7-1.7v-0.9h-1.1v0.9C71.5,1138.3,70.9,1138.8,69.9,1138.8L69.9,1138.8z M79.9,1129.4c-0.5-0.4-1.1-0.6-2.1-0.6
		s-1.6,0.2-2.1,0.6c-0.5,0.4-0.7,0.9-0.7,1.7v6.4c0,0.8,0.2,1.2,0.7,1.7c0.5,0.4,1.1,0.6,2.1,0.6s1.6-0.2,2.1-0.6s0.7-0.9,0.7-1.7
		v-6.4C80.6,1130.3,80.4,1129.8,79.9,1129.4L79.9,1129.4z M77.9,1138.8c-1,0-1.6-0.5-1.6-1.3v-6.4c0-0.9,0.6-1.3,1.6-1.3
		c1,0,1.6,0.5,1.6,1.3v6.4C79.5,1138.3,79,1138.8,77.9,1138.8L77.9,1138.8z M84.8,1131.4l3.5,8.1h1.1v-10.5h-1.1v8.1l-3.5-8.1h-1.1
		v10.5h1.1V1131.4L84.8,1131.4z M97.6,1136.3c-0.1-0.3-0.4-0.7-0.7-0.9l-2.8-2.7c-0.3-0.2-0.4-0.5-0.5-0.7c-0.1-0.2-0.1-0.5-0.1-0.9
		s0.1-0.7,0.4-0.9c0.3-0.2,0.7-0.3,1.1-0.3s0.9,0.1,1.1,0.3c0.3,0.2,0.4,0.5,0.4,0.9v1.4h1.1v-1.3c0-1.5-0.9-2.3-2.6-2.3
		c-0.9,0-1.6,0.2-2,0.6c-0.5,0.4-0.7,0.9-0.7,1.7c0,0.5,0.1,0.9,0.2,1.2c0.1,0.3,0.4,0.7,0.7,0.9l2.8,2.7c0.3,0.3,0.4,0.5,0.5,0.7
		s0.1,0.5,0.1,0.9s-0.1,0.7-0.4,0.9c-0.3,0.2-0.7,0.3-1.2,0.3s-0.9-0.1-1.2-0.3c-0.3-0.2-0.4-0.5-0.4-0.9v-1.4h-1.1v1.3
		c0,1.5,0.9,2.3,2.7,2.3c1.8,0,2.7-0.8,2.7-2.3C97.8,1137,97.7,1136.6,97.6,1136.3L97.6,1136.3z M99.5,1129v0.9h2.1v9.5h1.1v-9.5
		h2.1v-0.9H99.5L99.5,1129z M108,1135.7h1.3l1.9,3.7h1.2l-2-3.9c0.9-0.3,1.4-1,1.4-2.1v-2.3c0-0.7-0.2-1.2-0.7-1.7
		c-0.5-0.4-1-0.6-1.9-0.6h-2.5v10.5h1.1L108,1135.7L108,1135.7z M109.3,1134.8H108v-4.8h1.3c0.5,0,0.9,0.1,1,0.4
		c0.3,0.2,0.4,0.6,0.4,0.9v2.3C110.7,1134.4,110.3,1134.8,109.3,1134.8L109.3,1134.8L109.3,1134.8z M117.3,1138.8
		c-1,0-1.6-0.5-1.6-1.3v-8.4h-1.1v8.4c0,0.8,0.2,1.2,0.7,1.7c0.5,0.5,1.1,0.6,2.1,0.6s1.6-0.2,2.1-0.6c0.5-0.4,0.7-0.9,0.7-1.7v-8.4
		h-1.1v8.4C118.9,1138.3,118.4,1138.8,117.3,1138.8L117.3,1138.8z M125.5,1138.8c-1,0-1.5-0.5-1.5-1.3v-6.4c0-0.9,0.5-1.3,1.5-1.3
		c1,0,1.5,0.5,1.5,1.3v1.5h1.1v-1.5c0-0.8-0.2-1.2-0.7-1.7c-0.5-0.4-1.1-0.6-2-0.6s-1.5,0.2-2,0.6s-0.7,0.9-0.7,1.7v6.4
		c0,0.8,0.2,1.2,0.7,1.7c0.5,0.5,1.1,0.6,2,0.6s1.5-0.2,2-0.6s0.7-0.9,0.7-1.7v-0.9h-1.1v0.9
		C127.1,1138.3,126.6,1138.8,125.5,1138.8L125.5,1138.8z M129.9,1129v0.9h2.1v9.5h1.1v-9.5h2.1v-0.9H129.9L129.9,1129z
		 M138.7,1138.5v-8.5h0.9v-0.9h-2.7v0.9h0.9v8.5h-0.9v0.9h2.7v-0.9H138.7L138.7,1138.5z M146.9,1129.4c-0.5-0.4-1.1-0.6-2.1-0.6
		c-0.9,0-1.6,0.2-2.1,0.6s-0.7,0.9-0.7,1.7v6.4c0,0.8,0.2,1.2,0.7,1.7c0.5,0.4,1.1,0.6,2.1,0.6c0.9,0,1.6-0.2,2.1-0.6
		s0.7-0.9,0.7-1.7v-6.4C147.5,1130.3,147.3,1129.8,146.9,1129.4L146.9,1129.4z M144.8,1138.8c-1,0-1.6-0.5-1.6-1.3v-6.4
		c0-0.9,0.6-1.3,1.6-1.3c1,0,1.6,0.5,1.6,1.3v6.4C146.4,1138.3,145.8,1138.8,144.8,1138.8L144.8,1138.8z M151.6,1131.4l3.5,8.1h1.1
		v-10.5h-1.1v8.1l-3.5-8.1h-1.1v10.5h1.1V1131.4L151.6,1131.4z"/>
	<path d="M77.8,1200.1v0.9h2.1v9.5h1.1v-9.5h2.1v-0.9H77.8L77.8,1200.1z M86.8,1209.6v-8.5h0.9v-0.9h-2.7v0.9h0.9v8.5h-0.9v0.9h2.7
		v-0.9H86.8L86.8,1209.6z M91.4,1201.9l1.9,7h1l1.9-7v8.6h1.1v-10.4h-1.7l-1.9,6.9l-1.8-6.9h-1.7v10.4h1.1L91.4,1201.9L91.4,1201.9z
		 M105.3,1209.6h-3.6v-3.9h2.8v-0.9h-2.8v-3.7h3.5v-0.9h-4.6v10.4h4.7L105.3,1209.6L105.3,1209.6z M116.4,1207.4
		c-0.1-0.3-0.4-0.7-0.7-0.9l-2.8-2.7c-0.3-0.2-0.4-0.5-0.5-0.7s-0.1-0.5-0.1-0.9c0-0.4,0.1-0.7,0.4-0.9c0.3-0.2,0.7-0.3,1.1-0.3
		c0.5,0,0.9,0.1,1.1,0.3c0.3,0.2,0.4,0.5,0.4,0.9v1.4h1.1v-1.3c0-1.5-0.9-2.3-2.6-2.3c-0.9,0-1.6,0.2-2,0.6
		c-0.5,0.4-0.7,0.9-0.7,1.7c0,0.5,0.1,0.9,0.2,1.2c0.1,0.3,0.4,0.7,0.7,0.9l2.8,2.7c0.3,0.3,0.4,0.5,0.5,0.7
		c0.1,0.2,0.1,0.5,0.1,0.9s-0.1,0.7-0.4,0.9c-0.3,0.2-0.7,0.3-1.2,0.3c-0.6,0-0.9-0.1-1.2-0.3c-0.3-0.2-0.4-0.5-0.4-0.9v-1.4h-1.1
		v1.3c0,1.5,0.9,2.3,2.7,2.3s2.7-0.8,2.7-2.3C116.5,1208.1,116.5,1207.7,116.4,1207.4L116.4,1207.4z M118.5,1210.5h1.1l0.6-2.4h3
		l0.6,2.4h1.1l-2.4-10.4h-1.7L118.5,1210.5L118.5,1210.5z M123.1,1207.2h-2.7l1.3-5.9L123.1,1207.2L123.1,1207.2z"/>
	<path d="M132.4,1200.1h-1.1l-2.1,9.2l-2.1-9.2h-1.1l2.4,10.4h1.7L132.4,1200.1L132.4,1200.1z M139.4,1209.6h-3.6v-3.9h2.8v-0.9
		h-2.8v-3.7h3.5v-0.9h-4.6v10.4h4.7L139.4,1209.6L139.4,1209.6z M146.3,1210c0.5-0.4,0.7-0.9,0.7-1.7v-6c0-0.7-0.2-1.2-0.7-1.7
		c-0.5-0.4-1-0.6-1.9-0.6h-2.6v10.4h2.6C145.2,1210.5,145.8,1210.4,146.3,1210L146.3,1210z M145.4,1209.2c-0.3,0.3-0.6,0.4-1,0.4
		H143v-8.5h1.4c0.5,0,0.8,0.1,1,0.4c0.3,0.3,0.4,0.6,0.4,0.9v6C145.8,1208.7,145.6,1209,145.4,1209.2L145.4,1209.2z"/>
	<path d="M95.3,748.2c-1,0-1.5-0.5-1.5-1.3v-6.4c0-0.9,0.5-1.3,1.5-1.3s1.5,0.5,1.5,1.3v1.5h1.1v-1.5c0-0.8-0.2-1.2-0.7-1.7
		c-0.5-0.4-1.1-0.6-2-0.6s-1.5,0.2-2,0.6c-0.5,0.4-0.7,0.9-0.7,1.7v6.4c0,0.8,0.2,1.2,0.7,1.7c0.5,0.4,1.1,0.6,2,0.6s1.5-0.2,2-0.6
		s0.7-0.9,0.7-1.7v-0.9h-1.1v0.9C96.8,747.8,96.2,748.2,95.3,748.2L95.3,748.2z M104.8,748.9v-0.9h-2.9v-9.5h-1.1v10.4H104.8
		L104.8,748.9z M108.2,747.9v-8.5h0.9v-0.9h-2.7v0.9h0.9v8.5h-0.9v0.9h2.7v-0.9H108.2L108.2,747.9z M116.5,747.9h-3.6v-3.9h2.8v-0.9
		h-2.8v-3.7h3.5v-0.9h-4.6v10.4h4.7L116.5,747.9L116.5,747.9z M120,740.8l3.5,8.1h1.1v-10.4h-1.1v8.1l-3.5-8.1h-1.1v10.4h1.1V740.8
		L120,740.8z M126.8,738.5v0.9h2.1v9.5h1.1v-9.5h2.1v-0.9H126.8L126.8,738.5z"/>
	<path d="M83.9,761.8h1.3c0.9,0,1.5-0.2,1.9-0.6c0.5-0.4,0.7-0.9,0.7-1.7v-2.7c0-0.7-0.2-1.2-0.7-1.7c-0.5-0.4-1-0.6-1.9-0.6h-2.5
		V765h1.1V761.8L83.9,761.8z M85.2,760.8h-1.3v-5.3h1.3c0.5,0,0.9,0.1,1,0.4c0.2,0.3,0.4,0.6,0.4,0.9v2.7
		C86.7,760.4,86.2,760.8,85.2,760.8L85.2,760.8L85.2,760.8z M94.4,765v-0.9h-2.9v-9.5h-1.1v10.5L94.4,765L94.4,765z M95.4,765h1.1
		l0.6-2.5h3l0.6,2.5h1.1l-2.4-10.5h-1.7L95.4,765L95.4,765z M99.9,761.6h-2.7l1.3-5.9L99.9,761.6L99.9,761.6z M105.2,757l3.5,8.1
		h1.1v-10.4h-1.1v8.1l-3.5-8.1h-1.1v10.5h1.1V757L105.2,757z M114.2,757l3.5,8.1h1.1v-10.4h-1.1v8.1l-3.5-8.1H113v10.5h1.1V757
		L114.2,757z M123.4,764.1v-8.5h0.9v-0.9h-2.7v0.9h0.9v8.5h-0.9v0.9h2.7v-0.9H123.4L123.4,764.1z M128.2,757l3.5,8.1h1.1v-10.4h-1.1
		v8.1l-3.5-8.1h-1.1v10.5h1.1V757L128.2,757z M139.9,760.7v2c0,0.4-0.2,0.7-0.6,1c-0.4,0.4-0.9,0.6-1.2,0.6c-0.5,0-0.8-0.1-0.9-0.4
		s-0.3-0.6-0.3-0.9v-6.4c0-0.9,0.5-1.3,1.5-1.3c1,0,1.5,0.5,1.5,1.3v0.9h1.1v-0.9c0-0.8-0.2-1.2-0.7-1.7c-0.5-0.4-1.1-0.6-2-0.6
		s-1.5,0.2-2,0.6c-0.5,0.4-0.7,0.9-0.7,1.7v6.4c0,1.5,0.8,2.3,2.4,2.3c0.5,0,0.9-0.1,1.2-0.4c0.4-0.2,0.7-0.6,0.9-0.9l0.4,1h0.5
		v-5.3h-2.9v0.9L139.9,760.7L139.9,760.7z"/>
	<path class="st2" d="M72.2,946c-0.8,0-1.1-0.3-1.1-0.9v-4.9c0-0.7,0.4-0.9,1.1-0.9c0.8,0,1.1,0.3,1.1,0.9v1.1h0.9v-1.1
		c0-0.6-0.2-0.9-0.5-1.2c-0.4-0.3-0.9-0.5-1.5-0.5s-1.1,0.2-1.5,0.5c-0.4,0.3-0.5,0.8-0.5,1.2v4.9c0,0.6,0.2,0.9,0.5,1.2
		c0.4,0.3,0.9,0.5,1.5,0.5s1.1-0.2,1.5-0.5s0.5-0.8,0.5-1.2v-0.7h-0.9v0.7C73.3,945.6,72.9,946,72.2,946L72.2,946z M79.8,938.8
		c-0.4-0.3-0.9-0.5-1.6-0.5s-1.2,0.2-1.6,0.5c-0.4,0.3-0.6,0.8-0.6,1.2v4.9c0,0.6,0.2,0.9,0.6,1.2s0.9,0.5,1.6,0.5s1.2-0.2,1.6-0.5
		c0.4-0.3,0.6-0.8,0.6-1.2V940C80.3,939.5,80.1,939.1,79.8,938.8L79.8,938.8z M78.2,946c-0.9,0-1.2-0.3-1.2-0.9v-4.9
		c0-0.7,0.4-0.9,1.2-0.9s1.2,0.3,1.2,0.9v4.9C79.5,945.6,79.1,946,78.2,946L78.2,946z M86.4,944.1c-0.1-0.3-0.3-0.5-0.5-0.8
		l-2.2-2.1c-0.2-0.2-0.3-0.4-0.4-0.5c-0.1-0.2-0.1-0.4-0.1-0.7c0-0.3,0.1-0.5,0.3-0.7c0.2-0.2,0.5-0.3,0.9-0.3s0.7,0.1,0.9,0.3
		c0.2,0.2,0.3,0.4,0.3,0.7v1.1h0.9v-1c0-1.1-0.7-1.7-2-1.7c-0.7,0-1.2,0.2-1.5,0.5c-0.4,0.3-0.5,0.8-0.5,1.2c0,0.4,0,0.7,0.1,0.9
		c0.1,0.3,0.3,0.5,0.6,0.8l2.2,2.1c0.2,0.2,0.3,0.4,0.4,0.6c0.1,0.2,0.1,0.4,0.1,0.7c0,0.3-0.1,0.5-0.3,0.7
		c-0.2,0.2-0.5,0.3-0.9,0.3c-0.4,0-0.7-0.1-0.9-0.3c-0.2-0.2-0.3-0.4-0.3-0.7v-1.1h-0.9v1c0,1.1,0.7,1.7,2.1,1.7
		c1.4,0,2.1-0.6,2.1-1.7C86.6,944.6,86.5,944.3,86.4,944.1L86.4,944.1z M87.9,938.5v0.8h1.6v7.3h0.9v-7.3H92v-0.8H87.9L87.9,938.5z
		 M100,945.8h-2.7v-2.9h2.2v-0.8h-2.2v-2.8h2.7v-0.8h-3.5v8h3.6L100,945.8L100,945.8z M105.6,944.1c-0.1-0.3-0.3-0.5-0.5-0.8
		l-2.2-2.1c-0.2-0.2-0.3-0.4-0.4-0.5c-0.1-0.2-0.1-0.4-0.1-0.7c0-0.3,0.1-0.5,0.3-0.7c0.2-0.2,0.5-0.3,0.9-0.3s0.7,0.1,0.9,0.3
		c0.2,0.2,0.3,0.4,0.3,0.7v1.1h0.9v-1c0-1.1-0.7-1.7-2-1.7c-0.7,0-1.2,0.2-1.5,0.5c-0.4,0.3-0.5,0.8-0.5,1.2c0,0.4,0,0.7,0.1,0.9
		c0.1,0.3,0.3,0.5,0.6,0.8l2.2,2.1c0.2,0.2,0.3,0.4,0.4,0.6s0.1,0.4,0.1,0.7c0,0.3-0.1,0.5-0.3,0.7c-0.2,0.2-0.5,0.3-0.9,0.3
		c-0.4,0-0.7-0.1-0.9-0.3c-0.2-0.2-0.3-0.4-0.3-0.7v-1.1h-0.9v1c0,1.1,0.7,1.7,2.1,1.7c1.4,0,2.1-0.6,2.1-1.7
		C105.8,944.6,105.7,944.3,105.6,944.1L105.6,944.1z M107.1,938.5v0.8h1.6v7.3h0.9v-7.3h1.6v-0.8H107.1L107.1,938.5z M112.1,946.5
		h0.9l0.4-1.8h2.4l0.4,1.8h0.9l-1.8-8h-1.3L112.1,946.5L112.1,946.5z M115.6,943.9h-2l1-4.5L115.6,943.9L115.6,943.9z M118.7,946.5
		h2c0.7,0,1.1-0.2,1.4-0.5s0.5-0.8,0.5-1.2v-1.1c0-0.8-0.4-1.2-1-1.3c0.6-0.2,0.9-0.7,0.9-1.3v-0.8c0-0.6-0.2-0.9-0.5-1.2
		c-0.4-0.3-0.9-0.5-1.4-0.5h-1.9L118.7,946.5L118.7,946.5z M121.6,945.5c-0.2,0.2-0.5,0.3-0.9,0.3h-1.1v-3.1h1.1
		c0.4,0,0.6,0.1,0.8,0.3c0.2,0.2,0.3,0.5,0.3,0.8v1.1C121.8,945.1,121.7,945.4,121.6,945.5L121.6,945.5z M121.4,941.7
		c-0.2,0.2-0.5,0.3-0.9,0.3h-1v-2.7h1c0.4,0,0.6,0.1,0.9,0.3c0.2,0.2,0.3,0.5,0.3,0.7v0.8C121.6,941.3,121.6,941.5,121.4,941.7
		L121.4,941.7z M128.1,946.5v-0.8h-2.3v-7.3H125v8L128.1,946.5L128.1,946.5z M130.7,945.8v-6.5h0.7v-0.8h-2.1v0.8h0.7v6.5h-0.7v0.8
		h2.1v-0.8H130.7L130.7,945.8z M137.2,944.1c-0.1-0.3-0.3-0.5-0.5-0.8l-2.2-2.1c-0.2-0.2-0.3-0.4-0.4-0.5c-0.1-0.2-0.1-0.4-0.1-0.7
		c0-0.3,0.1-0.5,0.3-0.7c0.2-0.2,0.5-0.3,0.9-0.3c0.4,0,0.7,0.1,0.9,0.3c0.2,0.2,0.3,0.4,0.3,0.7v1.1h0.9v-1c0-1.1-0.7-1.7-2-1.7
		c-0.7,0-1.2,0.2-1.5,0.5c-0.4,0.3-0.5,0.8-0.5,1.2c0,0.4,0,0.7,0.1,0.9c0.1,0.3,0.3,0.5,0.6,0.8l2.2,2.1c0.2,0.2,0.3,0.4,0.4,0.6
		s0.1,0.4,0.1,0.7c0,0.3-0.1,0.5-0.3,0.7c-0.2,0.2-0.5,0.3-0.9,0.3c-0.4,0-0.7-0.1-0.9-0.3c-0.2-0.2-0.3-0.4-0.3-0.7v-1.1h-0.9v1
		c0,1.1,0.7,1.7,2.1,1.7c1.4,0,2.1-0.6,2.1-1.7C137.3,944.6,137.2,944.3,137.2,944.1L137.2,944.1z M140.3,942.8h2.5v3.7h0.9v-8h-0.9
		v3.6h-2.5v-3.6h-0.9v8h0.9V942.8L140.3,942.8z M149.8,945.8h-2.7v-2.9h2.2v-0.8h-2.2v-2.8h2.7v-0.8h-3.5v8h3.6L149.8,945.8
		L149.8,945.8z M155,946.1c0.3-0.3,0.5-0.8,0.5-1.2v-4.6c0-0.6-0.2-0.9-0.5-1.2c-0.4-0.3-0.9-0.5-1.4-0.5h-2v8h2
		C154.3,946.5,154.7,946.4,155,946.1L155,946.1z M154.4,945.5c-0.2,0.2-0.5,0.3-0.9,0.3h-1.1v-6.5h1.1c0.4,0,0.6,0.1,0.9,0.3
		c0.2,0.2,0.3,0.5,0.3,0.7v4.6C154.7,945.1,154.6,945.4,154.4,945.5L154.4,945.5z"/>
	<path class="st2" d="M11.9,724.2v0.9l1.9,0.4v2.4l-1.9,0.4v0.9l8.1-1.8V726L11.9,724.2L11.9,724.2z M14.5,727.7v-2l4.5,1
		L14.5,727.7L14.5,727.7z M14.8,731.7v1l-2.8,1.4v0.9l2.9-1.5c0.2,0.8,0.8,1,1.6,1h1.7c0.6,0,0.9-0.2,1.2-0.5
		c0.3-0.4,0.5-0.9,0.5-1.4v-1.9h-8.1v0.9H14.8L14.8,731.7z M15.5,732.8v-1h3.7v1c0,0.4-0.1,0.7-0.3,0.9c-0.2,0.2-0.4,0.3-0.8,0.3
		h-1.7C15.8,733.8,15.5,733.4,15.5,732.8L15.5,732.8L15.5,732.8z M12.5,738.7c0-0.8,0.3-1.1,0.9-1.1h4.9c0.7,0,0.9,0.4,0.9,1.1
		c0,0.8-0.3,1.1-0.9,1.1h-1.1v0.9h1.1c0.6,0,0.9-0.2,1.2-0.5c0.3-0.3,0.5-0.9,0.5-1.5c0-0.7-0.2-1.1-0.5-1.5
		c-0.3-0.4-0.8-0.5-1.2-0.5h-4.9c-0.6,0-0.9,0.2-1.2,0.5c-0.3,0.4-0.5,0.9-0.5,1.5c0,0.7,0.2,1.1,0.5,1.5c0.3,0.4,0.8,0.5,1.2,0.5
		h0.7v-0.9h-0.7C12.8,739.9,12.5,739.5,12.5,738.7L12.5,738.7z M15.6,743.8v2.5h-3.7v0.9H20v-0.9h-3.6v-2.5H20v-0.9h-8.1v0.9H15.6
		L15.6,743.8z M12.7,750.6h6.5v0.7H20v-2.1h-0.8v0.7h-6.5v-0.7h-0.8v2.1h0.8V750.6L12.7,750.6z M19.9,752.5h-0.8v1.6h-7.3v0.9h7.3
		v1.6h0.8V752.5L19.9,752.5z M12.7,761.8V759h2.9v2.2h0.8V759h2.8v2.7H20v-3.5h-8.1v3.6L12.7,761.8L12.7,761.8z M12.5,765.5
		c0-0.8,0.3-1.1,0.9-1.1h4.9c0.7,0,0.9,0.4,0.9,1.1c0,0.8-0.3,1.1-0.9,1.1h-1.1v0.9h1.1c0.6,0,0.9-0.2,1.2-0.5
		c0.3-0.3,0.5-0.9,0.5-1.5c0-0.7-0.2-1.1-0.5-1.5c-0.3-0.4-0.8-0.5-1.2-0.5h-4.9c-0.6,0-0.9,0.2-1.2,0.5c-0.3,0.4-0.5,0.9-0.5,1.5
		c0,0.7,0.2,1.1,0.5,1.5c0.3,0.4,0.8,0.5,1.2,0.5h0.7v-0.9h-0.7C12.8,766.6,12.5,766.2,12.5,765.5L12.5,765.5z M19.9,768.8h-0.8v1.6
		h-7.3v0.9h7.3v1.6h0.8V768.8L19.9,768.8z M21.1,780v-0.8l-10.4-2.5v0.8L21.1,780L21.1,780z M12.5,786.6c0-0.8,0.3-1.1,0.9-1.1h4.9
		c0.7,0,0.9,0.4,0.9,1.1c0,0.8-0.3,1.1-0.9,1.1h-1.1v0.9h1.1c0.6,0,0.9-0.2,1.2-0.5c0.3-0.3,0.5-0.9,0.5-1.5c0-0.7-0.2-1.1-0.5-1.5
		c-0.3-0.4-0.8-0.5-1.2-0.5h-4.9c-0.6,0-0.9,0.2-1.2,0.5c-0.3,0.4-0.5,0.9-0.5,1.5c0,0.7,0.2,1.1,0.5,1.5c0.3,0.4,0.8,0.5,1.2,0.5
		h0.7v-0.9h-0.7C12.8,787.9,12.5,787.5,12.5,786.6L12.5,786.6z M19.6,794.3c0.3-0.4,0.5-0.9,0.5-1.6c0-0.8-0.2-1.2-0.5-1.6
		c-0.3-0.4-0.8-0.6-1.2-0.6h-4.9c-0.6,0-0.9,0.2-1.2,0.6c-0.3,0.4-0.5,0.9-0.5,1.6c0,0.7,0.2,1.2,0.5,1.6c0.3,0.4,0.8,0.6,1.2,0.6
		h4.9C19,794.9,19.3,794.7,19.6,794.3L19.6,794.3z M12.5,792.8c0-0.9,0.3-1.2,0.9-1.2h4.9c0.7,0,0.9,0.4,0.9,1.2
		c0,0.9-0.3,1.2-0.9,1.2h-4.9C12.8,794,12.5,793.6,12.5,792.8L12.5,792.8z M18.1,798l-6.2,2.7v0.9H20v-0.9h-6.2L20,798v-0.9h-8.1
		v0.9H18.1L18.1,798z M19.9,803.1h-0.8v1.6h-7.3v0.9h7.3v1.6h0.8V803.1L19.9,803.1z M14.8,809.7v1l-2.8,1.4v0.9l2.9-1.5
		c0.2,0.8,0.8,1,1.6,1h1.7c0.6,0,0.9-0.2,1.2-0.5c0.3-0.4,0.5-0.9,0.5-1.4v-1.9h-8.1v0.9H14.8L14.8,809.7z M15.5,810.7v-1h3.7v1
		c0,0.4-0.1,0.7-0.3,0.9c-0.2,0.2-0.4,0.3-0.8,0.3h-1.7C15.8,811.8,15.5,811.4,15.5,810.7L15.5,810.7L15.5,810.7z M11.9,814v0.9
		l1.9,0.4v2.4l-1.9,0.4v0.9l8.1-1.8v-1.3L11.9,814L11.9,814z M14.5,817.5v-2l4.5,1L14.5,817.5L14.5,817.5z M12.5,822.6
		c0-0.8,0.3-1.1,0.9-1.1h4.9c0.7,0,0.9,0.4,0.9,1.1c0,0.8-0.3,1.1-0.9,1.1h-1.1v0.9h1.1c0.6,0,0.9-0.2,1.2-0.5
		c0.3-0.3,0.5-0.9,0.5-1.5s-0.2-1.1-0.5-1.5c-0.3-0.4-0.8-0.5-1.2-0.5h-4.9c-0.6,0-0.9,0.2-1.2,0.5c-0.3,0.4-0.5,0.9-0.5,1.5
		s0.2,1.1,0.5,1.5c0.3,0.4,0.8,0.5,1.2,0.5h0.7v-0.9h-0.7C12.8,823.7,12.5,823.3,12.5,822.6L12.5,822.6z M19.9,825.9h-0.8v1.6h-7.3
		v0.9h7.3v1.6h0.8V825.9L19.9,825.9z M19.6,835c0.3-0.4,0.5-0.9,0.5-1.6c0-0.7-0.2-1.2-0.5-1.6c-0.3-0.4-0.8-0.6-1.2-0.6h-4.9
		c-0.6,0-0.9,0.2-1.2,0.6c-0.3,0.4-0.5,0.9-0.5,1.6c0,0.7,0.2,1.2,0.5,1.6c0.3,0.4,0.8,0.6,1.2,0.6h4.9
		C19,835.6,19.3,835.4,19.6,835L19.6,835z M12.5,833.5c0-0.9,0.3-1.2,0.9-1.2h4.9c0.7,0,0.9,0.4,0.9,1.2c0,0.9-0.3,1.2-0.9,1.2h-4.9
		C12.8,834.7,12.5,834.3,12.5,833.5L12.5,833.5z M14.8,838.7v1l-2.8,1.4v0.9l2.9-1.5c0.2,0.8,0.8,1,1.6,1h1.7c0.6,0,0.9-0.2,1.2-0.5
		c0.3-0.4,0.5-0.9,0.5-1.4v-1.9h-8.1v0.9H14.8L14.8,838.7z M15.5,839.7v-1h3.7v1c0,0.4-0.1,0.7-0.3,0.9c-0.2,0.2-0.4,0.3-0.8,0.3
		h-1.7C15.8,840.8,15.5,840.4,15.5,839.7L15.5,839.7L15.5,839.7z M12.5,848.5c0-0.8,0.3-1.1,0.9-1.1h4.9c0.7,0,0.9,0.4,0.9,1.1
		c0,0.8-0.3,1.1-0.9,1.1h-1.1v0.9h1.1c0.6,0,0.9-0.2,1.2-0.5c0.3-0.3,0.5-0.9,0.5-1.5c0-0.7-0.2-1.1-0.5-1.5
		c-0.3-0.4-0.8-0.5-1.2-0.5h-4.9c-0.6,0-0.9,0.2-1.2,0.5c-0.3,0.4-0.5,0.9-0.5,1.5c0,0.7,0.2,1.1,0.5,1.5c0.3,0.4,0.8,0.5,1.2,0.5
		h0.7v-0.9h-0.7C12.8,849.7,12.5,849.3,12.5,848.5L12.5,848.5z M19.6,856.1c0.3-0.4,0.5-0.9,0.5-1.6c0-0.7-0.2-1.2-0.5-1.6
		c-0.3-0.4-0.8-0.6-1.2-0.6h-4.9c-0.6,0-0.9,0.2-1.2,0.6c-0.3,0.4-0.5,0.9-0.5,1.6c0,0.8,0.2,1.2,0.5,1.6c0.3,0.4,0.8,0.6,1.2,0.6
		h4.9C19,856.7,19.3,856.5,19.6,856.1L19.6,856.1z M12.5,854.6c0-0.9,0.3-1.2,0.9-1.2h4.9c0.7,0,0.9,0.4,0.9,1.2
		c0,0.9-0.3,1.2-0.9,1.2h-4.9C12.8,855.8,12.5,855.5,12.5,854.6L12.5,854.6z M11.9,862.1h0.8v-2.3H20V859h-8.1V862.1L11.9,862.1z
		 M11.9,866.7h0.8v-2.3H20v-0.9h-8.1V866.7L11.9,866.7z M11.9,867.4v0.9l1.9,0.4v2.4l-1.9,0.4v0.9l8.1-1.8v-1.3L11.9,867.4
		L11.9,867.4z M14.5,870.9v-2l4.5,1L14.5,870.9L14.5,870.9z M11.9,874.1v2c0,0.7,0.2,1.1,0.5,1.4c0.3,0.3,0.8,0.5,1.2,0.5h1.1
		c0.8,0,1.2-0.4,1.3-1c0.2,0.6,0.7,0.9,1.3,0.9h0.8c0.6,0,0.9-0.2,1.2-0.5c0.3-0.4,0.5-0.9,0.5-1.4V874L11.9,874.1L11.9,874.1z
		 M13,876.9c-0.2-0.2-0.3-0.5-0.3-0.9v-1.1h3.1v1.1c0,0.4-0.1,0.6-0.3,0.8c-0.2,0.2-0.5,0.3-0.8,0.3h-1.1
		C13.4,877.2,13.2,877.1,13,876.9L13,876.9z M16.8,876.7c-0.2-0.2-0.3-0.5-0.3-0.9v-1h2.7v1c0,0.4-0.1,0.6-0.3,0.9
		c-0.2,0.2-0.5,0.3-0.7,0.3h-0.8C17.2,877,17,876.9,16.8,876.7L16.8,876.7z M19.6,883.8c0.3-0.4,0.5-0.9,0.5-1.6
		c0-0.7-0.2-1.2-0.5-1.6c-0.3-0.4-0.8-0.6-1.2-0.6h-4.9c-0.6,0-0.9,0.2-1.2,0.6c-0.3,0.4-0.5,0.9-0.5,1.6c0,0.7,0.2,1.2,0.5,1.6
		c0.3,0.4,0.8,0.6,1.2,0.6h4.9C19,884.3,19.3,884.1,19.6,883.8L19.6,883.8z M12.5,882.2c0-0.9,0.3-1.2,0.9-1.2h4.9
		c0.7,0,0.9,0.4,0.9,1.2s-0.3,1.2-0.9,1.2h-4.9C12.8,883.4,12.5,883.1,12.5,882.2L12.5,882.2z M14.8,887.4v1l-2.8,1.4v0.9l2.9-1.5
		c0.2,0.8,0.8,1,1.6,1h1.7c0.6,0,0.9-0.2,1.2-0.5c0.3-0.4,0.5-0.9,0.5-1.4v-1.9h-8.1v0.9H14.8L14.8,887.4z M15.5,888.5v-1h3.7v1
		c0,0.4-0.1,0.7-0.3,0.9c-0.2,0.2-0.4,0.3-0.8,0.3h-1.7C15.8,889.5,15.5,889.2,15.5,888.5L15.5,888.5L15.5,888.5z M11.9,891.8v0.9
		l1.9,0.4v2.4l-1.9,0.4v0.9l8.1-1.8v-1.3L11.9,891.8L11.9,891.8z M14.5,895.3v-2l4.5,1L14.5,895.3L14.5,895.3z M19.9,897.6h-0.8v1.6
		h-7.3v0.9h7.3v1.6h0.8V897.6L19.9,897.6z M12.7,904.4h6.5v0.7H20V903h-0.8v0.7h-6.5V903h-0.8v2.1h0.8V904.4L12.7,904.4z
		 M19.6,910.6c0.3-0.4,0.5-0.9,0.5-1.6c0-0.8-0.2-1.2-0.5-1.6c-0.3-0.4-0.8-0.6-1.2-0.6h-4.9c-0.6,0-0.9,0.2-1.2,0.6
		c-0.3,0.4-0.5,0.9-0.5,1.6c0,0.7,0.2,1.2,0.5,1.6c0.3,0.4,0.8,0.6,1.2,0.6h4.9C19,911.1,19.3,910.9,19.6,910.6L19.6,910.6z
		 M12.5,909c0-0.9,0.3-1.2,0.9-1.2h4.9c0.7,0,0.9,0.4,0.9,1.2s-0.3,1.2-0.9,1.2h-4.9C12.8,910.3,12.5,909.8,12.5,909L12.5,909z
		 M18.1,914.3l-6.2,2.7v0.9H20v-0.9h-6.2l6.2-2.7v-0.9h-8.1v0.9H18.1L18.1,914.3z"/>
	<rect x="1.9" y="953.6" class="st3" width="221.9" height="3.8"/>
	<path class="st3" d="M222.8,859.3H28.9v-1.9h193.9V859.3z M223,787.7H28.9v-1.9H223V787.7z"/>
	<rect y="928" class="st3" width="223.8" height="3.8"/>
	<rect x="28" y="717" class="st3" width="3.8" height="213.8"/>
	<path class="st3" d="M222.8,1169.8H0.9v-1.9h221.9V1169.8z M222.8,1099.1H0.9v-1.9h221.9V1099.1z M222.8,1027.6H0.9v-1.9h221.9
		V1027.6z"/>
	<g>
		<g>
			<defs>
				<path id="SVGID_3_" d="M100.5,786.7c0,6.5,5.3,11.9,11.9,11.9s11.9-5.3,11.9-11.9s-5.3-11.9-11.9-11.9S100.5,780.2,100.5,786.7
					L100.5,786.7z"/>
			</defs>
			<clipPath id="SVGID_4_">
				<use xlink:href="#SVGID_3_"  style="overflow:visible;"/>
			</clipPath>
			<rect x="95.8" y="770.1" class="st4" width="33.2" height="33.2"/>
		</g>
	</g>
	<path class="st3" d="M112.4,799.5c-7,0-12.8-5.8-12.8-12.8c0-7,5.8-12.8,12.8-12.8s12.8,5.8,12.8,12.8
		C125.2,793.7,119.4,799.5,112.4,799.5z M112.4,775.8c-6,0-10.9,4.9-10.9,10.9s4.9,10.9,10.9,10.9c6,0,10.9-4.9,10.9-10.9
		S118.3,775.8,112.4,775.8z"/>
	<g>
		<g>
			<defs>
				<polyline id="SVGID_5_" points="119.6,784.4 112.8,791.1 106.1,784.4 				"/>
			</defs>
			<clipPath id="SVGID_6_">
				<use xlink:href="#SVGID_5_"  style="overflow:visible;"/>
			</clipPath>
			<polygon class="st5" points="112.8,793.7 104.8,785.8 107.4,783 112.8,788.4 118.2,783 120.9,785.8 			"/>
		</g>
	</g>
	<g>
		<g>
			<defs>
				<path id="SVGID_7_" d="M100.5,858.8c0,6.5,5.3,11.9,11.9,11.9s11.9-5.3,11.9-11.9c0-6.5-5.3-11.9-11.9-11.9
					S100.5,852.2,100.5,858.8L100.5,858.8z"/>
			</defs>
			<clipPath id="SVGID_8_">
				<use xlink:href="#SVGID_7_"  style="overflow:visible;"/>
			</clipPath>
			<rect x="95.8" y="842.2" class="st6" width="33.2" height="33.2"/>
		</g>
	</g>
	<path class="st3" d="M112.4,871.6c-7,0-12.8-5.8-12.8-12.8c0-7,5.8-12.8,12.8-12.8s12.8,5.8,12.8,12.8
		C125.2,865.8,119.4,871.6,112.4,871.6z M112.4,847.9c-6,0-10.9,4.9-10.9,10.9c0,6,4.9,10.9,10.9,10.9c6,0,10.9-4.9,10.9-10.9
		C123.3,852.8,118.3,847.9,112.4,847.9z"/>
	<g>
		<g>
			<defs>
				<polyline id="SVGID_9_" points="119.6,856.4 112.8,863.1 106.1,856.4 				"/>
			</defs>
			<clipPath id="SVGID_10_">
				<use xlink:href="#SVGID_9_"  style="overflow:visible;"/>
			</clipPath>
			<polygon class="st7" points="112.8,865.8 104.8,857.8 107.4,855.1 112.8,860.5 118.2,855.1 120.9,857.8 			"/>
		</g>
	</g>
	<g>
		<g>
			<defs>
				<path id="SVGID_11_" d="M100.5,1026.6c0,6.5,5.3,11.9,11.9,11.9s11.9-5.3,11.9-11.9s-5.3-11.9-11.9-11.9
					S100.5,1020.1,100.5,1026.6L100.5,1026.6z"/>
			</defs>
			<clipPath id="SVGID_12_">
				<use xlink:href="#SVGID_11_"  style="overflow:visible;"/>
			</clipPath>
			<rect x="95.8" y="1010" class="st8" width="33.2" height="33.2"/>
		</g>
	</g>
	<path class="st3" d="M112.4,1039.4c-7,0-12.8-5.8-12.8-12.8s5.8-12.8,12.8-12.8s12.8,5.8,12.8,12.8S119.4,1039.4,112.4,1039.4z
		 M112.4,1015.7c-6,0-10.9,4.9-10.9,10.9s4.9,10.9,10.9,10.9c6,0,10.9-4.9,10.9-10.9S118.3,1015.7,112.4,1015.7z"/>
	<g>
		<g>
			<defs>
				<polyline id="SVGID_13_" points="119.6,1024.2 112.8,1031 106.1,1024.2 				"/>
			</defs>
			<clipPath id="SVGID_14_">
				<use xlink:href="#SVGID_13_"  style="overflow:visible;"/>
			</clipPath>
			<polygon class="st9" points="112.8,1033.6 104.8,1025.7 107.4,1022.9 112.8,1028.3 118.2,1022.9 120.9,1025.7 			"/>
		</g>
	</g>
	<g>
		<g>
			<defs>
				<path id="SVGID_15_" d="M100.5,1098.7c0,6.5,5.3,11.9,11.9,11.9s11.9-5.3,11.9-11.9s-5.3-11.9-11.9-11.9
					S100.5,1092.1,100.5,1098.7L100.5,1098.7z"/>
			</defs>
			<clipPath id="SVGID_16_">
				<use xlink:href="#SVGID_15_"  style="overflow:visible;"/>
			</clipPath>
			<rect x="95.8" y="1082.1" class="st10" width="33.2" height="33.2"/>
		</g>
	</g>
	<path class="st3" d="M112.4,1111.5c-7,0-12.8-5.8-12.8-12.8c0-7,5.8-12.8,12.8-12.8s12.8,5.8,12.8,12.8
		C125.2,1105.7,119.4,1111.5,112.4,1111.5z M112.4,1087.8c-6,0-10.9,4.9-10.9,10.9s4.9,10.9,10.9,10.9c6,0,10.9-4.9,10.9-10.9
		S118.3,1087.8,112.4,1087.8z"/>
	<g>
		<g>
			<defs>
				<polyline id="SVGID_17_" points="119.6,1096.3 112.8,1103 106.1,1096.3 				"/>
			</defs>
			<clipPath id="SVGID_18_">
				<use xlink:href="#SVGID_17_"  style="overflow:visible;"/>
			</clipPath>
			<polygon class="st11" points="112.8,1105.7 104.8,1097.7 107.4,1095 112.8,1100.4 118.2,1095 120.9,1097.7 			"/>
		</g>
	</g>
	<g>
		<g>
			<defs>
				<path id="SVGID_19_" d="M100.5,1168.8c0,6.5,5.3,11.9,11.9,11.9s11.9-5.3,11.9-11.9s-5.3-11.9-11.9-11.9
					S100.5,1162.3,100.5,1168.8L100.5,1168.8z"/>
			</defs>
			<clipPath id="SVGID_20_">
				<use xlink:href="#SVGID_19_"  style="overflow:visible;"/>
			</clipPath>
			<rect x="95.8" y="1152.2" class="st12" width="33.2" height="33.2"/>
		</g>
	</g>
	<path class="st3" d="M112.4,1181.6c-7,0-12.8-5.8-12.8-12.8c0-7,5.8-12.8,12.8-12.8s12.8,5.8,12.8,12.8
		C125.2,1175.8,119.4,1181.6,112.4,1181.6z M112.4,1157.9c-6,0-10.9,4.9-10.9,10.9s4.9,10.9,10.9,10.9c6,0,10.9-4.9,10.9-10.9
		S118.3,1157.9,112.4,1157.9z"/>
	<g>
		<g>
			<defs>
				<polyline id="SVGID_21_" points="119.6,1166.5 112.8,1173.2 106.1,1166.5 				"/>
			</defs>
			<clipPath id="SVGID_22_">
				<use xlink:href="#SVGID_21_"  style="overflow:visible;"/>
			</clipPath>
			<polygon class="st13" points="112.8,1175.8 104.8,1167.9 107.4,1165.1 112.8,1170.5 118.2,1165.1 120.9,1167.9 			"/>
		</g>
	</g>
	<g>
		<path d="M31.6,669.6h-4.9v-0.3c0.9,0,1.5-0.9,1.5-2.4v-10.6c0-1.4-0.6-2.4-1.5-2.4v-0.3h4.9c4.6,0,9,1.4,9,8.1
			C40.6,668.6,36.1,669.6,31.6,669.6z M31.6,654h-1v15.5h1c2.5,0,6.3-0.1,6.3-7.7C37.9,654.4,34.1,654,31.6,654z"/>
		<path d="M54.1,665v4.7H42.7v-0.3c0.9,0,1.2-0.9,1.2-2.4v-10.9c0-1.4-0.2-2.2-1.2-2.2v-0.3h11.2v4.1h-0.3c-0.3-3.8-4.2-3.8-6.1-3.8
			h-1.2v7.5h1.5c0.6,0,3,0,3.1-2.3h0.3v4.9h-0.3c-0.1-2.3-2.6-2.3-3.1-2.3h-1.5v7.7h1c2,0,6.1,0.1,6.5-4.5L54.1,665L54.1,665z"/>
		<path d="M61.9,669.9c-3.7,0-5.4-1.2-5.4-1.2v-4.4h0.3c0.3,2.7,1.2,5.3,5.1,5.3c3.4,0,3.9-3.9,1.2-5.7l-3.8-2.5
			c-2.2-1.4-4.3-3.5-2.5-6.2c0,0,1.1-1.8,4.3-1.8c3.3,0,5.2,1,5.2,1v3.8h-0.3c-0.2-2.3-1.1-4.6-4.9-4.6c-2.5,0-4.4,3.1-0.9,5.4
			l3.8,2.5c3,2,3.5,4.6,2.4,6.4C66.5,668,65.4,669.9,61.9,669.9z"/>
		<path d="M75.1,653.7v0.3c-0.9,0-1.6,0.4-1.6,1.8v11.5c0,1.5,0.7,2.2,1.6,2.2v0.3h-5.5v-0.3c0.9,0,1.6-0.6,1.6-2.2v-11.5
			c0-1.4-0.6-1.8-1.6-1.8v-0.3H75.1z"/>
		<path d="M91.9,663.3v0.3c-1.3,0-1.5,0.2-1.5,5.3c-1.4,0.6-3.3,0.9-5.8,0.9c-4.9,0-7.5-3.7-7.5-8.2c0-4.6,2.6-8.2,7.5-8.2
			c2.7,0,4.4,0.4,5.8,1.3l-0.2,3.7h-0.5c-0.4-3.8-2.4-4.6-5.1-4.6c-2.6,0-4.6,1.7-4.6,8s2,8,4.6,8c2.7,0,3.8-0.6,3.8-2.5
			c0-3.4-0.3-3.5-1.8-3.5v-0.3L91.9,663.3L91.9,663.3z"/>
		<path d="M110.4,653.7v0.3c-3.3,0-3.2,3.3-3.2,5.4v10.3h-0.8l-9.7-12.5v6.8c0,2,0,5.4,2.9,5.4v0.3h-6.5v-0.3c3.3,0,3.3-3.3,3.3-5.4
			v-7.1l-0.9-1.2c-1.4-1.8-2.1-1.7-2.7-1.7v-0.3h4.2l9.9,12.7v-7c0-2.1,0-5.4-2.9-5.4v-0.3L110.4,653.7L110.4,653.7z"/>
		<path d="M118.6,670.2H117l7-17h1.6L118.6,670.2z"/>
		<path d="M137.1,669.6h-4.6v-0.2c0.9,0,1.3-0.9,1.3-2.6v-10.6c0-1.4-0.3-2.5-1.3-2.5v-0.2h4.6c3.1,0,5.9,0.2,5.9,3.9
			c0,3.5-3.3,3.9-3.8,3.9c1.5,0,4.8,0.3,4.8,4.2C144,669.5,141.1,669.6,137.1,669.6z M136.2,654v7.5h1.3c1.4,0,2.9-0.5,2.9-3.9
			c0-3.3-1.9-3.6-3.3-3.6H136.2z M137.6,661.7h-1.3v7.7h1c2.2,0,4.3,0,4.3-3.9C141.5,661.9,139.3,661.7,137.6,661.7z"/>
	</g>
	<g>
		<path d="M147.7,664.2V656c0-1.5-0.6-2-1.6-2v-0.3h5.7v0.3c-0.9,0-1.8,0.2-1.8,2v8.4c0,2.8,1.7,4.5,4.2,4.5c2.3,0,4.1-1.6,4.1-4.6
			v-6.2c0-2.2,0-4.2-2.7-4.2v-0.3h5.9v0.3c-2.9,0-2.9,2-2.9,4.2v6.2c0,4.1-2.7,5.6-5.5,5.6C150,669.9,147.7,667.9,147.7,664.2z"/>
		<path d="M168.7,653.7v0.3c-0.9,0-1.6,0.4-1.6,1.8v11.5c0,1.5,0.7,2.2,1.6,2.2v0.3h-5.5v-0.3c0.9,0,1.6-0.6,1.6-2.2v-11.5
			c0-1.4-0.6-1.8-1.6-1.8v-0.3H168.7z"/>
		<path d="M182.3,664.7v4.9H171v-0.3c0.9,0,1.2-0.9,1.2-2.4v-11.1c0-1.4-0.5-1.9-1.4-1.9v-0.3h5.4v0.3c-0.9,0-1.7,0.4-1.7,2v13.4
			h0.9c2.5,0,6.3,0,6.7-4.6L182.3,664.7L182.3,664.7z"/>
		<path d="M189.5,669.6h-4.9v-0.3c0.9,0,1.5-0.9,1.5-2.4v-10.6c0-1.4-0.6-2.4-1.5-2.4v-0.3h4.9c4.6,0,9,1.4,9,8.1
			C198.6,668.6,194.1,669.6,189.5,669.6z M189.5,654h-1v15.5h1c2.5,0,6.3-0.1,6.3-7.7C195.9,654.4,192.1,654,189.5,654z"/>
	</g>
	<g>
		<path d="M90,689.4c0,2.7,0.9,2.8,2.3,2.8v0.3h-6v-0.3c1.1,0,1.5-0.6,1.5-2.7v-10.5c0-1.6-0.3-2.2-1.4-2.2v-0.3h4.1
			c4.6,0,7.5,0.6,7.5,4.6c0,4-3,4.6-7.5,4.6h-0.4L90,689.4L90,689.4z M90.5,685.3c2.7,0,5-0.1,5-4.3c0-4.4-2.4-4.3-5-4.3h-0.4v8.5
			H90.5z"/>
		<path d="M112.4,692.4h-5.2v-0.3c1.2,0,1-1.3,0.5-2.6l-0.8-2H101c-0.6,1.8-1.6,4.6,1.5,4.6v0.3h-5.1v-0.3c0.9,0,1.4-0.1,3.4-5.4
			l3.8-10.3h0.3c2.7,6.7,5.6,13.8,5.6,13.8c0.8,1.8,1.2,1.8,1.9,1.8V692.4z M106.8,687.3l-2.9-7.6l-2.7,7.6H106.8z"/>
	</g>
	<g>
		<path d="M125.9,676.5v4h-0.3c-0.1-3.7-3.9-3.7-4.2-3.7h-1.3v13.6c0,1.5,0.7,1.9,1.7,1.9v0.3h-5.6v-0.3c0.9,0,1.6-0.4,1.6-1.9
			v-13.6h-1.3c-0.7,0-4.1,0-4.2,3.7h-0.3v-4H125.9z"/>
		<path d="M138.8,689.4c0,1.9-0.1,2.5,1.1,2.8v0.3h-4v-0.3c0.6-0.2,0.7-0.8,0.7-2.8V685h-6.3v4.4c0,2.3,0,2.6,0.7,2.8v0.3H127v-0.3
			c1.2-0.3,1.1-0.6,1.1-2.8v-9.8c0-2.1,0-2.7-1.1-2.8v-0.3h4.1v0.3c-0.7,0.2-0.7,0.7-0.7,2.8v5h6.3v-5c0-2.2,0-2.7-0.7-2.8v-0.3h4
			v0.3c-1,0.2-1.1,0.7-1.1,2.8V689.4z"/>
	</g>
	<polygon class="st0" points="0,67.6 225.7,67.6 225.7,593.8 0,593.8 	"/>
	<g>
		<g>
			<defs>
				<rect id="SVGID_23_" y="67.6" width="225.7" height="526.2"/>
			</defs>
			<clipPath id="SVGID_24_">
				<use xlink:href="#SVGID_23_"  style="overflow:visible;"/>
			</clipPath>
			<path class="st14" d="M229.5,597.6H-3.8V63.8h233.2V597.6z M3.8,590h218.1V71.3H3.8V590z"/>
		</g>
	</g>
	<path d="M89.4,490.1h1.3c0.9,0,1.5-0.2,1.9-0.6c0.5-0.4,0.7-0.9,0.7-1.7V485c0-0.7-0.2-1.2-0.7-1.7c-0.5-0.4-1-0.6-1.9-0.6h-2.5
		v10.5h1.1V490.1L89.4,490.1z M90.7,489.1h-1.3v-5.3h1.3c0.5,0,0.9,0.1,1,0.4c0.3,0.2,0.4,0.6,0.4,0.9v2.7
		C92.2,488.7,91.7,489.1,90.7,489.1L90.7,489.1L90.7,489.1z M100.6,492.3H97v-3.9h2.8v-0.9H97v-3.7h3.5v-0.9H96v10.5h4.7
		L100.6,492.3L100.6,492.3z M104.1,489.6h1.3l1.9,3.7h1.2l-2-3.9c0.9-0.3,1.4-1,1.4-2.1V485c0-0.7-0.2-1.2-0.7-1.7
		c-0.5-0.4-1-0.6-1.9-0.6H103v10.5h1.1L104.1,489.6L104.1,489.6z M105.4,488.6h-1.3v-4.8h1.3c0.5,0,0.9,0.1,1,0.4
		c0.3,0.2,0.4,0.6,0.4,0.9v2.3C106.9,488.3,106.4,488.6,105.4,488.6L105.4,488.6L105.4,488.6z M112,484.6l1.9,7h1l1.9-7v8.6h1.1
		v-10.5h-1.7l-1.9,6.9l-1.8-6.9h-1.7v10.5h1.1L112,484.6L112,484.6z M122.6,492.3v-8.5h0.8v-0.9h-2.7v0.9h0.8v8.5h-0.8v0.9h2.7v-0.9
		H122.6L122.6,492.3z M125,482.8v0.9h2.1v9.5h1.1v-9.5h2.1v-0.9H125L125,482.8z M137.4,490.1c-0.1-0.3-0.4-0.7-0.7-0.9l-2.8-2.7
		c-0.3-0.2-0.4-0.5-0.5-0.7s-0.1-0.5-0.1-0.9c0-0.4,0.1-0.7,0.4-0.9c0.3-0.2,0.7-0.3,1.1-0.3s0.9,0.1,1.1,0.3
		c0.3,0.2,0.4,0.5,0.4,0.9v1.4h1.1v-1.3c0-1.5-0.9-2.3-2.6-2.3c-0.9,0-1.6,0.2-2,0.6c-0.5,0.4-0.7,0.9-0.7,1.7
		c0,0.5,0.1,0.9,0.2,1.2c0.1,0.3,0.4,0.7,0.7,0.9l2.8,2.7c0.3,0.3,0.4,0.5,0.5,0.7c0.1,0.2,0.1,0.5,0.1,0.9c0,0.4-0.1,0.7-0.4,0.9
		c-0.3,0.2-0.7,0.3-1.2,0.3c-0.6,0-0.9-0.1-1.2-0.3c-0.3-0.2-0.4-0.5-0.4-0.9v-1.4h-1.1v1.3c0,1.5,0.9,2.3,2.7,2.3s2.7-0.8,2.7-2.3
		C137.6,490.8,137.5,490.4,137.4,490.1L137.4,490.1z"/>
	<path d="M57.6,393.4c-0.1-0.3-0.4-0.7-0.7-0.9l-2.8-2.7c-0.3-0.2-0.4-0.5-0.5-0.7c-0.1-0.2-0.1-0.5-0.1-0.9c0-0.4,0.1-0.7,0.4-0.9
		s0.7-0.3,1.1-0.3s0.9,0.1,1.1,0.3c0.3,0.2,0.4,0.5,0.4,0.9v1.4h1.1v-1.3c0-1.5-0.9-2.3-2.6-2.3c-0.9,0-1.6,0.2-2,0.6
		c-0.5,0.4-0.7,0.9-0.7,1.7c0,0.5,0.1,0.9,0.2,1.2c0.1,0.3,0.4,0.7,0.7,0.9l2.8,2.7c0.3,0.3,0.4,0.5,0.5,0.7
		c0.1,0.2,0.1,0.5,0.1,0.9c0,0.4-0.1,0.7-0.4,0.9s-0.7,0.3-1.2,0.3c-0.6,0-0.9-0.1-1.2-0.3c-0.3-0.2-0.4-0.5-0.4-0.9v-1.4h-1.1v1.3
		c0,1.5,0.9,2.3,2.7,2.3c1.8,0,2.7-0.8,2.7-2.3C57.8,394.1,57.8,393.7,57.6,393.4L57.6,393.4z M65.5,395.6h-3.6v-3.9h2.8v-0.9h-2.8
		v-3.7h3.5v-0.9h-4.6v10.4h4.7L65.5,395.6L65.5,395.6z M72,396.6v-0.9H69v-9.5h-1.1v10.4H72L72,396.6z M78.7,395.6h-3.6v-3.9h2.8
		v-0.9h-2.8v-3.7h3.5v-0.9h-4.6v10.4h4.7L78.7,395.6L78.7,395.6z M83.5,395.9c-1,0-1.5-0.5-1.5-1.3v-6.4c0-0.9,0.5-1.3,1.5-1.3
		c1,0,1.5,0.5,1.5,1.3v1.5h1.1v-1.5c0-0.8-0.2-1.2-0.7-1.7c-0.5-0.4-1.1-0.6-2-0.6s-1.5,0.2-2,0.6c-0.5,0.4-0.7,0.9-0.7,1.7v6.4
		c0,0.8,0.2,1.2,0.7,1.7c0.5,0.4,1.1,0.6,2,0.6s1.5-0.2,2-0.6c0.5-0.4,0.7-0.9,0.7-1.7v-0.9H85v0.9C85,395.4,84.6,395.9,83.5,395.9
		L83.5,395.9z M87.9,386.1v0.9H90v9.5h1.1v-9.5h2.1v-0.9H87.9L87.9,386.1z M101.5,395.9c-1,0-1.5-0.5-1.5-1.3v-6.4
		c0-0.9,0.5-1.3,1.5-1.3s1.5,0.5,1.5,1.3v1.5h1.1v-1.5c0-0.8-0.2-1.2-0.7-1.7c-0.5-0.4-1.1-0.6-2-0.6s-1.5,0.2-2,0.6
		c-0.5,0.4-0.7,0.9-0.7,1.7v6.4c0,0.8,0.2,1.2,0.7,1.7c0.5,0.4,1.1,0.6,2,0.6s1.5-0.2,2-0.6c0.5-0.4,0.7-0.9,0.7-1.7v-0.9H103v0.9
		C103,395.4,102.4,395.9,101.5,395.9L101.5,395.9z M111.4,386.5c-0.5-0.4-1.1-0.6-2.1-0.6c-0.9,0-1.6,0.2-2.1,0.6
		c-0.5,0.4-0.7,0.9-0.7,1.7v6.4c0,0.8,0.2,1.2,0.7,1.7c0.5,0.4,1.1,0.6,2.1,0.6c0.9,0,1.6-0.2,2.1-0.6c0.5-0.4,0.7-0.9,0.7-1.7v-6.4
		C112.2,387.5,111.9,386.9,111.4,386.5L111.4,386.5z M109.4,395.9c-1,0-1.6-0.5-1.6-1.3v-6.4c0-0.9,0.6-1.3,1.6-1.3
		c1,0,1.6,0.5,1.6,1.3v6.4C111,395.4,110.5,395.9,109.4,395.9L109.4,395.9z M116.2,388.5l3.5,8.1h1.1v-10.4h-1.1v8.1l-3.5-8.1h-1.1
		v10.4h1.1V388.5L116.2,388.5z M123,386.1v0.9h2.1v9.5h1.1v-9.5h2.1v-0.9H123L123,386.1z M131.5,392.9h1.3l1.9,3.7h1.2l-2-3.9
		c0.9-0.3,1.4-1,1.4-2.1v-2.3c0-0.7-0.2-1.2-0.7-1.7c-0.5-0.4-1-0.6-1.9-0.6h-2.5v10.4h1.1L131.5,392.9L131.5,392.9z M132.8,391.9
		h-1.3v-4.8h1.3c0.5,0,0.9,0.1,1,0.4c0.3,0.2,0.4,0.6,0.4,0.9v2.3C134.3,391.5,133.8,391.9,132.8,391.9L132.8,391.9L132.8,391.9z
		 M137.2,396.6h1.1l0.6-2.4h3l0.6,2.4h1.1l-2.4-10.4h-1.7L137.2,396.6L137.2,396.6z M141.7,393.2h-2.7l1.3-5.9L141.7,393.2
		L141.7,393.2z M148.4,395.9c-1,0-1.5-0.5-1.5-1.3v-6.4c0-0.9,0.5-1.3,1.5-1.3c1,0,1.5,0.5,1.5,1.3v1.5h1.1v-1.5
		c0-0.8-0.2-1.2-0.7-1.7c-0.5-0.4-1.1-0.6-2-0.6s-1.5,0.2-2,0.6c-0.5,0.4-0.7,0.9-0.7,1.7v6.4c0,0.8,0.2,1.2,0.7,1.7
		c0.5,0.4,1.1,0.6,2,0.6s1.5-0.2,2-0.6c0.5-0.4,0.7-0.9,0.7-1.7v-0.9h-1.1v0.9C149.9,395.4,149.3,395.9,148.4,395.9L148.4,395.9z
		 M152.7,386.1v0.9h2.1v9.5h1.1v-9.5h2.1v-0.9H152.7L152.7,386.1z M164.7,386.5c-0.5-0.4-1.1-0.6-2.1-0.6s-1.6,0.2-2.1,0.6
		c-0.5,0.4-0.7,0.9-0.7,1.7v6.4c0,0.8,0.2,1.2,0.7,1.7c0.5,0.4,1.1,0.6,2.1,0.6s1.6-0.2,2.1-0.6c0.5-0.4,0.7-0.9,0.7-1.7v-6.4
		C165.4,387.5,165.1,386.9,164.7,386.5L164.7,386.5z M162.6,395.9c-1,0-1.6-0.5-1.6-1.3v-6.4c0-0.9,0.6-1.3,1.6-1.3s1.6,0.5,1.6,1.3
		v6.4C164.2,395.4,163.7,395.9,162.6,395.9L162.6,395.9z M169.4,392.9h1.3l1.9,3.7h1.2l-2-3.9c0.9-0.3,1.4-1,1.4-2.1v-2.3
		c0-0.7-0.2-1.2-0.7-1.7c-0.5-0.4-1-0.6-1.9-0.6h-2.5v10.4h1.1L169.4,392.9L169.4,392.9z M170.8,391.9h-1.3v-4.8h1.3
		c0.5,0,0.9,0.1,1,0.4c0.3,0.2,0.4,0.6,0.4,0.9v2.3C172.2,391.5,171.7,391.9,170.8,391.9L170.8,391.9L170.8,391.9z"/>
	<path d="M63,179.2c-0.1-0.3-0.4-0.7-0.7-0.9l-2.8-2.7c-0.3-0.2-0.4-0.5-0.5-0.7c-0.1-0.2-0.1-0.5-0.1-0.9c0-0.4,0.1-0.7,0.4-0.9
		c0.3-0.2,0.7-0.3,1.1-0.3c0.5,0,0.9,0.1,1.1,0.3c0.3,0.2,0.4,0.5,0.4,0.9v1.4h1.1v-1.3c0-1.5-0.9-2.3-2.6-2.3c-0.9,0-1.6,0.2-2,0.6
		c-0.5,0.4-0.7,0.9-0.7,1.7c0,0.5,0.1,0.9,0.2,1.2c0.1,0.3,0.4,0.7,0.7,0.9l2.8,2.7c0.3,0.3,0.4,0.5,0.5,0.7
		c0.1,0.2,0.1,0.5,0.1,0.9c0,0.4-0.1,0.7-0.4,0.9c-0.3,0.2-0.7,0.3-1.2,0.3c-0.6,0-0.9-0.1-1.2-0.3c-0.3-0.2-0.4-0.5-0.4-0.9v-1.4
		h-1.1v1.3c0,1.5,0.9,2.3,2.7,2.3c1.8,0,2.7-0.8,2.7-2.3C63.1,179.8,63.1,179.4,63,179.2L63,179.2z M70.7,181.3h-3.6v-3.9H70v-0.9
		h-2.8v-3.7h3.5v-0.9h-4.6v10.5h4.7L70.7,181.3L70.7,181.3z M77.3,182.3v-0.9h-2.9v-9.5h-1.1v10.5L77.3,182.3L77.3,182.3z
		 M83.9,181.3h-3.6v-3.9h2.8v-0.9h-2.8v-3.7h3.5v-0.9h-4.6v10.5H84L83.9,181.3L83.9,181.3z M88.7,181.6c-1,0-1.5-0.5-1.5-1.3v-6.4
		c0-0.9,0.5-1.3,1.5-1.3s1.5,0.5,1.5,1.3v1.5h1.1v-1.5c0-0.8-0.2-1.2-0.7-1.7c-0.5-0.4-1.1-0.6-2-0.6s-1.5,0.2-2,0.6
		c-0.5,0.4-0.7,0.9-0.7,1.7v6.4c0,0.8,0.2,1.2,0.7,1.7s1.1,0.6,2,0.6s1.5-0.2,2-0.6c0.5-0.4,0.7-0.9,0.7-1.7v-0.9h-1.1v0.9
		C90.4,181.1,89.8,181.6,88.7,181.6L88.7,181.6z M93.1,171.9v0.9h2.1v9.5h1.1v-9.5h2.1v-0.9H93.1L93.1,171.9z M103.3,182.3h1.1
		l0.6-2.5h3l0.6,2.5h1.1l-2.4-10.5h-1.7L103.3,182.3L103.3,182.3z M107.8,179h-2.7l1.3-5.9L107.8,179L107.8,179z M113.1,178.6h1.3
		l1.9,3.7h1.2l-2-3.9c0.9-0.3,1.4-1,1.4-2.1V174c0-0.7-0.2-1.2-0.7-1.7c-0.5-0.4-1-0.6-1.9-0.6H112v10.5h1.1L113.1,178.6
		L113.1,178.6z M114.4,177.6h-1.3v-4.8h1.3c0.5,0,0.9,0.1,1,0.4c0.3,0.2,0.4,0.6,0.4,0.9v2.3C115.9,177.3,115.4,177.6,114.4,177.6
		L114.4,177.6L114.4,177.6z M122.2,181.6c-1,0-1.5-0.5-1.5-1.3v-6.4c0-0.9,0.5-1.3,1.5-1.3s1.5,0.5,1.5,1.3v1.5h1.1v-1.5
		c0-0.8-0.2-1.2-0.7-1.7c-0.5-0.4-1.1-0.6-2-0.6s-1.5,0.2-2,0.6c-0.5,0.4-0.7,0.9-0.7,1.7v6.4c0,0.8,0.2,1.2,0.7,1.7s1.1,0.6,2,0.6
		s1.5-0.2,2-0.6c0.5-0.4,0.7-0.9,0.7-1.7v-0.9h-1.1v0.9C123.7,181.1,123.3,181.6,122.2,181.6L122.2,181.6z M128.9,177.4h3.1v4.8h1.1
		v-10.5H132v4.6h-3.1v-4.6h-1.1v10.5h1.1V177.4L128.9,177.4z M137.8,181.3v-8.5h0.9v-0.9h-2.7v0.9h0.9v8.5h-0.9v0.9h2.7v-0.9H137.8
		L137.8,181.3z M140.2,171.9v0.9h2.1v9.5h1.1v-9.5h2.1v-0.9H140.2L140.2,171.9z M152.4,181.3h-3.6v-3.9h2.8v-0.9h-2.8v-3.7h3.5v-0.9
		h-4.6v10.5h4.7L152.4,181.3L152.4,181.3z M157.2,181.6c-1,0-1.5-0.5-1.5-1.3v-6.4c0-0.9,0.5-1.3,1.5-1.3s1.5,0.5,1.5,1.3v1.5h1.1
		v-1.5c0-0.8-0.2-1.2-0.7-1.7c-0.5-0.4-1.1-0.6-2-0.6s-1.5,0.2-2,0.6c-0.5,0.4-0.7,0.9-0.7,1.7v6.4c0,0.8,0.2,1.2,0.7,1.7
		c0.5,0.4,1.1,0.6,2,0.6s1.5-0.2,2-0.6c0.5-0.4,0.7-0.9,0.7-1.7v-0.9h-1.1v0.9C158.7,181.1,158.2,181.6,157.2,181.6L157.2,181.6z
		 M161.6,171.9v0.9h2.1v9.5h1.1v-9.5h2.1v-0.9H161.6L161.6,171.9z"/>
	<path d="M43.9,253.2c-1,0-1.5-0.5-1.5-1.3v-6.4c0-0.9,0.5-1.3,1.5-1.3c1,0,1.5,0.5,1.5,1.3v1.5h1.1v-1.5c0-0.8-0.2-1.2-0.7-1.7
		c-0.5-0.4-1.1-0.6-2-0.6s-1.5,0.2-2,0.6c-0.5,0.4-0.7,0.9-0.7,1.7v6.4c0,0.8,0.2,1.2,0.7,1.7c0.5,0.5,1.1,0.6,2,0.6s1.5-0.2,2-0.6
		c0.5-0.4,0.7-0.9,0.7-1.7V251h-1.1v0.9C45.4,252.7,44.8,253.2,43.9,253.2L43.9,253.2z M53.9,243.8c-0.5-0.4-1.1-0.6-2.1-0.6
		c-0.9,0-1.6,0.2-2.1,0.6c-0.5,0.4-0.7,0.9-0.7,1.7v6.4c0,0.8,0.2,1.2,0.7,1.7c0.5,0.5,1.1,0.6,2.1,0.6c0.9,0,1.6-0.2,2.1-0.6
		c0.5-0.4,0.7-0.9,0.7-1.7v-6.5C54.6,244.8,54.3,244.2,53.9,243.8L53.9,243.8z M51.9,253.2c-1,0-1.6-0.5-1.6-1.3v-6.4
		c0-0.9,0.6-1.3,1.6-1.3s1.6,0.5,1.6,1.3v6.4C53.5,252.7,52.9,253.2,51.9,253.2L51.9,253.2z M58.7,245.8l3.5,8.1h1.1v-10.5h-1.1v8.1
		l-3.5-8.1h-1.1v10.5h1.1V245.8L58.7,245.8z M68.9,253.2c-1,0-1.5-0.5-1.5-1.3v-6.4c0-0.9,0.5-1.3,1.5-1.3c1,0,1.5,0.5,1.5,1.3v1.5
		h1.1v-1.5c0-0.8-0.2-1.2-0.7-1.7c-0.5-0.4-1.1-0.6-2-0.6s-1.5,0.2-2,0.6c-0.5,0.4-0.7,0.9-0.7,1.7v6.4c0,0.8,0.2,1.2,0.7,1.7
		c0.5,0.4,1.1,0.6,2,0.6s1.5-0.2,2-0.6c0.5-0.4,0.7-0.9,0.7-1.7V251h-1.1v0.9C70.4,252.7,70,253.2,68.9,253.2L68.9,253.2z
		 M79.2,252.9h-3.6V249h2.8v-0.9h-2.8v-3.7h3.5v-0.9h-4.6V254h4.7L79.2,252.9L79.2,252.9z M82.6,250.6h1.3c0.9,0,1.5-0.2,1.9-0.6
		c0.5-0.4,0.7-0.9,0.7-1.7v-2.7c0-0.7-0.2-1.2-0.7-1.7c-0.5-0.4-1-0.6-1.9-0.6h-2.5v10.5h1.1V250.6L82.6,250.6z M83.9,249.7h-1.3
		v-5.3h1.3c0.5,0,0.9,0.1,1,0.4c0.3,0.2,0.4,0.6,0.4,0.9v2.7C85.3,249.3,84.9,249.7,83.9,249.7L83.9,249.7L83.9,249.7z M87.9,243.4
		v0.9H90v9.5h1.1v-9.5h2.1v-0.9H87.9L87.9,243.4z M97.8,253.2c-1,0-1.6-0.5-1.6-1.3v-8.4h-1.1v8.4c0,0.8,0.2,1.2,0.7,1.7
		s1.1,0.6,2.1,0.6c0.9,0,1.6-0.2,2.1-0.6c0.5-0.4,0.7-0.9,0.7-1.7v-8.4h-1.1v8.4C99.5,252.7,99,253.2,97.8,253.2L97.8,253.2z
		 M102.7,253.9h1.1l0.6-2.5h3l0.6,2.5h1.1l-2.4-10.5h-1.7L102.7,253.9L102.7,253.9z M107.2,250.5h-2.7l1.3-5.9L107.2,250.5
		L107.2,250.5z M115.5,253.9v-0.9h-2.9v-9.5h-1.1V254L115.5,253.9L115.5,253.9z M125.6,253.3c0.5-0.4,0.7-0.9,0.7-1.7v-6
		c0-0.7-0.2-1.2-0.7-1.7c-0.5-0.4-1-0.6-1.9-0.6h-2.6v10.5h2.6C124.6,253.9,125.3,253.7,125.6,253.3L125.6,253.3z M124.8,252.5
		c-0.3,0.3-0.6,0.4-1,0.4h-1.4v-8.5h1.4c0.5,0,0.8,0.1,1,0.4c0.3,0.3,0.4,0.6,0.4,0.9v6C125.2,252,125.1,252.4,124.8,252.5
		L124.8,252.5z M130.4,250.2h1.3l1.9,3.7h1.2l-2-3.9c0.9-0.3,1.4-1,1.4-2.1v-2.3c0-0.7-0.2-1.2-0.7-1.7c-0.5-0.4-1-0.6-1.9-0.6h-2.5
		v10.5h1.1L130.4,250.2L130.4,250.2z M131.7,249.2h-1.3v-4.8h1.3c0.5,0,0.9,0.1,1,0.4c0.3,0.2,0.4,0.6,0.4,0.9v2.3
		C133.1,248.8,132.6,249.2,131.7,249.2L131.7,249.2L131.7,249.2z M136.2,253.9h1.1l0.6-2.5h3l0.6,2.5h1.1l-2.4-10.5h-1.7
		L136.2,253.9L136.2,253.9z M140.6,250.5H138l1.3-5.9L140.6,250.5L140.6,250.5z"/>
	<path d="M148.4,245.5l1.6,8.3h1.6l1.5-10.5H152l-1.3,8.8l-1.7-8.8h-1.2l-1.7,8.8l-1.3-8.8h-1.1l1.5,10.5h1.6L148.4,245.5
		L148.4,245.5z M156.9,252.9v-8.5h0.9v-0.9H155v0.9h0.9v8.5H155v0.9h2.7v-0.9H156.9L156.9,252.9z M161.7,245.8l3.5,8.1h1.1v-10.5
		h-1.1v8.1l-3.5-8.1h-1.1v10.5h1.1V245.8L161.7,245.8z M173.4,249.6v2c0,0.4-0.2,0.7-0.6,1c-0.4,0.4-0.9,0.6-1.2,0.6
		c-0.5,0-0.8-0.1-0.9-0.4c-0.2-0.2-0.3-0.6-0.3-0.9v-6.4c0-0.9,0.5-1.3,1.5-1.3s1.5,0.5,1.5,1.3v0.9h1.1v-0.9c0-0.8-0.2-1.2-0.7-1.7
		c-0.5-0.4-1.1-0.6-2-0.6s-1.5,0.2-2,0.6c-0.5,0.4-0.7,0.9-0.7,1.7v6.4c0,1.5,0.8,2.3,2.4,2.3c0.5,0,0.9-0.1,1.2-0.4
		c0.4-0.2,0.7-0.6,0.9-0.9l0.4,1h0.5v-5.3h-2.9v0.9L173.4,249.6L173.4,249.6z M182.5,250.7c-0.1-0.3-0.4-0.7-0.7-0.9L179,247
		c-0.3-0.2-0.4-0.5-0.5-0.7c-0.1-0.2-0.1-0.5-0.1-0.9c0-0.4,0.1-0.7,0.4-0.9c0.3-0.2,0.7-0.3,1.1-0.3s0.9,0.1,1.1,0.3
		c0.3,0.2,0.4,0.5,0.4,0.9v1.4h1.1v-1.6c0-1.5-0.9-2.3-2.6-2.3c-0.9,0-1.6,0.2-2,0.6c-0.5,0.4-0.7,0.9-0.7,1.7
		c0,0.5,0.1,0.9,0.2,1.2c0.1,0.3,0.4,0.7,0.7,0.9l2.8,2.7c0.3,0.3,0.4,0.5,0.5,0.7c0.1,0.2,0.1,0.5,0.1,0.9c0,0.4-0.1,0.7-0.4,0.9
		c-0.3,0.2-0.7,0.3-1.2,0.3c-0.6,0-0.9-0.1-1.2-0.3s-0.4-0.5-0.4-0.9v-1.4h-1.1v1.3c0,1.5,0.9,2.3,2.7,2.3s2.7-0.8,2.7-2.3
		C182.6,251.4,182.6,251,182.5,250.7L182.5,250.7z"/>
	<path d="M63.3,320.6H66v-0.9h-2.7V316h3.3V315h-4.5v10.5h1.1V320.6L63.3,320.6z M70.4,324.5V316h0.9V315h-2.7v0.9h0.9v8.5h-0.9v0.9
		h2.7v-0.9H70.4L70.4,324.5z M75,317.4l3.5,8.1h1.1v-10.5h-1.1v8.1l-3.5-8.1h-1.1v10.5H75V317.4L75,317.4z M81.9,325.5h1.1l0.6-2.5
		h3l0.6,2.5h1.1L86,314.9h-1.7L81.9,325.5L81.9,325.5z M86.5,322.1h-2.7l1.3-5.9L86.5,322.1L86.5,322.1z M94.7,325.5v-0.9h-2.9V315
		h-1.1v10.5L94.7,325.5L94.7,325.5z M104.9,324.9c0.5-0.4,0.7-0.9,0.7-1.7v-6c0-0.7-0.2-1.2-0.7-1.7c-0.5-0.4-1-0.6-1.9-0.6h-2.6
		v10.5h2.6C103.8,325.5,104.4,325.3,104.9,324.9L104.9,324.9z M104,324.1c-0.3,0.3-0.6,0.4-1,0.4h-1.4V316h1.4c0.5,0,0.8,0.1,1,0.4
		c0.3,0.3,0.4,0.6,0.4,0.9v6C104.4,323.6,104.2,323.9,104,324.1L104,324.1z M109.6,321.8h1.3l1.9,3.7h1.2l-2-3.9
		c0.9-0.3,1.4-1,1.4-2.1v-2.3c0-0.7-0.2-1.2-0.7-1.7c-0.5-0.4-1-0.6-1.9-0.6h-2.5v10.5h1.1L109.6,321.8L109.6,321.8z M110.9,320.8
		h-1.3V316h1.3c0.5,0,0.9,0.1,1,0.4c0.3,0.2,0.4,0.6,0.4,0.9v2.3C112.4,320.4,111.9,320.8,110.9,320.8L110.9,320.8L110.9,320.8z
		 M115.3,325.5h1.1l0.6-2.5h3l0.6,2.5h1.1l-2.4-10.5h-1.7L115.3,325.5L115.3,325.5z M119.8,322.1h-2.7l1.3-5.9L119.8,322.1
		L119.8,322.1z"/>
	<path d="M127.5,317.1l1.6,8.3h1.6l1.5-10.5h-1.1l-1.3,8.8l-1.7-8.8h-1.2l-1.7,8.8l-1.3-8.8h-1.1l1.5,10.5h1.6L127.5,317.1
		L127.5,317.1z M136.2,324.5V316h0.8V315h-2.7v0.9h0.8v8.5h-0.8v0.9h2.7v-0.9H136.2L136.2,324.5z M140.8,317.4l3.5,8.1h1.1v-10.5
		h-1.1v8.1l-3.5-8.1h-1.1v10.5h1.1V317.4L140.8,317.4z M152.7,321.2v2c0,0.4-0.2,0.7-0.6,1c-0.4,0.4-0.9,0.6-1.2,0.6
		c-0.5,0-0.8-0.1-0.9-0.4c-0.2-0.2-0.3-0.6-0.3-0.9V317c0-0.9,0.5-1.3,1.5-1.3c1,0,1.5,0.5,1.5,1.3v0.9h1.1V317
		c0-0.8-0.2-1.2-0.7-1.7c-0.5-0.4-1.1-0.6-2-0.6s-1.5,0.2-2,0.6c-0.5,0.4-0.7,0.9-0.7,1.7v6.4c0,1.5,0.8,2.3,2.4,2.3
		c0.5,0,0.9-0.1,1.2-0.4c0.4-0.2,0.7-0.6,0.9-0.9l0.4,1h0.5v-5.3h-2.9v0.9L152.7,321.2L152.7,321.2z M161.7,322.3
		c-0.1-0.3-0.4-0.7-0.7-0.9l-2.8-2.7c-0.3-0.2-0.4-0.5-0.5-0.7s-0.1-0.5-0.1-0.9s0.1-0.7,0.4-0.9s0.7-0.3,1.1-0.3s0.9,0.1,1.1,0.3
		c0.3,0.2,0.4,0.5,0.4,0.9v1.4h1.1v-1.3c0-1.5-0.9-2.3-2.6-2.3c-0.9,0-1.6,0.2-2,0.6c-0.5,0.4-0.7,0.9-0.7,1.7
		c0,0.5,0.1,0.9,0.2,1.2c0.1,0.3,0.4,0.7,0.7,0.9l2.8,2.7c0.3,0.3,0.4,0.5,0.5,0.7s0.1,0.5,0.1,0.9c0,0.4-0.1,0.7-0.4,0.9
		s-0.7,0.3-1.2,0.3c-0.6,0-0.9-0.1-1.2-0.3s-0.4-0.5-0.4-0.9v-1.4h-1.1v1.3c0,1.5,0.9,2.3,2.7,2.3s2.7-0.8,2.7-2.3
		C161.8,323,161.8,322.6,161.7,322.3L161.7,322.3z"/>
	<path d="M69.9,563.7c-1,0-1.5-0.5-1.5-1.3v-6.4c0-0.9,0.5-1.3,1.5-1.3c1,0,1.5,0.5,1.5,1.3v1.5h1.1v-1.5c0-0.8-0.2-1.2-0.7-1.7
		c-0.5-0.4-1.1-0.6-2-0.6s-1.5,0.2-2,0.6s-0.7,0.9-0.7,1.7v6.4c0,0.8,0.2,1.2,0.7,1.7s1.1,0.6,2,0.6s1.5-0.2,2-0.6
		c0.5-0.4,0.7-0.9,0.7-1.7v-0.9h-1.1v0.9C71.5,563.2,70.9,563.7,69.9,563.7L69.9,563.7z M79.9,554.3c-0.5-0.4-1.1-0.6-2.1-0.6
		s-1.6,0.2-2.1,0.6c-0.5,0.4-0.7,0.9-0.7,1.7v6.4c0,0.8,0.2,1.2,0.7,1.7c0.5,0.4,1.1,0.6,2.1,0.6s1.6-0.2,2.1-0.6s0.7-0.9,0.7-1.7
		V556C80.6,555.3,80.4,554.7,79.9,554.3L79.9,554.3z M77.9,563.7c-1,0-1.6-0.5-1.6-1.3v-6.4c0-0.9,0.6-1.3,1.6-1.3
		c1,0,1.6,0.5,1.6,1.3v6.4C79.5,563.2,79,563.7,77.9,563.7L77.9,563.7z M84.8,556.3l3.5,8.1h1.1v-10.5h-1.1v8.1l-3.5-8.1h-1.1v10.5
		h1.1V556.3L84.8,556.3z M97.6,561.3c-0.1-0.3-0.4-0.7-0.7-0.9l-2.8-2.7c-0.3-0.2-0.4-0.5-0.5-0.7c-0.1-0.2-0.1-0.5-0.1-0.9
		s0.1-0.7,0.4-0.9c0.3-0.2,0.7-0.3,1.1-0.3s0.9,0.1,1.1,0.3c0.3,0.2,0.4,0.5,0.4,0.9v1.4h1.1v-1.3c0-1.5-0.9-2.3-2.6-2.3
		c-0.9,0-1.6,0.2-2,0.6c-0.5,0.4-0.7,0.9-0.7,1.7c0,0.5,0.1,0.9,0.2,1.2c0.1,0.3,0.4,0.7,0.7,0.9l2.8,2.7c0.3,0.3,0.4,0.5,0.5,0.7
		s0.1,0.5,0.1,0.9s-0.1,0.7-0.4,0.9c-0.3,0.2-0.7,0.3-1.2,0.3s-0.9-0.1-1.2-0.3c-0.3-0.2-0.4-0.5-0.4-0.9v-1.4h-1.1v1.3
		c0,1.5,0.9,2.3,2.7,2.3c1.8,0,2.7-0.8,2.7-2.3C97.8,561.9,97.7,561.5,97.6,561.3L97.6,561.3z M99.5,554v0.9h2.1v9.5h1.1v-9.5h2.1
		V554H99.5L99.5,554z M108,560.7h1.3l1.9,3.7h1.2l-2-3.9c0.9-0.3,1.4-1,1.4-2.1v-2.3c0-0.7-0.2-1.2-0.7-1.7c-0.5-0.4-1-0.6-1.9-0.6
		h-2.5v10.5h1.1L108,560.7L108,560.7z M109.3,559.7H108v-4.8h1.3c0.5,0,0.9,0.1,1,0.4c0.3,0.2,0.4,0.6,0.4,0.9v2.3
		C110.7,559.4,110.3,559.7,109.3,559.7L109.3,559.7L109.3,559.7z M117.3,563.7c-1,0-1.6-0.5-1.6-1.3V554h-1.1v8.4
		c0,0.8,0.2,1.2,0.7,1.7s1.1,0.6,2.1,0.6s1.6-0.2,2.1-0.6c0.5-0.4,0.7-0.9,0.7-1.7V554h-1.1v8.4
		C118.9,563.2,118.4,563.7,117.3,563.7L117.3,563.7z M125.5,563.7c-1,0-1.5-0.5-1.5-1.3v-6.4c0-0.9,0.5-1.3,1.5-1.3
		c1,0,1.5,0.5,1.5,1.3v1.5h1.1v-1.5c0-0.8-0.2-1.2-0.7-1.7c-0.5-0.4-1.1-0.6-2-0.6s-1.5,0.2-2,0.6s-0.7,0.9-0.7,1.7v6.4
		c0,0.8,0.2,1.2,0.7,1.7s1.1,0.6,2,0.6s1.5-0.2,2-0.6s0.7-0.9,0.7-1.7v-0.9h-1.1v0.9C127.1,563.2,126.6,563.7,125.5,563.7
		L125.5,563.7z M129.9,554v0.9h2.1v9.5h1.1v-9.5h2.1V554H129.9L129.9,554z M138.7,563.4v-8.5h0.9V554h-2.7v0.9h0.9v8.5h-0.9v0.9h2.7
		v-0.9H138.7L138.7,563.4z M146.9,554.3c-0.5-0.4-1.1-0.6-2.1-0.6c-0.9,0-1.6,0.2-2.1,0.6s-0.7,0.9-0.7,1.7v6.4
		c0,0.8,0.2,1.2,0.7,1.7c0.5,0.4,1.1,0.6,2.1,0.6c0.9,0,1.6-0.2,2.1-0.6s0.7-0.9,0.7-1.7V556C147.5,555.3,147.3,554.7,146.9,554.3
		L146.9,554.3z M144.8,563.7c-1,0-1.6-0.5-1.6-1.3v-6.4c0-0.9,0.6-1.3,1.6-1.3c1,0,1.6,0.5,1.6,1.3v6.4
		C146.4,563.2,145.8,563.7,144.8,563.7L144.8,563.7z M151.6,556.3l3.5,8.1h1.1v-10.5h-1.1v8.1l-3.5-8.1h-1.1v10.5h1.1V556.3
		L151.6,556.3z"/>
	<path d="M62.9,111.1c-1,0-1.5-0.5-1.5-1.3v-6.4c0-0.9,0.5-1.3,1.5-1.3c1,0,1.5,0.5,1.5,1.3v1.5h1.1v-1.5c0-0.8-0.2-1.2-0.7-1.7
		c-0.5-0.4-1.1-0.6-2-0.6c-0.9,0-1.5,0.2-2,0.6c-0.5,0.4-0.7,0.9-0.7,1.7v6.4c0,0.8,0.2,1.2,0.7,1.7c0.5,0.5,1.1,0.6,2,0.6
		c0.9,0,1.5-0.2,2-0.6s0.7-0.9,0.7-1.7v-0.9h-1.1v0.9C64.4,110.6,63.8,111.1,62.9,111.1L62.9,111.1z M72.3,111.7v-0.9h-2.9v-9.5
		h-1.1v10.4H72.3L72.3,111.7z M75.8,110.8v-8.5h0.9v-0.9h-2.7v0.9h0.9v8.5h-0.9v0.9h2.7v-0.9H75.8L75.8,110.8z M84.1,110.8h-3.6
		v-3.9h2.8V106h-2.8v-3.7H84v-0.9h-4.6v10.4h4.7L84.1,110.8L84.1,110.8z M87.6,103.7l3.5,8.1h1.1v-10.4h-1.1v8.1l-3.5-8.1h-1.1v10.4
		h1.1V103.7L87.6,103.7z M94.3,101.3v0.9h2.1v9.5h1.1v-9.5h2.1v-0.9H94.3L94.3,101.3z M106.4,108.5h1.3c0.9,0,1.5-0.2,1.9-0.6
		c0.5-0.4,0.7-0.9,0.7-1.7v-2.7c0-0.7-0.2-1.2-0.7-1.7c-0.5-0.4-1-0.6-1.9-0.6h-2.5v10.5h1.1V108.5L106.4,108.5z M107.7,107.6h-1.3
		v-5.3h1.3c0.5,0,0.9,0.1,1,0.4c0.3,0.2,0.4,0.6,0.4,0.9v2.7C109.1,107.1,108.7,107.6,107.7,107.6L107.7,107.6L107.7,107.6z
		 M116.9,111.7v-0.9H114v-9.5h-1.1v10.4H116.9L116.9,111.7z M117.9,111.7h1.1l0.6-2.5h3l0.6,2.5h1.1l-2.4-10.5h-1.7L117.9,111.7
		L117.9,111.7z M122.4,108.3h-2.7l1.3-5.9L122.4,108.3L122.4,108.3z M127.7,103.7l3.5,8.1h1.1v-10.4h-1.1v8.1l-3.5-8.1h-1.1v10.4
		h1.1V103.7L127.7,103.7z M136.7,103.7l3.5,8.1h1.1v-10.4h-1.1v8.1l-3.5-8.1h-1.1v10.4h1.1V103.7L136.7,103.7z M146,110.8v-8.5h0.9
		v-0.9h-2.7v0.9h0.8v8.5h-0.8v0.9h2.7v-0.9H146L146,110.8z M150.7,103.7l3.5,8.1h1.1v-10.4h-1.1v8.1l-3.5-8.1h-1.1v10.4h1.1V103.7
		L150.7,103.7z M162.5,107.4v2c0,0.4-0.2,0.7-0.6,1c-0.4,0.4-0.9,0.6-1.2,0.6c-0.5,0-0.8-0.1-0.9-0.4c-0.2-0.2-0.3-0.6-0.3-0.9v-6.4
		c0-0.9,0.5-1.3,1.5-1.3c1,0,1.5,0.5,1.5,1.3v0.9h1.1v-0.9c0-0.8-0.2-1.2-0.7-1.7c-0.5-0.4-1.1-0.6-2-0.6s-1.5,0.2-2,0.6
		c-0.5,0.4-0.7,0.9-0.7,1.7v6.4c0,1.5,0.8,2.3,2.4,2.3c0.5,0,0.9-0.1,1.2-0.4c0.4-0.2,0.7-0.6,0.9-0.9l0.4,1h0.5v-5.3h-2.9v0.9
		L162.5,107.4L162.5,107.4z"/>
	<path class="st2" d="M72.2,442.5c-0.8,0-1.1-0.3-1.1-0.9v-4.9c0-0.7,0.4-0.9,1.1-0.9c0.8,0,1.1,0.3,1.1,0.9v1.1h0.9v-1.1
		c0-0.6-0.2-0.9-0.5-1.2c-0.4-0.3-0.9-0.5-1.5-0.5s-1.1,0.2-1.5,0.5c-0.4,0.3-0.5,0.8-0.5,1.2v4.9c0,0.6,0.2,0.9,0.5,1.2
		c0.4,0.3,0.9,0.5,1.5,0.5s1.1-0.2,1.5-0.5c0.4-0.3,0.5-0.8,0.5-1.2v-0.7h-0.9v0.7C73.3,442.2,72.9,442.5,72.2,442.5L72.2,442.5z
		 M79.8,435.3c-0.4-0.3-0.9-0.5-1.6-0.5s-1.2,0.2-1.6,0.5c-0.4,0.3-0.6,0.8-0.6,1.2v4.9c0,0.6,0.2,0.9,0.6,1.2
		c0.4,0.3,0.9,0.5,1.6,0.5s1.2-0.2,1.6-0.5c0.4-0.3,0.6-0.8,0.6-1.2v-4.9C80.3,436,80.1,435.6,79.8,435.3L79.8,435.3z M78.2,442.5
		c-0.9,0-1.2-0.3-1.2-0.9v-4.9c0-0.7,0.4-0.9,1.2-0.9s1.2,0.3,1.2,0.9v4.9C79.5,442.2,79.1,442.5,78.2,442.5L78.2,442.5z
		 M86.4,440.7c-0.1-0.3-0.3-0.5-0.5-0.8l-2.2-2.1c-0.2-0.2-0.3-0.4-0.4-0.5c-0.1-0.2-0.1-0.4-0.1-0.7c0-0.3,0.1-0.5,0.3-0.7
		c0.2-0.2,0.5-0.3,0.9-0.3s0.7,0.1,0.9,0.3c0.2,0.2,0.3,0.4,0.3,0.7v1.1h0.9v-1c0-1.1-0.7-1.7-2-1.7c-0.7,0-1.2,0.2-1.5,0.5
		c-0.4,0.3-0.5,0.8-0.5,1.2c0,0.4,0,0.7,0.1,0.9c0.1,0.3,0.3,0.5,0.6,0.8l2.2,2.1c0.2,0.2,0.3,0.4,0.4,0.6c0.1,0.2,0.1,0.4,0.1,0.7
		c0,0.3-0.1,0.5-0.3,0.7c-0.2,0.2-0.5,0.3-0.9,0.3c-0.4,0-0.7-0.1-0.9-0.3c-0.2-0.2-0.3-0.4-0.3-0.7v-1.1h-0.9v1
		c0,1.1,0.7,1.7,2.1,1.7c1.4,0,2.1-0.6,2.1-1.7C86.6,441.1,86.5,440.8,86.4,440.7L86.4,440.7z M87.9,435.1v0.8h1.6v7.3h0.9v-7.3H92
		v-0.8H87.9L87.9,435.1z M100,442.4h-2.7v-2.9h2.2v-0.8h-2.2v-2.8h2.7v-0.8h-3.5v8.1h3.6L100,442.4L100,442.4z M105.6,440.7
		c-0.1-0.3-0.3-0.5-0.5-0.8l-2.2-2.1c-0.2-0.2-0.3-0.4-0.4-0.5c-0.1-0.2-0.1-0.4-0.1-0.7c0-0.3,0.1-0.5,0.3-0.7
		c0.2-0.2,0.5-0.3,0.9-0.3s0.7,0.1,0.9,0.3c0.2,0.2,0.3,0.4,0.3,0.7v1.1h0.9v-1c0-1.1-0.7-1.7-2-1.7c-0.7,0-1.2,0.2-1.5,0.5
		c-0.4,0.3-0.5,0.8-0.5,1.2c0,0.4,0,0.7,0.1,0.9c0.1,0.3,0.3,0.5,0.6,0.8l2.2,2.1c0.2,0.2,0.3,0.4,0.4,0.6c0.1,0.2,0.1,0.4,0.1,0.7
		c0,0.3-0.1,0.5-0.3,0.7c-0.2,0.2-0.5,0.3-0.9,0.3c-0.4,0-0.7-0.1-0.9-0.3c-0.2-0.2-0.3-0.4-0.3-0.7v-1.1h-0.9v1
		c0,1.1,0.7,1.7,2.1,1.7c1.4,0,2.1-0.6,2.1-1.7C105.8,441.1,105.7,440.8,105.6,440.7L105.6,440.7z M107.1,435.1v0.8h1.6v7.3h0.9
		v-7.3h1.6v-0.8H107.1L107.1,435.1z M112.1,443h0.9l0.4-1.9h2.4l0.4,1.9h0.9l-1.8-8.1h-1.3L112.1,443L112.1,443z M115.6,440.5h-2
		l1-4.5L115.6,440.5L115.6,440.5z M118.7,443h2c0.7,0,1.1-0.2,1.4-0.5s0.5-0.8,0.5-1.2v-1.1c0-0.8-0.4-1.2-1-1.3
		c0.6-0.2,0.9-0.7,0.9-1.3v-0.8c0-0.6-0.2-0.9-0.5-1.2c-0.4-0.3-0.9-0.5-1.4-0.5h-1.9L118.7,443L118.7,443z M121.6,442.1
		c-0.2,0.2-0.5,0.3-0.9,0.3h-1.1v-3.1h1.1c0.4,0,0.6,0.1,0.8,0.3c0.2,0.2,0.3,0.5,0.3,0.8v1.1C121.8,441.6,121.7,441.9,121.6,442.1
		L121.6,442.1z M121.4,438.3c-0.2,0.2-0.5,0.3-0.9,0.3h-1v-2.7h1c0.4,0,0.6,0.1,0.9,0.3s0.3,0.5,0.3,0.7v0.8
		C121.6,437.8,121.6,438,121.4,438.3L121.4,438.3z M128.1,443v-0.8h-2.3V435H125v8.1H128.1L128.1,443z M130.7,442.4v-6.5h0.7v-0.8
		h-2.1v0.8h0.7v6.5h-0.7v0.8h2.1v-0.8H130.7L130.7,442.4z M137.2,440.7c-0.1-0.3-0.3-0.5-0.5-0.8l-2.2-2.1c-0.2-0.2-0.3-0.4-0.4-0.5
		c-0.1-0.2-0.1-0.4-0.1-0.7c0-0.3,0.1-0.5,0.3-0.7c0.2-0.2,0.5-0.3,0.9-0.3c0.4,0,0.7,0.1,0.9,0.3c0.2,0.2,0.3,0.4,0.3,0.7v1.1h0.9
		v-1c0-1.1-0.7-1.7-2-1.7c-0.7,0-1.2,0.2-1.5,0.5c-0.4,0.3-0.5,0.8-0.5,1.2c0,0.4,0,0.7,0.1,0.9c0.1,0.3,0.3,0.5,0.6,0.8l2.2,2.1
		c0.2,0.2,0.3,0.4,0.4,0.6c0.1,0.2,0.1,0.4,0.1,0.7c0,0.3-0.1,0.5-0.3,0.7c-0.2,0.2-0.5,0.3-0.9,0.3c-0.4,0-0.7-0.1-0.9-0.3
		c-0.2-0.2-0.3-0.4-0.3-0.7v-1.1h-0.9v1c0,1.1,0.7,1.7,2.1,1.7c1.4,0,2.1-0.6,2.1-1.7C137.3,441.1,137.2,440.8,137.2,440.7
		L137.2,440.7z M140.3,439.3h2.5v3.7h0.9V435h-0.9v3.6h-2.5V435h-0.9v8.1h0.9V439.3L140.3,439.3z M149.8,442.4h-2.7v-2.9h2.2v-0.8
		h-2.2v-2.8h2.7v-0.8h-3.5v8.1h3.6L149.8,442.4L149.8,442.4z M155,442.6c0.3-0.3,0.5-0.8,0.5-1.2v-4.6c0-0.6-0.2-0.9-0.5-1.2
		c-0.4-0.3-0.9-0.5-1.4-0.5h-2v8.1h2C154.3,443,154.7,442.9,155,442.6L155,442.6z M154.4,442.1c-0.2,0.2-0.5,0.3-0.9,0.3h-1.1v-6.5
		h1.1c0.4,0,0.6,0.1,0.9,0.3c0.2,0.2,0.3,0.5,0.3,0.7v4.6C154.7,441.6,154.6,441.9,154.4,442.1L154.4,442.1z"/>
	<rect x="1.9" y="450.1" class="st3" width="221.9" height="3.8"/>
	<path class="st3" d="M222.8,524.1H2.8v-1.9h220V524.1z M222.8,356.3H0.9v-1.9h221.9V356.3z M222.8,285.2H0.9v-1.9h221.9V285.2z
		 M222.8,213.6H0.9v-1.9h221.9V213.6z M223,142H1.1v-1.9H223V142z"/>
	<rect y="424.5" class="st3" width="223.8" height="3.8"/>
	<g>
		<g>
			<defs>
				<path id="SVGID_25_" d="M100.5,141c0,6.5,5.3,11.9,11.9,11.9s11.9-5.3,11.9-11.9c0-6.5-5.3-11.9-11.9-11.9
					S100.5,134.5,100.5,141L100.5,141z"/>
			</defs>
			<clipPath id="SVGID_26_">
				<use xlink:href="#SVGID_25_"  style="overflow:visible;"/>
			</clipPath>
			<rect x="95.8" y="124.4" class="st15" width="33.2" height="33.2"/>
		</g>
	</g>
	<path class="st3" d="M112.4,153.8c-7,0-12.8-5.8-12.8-12.8c0-7,5.8-12.8,12.8-12.8s12.8,5.8,12.8,12.8
		C125.2,148.1,119.4,153.8,112.4,153.8z M112.4,130.1c-6,0-10.9,4.9-10.9,10.9c0,6,4.9,10.9,10.9,10.9c6,0,10.9-4.9,10.9-10.9
		C123.3,135.1,118.3,130.1,112.4,130.1z"/>
	<g>
		<g>
			<defs>
				<polyline id="SVGID_27_" points="119.6,138.7 112.8,145.4 106.1,138.7 				"/>
			</defs>
			<clipPath id="SVGID_28_">
				<use xlink:href="#SVGID_27_"  style="overflow:visible;"/>
			</clipPath>
			<polygon class="st16" points="112.8,148.1 104.8,140.1 107.4,137.3 112.8,142.7 118.2,137.3 120.9,140.1 			"/>
		</g>
	</g>
	<g>
		<g>
			<defs>
				<path id="SVGID_29_" d="M100.5,213.1c0,6.5,5.3,11.9,11.9,11.9s11.9-5.3,11.9-11.9c0-6.5-5.3-11.9-11.9-11.9
					S100.5,206.6,100.5,213.1L100.5,213.1z"/>
			</defs>
			<clipPath id="SVGID_30_">
				<use xlink:href="#SVGID_29_"  style="overflow:visible;"/>
			</clipPath>
			<rect x="95.8" y="196.5" class="st17" width="33.2" height="33.2"/>
		</g>
	</g>
	<path class="st3" d="M112.4,225.9c-7,0-12.8-5.8-12.8-12.8c0-7,5.8-12.8,12.8-12.8s12.8,5.8,12.8,12.8
		C125.2,220.1,119.4,225.9,112.4,225.9z M112.4,202.2c-6,0-10.9,4.9-10.9,10.9s4.9,10.9,10.9,10.9c6,0,10.9-4.9,10.9-10.9
		S118.3,202.2,112.4,202.2z"/>
	<g>
		<g>
			<defs>
				<polyline id="SVGID_31_" points="119.6,210.7 112.8,217.5 106.1,210.7 				"/>
			</defs>
			<clipPath id="SVGID_32_">
				<use xlink:href="#SVGID_31_"  style="overflow:visible;"/>
			</clipPath>
			<polygon class="st18" points="112.8,220.1 104.8,212.1 107.4,209.4 112.8,214.8 118.2,209.4 120.9,212.1 			"/>
		</g>
	</g>
	<g>
		<g>
			<defs>
				<path id="SVGID_33_" d="M100.5,284.2c0,6.5,5.3,11.9,11.9,11.9s11.9-5.3,11.9-11.9s-5.3-11.9-11.9-11.9S100.5,277.7,100.5,284.2
					L100.5,284.2z"/>
			</defs>
			<clipPath id="SVGID_34_">
				<use xlink:href="#SVGID_33_"  style="overflow:visible;"/>
			</clipPath>
			<rect x="95.8" y="267.6" class="st19" width="33.2" height="33.2"/>
		</g>
	</g>
	<path class="st3" d="M112.4,297c-7,0-12.8-5.8-12.8-12.8s5.8-12.8,12.8-12.8s12.8,5.8,12.8,12.8S119.4,297,112.4,297z M112.4,273.3
		c-6,0-10.9,4.9-10.9,10.9s4.9,10.9,10.9,10.9c6,0,10.9-4.9,10.9-10.9S118.3,273.3,112.4,273.3z"/>
	<g>
		<g>
			<defs>
				<polyline id="SVGID_35_" points="119.6,281.8 112.8,288.6 106.1,281.8 				"/>
			</defs>
			<clipPath id="SVGID_36_">
				<use xlink:href="#SVGID_35_"  style="overflow:visible;"/>
			</clipPath>
			<polygon class="st20" points="112.8,291.2 104.8,283.3 107.4,280.5 112.8,285.9 118.2,280.5 120.9,283.3 			"/>
		</g>
	</g>
	<g>
		<g>
			<defs>
				<path id="SVGID_37_" d="M100.5,355.3c0,6.5,5.3,11.9,11.9,11.9s11.9-5.3,11.9-11.9c0-6.5-5.3-11.9-11.9-11.9
					S100.5,348.8,100.5,355.3L100.5,355.3z"/>
			</defs>
			<clipPath id="SVGID_38_">
				<use xlink:href="#SVGID_37_"  style="overflow:visible;"/>
			</clipPath>
			<rect x="95.8" y="338.7" class="st21" width="33.2" height="33.2"/>
		</g>
	</g>
	<path class="st3" d="M112.4,368.1c-7,0-12.8-5.8-12.8-12.8c0-7,5.8-12.8,12.8-12.8s12.8,5.8,12.8,12.8
		C125.2,362.3,119.4,368.1,112.4,368.1z M112.4,344.4c-6,0-10.9,4.9-10.9,10.9s4.9,10.9,10.9,10.9c6,0,10.9-4.9,10.9-10.9
		C123.3,349.3,118.3,344.4,112.4,344.4z"/>
	<g>
		<g>
			<defs>
				<polyline id="SVGID_39_" points="119.6,352.9 112.8,359.7 106.1,352.9 				"/>
			</defs>
			<clipPath id="SVGID_40_">
				<use xlink:href="#SVGID_39_"  style="overflow:visible;"/>
			</clipPath>
			<polygon class="st22" points="112.8,362.3 104.8,354.4 107.4,351.6 112.8,357 118.2,351.6 120.9,354.4 			"/>
		</g>
	</g>
	<g>
		<g>
			<defs>
				<path id="SVGID_41_" d="M100.5,523.1c0,6.5,5.3,11.9,11.9,11.9s11.9-5.3,11.9-11.9s-5.3-11.9-11.9-11.9S100.5,516.6,100.5,523.1
					L100.5,523.1z"/>
			</defs>
			<clipPath id="SVGID_42_">
				<use xlink:href="#SVGID_41_"  style="overflow:visible;"/>
			</clipPath>
			<rect x="95.8" y="506.5" class="st23" width="33.2" height="33.2"/>
		</g>
	</g>
	<path class="st3" d="M112.4,535.9c-7,0-12.8-5.8-12.8-12.8s5.8-12.8,12.8-12.8s12.8,5.8,12.8,12.8S119.4,535.9,112.4,535.9z
		 M112.4,512.2c-6,0-10.9,4.9-10.9,10.9s4.9,10.9,10.9,10.9c6,0,10.9-4.9,10.9-10.9S118.3,512.2,112.4,512.2z"/>
	<g>
		<g>
			<defs>
				<polyline id="SVGID_43_" points="119.6,520.8 112.8,527.5 106.1,520.8 				"/>
			</defs>
			<clipPath id="SVGID_44_">
				<use xlink:href="#SVGID_43_"  style="overflow:visible;"/>
			</clipPath>
			<polygon class="st24" points="112.8,530.2 104.8,522.2 107.4,519.4 112.8,524.8 118.2,519.4 120.9,522.2 			"/>
		</g>
	</g>
	<g>
		<path d="M49,8v4h-0.3c-0.1-3.7-3.9-3.7-4.2-3.7h-1.3v13.6c0,1.5,0.7,1.9,1.7,1.9V24h-5.6v-0.3c0.9,0,1.6-0.4,1.6-1.9V8.3h-1.3
			c-0.7,0-4.1,0-4.2,3.7h-0.3V8H49z"/>
		<path d="M64,23.9h-1.7c-2.9,0-2.6,0-3.9-4.9c-0.7-2.4-2.9-2.4-3.5-2.4h-1v5c0,1.6,0.5,2.1,1.4,2.1V24h-5.1v-0.3
			c0.9,0,1.4-0.5,1.4-2.4V10c0-1.4-0.4-1.7-1.4-1.7V8h4.4c4.6,0,7,0.6,7,4.4c0,3.1-1.8,4-4.3,4.2c1.5,0.1,3,0.2,4.3,5.2
			c0.4,1.7,1.8,2,2.5,2V23.9z M54.5,8.3h-0.7v8.1h0.7c2.6,0,4.6,0,4.6-4C59.1,8.2,57,8.3,54.5,8.3z"/>
		<path d="M79.5,23.9h-5.2v-0.3c1.2,0,1-1.3,0.5-2.6l-0.8-2h-5.9c-0.6,1.8-1.6,4.6,1.5,4.6v0.3h-5.1v-0.3c0.9,0,1.4-0.1,3.4-5.4
			l3.8-10.3H72c2.7,6.7,5.6,13.8,5.6,13.8c0.8,1.8,1.2,1.8,1.9,1.8V23.9z M73.9,18.8l-2.9-7.6l-2.7,7.6H73.9z"/>
		<path d="M85.8,23.9h-4.9v-0.3c0.9,0,1.5-0.9,1.5-2.4V10.7c0-1.4-0.6-2.4-1.5-2.4V8h4.9c4.6,0,9,1.4,9,8.1
			C94.8,22.9,90.4,23.9,85.8,23.9z M85.8,8.3h-1v15.5h1c2.5,0,6.3-0.1,6.3-7.7C92.2,8.7,88.4,8.3,85.8,8.3z"/>
		<path d="M103,8v0.3c-0.9,0-1.6,0.4-1.6,1.8v11.5c0,1.5,0.7,2.2,1.6,2.2V24h-5.5v-0.3c0.9,0,1.6-0.6,1.6-2.2V10.1
			c0-1.4-0.6-1.8-1.6-1.8V8H103z"/>
		<path d="M118.4,8v4h-0.3c-0.1-3.7-3.9-3.7-4.2-3.7h-1.3v13.6c0,1.5,0.7,1.9,1.7,1.9V24h-5.6v-0.3c0.9,0,1.6-0.4,1.6-1.9V8.3H109
			c-0.7,0-4.1,0-4.2,3.7h-0.3V8H118.4z"/>
		<path d="M125.6,8v0.3c-0.9,0-1.6,0.4-1.6,1.8v11.5c0,1.5,0.7,2.2,1.6,2.2V24h-5.5v-0.3c0.9,0,1.6-0.6,1.6-2.2V10.1
			c0-1.4-0.6-1.8-1.6-1.8V8H125.6z"/>
		<path d="M135,24.2c-5,0-7.4-3.6-7.4-8.1c0-4.6,2.4-8.3,7.4-8.3c5,0,7.4,3.8,7.4,8.3C142.4,20.6,140,24.2,135,24.2z M135,8
			c-2.7,0-4.7,1.8-4.7,8.1s2.1,7.8,4.7,7.8s4.7-1.5,4.7-7.8C139.8,9.8,137.8,8,135,8z"/>
		<path d="M161.3,8v0.3c-3.3,0-3.2,3.3-3.2,5.4V24h-0.8l-9.7-12.5v6.8c0,2,0,5.4,2.9,5.4V24H144v-0.3c3.3,0,3.3-3.3,3.3-5.4v-7.1
			l-0.9-1.2c-1.4-1.8-2.1-1.7-2.7-1.7V8h4.2l9.9,12.7v-7c0-2.1,0-5.4-2.9-5.4V8L161.3,8L161.3,8z"/>
	</g>
	<g>
		<path d="M176.6,23.9h-5.2v-0.3c1.2,0,1-1.3,0.5-2.6l-0.8-2h-5.9c-0.6,1.8-1.6,4.6,1.5,4.6v0.3h-5.1v-0.3c0.9,0,1.4-0.1,3.4-5.4
			l3.8-10.3h0.3c2.7,6.7,5.6,13.8,5.6,13.8c0.8,1.8,1.2,1.8,1.9,1.8V23.9z M171,18.8l-2.9-7.6l-2.7,7.6H171z"/>
		<path d="M189.6,19v4.9h-11.4v-0.3c0.9,0,1.2-0.9,1.2-2.4V10.2c0-1.4-0.5-1.9-1.4-1.9V8h5.4v0.3c-0.9,0-1.7,0.4-1.7,2v13.4h0.9
			c2.5,0,6.3,0,6.7-4.6L189.6,19L189.6,19z"/>
	</g>
	<g>
		<path d="M90,43.7c0,2.7,0.9,2.8,2.3,2.8v0.3h-6v-0.3c1.1,0,1.5-0.6,1.5-2.7V33.2c0-1.6-0.3-2.2-1.4-2.2v-0.3h4.1
			c4.6,0,7.5,0.6,7.5,4.6s-3,4.6-7.5,4.6h-0.4L90,43.7L90,43.7z M90.5,39.6c2.7,0,5-0.1,5-4.3c0-4.4-2.4-4.3-5-4.3h-0.4v8.5H90.5z"
			/>
		<path d="M112.4,46.7h-5.2v-0.3c1.2,0,1-1.3,0.5-2.6l-0.8-2H101c-0.6,1.8-1.6,4.6,1.5,4.6v0.3h-5.1v-0.3c0.9,0,1.4-0.1,3.4-5.4
			l3.8-10.3h0.3c2.7,6.7,5.6,13.8,5.6,13.8c0.8,1.8,1.2,1.8,1.9,1.8V46.7z M106.8,41.6l-2.9-7.6l-2.7,7.6H106.8z"/>
	</g>
	<g>
		<path d="M125.9,30.7v4h-0.3c-0.1-3.7-3.9-3.7-4.2-3.7h-1.3v13.6c0,1.5,0.7,1.9,1.7,1.9v0.3h-5.6v-0.3c0.9,0,1.6-0.4,1.6-1.9V31
			h-1.3c-0.7,0-4.1,0-4.2,3.7h-0.3v-4H125.9z"/>
		<path d="M138.8,43.7c0,1.9-0.1,2.5,1.1,2.8v0.3h-4v-0.3c0.6-0.2,0.7-0.8,0.7-2.8v-4.4h-6.3v4.4c0,2.3,0,2.6,0.7,2.8v0.3H127v-0.3
			c1.2-0.3,1.1-0.6,1.1-2.8v-9.8c0-2.1,0-2.7-1.1-2.8v-0.3h4.1v0.3c-0.7,0.2-0.7,0.7-0.7,2.8v5h6.3v-5c0-2.2,0-2.7-0.7-2.8v-0.3h4
			v0.3c-1,0.2-1.1,0.7-1.1,2.8V43.7z"/>
	</g>
</g>
</svg>
