<?xml version="1.0" encoding="UTF-8"?>
<svg width="18px" height="18px" viewBox="0 0 18 18" version="1.1" xmlns="http://www.w3.org/2000/svg" xmlns:xlink="http://www.w3.org/1999/xlink">
    <!-- Generator: Sketch 51.3 (57544) - http://www.bohemiancoding.com/sketch -->
    <title></title>
    <desc>Created with Sketch.</desc>
    <defs></defs>
    <g id="Symbols" stroke="none" stroke-width="1" fill="none" fill-rule="evenodd">
        <path d="M11.4285851,8.85713434 C11.4285851,7.28347175 10.1451014,5.99998808 8.57143879,5.99998808 C6.9977762,5.99998808 5.71429253,7.28347175 5.71429253,8.85713434 C5.71429253,10.4307969 6.9977762,11.7142806 8.57143879,11.7142806 C10.1451014,11.7142806 11.4285851,10.4307969 11.4285851,8.85713434 Z M12.9687655,8.85713434 C12.9687655,11.290173 11.0044774,13.254461 8.57143879,13.254461 C6.13840017,13.254461 4.17411212,11.290173 4.17411212,8.85713434 C4.17411212,6.42409573 6.13840017,4.45980767 8.57143879,4.45980767 C11.0044774,4.45980767 12.9687655,6.42409573 12.9687655,8.85713434 Z M14.174124,4.28123603 C14.174124,4.85043314 13.7165342,5.30802297 13.1473371,5.30802297 C12.57814,5.30802297 12.1205502,4.85043314 12.1205502,4.28123603 C12.1205502,3.71203892 12.57814,3.25444909 13.1473371,3.25444909 C13.7165342,3.25444909 14.174124,3.71203892 14.174124,4.28123603 Z M8.57143879,1.82587596 C7.3214373,1.82587596 4.64286268,1.72542941 3.51562919,2.17185852 C3.12500373,2.3281087 2.83482481,2.51784107 2.53348516,2.81918072 C2.23214552,3.12052036 2.04241315,3.41069928 1.88616296,3.80132474 C1.43973386,4.92855823 1.54018041,7.60713285 1.54018041,8.85713434 C1.54018041,10.1071358 1.43973386,12.7857105 1.88616296,13.9129439 C2.04241315,14.3035694 2.23214552,14.5937483 2.53348516,14.895088 C2.83482481,15.1964276 3.12500373,15.38616 3.51562919,15.5424102 C4.64286268,15.9888393 7.3214373,15.8883927 8.57143879,15.8883927 C9.82144028,15.8883927 12.5000149,15.9888393 13.6272484,15.5424102 C14.0178739,15.38616 14.3080528,15.1964276 14.6093924,14.895088 C14.9107321,14.5937483 15.1004644,14.3035694 15.2567146,13.9129439 C15.7031437,12.7857105 15.6026972,10.1071358 15.6026972,8.85713434 C15.6026972,7.60713285 15.7031437,4.92855823 15.2567146,3.80132474 C15.1004644,3.41069928 14.9107321,3.12052036 14.6093924,2.81918072 C14.3080528,2.51784107 14.0178739,2.3281087 13.6272484,2.17185852 C12.5000149,1.72542941 9.82144028,1.82587596 8.57143879,1.82587596 Z M17.1428776,8.85713434 C17.1428776,10.0401715 17.1540383,11.2120479 17.0870739,12.395085 C17.0201096,13.7678545 16.7076092,14.9843738 15.7031437,15.9888393 C14.6986782,16.9933048 13.4821589,17.3058051 12.1093894,17.3727695 C10.9263523,17.4397339 9.75447591,17.4285731 8.57143879,17.4285731 C7.38840166,17.4285731 6.21652527,17.4397339 5.03348814,17.3727695 C3.66071865,17.3058051 2.44419934,16.9933048 1.43973386,15.9888393 C0.435268376,14.9843738 0.122768003,13.7678545 0.055803638,12.395085 C-0.0111607276,11.2120479 0,10.0401715 0,8.85713434 C0,7.67409722 -0.0111607276,6.50222082 0.055803638,5.3191837 C0.122768003,3.9464142 0.435268376,2.7298949 1.43973386,1.72542941 C2.44419934,0.720963929 3.66071865,0.408463556 5.03348814,0.341499191 C6.21652527,0.274534825 7.38840166,0.285695553 8.57143879,0.285695553 C9.75447591,0.285695553 10.9263523,0.274534825 12.1093894,0.341499191 C13.4821589,0.408463556 14.6986782,0.720963929 15.7031437,1.72542941 C16.7076092,2.7298949 17.0201096,3.9464142 17.0870739,5.3191837 C17.1540383,6.50222082 17.1428776,7.67409722 17.1428776,8.85713434 Z" id="" fill="#A3A199"></path>
    </g>
</svg>