<?xml version="1.0" encoding="UTF-8"?>
<svg width="285px" height="168px" viewBox="0 0 285 168" version="1.1" xmlns="http://www.w3.org/2000/svg" xmlns:xlink="http://www.w3.org/1999/xlink">
    <!-- Generator: Sketch 51.2 (57519) - http://www.bohemiancoding.com/sketch -->
    <title>NBC_Horizontal_logo</title>
    <desc>Created with Sketch.</desc>
    <defs></defs>
    <g id="Page-1" stroke="none" stroke-width="1" fill="none" fill-rule="evenodd">
        <g id="NBC_Horizontal_logo" fill-rule="nonzero">
            <path d="M142.420955,21.679 C137.980955,10.618 127.162955,-1.329 106.899955,0.312 C81.090955,3.111 73.045955,27.788 76.946955,42.509 C66.666955,35.565 49.187955,32.511 33.929955,45.549 C14.229955,65.249 24.765955,91.891 35.597955,98.282 C23.662955,97.179 4.798955,105.225 0.625955,126.27 C-3.814045,152.4 16.153955,167.633 35.597955,167.633 L251.197955,167.633 C273.681955,167.633 286.155955,148.23 284.756955,129.93 C282.549955,106.047 260.642955,96.883 248.694955,98.847 C258.678955,93.29 272.012955,67.187 251.735955,46.665 C235.642955,31.393 215.123955,36.95 207.910955,43.611 C211.798955,30.854 205.421955,4.482 179.317955,0.31 C177.514955,0.109 175.777955,2.84217094e-14 174.121955,2.84217094e-14 C154.193955,0.003 145.233955,14.534 142.420955,21.679" id="path70048" fill="#FFFFFF"></path>
            <path d="M37.520955,49.707 C26.138955,59.987 21.993955,83.279 42.513955,96.895 L124.376955,152.923 L84.683955,62.207 C76.366955,40.8 53.613955,36.131 37.520955,49.707" id="path70050" fill="#A8A8A8"></path>
            <path d="M107.987955,5.6 C94.679955,5.87 74.698955,21.679 83.592955,45.818 L124.644955,142.403 L139.068955,40.814 C142.406955,15.571 123.259955,3.918 107.987955,5.6" id="path70052" fill="#8C8C8C"></path>
            <path d="M145.475955,36.939 L153.238955,36.939 C153.238955,36.939 157.383955,36.939 157.946955,38.89 C154.892955,41.379 146.578955,41.69 147.680955,54.983 L160.731955,142.389 L201.502955,45.55 C209.843955,23.928 192.337955,5.87 176.810955,5.318 C176.084955,5.265 175.357955,5.223 174.604955,5.223 C160.665955,5.223 144.695955,15.329 145.475955,36.939" id="path70054" fill="#6D6D6D"></path>
            <path d="M199.862955,63.029 L161.298955,152.657 L243.134955,96.333 C262.000955,82.985 258.958955,61.644 248.397955,51.095 C243.969955,46.13 235.842955,42.295 227.232955,42.295 C217.058955,42.293 206.173955,47.676 199.862955,63.029" id="path70056" fill="#7C7C7C"></path>
            <path d="M233.972955,109.087 L157.116955,162.641 L251.748955,162.641 C271.163955,162.641 283.638955,142.671 278.093955,124.345 C274.379955,112.827 263.386955,103.785 250.630955,103.772 C245.261955,103.773 239.568955,105.387 233.972955,109.087" id="path70058" fill="#8A8A8A"></path>
            <path d="M35.314955,162.641 L128.548955,162.641 L51.675955,109.087 C33.914955,97.703 13.946955,104.364 6.735955,123.254 C0.625955,144.879 15.884955,162.641 35.314955,162.641" id="path70060" fill="#D8D8D8"></path>
        </g>
    </g>
</svg>